<?xml version="1.0" encoding="UTF-8" standalone="no"?>
<!DOCTYPE svg PUBLIC "-//W3C//DTD SVG 1.1//EN"
 "http://www.w3.org/Graphics/SVG/1.1/DTD/svg11.dtd">
<!-- Generated by graphviz version 2.43.0 (0)
 -->
<!-- Title: packages Pages: 1 -->
<svg width="2621pt" height="332pt"
 viewBox="0.00 0.00 2620.50 332.00" xmlns="http://www.w3.org/2000/svg" xmlns:xlink="http://www.w3.org/1999/xlink">
<g id="graph0" class="graph" transform="scale(1 1) rotate(0) translate(4 328)">
<title>packages</title>
<polygon fill="white" stroke="transparent" points="-4,4 -4,-328 2616.5,-328 2616.5,4 -4,4"/>
<!-- robot_sf -->
<g id="node1" class="node">
<title>robot_sf</title>
<polygon fill="#77aadd" stroke="#77aadd" points="74,-36 0,-36 0,0 74,0 74,-36"/>
<text text-anchor="middle" x="37" y="-14.3" font-family="Times,serif" font-size="14.00">robot_sf</text>
</g>
<!-- robot_sf.eval -->
<g id="node2" class="node">
<title>robot_sf.eval</title>
<polygon fill="#77aadd" stroke="#77aadd" points="222.5,-108 115.5,-108 115.5,-72 222.5,-72 222.5,-108"/>
<text text-anchor="middle" x="169" y="-86.3" font-family="Times,serif" font-size="14.00">robot_sf.eval</text>
</g>
<!-- robot_sf.feature_extractor -->
<g id="node3" class="node">
<title>robot_sf.feature_extractor</title>
<polygon fill="#77aadd" stroke="#77aadd" points="495.5,-36 292.5,-36 292.5,0 495.5,0 495.5,-36"/>
<text text-anchor="middle" x="394" y="-14.3" font-family="Times,serif" font-size="14.00">robot_sf.feature_extractor</text>
</g>
<!-- robot_sf.nav -->
<g id="node4" class="node">
<title>robot_sf.nav</title>
<polygon fill="#99ddff" stroke="#99ddff" points="676,-36 572,-36 572,0 676,0 676,-36"/>
<text text-anchor="middle" x="624" y="-14.3" font-family="Times,serif" font-size="14.00">robot_sf.nav</text>
</g>
<!-- robot_sf.nav.map_config -->
<g id="node5" class="node">
<title>robot_sf.nav.map_config</title>
<polygon fill="#99ddff" stroke="#99ddff" points="933,-324 747,-324 747,-288 933,-288 933,-324"/>
<text text-anchor="middle" x="840" y="-302.3" font-family="Times,serif" font-size="14.00">robot_sf.nav.map_config</text>
</g>
<!-- robot_sf.nav.navigation -->
<g id="node6" class="node">
<title>robot_sf.nav.navigation</title>
<polygon fill="#99ddff" stroke="#99ddff" points="901.5,-252 720.5,-252 720.5,-216 901.5,-216 901.5,-252"/>
<text text-anchor="middle" x="811" y="-230.3" font-family="Times,serif" font-size="14.00">robot_sf.nav.navigation</text>
</g>
<!-- robot_sf.nav.navigation&#45;&gt;robot_sf.nav.map_config -->
<g id="edge1" class="edge">
<title>robot_sf.nav.navigation&#45;&gt;robot_sf.nav.map_config</title>
<path fill="none" stroke="black" d="M818.17,-252.3C821.43,-260.19 825.37,-269.7 829,-278.45"/>
<polygon fill="black" stroke="black" points="832.91,-287.9 824.93,-280.38 831,-283.28 829.09,-278.66 829.09,-278.66 829.09,-278.66 831,-283.28 833.24,-276.93 832.91,-287.9 832.91,-287.9"/>
</g>
<!-- robot_sf.ped_npc.ped_zone -->
<g id="node13" class="node">
<title>robot_sf.ped_npc.ped_zone</title>
<polygon fill="#44bb99" stroke="#44bb99" points="728.5,-324 521.5,-324 521.5,-288 728.5,-288 728.5,-324"/>
<text text-anchor="middle" x="625" y="-302.3" font-family="Times,serif" font-size="14.00">robot_sf.ped_npc.ped_zone</text>
</g>
<!-- robot_sf.nav.navigation&#45;&gt;robot_sf.ped_npc.ped_zone -->
<g id="edge2" class="edge">
<title>robot_sf.nav.navigation&#45;&gt;robot_sf.ped_npc.ped_zone</title>
<path fill="none" stroke="black" d="M765.5,-252.12C739.62,-261.86 707.03,-274.13 679.76,-284.39"/>
<polygon fill="black" stroke="black" points="670.35,-287.93 678.13,-280.2 675.03,-286.17 679.71,-284.41 679.71,-284.41 679.71,-284.41 675.03,-286.17 681.3,-288.62 670.35,-287.93 670.35,-287.93"/>
</g>
<!-- robot_sf.nav.occupancy -->
<g id="node7" class="node">
<title>robot_sf.nav.occupancy</title>
<polygon fill="#99ddff" stroke="#99ddff" points="2111,-252 1931,-252 1931,-216 2111,-216 2111,-252"/>
<text text-anchor="middle" x="2021" y="-230.3" font-family="Times,serif" font-size="14.00">robot_sf.nav.occupancy</text>
</g>
<!-- robot_sf.ped_npc -->
<g id="node8" class="node">
<title>robot_sf.ped_npc</title>
<polygon fill="#44bb99" stroke="#44bb99" points="1760.5,-36 1623.5,-36 1623.5,0 1760.5,0 1760.5,-36"/>
<text text-anchor="middle" x="1692" y="-14.3" font-family="Times,serif" font-size="14.00">robot_sf.ped_npc</text>
</g>
<!-- robot_sf.ped_npc.ped_behavior -->
<g id="node9" class="node">
<title>robot_sf.ped_npc.ped_behavior</title>
<polygon fill="#44bb99" stroke="#44bb99" points="783,-180 547,-180 547,-144 783,-144 783,-180"/>
<text text-anchor="middle" x="665" y="-158.3" font-family="Times,serif" font-size="14.00">robot_sf.ped_npc.ped_behavior</text>
</g>
<!-- robot_sf.ped_npc.ped_behavior&#45;&gt;robot_sf.nav.map_config -->
<g id="edge3" class="edge">
<title>robot_sf.ped_npc.ped_behavior&#45;&gt;robot_sf.nav.map_config</title>
<path fill="none" stroke="black" d="M669.93,-180.32C676.38,-200.1 689.46,-232.26 711,-252 726.12,-265.85 745.35,-276.34 764.32,-284.17"/>
<polygon fill="black" stroke="black" points="773.9,-287.92 762.94,-288.47 769.24,-286.1 764.58,-284.28 764.58,-284.28 764.58,-284.28 769.24,-286.1 766.22,-280.09 773.9,-287.92 773.9,-287.92"/>
</g>
<!-- robot_sf.ped_npc.ped_behavior&#45;&gt;robot_sf.nav.navigation -->
<g id="edge4" class="edge">
<title>robot_sf.ped_npc.ped_behavior&#45;&gt;robot_sf.nav.navigation</title>
<path fill="none" stroke="black" d="M700.72,-180.12C720.5,-189.61 745.27,-201.49 766.33,-211.58"/>
<polygon fill="black" stroke="black" points="775.4,-215.93 764.44,-215.67 770.89,-213.77 766.38,-211.61 766.38,-211.61 766.38,-211.61 770.89,-213.77 768.33,-207.55 775.4,-215.93 775.4,-215.93"/>
</g>
<!-- robot_sf.ped_npc.ped_grouping -->
<g id="node10" class="node">
<title>robot_sf.ped_npc.ped_grouping</title>
<polygon fill="#44bb99" stroke="#44bb99" points="625.5,-252 386.5,-252 386.5,-216 625.5,-216 625.5,-252"/>
<text text-anchor="middle" x="506" y="-230.3" font-family="Times,serif" font-size="14.00">robot_sf.ped_npc.ped_grouping</text>
</g>
<!-- robot_sf.ped_npc.ped_behavior&#45;&gt;robot_sf.ped_npc.ped_grouping -->
<g id="edge5" class="edge">
<title>robot_sf.ped_npc.ped_behavior&#45;&gt;robot_sf.ped_npc.ped_grouping</title>
<path fill="none" stroke="black" d="M626.1,-180.12C604.37,-189.69 577.1,-201.7 554.04,-211.85"/>
<polygon fill="black" stroke="black" points="544.77,-215.93 552.11,-207.78 549.35,-213.92 553.92,-211.9 553.92,-211.9 553.92,-211.9 549.35,-213.92 555.73,-216.02 544.77,-215.93 544.77,-215.93"/>
</g>
<!-- robot_sf.ped_npc.ped_behavior&#45;&gt;robot_sf.ped_npc.ped_zone -->
<g id="edge6" class="edge">
<title>robot_sf.ped_npc.ped_behavior&#45;&gt;robot_sf.ped_npc.ped_zone</title>
<path fill="none" stroke="black" d="M660.18,-180.13C653.33,-204.44 640.72,-249.18 632.61,-277.99"/>
<polygon fill="black" stroke="black" points="629.84,-287.81 628.22,-276.97 631.2,-283 632.55,-278.19 632.55,-278.19 632.55,-278.19 631.2,-283 636.88,-279.41 629.84,-287.81 629.84,-287.81"/>
</g>
<!-- robot_sf.ped_npc.ped_population -->
<g id="node11" class="node">
<title>robot_sf.ped_npc.ped_population</title>
<polygon fill="#44bb99" stroke="#44bb99" points="491,-108 241,-108 241,-72 491,-72 491,-108"/>
<text text-anchor="middle" x="366" y="-86.3" font-family="Times,serif" font-size="14.00">robot_sf.ped_npc.ped_population</text>
</g>
<!-- robot_sf.ped_npc.ped_population&#45;&gt;robot_sf.nav.map_config -->
<g id="edge7" class="edge">
<title>robot_sf.ped_npc.ped_population&#45;&gt;robot_sf.nav.map_config</title>
<path fill="none" stroke="black" d="M360.9,-108.14C352.29,-141.01 339.27,-213.07 377,-252 430.93,-307.65 641.3,-279.66 736.62,-288.23"/>
<polygon fill="black" stroke="black" points="746.84,-289.35 736.41,-292.73 741.87,-288.8 736.9,-288.26 736.9,-288.26 736.9,-288.26 741.87,-288.8 737.39,-283.78 746.84,-289.35 746.84,-289.35"/>
</g>
<!-- robot_sf.ped_npc.ped_population&#45;&gt;robot_sf.ped_npc.ped_behavior -->
<g id="edge8" class="edge">
<title>robot_sf.ped_npc.ped_population&#45;&gt;robot_sf.ped_npc.ped_behavior</title>
<path fill="none" stroke="black" d="M438.76,-108.03C482.16,-118.2 537.4,-131.13 582.43,-141.67"/>
<polygon fill="black" stroke="black" points="592.17,-143.95 581.41,-146.05 587.3,-142.81 582.44,-141.67 582.44,-141.67 582.44,-141.67 587.3,-142.81 583.46,-137.29 592.17,-143.95 592.17,-143.95"/>
</g>
<!-- robot_sf.ped_npc.ped_population&#45;&gt;robot_sf.ped_npc.ped_grouping -->
<g id="edge9" class="edge">
<title>robot_sf.ped_npc.ped_population&#45;&gt;robot_sf.ped_npc.ped_grouping</title>
<path fill="none" stroke="black" d="M382.89,-108.13C407.59,-133.18 453.7,-179.95 481.94,-208.59"/>
<polygon fill="black" stroke="black" points="489.05,-215.81 478.83,-211.85 485.54,-212.25 482.03,-208.69 482.03,-208.69 482.03,-208.69 485.54,-212.25 485.24,-205.53 489.05,-215.81 489.05,-215.81"/>
</g>
<!-- robot_sf.ped_npc.ped_population&#45;&gt;robot_sf.ped_npc.ped_zone -->
<g id="edge10" class="edge">
<title>robot_sf.ped_npc.ped_population&#45;&gt;robot_sf.ped_npc.ped_zone</title>
<path fill="none" stroke="black" d="M356.08,-108.34C339.09,-140.59 309.43,-210.3 344,-252 365.48,-277.91 443.03,-291.24 511.23,-298.05"/>
<polygon fill="black" stroke="black" points="521.21,-299.01 510.83,-302.53 516.24,-298.53 511.26,-298.05 511.26,-298.05 511.26,-298.05 516.24,-298.53 511.69,-293.57 521.21,-299.01 521.21,-299.01"/>
</g>
<!-- robot_sf.ped_npc.ped_robot_force -->
<g id="node12" class="node">
<title>robot_sf.ped_npc.ped_robot_force</title>
<polygon fill="#44bb99" stroke="#44bb99" points="1132.5,-108 877.5,-108 877.5,-72 1132.5,-72 1132.5,-108"/>
<text text-anchor="middle" x="1005" y="-86.3" font-family="Times,serif" font-size="14.00">robot_sf.ped_npc.ped_robot_force</text>
</g>
<!-- robot_sf.robot -->
<g id="node14" class="node">
<title>robot_sf.robot</title>
<polygon fill="#bbcc33" stroke="#bbcc33" points="1895,-36 1779,-36 1779,0 1895,0 1895,-36"/>
<text text-anchor="middle" x="1837" y="-14.3" font-family="Times,serif" font-size="14.00">robot_sf.robot</text>
</g>
<!-- robot_sf.robot.bicycle_drive -->
<g id="node15" class="node">
<title>robot_sf.robot.bicycle_drive</title>
<polygon fill="#bbcc33" stroke="#bbcc33" points="1626,-108 1412,-108 1412,-72 1626,-72 1626,-108"/>
<text text-anchor="middle" x="1519" y="-86.3" font-family="Times,serif" font-size="14.00">robot_sf.robot.bicycle_drive</text>
</g>
<!-- robot_sf.robot.differential_drive -->
<g id="node16" class="node">
<title>robot_sf.robot.differential_drive</title>
<polygon fill="#bbcc33" stroke="#bbcc33" points="1393.5,-108 1150.5,-108 1150.5,-72 1393.5,-72 1393.5,-108"/>
<text text-anchor="middle" x="1272" y="-86.3" font-family="Times,serif" font-size="14.00">robot_sf.robot.differential_drive</text>
</g>
<!-- robot_sf.robot.robot_state -->
<g id="node17" class="node">
<title>robot_sf.robot.robot_state</title>
<polygon fill="#bbcc33" stroke="#bbcc33" points="1893,-180 1691,-180 1691,-144 1893,-144 1893,-180"/>
<text text-anchor="middle" x="1792" y="-158.3" font-family="Times,serif" font-size="14.00">robot_sf.robot.robot_state</text>
</g>
<!-- robot_sf.robot.robot_state&#45;&gt;robot_sf.nav.navigation -->
<g id="edge11" class="edge">
<title>robot_sf.robot.robot_state&#45;&gt;robot_sf.nav.navigation</title>
<path fill="none" stroke="black" d="M1690.71,-170.23C1502.28,-183.67 1099.96,-212.38 911.86,-225.8"/>
<polygon fill="black" stroke="black" points="901.7,-226.53 911.35,-221.33 906.68,-226.17 911.67,-225.82 911.67,-225.82 911.67,-225.82 906.68,-226.17 911.99,-230.31 901.7,-226.53 901.7,-226.53"/>
</g>
<!-- robot_sf.robot.robot_state&#45;&gt;robot_sf.nav.occupancy -->
<g id="edge12" class="edge">
<title>robot_sf.robot.robot_state&#45;&gt;robot_sf.nav.occupancy</title>
<path fill="none" stroke="black" d="M1847.73,-180.03C1880.14,-189.94 1921.18,-202.49 1955.18,-212.88"/>
<polygon fill="black" stroke="black" points="1965.02,-215.89 1954.14,-217.27 1960.24,-214.43 1955.46,-212.97 1955.46,-212.97 1955.46,-212.97 1960.24,-214.43 1956.78,-208.66 1965.02,-215.89 1965.02,-215.89"/>
</g>
<!-- robot_sf.sensor.sensor_fusion -->
<g id="node21" class="node">
<title>robot_sf.sensor.sensor_fusion</title>
<polygon fill="#aaaa00" stroke="#aaaa00" points="1908,-252 1682,-252 1682,-216 1908,-216 1908,-252"/>
<text text-anchor="middle" x="1795" y="-230.3" font-family="Times,serif" font-size="14.00">robot_sf.sensor.sensor_fusion</text>
</g>
<!-- robot_sf.robot.robot_state&#45;&gt;robot_sf.sensor.sensor_fusion -->
<g id="edge13" class="edge">
<title>robot_sf.robot.robot_state&#45;&gt;robot_sf.sensor.sensor_fusion</title>
<path fill="none" stroke="black" d="M1792.74,-180.3C1793.07,-188.02 1793.47,-197.29 1793.84,-205.89"/>
<polygon fill="black" stroke="black" points="1794.27,-215.9 1789.34,-206.1 1794.05,-210.9 1793.84,-205.9 1793.84,-205.9 1793.84,-205.9 1794.05,-210.9 1798.33,-205.71 1794.27,-215.9 1794.27,-215.9"/>
</g>
<!-- robot_sf.sensor -->
<g id="node18" class="node">
<title>robot_sf.sensor</title>
<polygon fill="#aaaa00" stroke="#aaaa00" points="2038.5,-36 1913.5,-36 1913.5,0 2038.5,0 2038.5,-36"/>
<text text-anchor="middle" x="1976" y="-14.3" font-family="Times,serif" font-size="14.00">robot_sf.sensor</text>
</g>
<!-- robot_sf.sensor.goal_sensor -->
<g id="node19" class="node">
<title>robot_sf.sensor.goal_sensor</title>
<polygon fill="#aaaa00" stroke="#aaaa00" points="2269,-36 2057,-36 2057,0 2269,0 2269,-36"/>
<text text-anchor="middle" x="2163" y="-14.3" font-family="Times,serif" font-size="14.00">robot_sf.sensor.goal_sensor</text>
</g>
<!-- robot_sf.sensor.range_sensor -->
<g id="node20" class="node">
<title>robot_sf.sensor.range_sensor</title>
<polygon fill="#aaaa00" stroke="#aaaa00" points="2135,-180 1911,-180 1911,-144 2135,-144 2135,-180"/>
<text text-anchor="middle" x="2023" y="-158.3" font-family="Times,serif" font-size="14.00">robot_sf.sensor.range_sensor</text>
</g>
<!-- robot_sf.sensor.range_sensor&#45;&gt;robot_sf.nav.occupancy -->
<g id="edge14" class="edge">
<title>robot_sf.sensor.range_sensor&#45;&gt;robot_sf.nav.occupancy</title>
<path fill="none" stroke="black" d="M2022.51,-180.3C2022.29,-188.02 2022.02,-197.29 2021.77,-205.89"/>
<polygon fill="black" stroke="black" points="2021.49,-215.9 2017.28,-205.77 2021.63,-210.9 2021.77,-205.9 2021.77,-205.9 2021.77,-205.9 2021.63,-210.9 2026.27,-206.03 2021.49,-215.9 2021.49,-215.9"/>
</g>
<!-- robot_sf.sim -->
<g id="node22" class="node">
<title>robot_sf.sim</title>
<polygon fill="#eedd88" stroke="#eedd88" points="2391,-36 2287,-36 2287,0 2391,0 2391,-36"/>
<text text-anchor="middle" x="2339" y="-14.3" font-family="Times,serif" font-size="14.00">robot_sf.sim</text>
</g>
<!-- robot_sf.sim.sim_config -->
<g id="node23" class="node">
<title>robot_sf.sim.sim_config</title>
<polygon fill="#eedd88" stroke="#eedd88" points="1100.5,-36 917.5,-36 917.5,0 1100.5,0 1100.5,-36"/>
<text text-anchor="middle" x="1009" y="-14.3" font-family="Times,serif" font-size="14.00">robot_sf.sim.sim_config</text>
</g>
<!-- robot_sf.sim.sim_config&#45;&gt;robot_sf.ped_npc.ped_robot_force -->
<g id="edge15" class="edge">
<title>robot_sf.sim.sim_config&#45;&gt;robot_sf.ped_npc.ped_robot_force</title>
<path fill="none" stroke="black" d="M1008.01,-36.3C1007.57,-44.02 1007.04,-53.29 1006.55,-61.89"/>
<polygon fill="black" stroke="black" points="1005.98,-71.9 1002.06,-61.66 1006.26,-66.9 1006.55,-61.91 1006.55,-61.91 1006.55,-61.91 1006.26,-66.9 1011.04,-62.17 1005.98,-71.9 1005.98,-71.9"/>
</g>
<!-- robot_sf.sim.sim_view -->
<g id="node24" class="node">
<title>robot_sf.sim.sim_view</title>
<polygon fill="#eedd88" stroke="#eedd88" points="1605.5,-36 1432.5,-36 1432.5,0 1605.5,0 1605.5,-36"/>
<text text-anchor="middle" x="1519" y="-14.3" font-family="Times,serif" font-size="14.00">robot_sf.sim.sim_view</text>
</g>
<!-- robot_sf.sim.sim_view&#45;&gt;robot_sf.nav.map_config -->
<g id="edge16" class="edge">
<title>robot_sf.sim.sim_view&#45;&gt;robot_sf.nav.map_config</title>
<path fill="none" stroke="black" d="M1589.09,-36.07C1607.08,-43.96 1624.35,-55.42 1635,-72 1643.65,-85.46 1644.86,-95.4 1635,-108 1550.11,-216.49 1138.31,-273.61 943.08,-294.97"/>
<polygon fill="black" stroke="black" points="933.1,-296.05 942.56,-290.5 938.07,-295.51 943.04,-294.97 943.04,-294.97 943.04,-294.97 938.07,-295.51 943.53,-299.44 933.1,-296.05 933.1,-296.05"/>
</g>
<!-- robot_sf.sim.sim_view&#45;&gt;robot_sf.robot.bicycle_drive -->
<g id="edge17" class="edge">
<title>robot_sf.sim.sim_view&#45;&gt;robot_sf.robot.bicycle_drive</title>
<path fill="none" stroke="black" d="M1519,-36.3C1519,-44.02 1519,-53.29 1519,-61.89"/>
<polygon fill="black" stroke="black" points="1519,-71.9 1514.5,-61.9 1519,-66.9 1519,-61.9 1519,-61.9 1519,-61.9 1519,-66.9 1523.5,-61.9 1519,-71.9 1519,-71.9"/>
</g>
<!-- robot_sf.sim.sim_view&#45;&gt;robot_sf.robot.differential_drive -->
<g id="edge18" class="edge">
<title>robot_sf.sim.sim_view&#45;&gt;robot_sf.robot.differential_drive</title>
<path fill="none" stroke="black" d="M1458.89,-36.03C1423.63,-46.03 1378.91,-58.7 1342.06,-69.15"/>
<polygon fill="black" stroke="black" points="1332.38,-71.89 1340.77,-64.83 1337.19,-70.53 1342,-69.16 1342,-69.16 1342,-69.16 1337.19,-70.53 1343.22,-73.49 1332.38,-71.89 1332.38,-71.89"/>
</g>
<!-- robot_sf.sim.simulator -->
<g id="node25" class="node">
<title>robot_sf.sim.simulator</title>
<polygon fill="#eedd88" stroke="#eedd88" points="899,-36 723,-36 723,0 899,0 899,-36"/>
<text text-anchor="middle" x="811" y="-14.3" font-family="Times,serif" font-size="14.00">robot_sf.sim.simulator</text>
</g>
<!-- robot_sf.sim.simulator&#45;&gt;robot_sf.nav.map_config -->
<g id="edge19" class="edge">
<title>robot_sf.sim.simulator&#45;&gt;robot_sf.nav.map_config</title>
<path fill="none" stroke="black" d="M823.11,-36.12C845.59,-69.04 893,-144.3 910,-216 913.69,-231.57 917.12,-237.67 910,-252 904,-264.07 893.79,-274.13 882.99,-282.12"/>
<polygon fill="black" stroke="black" points="874.68,-287.83 880.38,-278.46 878.8,-285 882.92,-282.17 882.92,-282.17 882.92,-282.17 878.8,-285 885.47,-285.88 874.68,-287.83 874.68,-287.83"/>
</g>
<!-- robot_sf.sim.simulator&#45;&gt;robot_sf.nav.navigation -->
<g id="edge20" class="edge">
<title>robot_sf.sim.simulator&#45;&gt;robot_sf.nav.navigation</title>
<path fill="none" stroke="black" d="M811,-36.15C811,-73.17 811,-160.82 811,-205.61"/>
<polygon fill="black" stroke="black" points="811,-215.77 806.5,-205.77 811,-210.77 811,-205.77 811,-205.77 811,-205.77 811,-210.77 815.5,-205.77 811,-215.77 811,-215.77"/>
</g>
<!-- robot_sf.sim.simulator&#45;&gt;robot_sf.ped_npc.ped_behavior -->
<g id="edge21" class="edge">
<title>robot_sf.sim.simulator&#45;&gt;robot_sf.ped_npc.ped_behavior</title>
<path fill="none" stroke="black" d="M793.39,-36.13C767.63,-61.18 719.55,-107.95 690.09,-136.59"/>
<polygon fill="black" stroke="black" points="682.67,-143.81 686.7,-133.61 686.26,-140.32 689.84,-136.84 689.84,-136.84 689.84,-136.84 686.26,-140.32 692.98,-140.06 682.67,-143.81 682.67,-143.81"/>
</g>
<!-- robot_sf.sim.simulator&#45;&gt;robot_sf.ped_npc.ped_grouping -->
<g id="edge22" class="edge">
<title>robot_sf.sim.simulator&#45;&gt;robot_sf.ped_npc.ped_grouping</title>
<path fill="none" stroke="black" d="M736.26,-36.02C675.26,-53.52 590.83,-86.53 538,-144 522.25,-161.14 514.13,-186.58 510.02,-205.88"/>
<polygon fill="black" stroke="black" points="508.13,-215.88 505.57,-205.22 509.06,-210.97 509.99,-206.05 509.99,-206.05 509.99,-206.05 509.06,-210.97 514.41,-206.89 508.13,-215.88 508.13,-215.88"/>
</g>
<!-- robot_sf.sim.simulator&#45;&gt;robot_sf.ped_npc.ped_population -->
<g id="edge23" class="edge">
<title>robot_sf.sim.simulator&#45;&gt;robot_sf.ped_npc.ped_population</title>
<path fill="none" stroke="black" d="M722.82,-32.87C654.55,-43.61 559.34,-58.59 484.43,-70.37"/>
<polygon fill="black" stroke="black" points="474.47,-71.94 483.65,-65.94 479.41,-71.16 484.35,-70.38 484.35,-70.38 484.35,-70.38 479.41,-71.16 485.05,-74.83 474.47,-71.94 474.47,-71.94"/>
</g>
<!-- robot_sf.sim.simulator&#45;&gt;robot_sf.ped_npc.ped_robot_force -->
<g id="edge24" class="edge">
<title>robot_sf.sim.simulator&#45;&gt;robot_sf.ped_npc.ped_robot_force</title>
<path fill="none" stroke="black" d="M858.46,-36.12C885.57,-45.91 919.74,-58.23 948.26,-68.53"/>
<polygon fill="black" stroke="black" points="957.7,-71.93 946.76,-72.77 952.99,-70.23 948.29,-68.54 948.29,-68.54 948.29,-68.54 952.99,-70.23 949.82,-64.3 957.7,-71.93 957.7,-71.93"/>
</g>
<!-- robot_sf.sim.simulator&#45;&gt;robot_sf.robot.bicycle_drive -->
<g id="edge25" class="edge">
<title>robot_sf.sim.simulator&#45;&gt;robot_sf.robot.bicycle_drive</title>
<path fill="none" stroke="black" d="M899.23,-34.85C902.19,-35.26 905.12,-35.64 908,-36 1123.27,-62.64 1181.46,-48.58 1401.98,-72.06"/>
<polygon fill="black" stroke="black" points="1411.92,-73.13 1401.5,-76.53 1406.95,-72.59 1401.98,-72.06 1401.98,-72.06 1401.98,-72.06 1406.95,-72.59 1402.46,-67.58 1411.92,-73.13 1411.92,-73.13"/>
</g>
<!-- robot_sf.sim.simulator&#45;&gt;robot_sf.robot.differential_drive -->
<g id="edge26" class="edge">
<title>robot_sf.sim.simulator&#45;&gt;robot_sf.robot.differential_drive</title>
<path fill="none" stroke="black" d="M899.01,-34.54C902.04,-35.04 905.05,-35.53 908,-36 984.78,-48.31 1070.86,-60.9 1140.04,-70.72"/>
<polygon fill="black" stroke="black" points="1150.12,-72.15 1139.59,-75.2 1145.17,-71.45 1140.22,-70.75 1140.22,-70.75 1140.22,-70.75 1145.17,-71.45 1140.85,-66.29 1150.12,-72.15 1150.12,-72.15"/>
</g>
<!-- robot_sf.simple_robot_env -->
<g id="node26" class="node">
<title>robot_sf.simple_robot_env</title>
<polygon fill="#77aadd" stroke="#77aadd" points="2612.5,-36 2409.5,-36 2409.5,0 2612.5,0 2612.5,-36"/>
<text text-anchor="middle" x="2511" y="-14.3" font-family="Times,serif" font-size="14.00">robot_sf.simple_robot_env</text>
</g>
<!-- robot_sf.tb_logging -->
<g id="node27" class="node">
<title>robot_sf.tb_logging</title>
<polygon fill="#77aadd" stroke="#77aadd" points="245.5,-36 92.5,-36 92.5,0 245.5,0 245.5,-36"/>
<text text-anchor="middle" x="169" y="-14.3" font-family="Times,serif" font-size="14.00">robot_sf.tb_logging</text>
</g>
<!-- robot_sf.tb_logging&#45;&gt;robot_sf.eval -->
<g id="edge27" class="edge">
<title>robot_sf.tb_logging&#45;&gt;robot_sf.eval</title>
<path fill="none" stroke="black" d="M169,-36.3C169,-44.02 169,-53.29 169,-61.89"/>
<polygon fill="black" stroke="black" points="169,-71.9 164.5,-61.9 169,-66.9 169,-61.9 169,-61.9 169,-61.9 169,-66.9 173.5,-61.9 169,-71.9 169,-71.9"/>
</g>
</g>
</svg>
