<?xml version="1.0" encoding="UTF-8" standalone="no"?>
<!DOCTYPE svg PUBLIC "-//W3C//DTD SVG 1.1//EN"
 "http://www.w3.org/Graphics/SVG/1.1/DTD/svg11.dtd">
<!-- Generated by graphviz version 2.43.0 (0)
 -->
<!-- Title: packages Pages: 1 -->
<svg width="2908pt" height="476pt"
 viewBox="0.00 0.00 2907.50 476.00" xmlns="http://www.w3.org/2000/svg" xmlns:xlink="http://www.w3.org/1999/xlink">
<g id="graph0" class="graph" transform="scale(1 1) rotate(0) translate(4 472)">
<title>packages</title>
<polygon fill="white" stroke="transparent" points="-4,4 -4,-472 2903.5,-472 2903.5,4 -4,4"/>
<!-- robot_sf -->
<g id="node1" class="node">
<title>robot_sf</title>
<polygon fill="#77aadd" stroke="#77aadd" points="515.5,-36 441.5,-36 441.5,0 515.5,0 515.5,-36"/>
<text text-anchor="middle" x="478.5" y="-14.3" font-family="Times,serif" font-size="14.00">robot_sf</text>
</g>
<!-- robot_sf.eval -->
<g id="node2" class="node">
<title>robot_sf.eval</title>
<polygon fill="#77aadd" stroke="#77aadd" points="664,-108 557,-108 557,-72 664,-72 664,-108"/>
<text text-anchor="middle" x="610.5" y="-86.3" font-family="Times,serif" font-size="14.00">robot_sf.eval</text>
</g>
<!-- robot_sf.feature_extractor -->
<g id="node3" class="node">
<title>robot_sf.feature_extractor</title>
<polygon fill="#77aadd" stroke="#77aadd" points="203,-180 0,-180 0,-144 203,-144 203,-180"/>
<text text-anchor="middle" x="101.5" y="-158.3" font-family="Times,serif" font-size="14.00">robot_sf.feature_extractor</text>
</g>
<!-- robot_sf.sensor.sensor_fusion -->
<g id="node24" class="node">
<title>robot_sf.sensor.sensor_fusion</title>
<polygon fill="#aaaa00" stroke="#aaaa00" points="294.5,-252 68.5,-252 68.5,-216 294.5,-216 294.5,-252"/>
<text text-anchor="middle" x="181.5" y="-230.3" font-family="Times,serif" font-size="14.00">robot_sf.sensor.sensor_fusion</text>
</g>
<!-- robot_sf.feature_extractor&#45;&gt;robot_sf.sensor.sensor_fusion -->
<g id="edge1" class="edge">
<title>robot_sf.feature_extractor&#45;&gt;robot_sf.sensor.sensor_fusion</title>
<path fill="none" stroke="black" d="M121.28,-180.3C131.25,-189.03 143.51,-199.76 154.36,-209.25"/>
<polygon fill="black" stroke="black" points="161.95,-215.9 151.46,-212.7 158.19,-212.6 154.43,-209.31 154.43,-209.31 154.43,-209.31 158.19,-212.6 157.39,-205.92 161.95,-215.9 161.95,-215.9"/>
</g>
<!-- robot_sf.nav -->
<g id="node4" class="node">
<title>robot_sf.nav</title>
<polygon fill="#99ddff" stroke="#99ddff" points="2113.5,-36 2009.5,-36 2009.5,0 2113.5,0 2113.5,-36"/>
<text text-anchor="middle" x="2061.5" y="-14.3" font-family="Times,serif" font-size="14.00">robot_sf.nav</text>
</g>
<!-- robot_sf.nav.gloabal_route -->
<g id="node5" class="node">
<title>robot_sf.nav.gloabal_route</title>
<polygon fill="#99ddff" stroke="#99ddff" points="1268,-396 1065,-396 1065,-360 1268,-360 1268,-396"/>
<text text-anchor="middle" x="1166.5" y="-374.3" font-family="Times,serif" font-size="14.00">robot_sf.nav.gloabal_route</text>
</g>
<!-- robot_sf.nav.nav_types -->
<g id="node7" class="node">
<title>robot_sf.nav.nav_types</title>
<polygon fill="#99ddff" stroke="#99ddff" points="1053,-468 876,-468 876,-432 1053,-432 1053,-468"/>
<text text-anchor="middle" x="964.5" y="-446.3" font-family="Times,serif" font-size="14.00">robot_sf.nav.nav_types</text>
</g>
<!-- robot_sf.nav.gloabal_route&#45;&gt;robot_sf.nav.nav_types -->
<g id="edge2" class="edge">
<title>robot_sf.nav.gloabal_route&#45;&gt;robot_sf.nav.nav_types</title>
<path fill="none" stroke="black" d="M1117.34,-396.03C1089,-405.86 1053.18,-418.27 1023.34,-428.61"/>
<polygon fill="black" stroke="black" points="1013.88,-431.89 1021.85,-424.36 1018.6,-430.25 1023.33,-428.61 1023.33,-428.61 1023.33,-428.61 1018.6,-430.25 1024.8,-432.87 1013.88,-431.89 1013.88,-431.89"/>
</g>
<!-- robot_sf.nav.map_config -->
<g id="node6" class="node">
<title>robot_sf.nav.map_config</title>
<polygon fill="#99ddff" stroke="#99ddff" points="1274.5,-324 1088.5,-324 1088.5,-288 1274.5,-288 1274.5,-324"/>
<text text-anchor="middle" x="1181.5" y="-302.3" font-family="Times,serif" font-size="14.00">robot_sf.nav.map_config</text>
</g>
<!-- robot_sf.nav.map_config&#45;&gt;robot_sf.nav.gloabal_route -->
<g id="edge3" class="edge">
<title>robot_sf.nav.map_config&#45;&gt;robot_sf.nav.gloabal_route</title>
<path fill="none" stroke="black" d="M1177.79,-324.3C1176.14,-332.02 1174.15,-341.29 1172.31,-349.89"/>
<polygon fill="black" stroke="black" points="1170.17,-359.9 1167.86,-349.17 1171.21,-355.01 1172.26,-350.12 1172.26,-350.12 1172.26,-350.12 1171.21,-355.01 1176.66,-351.06 1170.17,-359.9 1170.17,-359.9"/>
</g>
<!-- robot_sf.nav.map_config&#45;&gt;robot_sf.nav.nav_types -->
<g id="edge4" class="edge">
<title>robot_sf.nav.map_config&#45;&gt;robot_sf.nav.nav_types</title>
<path fill="none" stroke="black" d="M1234.72,-324.04C1251.39,-332.16 1267.92,-343.77 1277.5,-360 1285.63,-373.78 1287.83,-383.78 1277.5,-396 1250.38,-428.1 1144.53,-440.76 1063.35,-445.75"/>
<polygon fill="black" stroke="black" points="1053.08,-446.35 1062.8,-441.28 1058.07,-446.06 1063.06,-445.77 1063.06,-445.77 1063.06,-445.77 1058.07,-446.06 1063.32,-450.26 1053.08,-446.35 1053.08,-446.35"/>
</g>
<!-- robot_sf.nav.obstacle -->
<g id="node9" class="node">
<title>robot_sf.nav.obstacle</title>
<polygon fill="#99ddff" stroke="#99ddff" points="1047,-396 882,-396 882,-360 1047,-360 1047,-396"/>
<text text-anchor="middle" x="964.5" y="-374.3" font-family="Times,serif" font-size="14.00">robot_sf.nav.obstacle</text>
</g>
<!-- robot_sf.nav.map_config&#45;&gt;robot_sf.nav.obstacle -->
<g id="edge5" class="edge">
<title>robot_sf.nav.map_config&#45;&gt;robot_sf.nav.obstacle</title>
<path fill="none" stroke="black" d="M1128.69,-324.03C1098.11,-333.9 1059.43,-346.38 1027.29,-356.75"/>
<polygon fill="black" stroke="black" points="1017.54,-359.89 1025.68,-352.54 1022.3,-358.35 1027.06,-356.82 1027.06,-356.82 1027.06,-356.82 1022.3,-358.35 1028.44,-361.1 1017.54,-359.89 1017.54,-359.89"/>
</g>
<!-- robot_sf.nav.navigation -->
<g id="node8" class="node">
<title>robot_sf.nav.navigation</title>
<polygon fill="#99ddff" stroke="#99ddff" points="772,-252 591,-252 591,-216 772,-216 772,-252"/>
<text text-anchor="middle" x="681.5" y="-230.3" font-family="Times,serif" font-size="14.00">robot_sf.nav.navigation</text>
</g>
<!-- robot_sf.nav.navigation&#45;&gt;robot_sf.nav.map_config -->
<g id="edge6" class="edge">
<title>robot_sf.nav.navigation&#45;&gt;robot_sf.nav.map_config</title>
<path fill="none" stroke="black" d="M772.05,-247.68C858.3,-259.75 988.03,-277.91 1078.26,-290.55"/>
<polygon fill="black" stroke="black" points="1088.24,-291.94 1077.71,-295.01 1083.29,-291.25 1078.33,-290.56 1078.33,-290.56 1078.33,-290.56 1083.29,-291.25 1078.96,-286.1 1088.24,-291.94 1088.24,-291.94"/>
</g>
<!-- robot_sf.nav.navigation&#45;&gt;robot_sf.nav.nav_types -->
<g id="edge7" class="edge">
<title>robot_sf.nav.navigation&#45;&gt;robot_sf.nav.nav_types</title>
<path fill="none" stroke="black" d="M644.99,-252.08C630.9,-260.71 616.32,-272.65 608.5,-288 601.23,-302.25 599.57,-310.72 608.5,-324 664.54,-407.3 781.09,-435.66 865.6,-445.01"/>
<polygon fill="black" stroke="black" points="875.74,-446.06 865.33,-449.51 870.77,-445.54 865.8,-445.03 865.8,-445.03 865.8,-445.03 870.77,-445.54 866.26,-440.55 875.74,-446.06 875.74,-446.06"/>
</g>
<!-- robot_sf.ped_npc.ped_zone -->
<g id="node16" class="node">
<title>robot_sf.ped_npc.ped_zone</title>
<polygon fill="#44bb99" stroke="#44bb99" points="825,-324 618,-324 618,-288 825,-288 825,-324"/>
<text text-anchor="middle" x="721.5" y="-302.3" font-family="Times,serif" font-size="14.00">robot_sf.ped_npc.ped_zone</text>
</g>
<!-- robot_sf.nav.navigation&#45;&gt;robot_sf.ped_npc.ped_zone -->
<g id="edge8" class="edge">
<title>robot_sf.nav.navigation&#45;&gt;robot_sf.ped_npc.ped_zone</title>
<path fill="none" stroke="black" d="M691.39,-252.3C695.99,-260.36 701.56,-270.11 706.65,-279.02"/>
<polygon fill="black" stroke="black" points="711.73,-287.9 702.86,-281.45 709.25,-283.55 706.76,-279.21 706.76,-279.21 706.76,-279.21 709.25,-283.55 710.67,-276.98 711.73,-287.9 711.73,-287.9"/>
</g>
<!-- robot_sf.nav.obstacle&#45;&gt;robot_sf.nav.nav_types -->
<g id="edge9" class="edge">
<title>robot_sf.nav.obstacle&#45;&gt;robot_sf.nav.nav_types</title>
<path fill="none" stroke="black" d="M964.5,-396.3C964.5,-404.02 964.5,-413.29 964.5,-421.89"/>
<polygon fill="black" stroke="black" points="964.5,-431.9 960,-421.9 964.5,-426.9 964.5,-421.9 964.5,-421.9 964.5,-421.9 964.5,-426.9 969,-421.9 964.5,-431.9 964.5,-431.9"/>
</g>
<!-- robot_sf.nav.occupancy -->
<g id="node10" class="node">
<title>robot_sf.nav.occupancy</title>
<polygon fill="#99ddff" stroke="#99ddff" points="497.5,-252 317.5,-252 317.5,-216 497.5,-216 497.5,-252"/>
<text text-anchor="middle" x="407.5" y="-230.3" font-family="Times,serif" font-size="14.00">robot_sf.nav.occupancy</text>
</g>
<!-- robot_sf.ped_npc -->
<g id="node11" class="node">
<title>robot_sf.ped_npc</title>
<polygon fill="#44bb99" stroke="#44bb99" points="2269,-36 2132,-36 2132,0 2269,0 2269,-36"/>
<text text-anchor="middle" x="2200.5" y="-14.3" font-family="Times,serif" font-size="14.00">robot_sf.ped_npc</text>
</g>
<!-- robot_sf.ped_npc.ped_behavior -->
<g id="node12" class="node">
<title>robot_sf.ped_npc.ped_behavior</title>
<polygon fill="#44bb99" stroke="#44bb99" points="956.5,-180 720.5,-180 720.5,-144 956.5,-144 956.5,-180"/>
<text text-anchor="middle" x="838.5" y="-158.3" font-family="Times,serif" font-size="14.00">robot_sf.ped_npc.ped_behavior</text>
</g>
<!-- robot_sf.ped_npc.ped_behavior&#45;&gt;robot_sf.nav.map_config -->
<g id="edge10" class="edge">
<title>robot_sf.ped_npc.ped_behavior&#45;&gt;robot_sf.nav.map_config</title>
<path fill="none" stroke="black" d="M844.76,-180.13C853.2,-200.66 870.27,-234.49 896.5,-252 925.97,-271.67 1009.26,-285.74 1078.24,-294.42"/>
<polygon fill="black" stroke="black" points="1088.31,-295.66 1077.83,-298.9 1083.34,-295.04 1078.38,-294.43 1078.38,-294.43 1078.38,-294.43 1083.34,-295.04 1078.93,-289.97 1088.31,-295.66 1088.31,-295.66"/>
</g>
<!-- robot_sf.ped_npc.ped_behavior&#45;&gt;robot_sf.nav.nav_types -->
<g id="edge11" class="edge">
<title>robot_sf.ped_npc.ped_behavior&#45;&gt;robot_sf.nav.nav_types</title>
<path fill="none" stroke="black" d="M836.24,-180.3C831.79,-221.59 826,-327.52 872.5,-396 881.33,-409.01 894.5,-419.23 908.12,-427.09"/>
<polygon fill="black" stroke="black" points="917.1,-431.91 906.16,-431.14 912.7,-429.54 908.29,-427.18 908.29,-427.18 908.29,-427.18 912.7,-429.54 910.42,-423.21 917.1,-431.91 917.1,-431.91"/>
</g>
<!-- robot_sf.ped_npc.ped_behavior&#45;&gt;robot_sf.nav.navigation -->
<g id="edge12" class="edge">
<title>robot_sf.ped_npc.ped_behavior&#45;&gt;robot_sf.nav.navigation</title>
<path fill="none" stroke="black" d="M800.09,-180.12C778.63,-189.69 751.7,-201.7 728.93,-211.85"/>
<polygon fill="black" stroke="black" points="719.78,-215.93 727.08,-207.75 724.35,-213.9 728.92,-211.86 728.92,-211.86 728.92,-211.86 724.35,-213.9 730.75,-215.97 719.78,-215.93 719.78,-215.93"/>
</g>
<!-- robot_sf.ped_npc.ped_grouping -->
<g id="node13" class="node">
<title>robot_sf.ped_npc.ped_grouping</title>
<polygon fill="#44bb99" stroke="#44bb99" points="1144,-252 905,-252 905,-216 1144,-216 1144,-252"/>
<text text-anchor="middle" x="1024.5" y="-230.3" font-family="Times,serif" font-size="14.00">robot_sf.ped_npc.ped_grouping</text>
</g>
<!-- robot_sf.ped_npc.ped_behavior&#45;&gt;robot_sf.ped_npc.ped_grouping -->
<g id="edge13" class="edge">
<title>robot_sf.ped_npc.ped_behavior&#45;&gt;robot_sf.ped_npc.ped_grouping</title>
<path fill="none" stroke="black" d="M884,-180.12C909.88,-189.86 942.47,-202.13 969.74,-212.39"/>
<polygon fill="black" stroke="black" points="979.15,-215.93 968.2,-216.62 974.47,-214.17 969.79,-212.41 969.79,-212.41 969.79,-212.41 974.47,-214.17 971.37,-208.2 979.15,-215.93 979.15,-215.93"/>
</g>
<!-- robot_sf.ped_npc.ped_behavior&#45;&gt;robot_sf.ped_npc.ped_zone -->
<g id="edge14" class="edge">
<title>robot_sf.ped_npc.ped_behavior&#45;&gt;robot_sf.ped_npc.ped_zone</title>
<path fill="none" stroke="black" d="M829.03,-180.32C818.44,-198.96 800.18,-229.03 780.5,-252 771.67,-262.31 760.88,-272.55 750.96,-281.23"/>
<polygon fill="black" stroke="black" points="743.24,-287.84 747.91,-277.92 747.04,-284.59 750.84,-281.34 750.84,-281.34 750.84,-281.34 747.04,-284.59 753.77,-284.75 743.24,-287.84 743.24,-287.84"/>
</g>
<!-- robot_sf.ped_npc.ped_population -->
<g id="node14" class="node">
<title>robot_sf.ped_npc.ped_population</title>
<polygon fill="#44bb99" stroke="#44bb99" points="1220.5,-108 970.5,-108 970.5,-72 1220.5,-72 1220.5,-108"/>
<text text-anchor="middle" x="1095.5" y="-86.3" font-family="Times,serif" font-size="14.00">robot_sf.ped_npc.ped_population</text>
</g>
<!-- robot_sf.ped_npc.ped_population&#45;&gt;robot_sf.nav.map_config -->
<g id="edge15" class="edge">
<title>robot_sf.ped_npc.ped_population&#45;&gt;robot_sf.nav.map_config</title>
<path fill="none" stroke="black" d="M1145.06,-108.15C1161.19,-116.36 1177.3,-127.99 1186.5,-144 1210.5,-185.75 1199.95,-244.17 1190.47,-277.95"/>
<polygon fill="black" stroke="black" points="1187.61,-287.6 1186.14,-276.73 1189.03,-282.81 1190.46,-278.01 1190.46,-278.01 1190.46,-278.01 1189.03,-282.81 1194.77,-279.3 1187.61,-287.6 1187.61,-287.6"/>
</g>
<!-- robot_sf.ped_npc.ped_population&#45;&gt;robot_sf.nav.nav_types -->
<g id="edge16" class="edge">
<title>robot_sf.ped_npc.ped_population&#45;&gt;robot_sf.nav.nav_types</title>
<path fill="none" stroke="black" d="M1220.51,-105.6C1488.16,-137.28 2092.5,-211.22 2092.5,-233 2092.5,-233 2092.5,-233 2092.5,-307 2092.5,-410.28 1338.44,-439.6 1063.38,-446.86"/>
<polygon fill="black" stroke="black" points="1053.01,-447.13 1062.89,-442.37 1058.01,-447 1063.01,-446.87 1063.01,-446.87 1063.01,-446.87 1058.01,-447 1063.13,-451.37 1053.01,-447.13 1053.01,-447.13"/>
</g>
<!-- robot_sf.ped_npc.ped_population&#45;&gt;robot_sf.ped_npc.ped_behavior -->
<g id="edge17" class="edge">
<title>robot_sf.ped_npc.ped_population&#45;&gt;robot_sf.ped_npc.ped_behavior</title>
<path fill="none" stroke="black" d="M1032.96,-108.03C996.27,-118.03 949.74,-130.7 911.39,-141.15"/>
<polygon fill="black" stroke="black" points="901.32,-143.89 909.79,-136.92 906.15,-142.58 910.97,-141.26 910.97,-141.26 910.97,-141.26 906.15,-142.58 912.15,-145.6 901.32,-143.89 901.32,-143.89"/>
</g>
<!-- robot_sf.ped_npc.ped_population&#45;&gt;robot_sf.ped_npc.ped_grouping -->
<g id="edge18" class="edge">
<title>robot_sf.ped_npc.ped_population&#45;&gt;robot_sf.ped_npc.ped_grouping</title>
<path fill="none" stroke="black" d="M1086.94,-108.13C1074.68,-132.65 1052.02,-177.97 1037.63,-206.74"/>
<polygon fill="black" stroke="black" points="1033.09,-215.81 1033.54,-204.85 1035.33,-211.34 1037.57,-206.87 1037.57,-206.87 1037.57,-206.87 1035.33,-211.34 1041.59,-208.88 1033.09,-215.81 1033.09,-215.81"/>
</g>
<!-- robot_sf.ped_npc.ped_population&#45;&gt;robot_sf.ped_npc.ped_zone -->
<g id="edge19" class="edge">
<title>robot_sf.ped_npc.ped_population&#45;&gt;robot_sf.ped_npc.ped_zone</title>
<path fill="none" stroke="black" d="M1111.65,-108.15C1139.77,-140.08 1191.3,-209.28 1153.5,-252 1132.65,-275.57 956.04,-290.9 835.2,-298.74"/>
<polygon fill="black" stroke="black" points="825.14,-299.39 834.83,-294.26 830.13,-299.07 835.12,-298.75 835.12,-298.75 835.12,-298.75 830.13,-299.07 835.41,-303.24 825.14,-299.39 825.14,-299.39"/>
</g>
<!-- robot_sf.ped_npc.ped_robot_force -->
<g id="node15" class="node">
<title>robot_sf.ped_npc.ped_robot_force</title>
<polygon fill="#44bb99" stroke="#44bb99" points="1532,-108 1277,-108 1277,-72 1532,-72 1532,-108"/>
<text text-anchor="middle" x="1404.5" y="-86.3" font-family="Times,serif" font-size="14.00">robot_sf.ped_npc.ped_robot_force</text>
</g>
<!-- robot_sf.ped_npc.ped_zone&#45;&gt;robot_sf.nav.nav_types -->
<g id="edge20" class="edge">
<title>robot_sf.ped_npc.ped_zone&#45;&gt;robot_sf.nav.nav_types</title>
<path fill="none" stroke="black" d="M740.91,-324.02C763.48,-343.23 802.39,-374.57 839.5,-396 860.84,-408.32 885.59,-419.42 907.41,-428.23"/>
<polygon fill="black" stroke="black" points="916.89,-431.99 905.93,-432.49 912.24,-430.15 907.59,-428.3 907.59,-428.3 907.59,-428.3 912.24,-430.15 909.25,-424.12 916.89,-431.99 916.89,-431.99"/>
</g>
<!-- robot_sf.robot -->
<g id="node17" class="node">
<title>robot_sf.robot</title>
<polygon fill="#bbcc33" stroke="#bbcc33" points="2403.5,-36 2287.5,-36 2287.5,0 2403.5,0 2403.5,-36"/>
<text text-anchor="middle" x="2345.5" y="-14.3" font-family="Times,serif" font-size="14.00">robot_sf.robot</text>
</g>
<!-- robot_sf.robot.bicycle_drive -->
<g id="node18" class="node">
<title>robot_sf.robot.bicycle_drive</title>
<polygon fill="#bbcc33" stroke="#bbcc33" points="1764.5,-108 1550.5,-108 1550.5,-72 1764.5,-72 1764.5,-108"/>
<text text-anchor="middle" x="1657.5" y="-86.3" font-family="Times,serif" font-size="14.00">robot_sf.robot.bicycle_drive</text>
</g>
<!-- robot_sf.robot.differential_drive -->
<g id="node19" class="node">
<title>robot_sf.robot.differential_drive</title>
<polygon fill="#bbcc33" stroke="#bbcc33" points="2026,-108 1783,-108 1783,-72 2026,-72 2026,-108"/>
<text text-anchor="middle" x="1904.5" y="-86.3" font-family="Times,serif" font-size="14.00">robot_sf.robot.differential_drive</text>
</g>
<!-- robot_sf.robot.robot_state -->
<g id="node20" class="node">
<title>robot_sf.robot.robot_state</title>
<polygon fill="#bbcc33" stroke="#bbcc33" points="664.5,-180 462.5,-180 462.5,-144 664.5,-144 664.5,-180"/>
<text text-anchor="middle" x="563.5" y="-158.3" font-family="Times,serif" font-size="14.00">robot_sf.robot.robot_state</text>
</g>
<!-- robot_sf.robot.robot_state&#45;&gt;robot_sf.nav.navigation -->
<g id="edge21" class="edge">
<title>robot_sf.robot.robot_state&#45;&gt;robot_sf.nav.navigation</title>
<path fill="none" stroke="black" d="M592.37,-180.12C607.79,-189.28 626.98,-200.66 643.6,-210.52"/>
<polygon fill="black" stroke="black" points="652.52,-215.81 641.63,-214.58 648.22,-213.26 643.92,-210.71 643.92,-210.71 643.92,-210.71 648.22,-213.26 646.22,-206.84 652.52,-215.81 652.52,-215.81"/>
</g>
<!-- robot_sf.robot.robot_state&#45;&gt;robot_sf.nav.occupancy -->
<g id="edge22" class="edge">
<title>robot_sf.robot.robot_state&#45;&gt;robot_sf.nav.occupancy</title>
<path fill="none" stroke="black" d="M525.34,-180.12C504.11,-189.65 477.49,-201.59 454.93,-211.72"/>
<polygon fill="black" stroke="black" points="445.54,-215.93 452.82,-207.73 450.1,-213.88 454.66,-211.84 454.66,-211.84 454.66,-211.84 450.1,-213.88 456.5,-215.94 445.54,-215.93 445.54,-215.93"/>
</g>
<!-- robot_sf.robot.robot_state&#45;&gt;robot_sf.sensor.sensor_fusion -->
<g id="edge23" class="edge">
<title>robot_sf.robot.robot_state&#45;&gt;robot_sf.sensor.sensor_fusion</title>
<path fill="none" stroke="black" d="M470.54,-180.03C414.28,-190.34 342.44,-203.51 284.46,-214.13"/>
<polygon fill="black" stroke="black" points="274.54,-215.95 283.57,-209.72 279.46,-215.05 284.38,-214.15 284.38,-214.15 284.38,-214.15 279.46,-215.05 285.19,-218.57 274.54,-215.95 274.54,-215.95"/>
</g>
<!-- robot_sf.sensor -->
<g id="node21" class="node">
<title>robot_sf.sensor</title>
<polygon fill="#aaaa00" stroke="#aaaa00" points="2547,-36 2422,-36 2422,0 2547,0 2547,-36"/>
<text text-anchor="middle" x="2484.5" y="-14.3" font-family="Times,serif" font-size="14.00">robot_sf.sensor</text>
</g>
<!-- robot_sf.sensor.goal_sensor -->
<g id="node22" class="node">
<title>robot_sf.sensor.goal_sensor</title>
<polygon fill="#aaaa00" stroke="#aaaa00" points="2777.5,-36 2565.5,-36 2565.5,0 2777.5,0 2777.5,-36"/>
<text text-anchor="middle" x="2671.5" y="-14.3" font-family="Times,serif" font-size="14.00">robot_sf.sensor.goal_sensor</text>
</g>
<!-- robot_sf.sensor.range_sensor -->
<g id="node23" class="node">
<title>robot_sf.sensor.range_sensor</title>
<polygon fill="#aaaa00" stroke="#aaaa00" points="444.5,-180 220.5,-180 220.5,-144 444.5,-144 444.5,-180"/>
<text text-anchor="middle" x="332.5" y="-158.3" font-family="Times,serif" font-size="14.00">robot_sf.sensor.range_sensor</text>
</g>
<!-- robot_sf.sensor.range_sensor&#45;&gt;robot_sf.nav.occupancy -->
<g id="edge24" class="edge">
<title>robot_sf.sensor.range_sensor&#45;&gt;robot_sf.nav.occupancy</title>
<path fill="none" stroke="black" d="M351.04,-180.3C360.3,-188.95 371.66,-199.55 381.76,-208.97"/>
<polygon fill="black" stroke="black" points="389.17,-215.9 378.79,-212.36 385.52,-212.48 381.86,-209.07 381.86,-209.07 381.86,-209.07 385.52,-212.48 384.93,-205.78 389.17,-215.9 389.17,-215.9"/>
</g>
<!-- robot_sf.sim -->
<g id="node25" class="node">
<title>robot_sf.sim</title>
<polygon fill="#eedd88" stroke="#eedd88" points="2899.5,-36 2795.5,-36 2795.5,0 2899.5,0 2899.5,-36"/>
<text text-anchor="middle" x="2847.5" y="-14.3" font-family="Times,serif" font-size="14.00">robot_sf.sim</text>
</g>
<!-- robot_sf.sim.sim_config -->
<g id="node26" class="node">
<title>robot_sf.sim.sim_config</title>
<polygon fill="#eedd88" stroke="#eedd88" points="1496,-36 1313,-36 1313,0 1496,0 1496,-36"/>
<text text-anchor="middle" x="1404.5" y="-14.3" font-family="Times,serif" font-size="14.00">robot_sf.sim.sim_config</text>
</g>
<!-- robot_sf.sim.sim_config&#45;&gt;robot_sf.ped_npc.ped_robot_force -->
<g id="edge25" class="edge">
<title>robot_sf.sim.sim_config&#45;&gt;robot_sf.ped_npc.ped_robot_force</title>
<path fill="none" stroke="black" d="M1404.5,-36.3C1404.5,-44.02 1404.5,-53.29 1404.5,-61.89"/>
<polygon fill="black" stroke="black" points="1404.5,-71.9 1400,-61.9 1404.5,-66.9 1404.5,-61.9 1404.5,-61.9 1404.5,-61.9 1404.5,-66.9 1409,-61.9 1404.5,-71.9 1404.5,-71.9"/>
</g>
<!-- robot_sf.sim.sim_view -->
<g id="node27" class="node">
<title>robot_sf.sim.sim_view</title>
<polygon fill="#eedd88" stroke="#eedd88" points="1991,-36 1818,-36 1818,0 1991,0 1991,-36"/>
<text text-anchor="middle" x="1904.5" y="-14.3" font-family="Times,serif" font-size="14.00">robot_sf.sim.sim_view</text>
</g>
<!-- robot_sf.sim.sim_view&#45;&gt;robot_sf.nav.map_config -->
<g id="edge26" class="edge">
<title>robot_sf.sim.sim_view&#45;&gt;robot_sf.nav.map_config</title>
<path fill="none" stroke="black" d="M1988.2,-36.05C2006.77,-43.89 2024.25,-55.32 2035.5,-72 2044.44,-85.27 2045.46,-95.48 2035.5,-108 1942.63,-224.73 1491.08,-278.21 1284.74,-296.86"/>
<polygon fill="black" stroke="black" points="1274.5,-297.77 1284.06,-292.4 1279.48,-297.33 1284.46,-296.88 1284.46,-296.88 1284.46,-296.88 1279.48,-297.33 1284.86,-301.36 1274.5,-297.77 1274.5,-297.77"/>
</g>
<!-- robot_sf.sim.sim_view&#45;&gt;robot_sf.robot.bicycle_drive -->
<g id="edge27" class="edge">
<title>robot_sf.sim.sim_view&#45;&gt;robot_sf.robot.bicycle_drive</title>
<path fill="none" stroke="black" d="M1844.39,-36.03C1809.13,-46.03 1764.41,-58.7 1727.56,-69.15"/>
<polygon fill="black" stroke="black" points="1717.88,-71.89 1726.27,-64.83 1722.69,-70.53 1727.5,-69.16 1727.5,-69.16 1727.5,-69.16 1722.69,-70.53 1728.72,-73.49 1717.88,-71.89 1717.88,-71.89"/>
</g>
<!-- robot_sf.sim.sim_view&#45;&gt;robot_sf.robot.differential_drive -->
<g id="edge28" class="edge">
<title>robot_sf.sim.sim_view&#45;&gt;robot_sf.robot.differential_drive</title>
<path fill="none" stroke="black" d="M1904.5,-36.3C1904.5,-44.02 1904.5,-53.29 1904.5,-61.89"/>
<polygon fill="black" stroke="black" points="1904.5,-71.9 1900,-61.9 1904.5,-66.9 1904.5,-61.9 1904.5,-61.9 1904.5,-61.9 1904.5,-66.9 1909,-61.9 1904.5,-71.9 1904.5,-71.9"/>
</g>
<!-- robot_sf.sim.simulator -->
<g id="node28" class="node">
<title>robot_sf.sim.simulator</title>
<polygon fill="#eedd88" stroke="#eedd88" points="1238.5,-36 1062.5,-36 1062.5,0 1238.5,0 1238.5,-36"/>
<text text-anchor="middle" x="1150.5" y="-14.3" font-family="Times,serif" font-size="14.00">robot_sf.sim.simulator</text>
</g>
<!-- robot_sf.sim.simulator&#45;&gt;robot_sf.nav.map_config -->
<g id="edge29" class="edge">
<title>robot_sf.sim.simulator&#45;&gt;robot_sf.nav.map_config</title>
<path fill="none" stroke="black" d="M1191.18,-36.12C1206.02,-44.59 1221.18,-56.41 1229.5,-72 1245.76,-102.49 1253.45,-129.8 1212.5,-252 1209.37,-261.35 1204.45,-270.87 1199.44,-279.21"/>
<polygon fill="black" stroke="black" points="1194.06,-287.73 1195.6,-276.87 1196.73,-283.5 1199.4,-279.28 1199.4,-279.28 1199.4,-279.28 1196.73,-283.5 1203.21,-281.68 1194.06,-287.73 1194.06,-287.73"/>
</g>
<!-- robot_sf.sim.simulator&#45;&gt;robot_sf.nav.navigation -->
<g id="edge30" class="edge">
<title>robot_sf.sim.simulator&#45;&gt;robot_sf.nav.navigation</title>
<path fill="none" stroke="black" d="M1062.09,-33.1C948.09,-53.07 758.85,-92.94 711.5,-144 695.79,-160.95 688.28,-186.42 684.7,-205.77"/>
<polygon fill="black" stroke="black" points="683.1,-215.8 680.23,-205.22 683.89,-210.86 684.68,-205.93 684.68,-205.93 684.68,-205.93 683.89,-210.86 689.12,-206.64 683.1,-215.8 683.1,-215.8"/>
</g>
<!-- robot_sf.sim.simulator&#45;&gt;robot_sf.ped_npc.ped_behavior -->
<g id="edge31" class="edge">
<title>robot_sf.sim.simulator&#45;&gt;robot_sf.ped_npc.ped_behavior</title>
<path fill="none" stroke="black" d="M1062.42,-28.76C1019.95,-36.2 969.46,-49.25 928.5,-72 899.8,-87.94 873.94,-115.59 857.39,-135.85"/>
<polygon fill="black" stroke="black" points="851.09,-143.76 853.8,-133.13 854.21,-139.85 857.32,-135.94 857.32,-135.94 857.32,-135.94 854.21,-139.85 860.84,-138.74 851.09,-143.76 851.09,-143.76"/>
</g>
<!-- robot_sf.sim.simulator&#45;&gt;robot_sf.ped_npc.ped_grouping -->
<g id="edge32" class="edge">
<title>robot_sf.sim.simulator&#45;&gt;robot_sf.ped_npc.ped_grouping</title>
<path fill="none" stroke="black" d="M1062.27,-33.21C1019.37,-42.1 974.32,-55.1 961.5,-72 944.8,-94.02 984.73,-167.67 1008.45,-207.28"/>
<polygon fill="black" stroke="black" points="1013.67,-215.87 1004.63,-209.66 1011.08,-211.6 1008.48,-207.33 1008.48,-207.33 1008.48,-207.33 1011.08,-211.6 1012.33,-204.99 1013.67,-215.87 1013.67,-215.87"/>
</g>
<!-- robot_sf.sim.simulator&#45;&gt;robot_sf.ped_npc.ped_population -->
<g id="edge33" class="edge">
<title>robot_sf.sim.simulator&#45;&gt;robot_sf.ped_npc.ped_population</title>
<path fill="none" stroke="black" d="M1136.9,-36.3C1130.38,-44.61 1122.43,-54.72 1115.25,-63.86"/>
<polygon fill="black" stroke="black" points="1108.94,-71.9 1111.58,-61.25 1112.03,-67.96 1115.12,-64.03 1115.12,-64.03 1115.12,-64.03 1112.03,-67.96 1118.66,-66.81 1108.94,-71.9 1108.94,-71.9"/>
</g>
<!-- robot_sf.sim.simulator&#45;&gt;robot_sf.ped_npc.ped_robot_force -->
<g id="edge34" class="edge">
<title>robot_sf.sim.simulator&#45;&gt;robot_sf.ped_npc.ped_robot_force</title>
<path fill="none" stroke="black" d="M1212.31,-36.03C1248.57,-46.03 1294.56,-58.7 1332.46,-69.15"/>
<polygon fill="black" stroke="black" points="1342.41,-71.89 1331.58,-73.57 1337.59,-70.56 1332.77,-69.23 1332.77,-69.23 1332.77,-69.23 1337.59,-70.56 1333.97,-64.89 1342.41,-71.89 1342.41,-71.89"/>
</g>
<!-- robot_sf.sim.simulator&#45;&gt;robot_sf.robot.bicycle_drive -->
<g id="edge35" class="edge">
<title>robot_sf.sim.simulator&#45;&gt;robot_sf.robot.bicycle_drive</title>
<path fill="none" stroke="black" d="M1238.66,-30.67C1315.61,-40.93 1430.57,-56.4 1540.44,-71.86"/>
<polygon fill="black" stroke="black" points="1550.38,-73.26 1539.85,-76.32 1545.43,-72.56 1540.47,-71.86 1540.47,-71.86 1540.47,-71.86 1545.43,-72.56 1541.1,-67.41 1550.38,-73.26 1550.38,-73.26"/>
</g>
<!-- robot_sf.sim.simulator&#45;&gt;robot_sf.robot.differential_drive -->
<g id="edge36" class="edge">
<title>robot_sf.sim.simulator&#45;&gt;robot_sf.robot.differential_drive</title>
<path fill="none" stroke="black" d="M1238.81,-29.26C1260.29,-31.61 1283.21,-34.01 1304.5,-36 1509.4,-55.17 1563.86,-50.69 1772.78,-71.96"/>
<polygon fill="black" stroke="black" points="1782.84,-72.99 1772.44,-76.45 1777.87,-72.48 1772.9,-71.97 1772.9,-71.97 1772.9,-71.97 1777.87,-72.48 1773.36,-67.5 1782.84,-72.99 1782.84,-72.99"/>
</g>
<!-- robot_sf.tb_logging -->
<g id="node29" class="node">
<title>robot_sf.tb_logging</title>
<polygon fill="#77aadd" stroke="#77aadd" points="687,-36 534,-36 534,0 687,0 687,-36"/>
<text text-anchor="middle" x="610.5" y="-14.3" font-family="Times,serif" font-size="14.00">robot_sf.tb_logging</text>
</g>
<!-- robot_sf.tb_logging&#45;&gt;robot_sf.eval -->
<g id="edge37" class="edge">
<title>robot_sf.tb_logging&#45;&gt;robot_sf.eval</title>
<path fill="none" stroke="black" d="M610.5,-36.3C610.5,-44.02 610.5,-53.29 610.5,-61.89"/>
<polygon fill="black" stroke="black" points="610.5,-71.9 606,-61.9 610.5,-66.9 610.5,-61.9 610.5,-61.9 610.5,-61.9 610.5,-66.9 615,-61.9 610.5,-71.9 610.5,-71.9"/>
</g>
</g>
</svg>
