<?xml version="1.0" encoding="UTF-8" standalone="no"?>
<!DOCTYPE svg PUBLIC "-//W3C//DTD SVG 1.1//EN"
 "http://www.w3.org/Graphics/SVG/1.1/DTD/svg11.dtd">
<!-- Generated by graphviz version 2.43.0 (0)
 -->
<!-- Title: packages Pages: 1 -->
<svg width="1751pt" height="476pt"
 viewBox="0.00 0.00 1751.14 476.00" xmlns="http://www.w3.org/2000/svg" xmlns:xlink="http://www.w3.org/1999/xlink">
<g id="graph0" class="graph" transform="scale(1 1) rotate(0) translate(4 472)">
<title>packages</title>
<polygon fill="white" stroke="transparent" points="-4,4 -4,-472 1747.14,-472 1747.14,4 -4,4"/>
<!-- robot_sf -->
<g id="node1" class="node">
<title>robot_sf</title>
<polygon fill="#77aadd" stroke="#77aadd" points="320,-36 246,-36 246,0 320,0 320,-36"/>
<text text-anchor="middle" x="283" y="-14.3" font-family="Times,serif" font-size="14.00">robot_sf</text>
</g>
<!-- robot_sf.eval -->
<g id="node2" class="node">
<title>robot_sf.eval</title>
<polygon fill="#77aadd" stroke="#77aadd" points="468.5,-108 361.5,-108 361.5,-72 468.5,-72 468.5,-108"/>
<text text-anchor="middle" x="415" y="-86.3" font-family="Times,serif" font-size="14.00">robot_sf.eval</text>
</g>
<!-- robot_sf.feature_extractor -->
<g id="node3" class="node">
<title>robot_sf.feature_extractor</title>
<polygon fill="#77aadd" stroke="#77aadd" points="712.5,-36 509.5,-36 509.5,0 712.5,0 712.5,-36"/>
<text text-anchor="middle" x="611" y="-14.3" font-family="Times,serif" font-size="14.00">robot_sf.feature_extractor</text>
</g>
<!-- robot_sf.robot_env -->
<g id="node17" class="node">
<title>robot_sf.robot_env</title>
<polygon fill="#77aadd" stroke="#77aadd" points="685.5,-108 536.5,-108 536.5,-72 685.5,-72 685.5,-108"/>
<text text-anchor="middle" x="611" y="-86.3" font-family="Times,serif" font-size="14.00">robot_sf.robot_env</text>
</g>
<!-- robot_sf.feature_extractor&#45;&gt;robot_sf.robot_env -->
<g id="edge1" class="edge">
<title>robot_sf.feature_extractor&#45;&gt;robot_sf.robot_env</title>
<path fill="none" stroke="black" d="M611,-36.3C611,-44.02 611,-53.29 611,-61.89"/>
<polygon fill="black" stroke="black" points="611,-71.9 606.5,-61.9 611,-66.9 611,-61.9 611,-61.9 611,-61.9 611,-66.9 615.5,-61.9 611,-71.9 611,-71.9"/>
</g>
<!-- robot_sf.nav -->
<g id="node4" class="node">
<title>robot_sf.nav</title>
<polygon fill="#99ddff" stroke="#99ddff" points="835,-36 731,-36 731,0 835,0 835,-36"/>
<text text-anchor="middle" x="783" y="-14.3" font-family="Times,serif" font-size="14.00">robot_sf.nav</text>
</g>
<!-- robot_sf.nav.map_config -->
<g id="node5" class="node">
<title>robot_sf.nav.map_config</title>
<polygon fill="#99ddff" stroke="#99ddff" points="1240,-468 1054,-468 1054,-432 1240,-432 1240,-468"/>
<text text-anchor="middle" x="1147" y="-446.3" font-family="Times,serif" font-size="14.00">robot_sf.nav.map_config</text>
</g>
<!-- robot_sf.nav.navigation -->
<g id="node6" class="node">
<title>robot_sf.nav.navigation</title>
<polygon fill="#99ddff" stroke="#99ddff" points="1728.5,-396 1547.5,-396 1547.5,-360 1728.5,-360 1728.5,-396"/>
<text text-anchor="middle" x="1638" y="-374.3" font-family="Times,serif" font-size="14.00">robot_sf.nav.navigation</text>
</g>
<!-- robot_sf.nav.navigation&#45;&gt;robot_sf.nav.map_config -->
<g id="edge2" class="edge">
<title>robot_sf.nav.navigation&#45;&gt;robot_sf.nav.map_config</title>
<path fill="none" stroke="black" d="M1547.37,-391.92C1463.19,-403.92 1337.95,-421.78 1250.02,-434.31"/>
<polygon fill="black" stroke="black" points="1240.02,-435.74 1249.29,-429.87 1244.97,-435.03 1249.92,-434.33 1249.92,-434.33 1249.92,-434.33 1244.97,-435.03 1250.56,-438.78 1240.02,-435.74 1240.02,-435.74"/>
</g>
<!-- robot_sf.ped_npc.ped_zone -->
<g id="node13" class="node">
<title>robot_sf.ped_npc.ped_zone</title>
<polygon fill="#44bb99" stroke="#44bb99" points="1741.5,-468 1534.5,-468 1534.5,-432 1741.5,-432 1741.5,-468"/>
<text text-anchor="middle" x="1638" y="-446.3" font-family="Times,serif" font-size="14.00">robot_sf.ped_npc.ped_zone</text>
</g>
<!-- robot_sf.nav.navigation&#45;&gt;robot_sf.ped_npc.ped_zone -->
<g id="edge3" class="edge">
<title>robot_sf.nav.navigation&#45;&gt;robot_sf.ped_npc.ped_zone</title>
<path fill="none" stroke="black" d="M1638,-396.3C1638,-404.02 1638,-413.29 1638,-421.89"/>
<polygon fill="black" stroke="black" points="1638,-431.9 1633.5,-421.9 1638,-426.9 1638,-421.9 1638,-421.9 1638,-421.9 1638,-426.9 1642.5,-421.9 1638,-431.9 1638,-431.9"/>
</g>
<!-- robot_sf.nav.occupancy -->
<g id="node7" class="node">
<title>robot_sf.nav.occupancy</title>
<polygon fill="#99ddff" stroke="#99ddff" points="180,-396 0,-396 0,-360 180,-360 180,-396"/>
<text text-anchor="middle" x="90" y="-374.3" font-family="Times,serif" font-size="14.00">robot_sf.nav.occupancy</text>
</g>
<!-- robot_sf.ped_npc -->
<g id="node8" class="node">
<title>robot_sf.ped_npc</title>
<polygon fill="#44bb99" stroke="#44bb99" points="990.5,-36 853.5,-36 853.5,0 990.5,0 990.5,-36"/>
<text text-anchor="middle" x="922" y="-14.3" font-family="Times,serif" font-size="14.00">robot_sf.ped_npc</text>
</g>
<!-- robot_sf.ped_npc.ped_behavior -->
<g id="node9" class="node">
<title>robot_sf.ped_npc.ped_behavior</title>
<polygon fill="#44bb99" stroke="#44bb99" points="1599,-324 1363,-324 1363,-288 1599,-288 1599,-324"/>
<text text-anchor="middle" x="1481" y="-302.3" font-family="Times,serif" font-size="14.00">robot_sf.ped_npc.ped_behavior</text>
</g>
<!-- robot_sf.ped_npc.ped_behavior&#45;&gt;robot_sf.nav.map_config -->
<g id="edge4" class="edge">
<title>robot_sf.ped_npc.ped_behavior&#45;&gt;robot_sf.nav.map_config</title>
<path fill="none" stroke="black" d="M1482.36,-324.11C1482.95,-344.31 1480.54,-377.48 1461,-396 1431.13,-424.31 1329.8,-437.61 1250.23,-443.8"/>
<polygon fill="black" stroke="black" points="1240.15,-444.55 1249.78,-439.32 1245.13,-444.18 1250.12,-443.8 1250.12,-443.8 1250.12,-443.8 1245.13,-444.18 1250.46,-448.29 1240.15,-444.55 1240.15,-444.55"/>
</g>
<!-- robot_sf.ped_npc.ped_behavior&#45;&gt;robot_sf.nav.navigation -->
<g id="edge5" class="edge">
<title>robot_sf.ped_npc.ped_behavior&#45;&gt;robot_sf.nav.navigation</title>
<path fill="none" stroke="black" d="M1519.41,-324.12C1540.87,-333.69 1567.8,-345.7 1590.57,-355.85"/>
<polygon fill="black" stroke="black" points="1599.72,-359.93 1588.75,-359.97 1595.15,-357.9 1590.58,-355.86 1590.58,-355.86 1590.58,-355.86 1595.15,-357.9 1592.42,-351.75 1599.72,-359.93 1599.72,-359.93"/>
</g>
<!-- robot_sf.ped_npc.ped_grouping -->
<g id="node10" class="node">
<title>robot_sf.ped_npc.ped_grouping</title>
<polygon fill="#44bb99" stroke="#44bb99" points="1452.5,-396 1213.5,-396 1213.5,-360 1452.5,-360 1452.5,-396"/>
<text text-anchor="middle" x="1333" y="-374.3" font-family="Times,serif" font-size="14.00">robot_sf.ped_npc.ped_grouping</text>
</g>
<!-- robot_sf.ped_npc.ped_behavior&#45;&gt;robot_sf.ped_npc.ped_grouping -->
<g id="edge6" class="edge">
<title>robot_sf.ped_npc.ped_behavior&#45;&gt;robot_sf.ped_npc.ped_grouping</title>
<path fill="none" stroke="black" d="M1444.8,-324.12C1424.74,-333.61 1399.63,-345.49 1378.29,-355.58"/>
<polygon fill="black" stroke="black" points="1369.09,-359.93 1376.2,-351.59 1373.61,-357.79 1378.13,-355.66 1378.13,-355.66 1378.13,-355.66 1373.61,-357.79 1380.05,-359.72 1369.09,-359.93 1369.09,-359.93"/>
</g>
<!-- robot_sf.ped_npc.ped_behavior&#45;&gt;robot_sf.ped_npc.ped_zone -->
<g id="edge7" class="edge">
<title>robot_sf.ped_npc.ped_behavior&#45;&gt;robot_sf.ped_npc.ped_zone</title>
<path fill="none" stroke="black" d="M1488.7,-324.26C1498.07,-343.69 1515.46,-375.24 1538,-396 1551.65,-408.57 1568.85,-419.08 1585.11,-427.34"/>
<polygon fill="black" stroke="black" points="1594.54,-431.94 1583.58,-431.6 1590.05,-429.75 1585.55,-427.56 1585.55,-427.56 1585.55,-427.56 1590.05,-429.75 1587.52,-423.51 1594.54,-431.94 1594.54,-431.94"/>
</g>
<!-- robot_sf.ped_npc.ped_population -->
<g id="node11" class="node">
<title>robot_sf.ped_npc.ped_population</title>
<polygon fill="#44bb99" stroke="#44bb99" points="1463,-252 1213,-252 1213,-216 1463,-216 1463,-252"/>
<text text-anchor="middle" x="1338" y="-230.3" font-family="Times,serif" font-size="14.00">robot_sf.ped_npc.ped_population</text>
</g>
<!-- robot_sf.ped_npc.ped_population&#45;&gt;robot_sf.nav.map_config -->
<g id="edge8" class="edge">
<title>robot_sf.ped_npc.ped_population&#45;&gt;robot_sf.nav.map_config</title>
<path fill="none" stroke="black" d="M1316.47,-252.17C1288.61,-275.01 1239.44,-317.48 1204,-360 1187.52,-379.77 1171.98,-404.6 1161.3,-423.01"/>
<polygon fill="black" stroke="black" points="1156.33,-431.73 1157.37,-420.82 1158.81,-427.39 1161.28,-423.05 1161.28,-423.05 1161.28,-423.05 1158.81,-427.39 1165.19,-425.28 1156.33,-431.73 1156.33,-431.73"/>
</g>
<!-- robot_sf.ped_npc.ped_population&#45;&gt;robot_sf.ped_npc.ped_behavior -->
<g id="edge9" class="edge">
<title>robot_sf.ped_npc.ped_population&#45;&gt;robot_sf.ped_npc.ped_behavior</title>
<path fill="none" stroke="black" d="M1372.98,-252.12C1392.2,-261.53 1416.23,-273.29 1436.74,-283.33"/>
<polygon fill="black" stroke="black" points="1445.88,-287.81 1434.92,-287.46 1441.39,-285.61 1436.9,-283.41 1436.9,-283.41 1436.9,-283.41 1441.39,-285.61 1438.88,-279.37 1445.88,-287.81 1445.88,-287.81"/>
</g>
<!-- robot_sf.ped_npc.ped_population&#45;&gt;robot_sf.ped_npc.ped_grouping -->
<g id="edge10" class="edge">
<title>robot_sf.ped_npc.ped_population&#45;&gt;robot_sf.ped_npc.ped_grouping</title>
<path fill="none" stroke="black" d="M1337.4,-252.13C1336.54,-276.33 1334.98,-320.79 1333.96,-349.61"/>
<polygon fill="black" stroke="black" points="1333.61,-359.81 1329.46,-349.66 1333.78,-354.81 1333.96,-349.82 1333.96,-349.82 1333.96,-349.82 1333.78,-354.81 1338.45,-349.98 1333.61,-359.81 1333.61,-359.81"/>
</g>
<!-- robot_sf.ped_npc.ped_population&#45;&gt;robot_sf.ped_npc.ped_zone -->
<g id="edge11" class="edge">
<title>robot_sf.ped_npc.ped_population&#45;&gt;robot_sf.ped_npc.ped_zone</title>
<path fill="none" stroke="black" d="M1463.22,-251.13C1509.59,-259.29 1562.03,-271.14 1608,-288 1669.65,-310.6 1703.76,-303.38 1737,-360 1745.1,-373.8 1745.22,-382.27 1737,-396 1728.99,-409.38 1716.32,-419.57 1702.69,-427.26"/>
<polygon fill="black" stroke="black" points="1693.63,-431.96 1700.43,-423.36 1698.06,-429.66 1702.5,-427.35 1702.5,-427.35 1702.5,-427.35 1698.06,-429.66 1704.57,-431.35 1693.63,-431.96 1693.63,-431.96"/>
</g>
<!-- robot_sf.ped_npc.ped_robot_force -->
<g id="node12" class="node">
<title>robot_sf.ped_npc.ped_robot_force</title>
<polygon fill="#44bb99" stroke="#44bb99" points="832.5,-396 577.5,-396 577.5,-360 832.5,-360 832.5,-396"/>
<text text-anchor="middle" x="705" y="-374.3" font-family="Times,serif" font-size="14.00">robot_sf.ped_npc.ped_robot_force</text>
</g>
<!-- robot_sf.robot -->
<g id="node14" class="node">
<title>robot_sf.robot</title>
<polygon fill="#bbcc33" stroke="#bbcc33" points="1125,-36 1009,-36 1009,0 1125,0 1125,-36"/>
<text text-anchor="middle" x="1067" y="-14.3" font-family="Times,serif" font-size="14.00">robot_sf.robot</text>
</g>
<!-- robot_sf.robot.bicycle_drive -->
<g id="node15" class="node">
<title>robot_sf.robot.bicycle_drive</title>
<polygon fill="#bbcc33" stroke="#bbcc33" points="1043,-324 829,-324 829,-288 1043,-288 1043,-324"/>
<text text-anchor="middle" x="936" y="-302.3" font-family="Times,serif" font-size="14.00">robot_sf.robot.bicycle_drive</text>
</g>
<!-- robot_sf.robot.differential_drive -->
<g id="node16" class="node">
<title>robot_sf.robot.differential_drive</title>
<polygon fill="#bbcc33" stroke="#bbcc33" points="810.5,-324 567.5,-324 567.5,-288 810.5,-288 810.5,-324"/>
<text text-anchor="middle" x="689" y="-302.3" font-family="Times,serif" font-size="14.00">robot_sf.robot.differential_drive</text>
</g>
<!-- robot_sf.robot_env&#45;&gt;robot_sf.nav.map_config -->
<g id="edge12" class="edge">
<title>robot_sf.robot_env&#45;&gt;robot_sf.nav.map_config</title>
<path fill="none" stroke="black" d="M536.5,-100.71C473.88,-109.97 390.22,-125.27 362,-144 321.84,-170.66 300,-184.79 300,-233 300,-233 300,-233 300,-307 300,-366.83 345.81,-372.89 401,-396 514.15,-443.39 866.69,-449.7 1043.59,-449.75"/>
<polygon fill="black" stroke="black" points="1053.69,-449.75 1043.69,-454.25 1048.69,-449.75 1043.69,-449.75 1043.69,-449.75 1043.69,-449.75 1048.69,-449.75 1043.68,-445.25 1053.69,-449.75 1053.69,-449.75"/>
</g>
<!-- robot_sf.robot_env&#45;&gt;robot_sf.nav.navigation -->
<g id="edge13" class="edge">
<title>robot_sf.robot_env&#45;&gt;robot_sf.nav.navigation</title>
<path fill="none" stroke="black" d="M685.55,-94.71C879.72,-105.34 1396.47,-140.17 1548,-216 1591.97,-238 1609.96,-244.04 1632,-288 1641.57,-307.09 1642.57,-331.45 1641.46,-349.85"/>
<polygon fill="black" stroke="black" points="1640.61,-359.92 1636.97,-349.57 1641.03,-354.93 1641.45,-349.95 1641.45,-349.95 1641.45,-349.95 1641.03,-354.93 1645.93,-350.33 1640.61,-359.92 1640.61,-359.92"/>
</g>
<!-- robot_sf.robot_env&#45;&gt;robot_sf.nav.occupancy -->
<g id="edge14" class="edge">
<title>robot_sf.robot_env&#45;&gt;robot_sf.nav.occupancy</title>
<path fill="none" stroke="black" d="M536.14,-100.73C431.49,-114.48 252.63,-138.51 239,-144 137.39,-184.91 88.94,-190.51 39,-288 31.71,-302.24 33.02,-309.16 39,-324 43.35,-334.79 51.06,-344.61 59.19,-352.79"/>
<polygon fill="black" stroke="black" points="66.7,-359.82 56.32,-356.27 63.05,-356.4 59.4,-352.98 59.4,-352.98 59.4,-352.98 63.05,-356.4 62.47,-349.7 66.7,-359.82 66.7,-359.82"/>
</g>
<!-- robot_sf.sensor.goal_sensor -->
<g id="node19" class="node">
<title>robot_sf.sensor.goal_sensor</title>
<polygon fill="#aaaa00" stroke="#aaaa00" points="583,-180 371,-180 371,-144 583,-144 583,-180"/>
<text text-anchor="middle" x="477" y="-158.3" font-family="Times,serif" font-size="14.00">robot_sf.sensor.goal_sensor</text>
</g>
<!-- robot_sf.robot_env&#45;&gt;robot_sf.sensor.goal_sensor -->
<g id="edge15" class="edge">
<title>robot_sf.robot_env&#45;&gt;robot_sf.sensor.goal_sensor</title>
<path fill="none" stroke="black" d="M578.22,-108.12C560.37,-117.45 538.1,-129.08 519,-139.06"/>
<polygon fill="black" stroke="black" points="509.91,-143.81 516.69,-135.19 514.34,-141.5 518.77,-139.18 518.77,-139.18 518.77,-139.18 514.34,-141.5 520.85,-143.17 509.91,-143.81 509.91,-143.81"/>
</g>
<!-- robot_sf.sensor.range_sensor -->
<g id="node20" class="node">
<title>robot_sf.sensor.range_sensor</title>
<polygon fill="#aaaa00" stroke="#aaaa00" points="272,-324 48,-324 48,-288 272,-288 272,-324"/>
<text text-anchor="middle" x="160" y="-302.3" font-family="Times,serif" font-size="14.00">robot_sf.sensor.range_sensor</text>
</g>
<!-- robot_sf.robot_env&#45;&gt;robot_sf.sensor.range_sensor -->
<g id="edge16" class="edge">
<title>robot_sf.robot_env&#45;&gt;robot_sf.sensor.range_sensor</title>
<path fill="none" stroke="black" d="M536.21,-100.28C447,-111.8 307.19,-131.47 286,-144 231.32,-176.35 191.5,-242.18 172.5,-278.85"/>
<polygon fill="black" stroke="black" points="167.91,-287.94 168.4,-276.98 170.16,-283.47 172.42,-279.01 172.42,-279.01 172.42,-279.01 170.16,-283.47 176.43,-281.04 167.91,-287.94 167.91,-287.94"/>
</g>
<!-- robot_sf.sensor.sensor_fusion -->
<g id="node21" class="node">
<title>robot_sf.sensor.sensor_fusion</title>
<polygon fill="#aaaa00" stroke="#aaaa00" points="865,-180 639,-180 639,-144 865,-144 865,-180"/>
<text text-anchor="middle" x="752" y="-158.3" font-family="Times,serif" font-size="14.00">robot_sf.sensor.sensor_fusion</text>
</g>
<!-- robot_sf.robot_env&#45;&gt;robot_sf.sensor.sensor_fusion -->
<g id="edge17" class="edge">
<title>robot_sf.robot_env&#45;&gt;robot_sf.sensor.sensor_fusion</title>
<path fill="none" stroke="black" d="M645.49,-108.12C664.44,-117.53 688.13,-129.29 708.36,-139.33"/>
<polygon fill="black" stroke="black" points="717.37,-143.81 706.42,-143.39 712.9,-141.59 708.42,-139.36 708.42,-139.36 708.42,-139.36 712.9,-141.59 710.42,-135.33 717.37,-143.81 717.37,-143.81"/>
</g>
<!-- robot_sf.sim.sim_view -->
<g id="node24" class="node">
<title>robot_sf.sim.sim_view</title>
<polygon fill="#eedd88" stroke="#eedd88" points="1011.5,-252 838.5,-252 838.5,-216 1011.5,-216 1011.5,-252"/>
<text text-anchor="middle" x="925" y="-230.3" font-family="Times,serif" font-size="14.00">robot_sf.sim.sim_view</text>
</g>
<!-- robot_sf.robot_env&#45;&gt;robot_sf.sim.sim_view -->
<g id="edge18" class="edge">
<title>robot_sf.robot_env&#45;&gt;robot_sf.sim.sim_view</title>
<path fill="none" stroke="black" d="M685.59,-99.1C752.44,-107.58 844.39,-122.65 874,-144 895.13,-159.24 908.77,-186.12 916.57,-206.37"/>
<polygon fill="black" stroke="black" points="920.04,-215.97 912.41,-208.09 918.34,-211.27 916.64,-206.56 916.64,-206.56 916.64,-206.56 918.34,-211.27 920.88,-205.04 920.04,-215.97 920.04,-215.97"/>
</g>
<!-- robot_sf.sim.simulator -->
<g id="node25" class="node">
<title>robot_sf.sim.simulator</title>
<polygon fill="#eedd88" stroke="#eedd88" points="1216,-180 1040,-180 1040,-144 1216,-144 1216,-180"/>
<text text-anchor="middle" x="1128" y="-158.3" font-family="Times,serif" font-size="14.00">robot_sf.sim.simulator</text>
</g>
<!-- robot_sf.robot_env&#45;&gt;robot_sf.sim.simulator -->
<g id="edge19" class="edge">
<title>robot_sf.robot_env&#45;&gt;robot_sf.sim.simulator</title>
<path fill="none" stroke="black" d="M685.62,-101.1C776.33,-113.38 929.65,-134.14 1029.85,-147.71"/>
<polygon fill="black" stroke="black" points="1039.98,-149.08 1029.47,-152.2 1035.03,-148.41 1030.07,-147.74 1030.07,-147.74 1030.07,-147.74 1035.03,-148.41 1030.67,-143.28 1039.98,-149.08 1039.98,-149.08"/>
</g>
<!-- robot_sf.sim_config -->
<g id="node26" class="node">
<title>robot_sf.sim_config</title>
<polygon fill="#77aadd" stroke="#77aadd" points="687.5,-252 534.5,-252 534.5,-216 687.5,-216 687.5,-252"/>
<text text-anchor="middle" x="611" y="-230.3" font-family="Times,serif" font-size="14.00">robot_sf.sim_config</text>
</g>
<!-- robot_sf.robot_env&#45;&gt;robot_sf.sim_config -->
<g id="edge20" class="edge">
<title>robot_sf.robot_env&#45;&gt;robot_sf.sim_config</title>
<path fill="none" stroke="black" d="M611,-108.13C611,-132.33 611,-176.79 611,-205.61"/>
<polygon fill="black" stroke="black" points="611,-215.81 606.5,-205.81 611,-210.81 611,-205.81 611,-205.81 611,-205.81 611,-210.81 615.5,-205.81 611,-215.81 611,-215.81"/>
</g>
<!-- robot_sf.sensor -->
<g id="node18" class="node">
<title>robot_sf.sensor</title>
<polygon fill="#aaaa00" stroke="#aaaa00" points="1268.5,-36 1143.5,-36 1143.5,0 1268.5,0 1268.5,-36"/>
<text text-anchor="middle" x="1206" y="-14.3" font-family="Times,serif" font-size="14.00">robot_sf.sensor</text>
</g>
<!-- robot_sf.sensor.range_sensor&#45;&gt;robot_sf.nav.occupancy -->
<g id="edge21" class="edge">
<title>robot_sf.sensor.range_sensor&#45;&gt;robot_sf.nav.occupancy</title>
<path fill="none" stroke="black" d="M142.7,-324.3C134.14,-332.86 123.66,-343.34 114.3,-352.7"/>
<polygon fill="black" stroke="black" points="107.1,-359.9 110.99,-349.64 110.64,-356.36 114.18,-352.82 114.18,-352.82 114.18,-352.82 110.64,-356.36 117.36,-356.01 107.1,-359.9 107.1,-359.9"/>
</g>
<!-- robot_sf.sim -->
<g id="node22" class="node">
<title>robot_sf.sim</title>
<polygon fill="#eedd88" stroke="#eedd88" points="1391,-36 1287,-36 1287,0 1391,0 1391,-36"/>
<text text-anchor="middle" x="1339" y="-14.3" font-family="Times,serif" font-size="14.00">robot_sf.sim</text>
</g>
<!-- robot_sf.sim.sim_config -->
<g id="node23" class="node">
<title>robot_sf.sim.sim_config</title>
<polygon fill="#eedd88" stroke="#eedd88" points="549.5,-324 366.5,-324 366.5,-288 549.5,-288 549.5,-324"/>
<text text-anchor="middle" x="458" y="-302.3" font-family="Times,serif" font-size="14.00">robot_sf.sim.sim_config</text>
</g>
<!-- robot_sf.sim.sim_config&#45;&gt;robot_sf.ped_npc.ped_robot_force -->
<g id="edge22" class="edge">
<title>robot_sf.sim.sim_config&#45;&gt;robot_sf.ped_npc.ped_robot_force</title>
<path fill="none" stroke="black" d="M518.11,-324.03C553.37,-334.03 598.09,-346.7 634.94,-357.15"/>
<polygon fill="black" stroke="black" points="644.62,-359.89 633.78,-361.49 639.81,-358.53 635,-357.16 635,-357.16 635,-357.16 639.81,-358.53 636.23,-352.83 644.62,-359.89 644.62,-359.89"/>
</g>
<!-- robot_sf.sim.sim_view&#45;&gt;robot_sf.nav.map_config -->
<g id="edge23" class="edge">
<title>robot_sf.sim.sim_view&#45;&gt;robot_sf.nav.map_config</title>
<path fill="none" stroke="black" d="M987.63,-252.09C1009.73,-260.33 1033.62,-271.99 1052,-288 1094.77,-325.25 1123.41,-386.66 1137.29,-421.9"/>
<polygon fill="black" stroke="black" points="1140.97,-431.52 1133.19,-423.78 1139.18,-426.85 1137.4,-422.18 1137.4,-422.18 1137.4,-422.18 1139.18,-426.85 1141.6,-420.57 1140.97,-431.52 1140.97,-431.52"/>
</g>
<!-- robot_sf.sim.sim_view&#45;&gt;robot_sf.robot.bicycle_drive -->
<g id="edge24" class="edge">
<title>robot_sf.sim.sim_view&#45;&gt;robot_sf.robot.bicycle_drive</title>
<path fill="none" stroke="black" d="M927.72,-252.3C928.93,-260.02 930.39,-269.29 931.74,-277.89"/>
<polygon fill="black" stroke="black" points="933.31,-287.9 927.31,-278.72 932.54,-282.96 931.76,-278.02 931.76,-278.02 931.76,-278.02 932.54,-282.96 936.21,-277.32 933.31,-287.9 933.31,-287.9"/>
</g>
<!-- robot_sf.sim.sim_view&#45;&gt;robot_sf.robot.differential_drive -->
<g id="edge25" class="edge">
<title>robot_sf.sim.sim_view&#45;&gt;robot_sf.robot.differential_drive</title>
<path fill="none" stroke="black" d="M867.57,-252.03C834.02,-261.99 791.51,-274.59 756.39,-285.01"/>
<polygon fill="black" stroke="black" points="746.69,-287.89 755,-280.73 751.48,-286.47 756.28,-285.05 756.28,-285.05 756.28,-285.05 751.48,-286.47 757.55,-289.36 746.69,-287.89 746.69,-287.89"/>
</g>
<!-- robot_sf.sim.simulator&#45;&gt;robot_sf.nav.map_config -->
<g id="edge26" class="edge">
<title>robot_sf.sim.simulator&#45;&gt;robot_sf.nav.map_config</title>
<path fill="none" stroke="black" d="M1129.13,-180.03C1132.3,-227.71 1141.27,-362.82 1145.16,-421.37"/>
<polygon fill="black" stroke="black" points="1145.85,-431.69 1140.7,-422.01 1145.52,-426.7 1145.19,-421.72 1145.19,-421.72 1145.19,-421.72 1145.52,-426.7 1149.68,-421.42 1145.85,-431.69 1145.85,-431.69"/>
</g>
<!-- robot_sf.sim.simulator&#45;&gt;robot_sf.nav.navigation -->
<g id="edge27" class="edge">
<title>robot_sf.sim.simulator&#45;&gt;robot_sf.nav.navigation</title>
<path fill="none" stroke="black" d="M1216.3,-165.49C1292.05,-170.02 1403.05,-182.43 1494,-216 1550.22,-236.75 1570.96,-240.89 1608,-288 1622.14,-305.98 1629.79,-330.97 1633.82,-349.9"/>
<polygon fill="black" stroke="black" points="1635.75,-359.97 1629.44,-351 1634.81,-355.06 1633.86,-350.15 1633.86,-350.15 1633.86,-350.15 1634.81,-355.06 1638.28,-349.3 1635.75,-359.97 1635.75,-359.97"/>
</g>
<!-- robot_sf.sim.simulator&#45;&gt;robot_sf.ped_npc.ped_behavior -->
<g id="edge28" class="edge">
<title>robot_sf.sim.simulator&#45;&gt;robot_sf.ped_npc.ped_behavior</title>
<path fill="none" stroke="black" d="M1216.13,-164.69C1306.3,-168.42 1437.89,-180.06 1472,-216 1487.32,-232.14 1488.31,-258.08 1486.21,-277.81"/>
<polygon fill="black" stroke="black" points="1484.85,-287.75 1481.75,-277.23 1485.53,-282.79 1486.21,-277.84 1486.21,-277.84 1486.21,-277.84 1485.53,-282.79 1490.67,-278.45 1484.85,-287.75 1484.85,-287.75"/>
</g>
<!-- robot_sf.sim.simulator&#45;&gt;robot_sf.ped_npc.ped_grouping -->
<g id="edge29" class="edge">
<title>robot_sf.sim.simulator&#45;&gt;robot_sf.ped_npc.ped_grouping</title>
<path fill="none" stroke="black" d="M1141.83,-180.14C1156.72,-198.38 1181.33,-227.86 1204,-252 1238.2,-288.42 1280.11,-328.2 1306.69,-352.88"/>
<polygon fill="black" stroke="black" points="1314.09,-359.73 1303.69,-356.24 1310.42,-356.33 1306.75,-352.94 1306.75,-352.94 1306.75,-352.94 1310.42,-356.33 1309.8,-349.64 1314.09,-359.73 1314.09,-359.73"/>
</g>
<!-- robot_sf.sim.simulator&#45;&gt;robot_sf.ped_npc.ped_population -->
<g id="edge30" class="edge">
<title>robot_sf.sim.simulator&#45;&gt;robot_sf.ped_npc.ped_population</title>
<path fill="none" stroke="black" d="M1179.1,-180.03C1208.57,-189.86 1245.81,-202.27 1276.83,-212.61"/>
<polygon fill="black" stroke="black" points="1286.67,-215.89 1275.76,-217 1281.92,-214.31 1277.18,-212.73 1277.18,-212.73 1277.18,-212.73 1281.92,-214.31 1278.6,-208.46 1286.67,-215.89 1286.67,-215.89"/>
</g>
<!-- robot_sf.sim.simulator&#45;&gt;robot_sf.ped_npc.ped_robot_force -->
<g id="edge31" class="edge">
<title>robot_sf.sim.simulator&#45;&gt;robot_sf.ped_npc.ped_robot_force</title>
<path fill="none" stroke="black" d="M1125.29,-180.19C1119.03,-213.8 1100.2,-288.07 1052,-324 1019.11,-348.52 924.84,-361.91 842.85,-369.09"/>
<polygon fill="black" stroke="black" points="832.66,-369.96 842.24,-364.63 837.64,-369.54 842.62,-369.11 842.62,-369.11 842.62,-369.11 837.64,-369.54 843,-373.6 832.66,-369.96 832.66,-369.96"/>
</g>
<!-- robot_sf.sim.simulator&#45;&gt;robot_sf.robot.bicycle_drive -->
<g id="edge32" class="edge">
<title>robot_sf.sim.simulator&#45;&gt;robot_sf.robot.bicycle_drive</title>
<path fill="none" stroke="black" d="M1108.69,-180.18C1087.53,-198.69 1052.29,-228.65 1020,-252 1005.3,-262.63 988.51,-273.47 973.81,-282.55"/>
<polygon fill="black" stroke="black" points="964.97,-287.96 971.15,-278.9 969.24,-285.35 973.5,-282.74 973.5,-282.74 973.5,-282.74 969.24,-285.35 975.85,-286.58 964.97,-287.96 964.97,-287.96"/>
</g>
<!-- robot_sf.sim.simulator&#45;&gt;robot_sf.robot.differential_drive -->
<g id="edge33" class="edge">
<title>robot_sf.sim.simulator&#45;&gt;robot_sf.robot.differential_drive</title>
<path fill="none" stroke="black" d="M1039.86,-169.52C978.99,-176.2 897.05,-189.54 829,-216 787.58,-232.11 745.23,-261.13 718.12,-281.65"/>
<polygon fill="black" stroke="black" points="709.87,-287.98 715.06,-278.32 713.84,-284.94 717.8,-281.89 717.8,-281.89 717.8,-281.89 713.84,-284.94 720.54,-285.46 709.87,-287.98 709.87,-287.98"/>
</g>
<!-- robot_sf.sim.simulator&#45;&gt;robot_sf.sim_config -->
<g id="edge34" class="edge">
<title>robot_sf.sim.simulator&#45;&gt;robot_sf.sim_config</title>
<path fill="none" stroke="black" d="M1039.71,-174.95C944.13,-187.9 792.65,-208.4 697.7,-221.26"/>
<polygon fill="black" stroke="black" points="687.55,-222.64 696.85,-216.83 692.5,-221.96 697.46,-221.29 697.46,-221.29 697.46,-221.29 692.5,-221.96 698.06,-225.75 687.55,-222.64 687.55,-222.64"/>
</g>
<!-- robot_sf.sim_config&#45;&gt;robot_sf.nav.map_config -->
<g id="edge35" class="edge">
<title>robot_sf.sim_config&#45;&gt;robot_sf.nav.map_config</title>
<path fill="none" stroke="black" d="M534.17,-236.23C443.27,-240.62 309.83,-258.07 357,-324 435.32,-433.48 848.13,-448.83 1043.86,-449.83"/>
<polygon fill="black" stroke="black" points="1053.87,-449.87 1043.85,-454.33 1048.87,-449.85 1043.87,-449.83 1043.87,-449.83 1043.87,-449.83 1048.87,-449.85 1043.88,-445.33 1053.87,-449.87 1053.87,-449.87"/>
</g>
<!-- robot_sf.sim_config&#45;&gt;robot_sf.robot.bicycle_drive -->
<g id="edge36" class="edge">
<title>robot_sf.sim_config&#45;&gt;robot_sf.robot.bicycle_drive</title>
<path fill="none" stroke="black" d="M687.61,-251.5C735.38,-261.79 797.04,-275.07 846.97,-285.82"/>
<polygon fill="black" stroke="black" points="856.8,-287.94 846.07,-290.23 851.91,-286.89 847.02,-285.84 847.02,-285.84 847.02,-285.84 851.91,-286.89 847.97,-281.44 856.8,-287.94 856.8,-287.94"/>
</g>
<!-- robot_sf.sim_config&#45;&gt;robot_sf.robot.differential_drive -->
<g id="edge37" class="edge">
<title>robot_sf.sim_config&#45;&gt;robot_sf.robot.differential_drive</title>
<path fill="none" stroke="black" d="M630.28,-252.3C639.92,-260.95 651.73,-271.55 662.23,-280.97"/>
<polygon fill="black" stroke="black" points="669.94,-287.9 659.49,-284.57 666.22,-284.56 662.5,-281.22 662.5,-281.22 662.5,-281.22 666.22,-284.56 665.5,-277.87 669.94,-287.9 669.94,-287.9"/>
</g>
<!-- robot_sf.sim_config&#45;&gt;robot_sf.sensor.range_sensor -->
<g id="edge38" class="edge">
<title>robot_sf.sim_config&#45;&gt;robot_sf.sensor.range_sensor</title>
<path fill="none" stroke="black" d="M534.49,-246.87C464.84,-257.69 360.87,-273.82 280.13,-286.35"/>
<polygon fill="black" stroke="black" points="269.91,-287.94 279.1,-281.96 274.85,-287.17 279.79,-286.41 279.79,-286.41 279.79,-286.41 274.85,-287.17 280.48,-290.85 269.91,-287.94 269.91,-287.94"/>
</g>
<!-- robot_sf.sim_config&#45;&gt;robot_sf.sim.sim_config -->
<g id="edge39" class="edge">
<title>robot_sf.sim_config&#45;&gt;robot_sf.sim.sim_config</title>
<path fill="none" stroke="black" d="M573.57,-252.12C552.75,-261.65 526.65,-273.59 504.52,-283.72"/>
<polygon fill="black" stroke="black" points="495.31,-287.93 502.53,-279.68 499.85,-285.85 504.4,-283.77 504.4,-283.77 504.4,-283.77 499.85,-285.85 506.27,-287.86 495.31,-287.93 495.31,-287.93"/>
</g>
<!-- robot_sf.tb_logging -->
<g id="node27" class="node">
<title>robot_sf.tb_logging</title>
<polygon fill="#77aadd" stroke="#77aadd" points="491.5,-36 338.5,-36 338.5,0 491.5,0 491.5,-36"/>
<text text-anchor="middle" x="415" y="-14.3" font-family="Times,serif" font-size="14.00">robot_sf.tb_logging</text>
</g>
<!-- robot_sf.tb_logging&#45;&gt;robot_sf.eval -->
<g id="edge40" class="edge">
<title>robot_sf.tb_logging&#45;&gt;robot_sf.eval</title>
<path fill="none" stroke="black" d="M415,-36.3C415,-44.02 415,-53.29 415,-61.89"/>
<polygon fill="black" stroke="black" points="415,-71.9 410.5,-61.9 415,-66.9 415,-61.9 415,-61.9 415,-61.9 415,-66.9 419.5,-61.9 415,-71.9 415,-71.9"/>
</g>
</g>
</svg>
