<?xml version="1.0" encoding="UTF-8" standalone="no"?>
<svg
   viewBox="0.0 0.0 512.5 392.4019607843137"
   version="1.1"
   id="svg11"
   sodipodi:docname="uni_campus_1350_obstacles_lake_traverse.svg"
   inkscape:version="1.4 (e7c3feb1, 2024-10-09)"
   xmlns:inkscape="http://www.inkscape.org/namespaces/inkscape"
   xmlns:sodipodi="http://sodipodi.sourceforge.net/DTD/sodipodi-0.dtd"
   xmlns="http://www.w3.org/2000/svg"
   xmlns:svg="http://www.w3.org/2000/svg">
  <defs
     id="defs11" />
  <sodipodi:namedview
     id="namedview11"
     pagecolor="#ffffff"
     bordercolor="#000000"
     borderopacity="0.25"
     inkscape:showpageshadow="2"
     inkscape:pageopacity="0.0"
     inkscape:pagecheckerboard="0"
     inkscape:deskcolor="#d1d1d1"
     inkscape:zoom="9.8179371"
     inkscape:cx="254.07578"
     inkscape:cy="244.14497"
     inkscape:window-width="3440"
     inkscape:window-height="1381"
     inkscape:window-x="0"
     inkscape:window-y="31"
     inkscape:window-maximized="0"
     inkscape:current-layer="svg11" />
  <path
     id="path1939"
     style="fill-rule:evenodd;fill:rgb(85.098039%,81.568627%,78.823529%);fill-opacity:1;stroke-width:0.75;stroke-linecap:butt;stroke-linejoin:miter;stroke:rgb(72.54902%,66.27451%,61.176471%);stroke-opacity:1;stroke-miterlimit:4;"
     inkscape:label="obstacle"
     d="M 271.56641,7.65625 268.27539,7.7207031 265.16602,8.8183594 261.79883,10.326172 258.33594,12.443359 255.3418,14.753906 252.63672,17.53125 250.85352,20.017578 249.08008,23.023438 247.39844,26.996094 246.3457,30.966797 245.58008,35.220703 246.10742,37.923828 251.54688,42.089844 254.84375,46.875 255.66602,49.230469 253.92773,51.5625 243.90039,57.933594 243.04102,65.529297 243.69922,82.361328 249.11523,104.27148 251.22852,111.95312 256.25,129.19727 260.91016,144.12891 261.25586,146.79492 C 261.32692,146.80113 261.39786,146.80823 261.46875,146.81641 261.51614,146.78793 261.57987,146.80523 261.64844,146.83398 262.1338,146.87066 262.61979,146.89547 263.10547,146.92188 263.83127,146.95698 264.55719,146.99606 265.2832,147.0332 L 263.43555,132.14844 260.98242,114.16797 261.08984,110.4668 261.90625,106.34375 263.39258,102.88086 265.48438,100.21289 268.18164,98.476562 271.1543,97.412109 273.43359,97.457031 276.74609,98.681641 279.5,99.941406 282.42188,100.125 291.95898,99.410156 294.91016,96.066406 297.07422,94.082031 297.99023,92.777344 297.60156,86.820312 297.45703,83.912109 295.18359,83.566406 290.29883,81.298828 287.06055,78.650391 283.91602,75.578125 282.42188,72.951172 281.92578,69.990234 281.29688,65.095703 281.96094,61.101562 287.22656,51.378906 290.75391,47.363281 293.15039,43.228516 294.82422,39.310547 295.39258,35.351562 295.70312,31.183594 295.21875,27.277344 294.16602,23.011719 292.03125,19.105469 288.79297,15.501953 286.55664,13.169922 283.87305,11.052734 280.90039,9.4160156 274.94141,7.7753906 Z M 261.85156,151.50586 264.0332,168.81641 264.73438,179.02734 265.57812,184.87695 266.53711,189.5332 268.24805,195.34961 269.13477,200.04883 269.32227,204.74609 268.24023,209.57422 266.45703,218.74414 265.44141,227.25195 265.72266,232.125 267.14258,238.63477 270.80859,247.03516 275.02734,255.20508 276.68164,259.25391 C 276.91605,259.22339 277.14941,259.18964 277.38281,259.15039 277.80649,259.07202 278.22815,258.98575 278.65234,258.91016 278.94309,258.85734 279.23859,258.84322 279.5332,258.83008 279.76377,258.80501 279.99391,258.77386 280.22461,258.75 280.38184,258.73341 280.53933,258.7249 280.69727,258.71875 280.71751,258.7181 280.73756,258.71742 280.75781,258.7168 280.79383,258.7157 280.8142,258.71349 280.84375,258.71289 280.9741,258.66479 281.10681,258.62283 281.24023,258.58398 281.84334,258.44141 282.4588,258.40297 283.07617,258.41211 283.14723,258.41484 283.2182,258.42098 283.28906,258.42578 L 280.84961,251.60352 276.17383,240.06836 274.72461,231.46289 274.63086,224.10547 274.96289,215.08789 277.40039,201.77344 278.11523,196.77148 278.29688,192.98242 277.26367,187.86133 268.77344,175.1543 265.88672,151.89062 C 264.66322,151.79749 263.43928,151.6941 262.2207,151.55273 262.09758,151.53777 261.97466,151.52117 261.85156,151.50586 Z M 284.49609,264.30273 C 283.98376,264.45809 283.4594,264.57673 282.9375,264.69141 282.38863,264.81241 281.83361,264.8946 281.27539,264.95703 280.94912,264.99237 280.62085,265.00567 280.29297,265.01367 280.04291,265.01884 279.79308,265.02178 279.54297,265.02344 279.34305,265.03594 279.14617,264.99747 278.95117,264.95898 278.87198,264.94219 278.79302,264.92288 278.71484,264.90234 L 279.00391,274.53125 279.1543,279.54492 277.97266,284.7207 276.08008,292.79492 271.875,300.82617 265.63477,304.65625 258.18359,307.41211 251.26562,314.61719 238.78516,324.73047 231.96875,332.46875 229.40039,336.7207 227.04102,343.42773 228.38281,347.80078 231.47852,351.0332 235.0625,354.04102 241.61328,356.10156 253.01953,358 266.95508,357.36133 273.57812,351.67383 276.64453,348.63477 279.73828,348.51758 283.02734,343.9375 285.20703,338.65234 285.12695,335.38672 285.23633,332.38086 288.36719,327.82422 290.8125,324.37109 291.69922,318.66406 291.75,312.88086 291.99414,303.49414 293.35156,300.5332 292.70312,293.84766 291.50391,293.16406 286.5332,283.22461 Z M 271.66602,330.95898 273.4707,332.51172 274.08203,335.31055 271.56641,339.57422 264.20703,346.06445 259.09961,348.09375 253.01172,347.21484 251.65625,343.25391 256.82812,338.12109 263.93945,333 268.4707,331.53516 Z" />
  <path
     style="fill-rule:evenodd;fill:rgb(85.098039%,81.568627%,78.823529%);fill-opacity:1;stroke-width:0.75;stroke-linecap:butt;stroke-linejoin:miter;stroke:rgb(72.54902%,66.27451%,61.176471%);stroke-opacity:1;stroke-miterlimit:4;"
     d="M 27.56969975490196 256.877106372549 L 44.37806372549019 256.3773360294117 L 44.44986985294118 260.67516862745094 L 71.1339612745098 260.0777421568627 L 71.50256593137256 294.618374754902 L 67.27462475490196 294.6834789215686 L 67.15207573529412 287.0873544117647 L 52.017271813725486 287.3477710784313 L 52.349494607843134 303.1470205882353 L 67.33206960784314 303.4945617647059 L 67.26792279411764 298.87216617647056 L 69.55422794117646 298.68738504901955 L 71.54564950980392 298.535156372549 L 71.84149044117646 326.7702588235294 L 77.83586078431372 327.0526960784314 L 77.98043039215685 331.609987745098 L 85.57655490196079 331.4587161764706 L 85.46070784313726 293.5652191176471 L 85.38124240196079 267.4565333333333 L 112.03661151960785 267.02282475490193 L 111.89299950980391 263.9849495098039 L 113.97058823529412 263.9303769607843 L 114.63407622549019 302.832031372549 L 115.18267450980392 335.13710171568624 L 121.17704509803922 334.94178921568624 L 121.1263019607843 342.73322598039215 L 131.4788220588235 341.08360147058823 L 129.451018627451 330.3950291666667 L 128.76646764705882 306.44626985294116 L 128.5644531862745 266.7624080882353 L 148.5973882352941 266.5670955882353 L 148.74100024509804 262.6493566176471 L 155.3203507352941 262.5086166666666 L 155.29162843137254 254.78228406862746 L 155.26290588235295 252.96989901960782 L 155.21982230392157 250.1053156862745 L 151.15847107843135 250.17041960784312 L 151.15847107843135 246.9803156862745 L 140.3732 246.87212769607842 L 139.83992034313724 238.5598575980392 L 124.53182450980393 241.22912843137254 L 105.06089166666666 241.32678455882353 L 105.02546715686273 242.02090980392154 L 94.25455735294118 240.3387330882353 L 89.5220588235294 239.69918039215685 L 88.99548088235294 244.39721200980392 L 81.73157941176471 244.6250764705882 L 81.36393235294118 211.14813112745097 L 77.38874852941177 211.31089166666666 L 77.31694240196079 209.68328725490193 L 76.88323382352941 208.3812039215686 L 75.31786151960785 208.57651666666666 L 73.60121789215687 208.7182137254902 L 73.14644607843137 205.35386029411765 L 62.16011789215686 206.65594362745097 L 65.08214607843136 221.83766078431373 L 66.17838529411765 221.8051088235294 L 65.40670955882352 248.0114507352941 L 50.14935661764706 248.1521906862745 L 50.00478700980392 240.83850343137254 L 31.435738235294117 241.18604460784312 Z M 27.56969975490196 256.877106372549"
     id="path1943"
     inkscape:label="obstacle" />
  <path
     style="fill-rule:evenodd;fill:rgb(85.098039%,81.568627%,78.823529%);fill-opacity:1;stroke-width:0.75;stroke-linecap:butt;stroke-linejoin:miter;stroke:rgb(72.54902%,66.27451%,61.176471%);stroke-opacity:1;stroke-miterlimit:4;"
     d="M 27.56969975490196 256.877106372549 L 44.37806372549019 256.3773360294117 L 44.44986985294118 260.67516862745094 L 71.1339612745098 260.0777421568627 L 71.50256593137256 294.618374754902 L 67.27462475490196 294.6834789215686 L 67.15207573529412 287.0873544117647 L 52.017271813725486 287.3477710784313 L 52.349494607843134 303.1470205882353 L 67.33206960784314 303.4945617647059 L 67.26792279411764 298.87216617647056 L 69.55422794117646 298.68738504901955 L 71.54564950980392 298.535156372549 L 71.84149044117646 326.7702588235294 L 77.83586078431372 327.0526960784314 L 77.98043039215685 331.609987745098 L 85.57655490196079 331.4587161764706 L 85.46070784313726 293.5652191176471 L 85.38124240196079 267.4565333333333 L 112.03661151960785 267.02282475490193 L 111.89299950980391 263.9849495098039 L 113.97058823529412 263.9303769607843 L 114.63407622549019 302.832031372549 L 115.18267450980392 335.13710171568624 L 121.17704509803922 334.94178921568624 L 121.1263019607843 342.73322598039215 L 131.4788220588235 341.08360147058823 L 129.451018627451 330.3950291666667 L 128.76646764705882 306.44626985294116 L 128.5644531862745 266.7624080882353 L 148.5973882352941 266.5670955882353 L 148.74100024509804 262.6493566176471 L 155.3203507352941 262.5086166666666 L 155.29162843137254 254.78228406862746 L 155.26290588235295 252.96989901960782 L 155.21982230392157 250.1053156862745 L 151.15847107843135 250.17041960784312 L 151.15847107843135 246.9803156862745 L 140.3732 246.87212769607842 L 139.83992034313724 238.5598575980392 L 124.53182450980393 241.22912843137254 L 105.06089166666666 241.32678455882353 L 105.02546715686273 242.02090980392154 L 94.25455735294118 240.3387330882353 L 89.5220588235294 239.69918039215685 L 88.99548088235294 244.39721200980392 L 81.73157941176471 244.6250764705882 L 81.36393235294118 211.14813112745097 L 77.38874852941177 211.31089166666666 L 72.25988039215686 211.5827970588235 L 72.36040906862746 219.71028651960782 L 66.16402426470589 219.65571372549016 L 66.17838529411765 221.8051088235294 L 65.40670955882352 248.0114507352941 L 50.14935661764706 248.1521906862745 L 50.00478700980392 240.83850343137254 L 31.435738235294117 241.18604460784312 Z M 27.56969975490196 256.877106372549"
     id="path1944"
     inkscape:label="obstacle" />
  <path
     style="fill-rule:evenodd;fill:rgb(85.098039%,81.568627%,78.823529%);fill-opacity:1;stroke-width:0.75;stroke-linecap:butt;stroke-linejoin:miter;stroke:rgb(72.54902%,66.27451%,61.176471%);stroke-opacity:1;stroke-miterlimit:4;"
     d="M 26.869829901960784 172.19094656862742 L 32.286879656862745 187.87243406862746 L 54.21070784313725 187.64456960784312 L 56.77179068627451 187.62254901960785 L 56.749770098039214 191.22529877450978 L 76.9052544117647 191.1487056372549 L 76.95599730392158 188.49092377450978 L 83.05855539215685 187.48085171568627 L 90.90743725490196 186.19025735294116 L 90.92179852941176 184.88817401960785 L 126.99908088235294 183.67225784313723 L 126.98471960784313 180.7531019607843 L 126.94833799019607 173.16846666666666 L 126.92631740196077 168.63223799019607 L 124.01194852941175 168.65425857843135 L 123.91142009803922 163.58570784313727 L 104.61377916666667 163.81357230392157 L 104.52761176470587 167.4163220588235 L 101.66302843137254 167.46036299019607 L 100.98517916666665 107.85175392156862 L 100.16276029411765 73.74482990196077 L 94.49295343137254 73.95067401960785 L 94.42114730392156 72.07318480392158 L 94.35604313725489 70.3048406862745 L 94.24785539215686 67.40674779411763 L 86.51386323529411 69.16551764705882 L 83.53534779411765 69.8376225490196 L 85.63399975490196 82.59995392156863 L 86.40567549019607 109.23043039215685 L 86.47077965686273 113.98303455882352 L 86.86810661764706 149.08854166666666 L 86.88246789215687 150.4662607843137 L 67.20281862745098 150.87890637254904 L 67.20281862745098 155.1326975490196 L 47.545189950980394 155.33854166666666 L 47.545189950980394 175.70752916666666 L 45.36611519607843 175.77263333333332 L 44.44986985294118 172.11531102941174 L 39.919385784313725 172.137331372549 Z M 26.869829901960784 172.19094656862742"
     id="path1946"
     inkscape:label="obstacle" />
  <path
     style="fill-rule:evenodd;fill:rgb(85.098039%,81.568627%,78.823529%);fill-opacity:1;stroke-width:0.75;stroke-linecap:butt;stroke-linejoin:miter;stroke:rgb(72.54902%,66.27451%,61.176471%);stroke-opacity:1;stroke-miterlimit:4;"
     d="M 297.4848727941176 116.29423259803922 L 298.4298406862745 169.6518843137255 L 298.56004901960785 176.716643627451 L 298.8625919117647 194.06786151960785 L 303.4869024509804 193.98169411764704 L 308.3563112745098 193.89456960784312 L 317.03431372549016 193.7423406862745 L 358.1035539215686 193.0156632352941 L 357.95228235294115 186.02749705882354 L 357.7502681372549 171.20385269607843 L 357.67750465686277 168.82755049019607 L 322.99325980392155 169.44604019607843 L 322.9358149509804 166.1688112745098 L 322.37285539215685 134.4171262254902 L 329.0891161764706 134.33000147058823 L 334.51382499999994 134.19979313725491 L 334.0016083333333 111.44397205882352 L 333.94416372549017 103.34807745098038 L 333.81395539215686 93.48383872549019 L 333.4539676470588 74.38534019607843 L 314.884918872549 74.71086078431372 L 315.3971352941177 103.60849411764704 L 315.42585784313724 109.36063872549019 L 315.62117034313724 115.96871176470589 Z M 297.4848727941176 116.29423259803922"
     id="path1947"
     inkscape:label="obstacle" />
  <path
     style="fill-rule:evenodd;fill:rgb(85.098039%,81.568627%,78.823529%);fill-opacity:1;stroke-width:0.75;stroke-linecap:butt;stroke-linejoin:miter;stroke:rgb(72.54902%,66.27451%,61.176471%);stroke-opacity:1;stroke-miterlimit:4;"
     d="M 134.73881740196077 15.351179411764706 L 134.86902573529412 24.010991176470586 L 134.8910463235294 25.736251470588233 L 159.07149975490194 25.378178676470586 L 159.21606911764704 35.31805294117647 L 135.15720735294119 35.67612598039216 L 135.36688112745097 50.16371789215686 L 135.50379142156862 59.4094669117647 L 136.03036911764707 94.42784926470588 L 193.84286911764707 93.57096348039215 L 193.6331955882353 79.47399656862744 L 193.3450137254902 60.44060196078431 L 168.20427401960785 60.80920637254902 L 168.03864117647058 49.43608308823529 L 193.12097892156862 49.06747843137255 L 192.61642156862743 14.503867892156862 L 165.67287058823527 14.894492892156862 Z M 146.44703578431373 60.017424999999996 L 160.0097656862745 59.83264411764706 L 160.1830575980392 72.7893306372549 L 146.62032794117647 72.96357990196077 Z M 161.8566176470588 25.443282843137254 L 184.6957338235294 25.12829362745098 L 184.82498480392158 34.862323774509804 L 161.98586862745097 35.220396813725486 Z M 170.85918357843136 76.37101715686275 L 186.65077352941177 75.99092377450981 L 186.85278799019608 84.46595441176471 L 171.0611980392157 84.84604779411764 Z M 170.85918357843136 76.37101715686275"
     id="path1948"
     inkscape:label="obstacle" />
  <path
     style="fill-rule:evenodd;fill:rgb(85.098039%,81.568627%,78.823529%);fill-opacity:1;stroke-width:0.75;stroke-linecap:butt;stroke-linejoin:miter;stroke:rgb(72.54902%,66.27451%,61.176471%);stroke-opacity:1;stroke-miterlimit:4;"
     d="M 187.94136789215688 197.59497549019608 L 188.30997254901962 222.26083799019605 L 189.5220588235294 222.23881740196077 L 189.54312205882354 223.3235676470588 L 191.4550781862745 223.30250465686274 L 191.4407169117647 222.27136960784316 L 197.64476102941177 222.17371323529412 L 197.6734833333333 224.35470294117647 L 204.85121789215685 224.24651495098038 L 204.83685661764704 223.13974411764707 L 222.27998627450978 222.87932745098038 L 223.83865661764705 222.85730686274508 L 223.82333799019605 221.62032794117647 L 226.40644142156862 221.57724411764707 L 226.42846200980392 222.98751519607842 L 229.15517769607843 222.94443161764707 L 233.34577965686273 222.88985906862743 L 233.32471666666666 221.27278651960782 L 238.9437806372549 221.19715073529412 L 238.82889093137254 214.12185980392158 L 238.5186887254902 192.87492352941177 L 250.3417968137255 192.70067401960785 L 250.1043580882353 177.16184117647057 L 249.8879825980392 162.83700980392157 L 242.41440710784315 162.94615490196077 L 242.3847274509804 161.1663220588235 L 218.77393529411765 161.52439485294119 L 218.79595588235293 162.86956176470585 L 210.63687205882354 162.9892387254902 L 199.49161299019607 163.1625306372549 L 199.57778039215685 169.07743578431374 L 188.56177230392157 169.24019607843135 L 188.68527892156862 177.40023749999997 L 190.33681838235293 177.36768529411765 L 190.63936127450978 197.5518919117647 Z M 187.94136789215688 197.59497549019608"
     id="path1949"
     inkscape:label="obstacle" />
  <path
     style="fill-rule:evenodd;fill:rgb(85.098039%,81.568627%,78.823529%);fill-opacity:1;stroke-width:0.75;stroke-linecap:butt;stroke-linejoin:miter;stroke:rgb(72.54902%,66.27451%,61.176471%);stroke-opacity:1;stroke-miterlimit:4;"
     d="M 381.0652191176471 248.3254825980392 L 382.78952205882354 248.4231387254902 L 385.01168039215685 250.6481693627451 L 420.46760098039215 250.1053156862745 L 424.1613051470588 246.87212769607842 L 424.1976867647059 245.83046102941177 L 427.0469514705882 245.94918039215685 L 434.4918044117647 253.10010735294117 L 458.131318872549 252.6233149509804 L 464.89832254901955 245.74333627450977 L 472.09041813725486 238.42964926470586 L 475.9133730392157 238.33199289215685 L 482.7598421568627 238.1902955882353 L 486.71300539215684 238.10412843137254 L 493.25597426470586 237.9739200980392 L 496.7907475490196 237.74605539215685 L 496.7763862745098 231.2672333333333 L 496.762025 225.61370245098038 L 493.5738357843137 225.66827499999997 L 486.4966299019608 225.6031710784314 L 482.64399509803917 225.6031710784314 L 475.4595588235294 225.59168186274508 L 469.9841068627451 225.41838995098038 L 467.63269754901955 223.00953578431373 L 465.4028799019608 222.9224112745098 L 465.1146982843137 184.46499705882354 L 459.149050245098 178.30116421568627 L 448.61653651960785 178.25712303921566 L 448.55143235294116 192.59248627450978 L 451.4734605392157 192.58195465686273 L 451.4294193627451 195.46855857843136 L 454.9862132352941 195.48962156862746 L 454.9287683823529 196.83574607843136 L 447.88028480392154 196.79170490196077 L 447.8659237745098 201.8267463235294 L 449.0272671568627 201.8487669117647 L 448.9841835784314 204.40985 L 450.21829044117646 205.6362975490196 L 455.2820541666666 205.67938112745097 L 455.2820541666666 206.95944387254903 L 451.3145296568627 206.95944387254903 L 451.71089926470586 223.30250465686274 L 456.0326669117647 223.1722963235294 L 456.00298725490194 224.2359833333333 L 454.7190946078431 224.2359833333333 L 454.69037230392155 226.62281715686274 L 456.22702205882354 226.5797333333333 L 456.22702205882354 228.695618872549 L 455.0225950980392 228.75019142156862 L 452.15130980392155 231.5707338235294 L 449.14311421568624 234.52244166666665 L 435.73261323529414 234.43627450980392 L 435.71059289215685 233.06908700980392 L 434.31851249999994 231.820618872549 L 431.59179681372547 231.8531710784314 L 431.5697764705882 230.7138480392157 L 426.5998392156863 230.77895220588235 L 426.6793044117647 235.01072303921566 L 423.15123308823524 235.05476421568628 L 423.1225107843137 233.39460784313724 L 413.44113823529415 223.96407794117647 L 395.39196544117647 223.94205735294116 L 390.73223039215685 229.27102475490196 L 381.6138174019608 228.97805612745097 Z M 381.0652191176471 248.3254825980392"
     id="path1950"
     inkscape:label="obstacle" />
  <path
     style="fill-rule:evenodd;fill:rgb(85.098039%,81.568627%,78.823529%);fill-opacity:1;stroke-width:0.75;stroke-linecap:butt;stroke-linejoin:miter;stroke:rgb(72.54902%,66.27451%,61.176471%);stroke-opacity:1;stroke-miterlimit:4;"
     d="M 494.222962745098 199.12492352941177 L 494.3742340686274 209.69477647058824 L 494.47476249999994 217.0515470588235 L 497.8084789215686 217.0515470588235 L 515.8499924019608 217.0410156862745 L 518.1659774509804 219.27657794117647 L 512.2137330882352 225.58115049019605 L 498.0028338235294 225.61370245098038 L 496.762025 225.61370245098038 L 496.7763862745098 231.2672333333333 L 496.7907475490196 237.74605539215685 L 507.8642004901961 237.75658700980392 L 517.1559053921569 247.38147205882353 L 517.6097196078431 264.4406786764706 L 517.6393995098039 265.5359605392157 L 523.576325 265.4277725490196 L 529.4261259803922 265.3952205882353 L 529.4194240196078 264.3755745098039 L 529.4117647058823 263.322418872549 L 529.2604931372548 246.71989901960785 L 537.5928691176471 246.6442632352941 L 537.5421262254902 253.97901348039215 L 544.9151730392157 253.9359299019608 L 555.7358686274509 253.88135735294117 L 555.3529029411765 229.57452499999997 L 522.6667816176471 198.76685049019608 L 519.6882659313725 198.84248627450978 L 519.6585860294117 196.20576740196077 L 520.8639705882352 196.15215220588235 L 520.3804764705882 174.96936274509804 L 499.4964 175.25179999999997 L 499.79894313725487 196.3800169117647 L 501.1623009803921 196.40107990196077 L 501.1910232843137 199.02726715686273 Z M 515.907437254902 228.94550392156862 L 521.8807446078432 222.85730686274508 L 537.484681372549 237.91934754901962 L 537.5421262254902 241.67432598039215 L 529.209750245098 241.67432598039215 Z M 515.907437254902 228.94550392156862"
     id="path1951"
     inkscape:label="obstacle" />
  <path
     style="fill-rule:evenodd;fill:rgb(85.098039%,81.568627%,78.823529%);fill-opacity:1;stroke-width:0.75;stroke-linecap:butt;stroke-linejoin:miter;stroke:rgb(72.54902%,66.27451%,61.176471%);stroke-opacity:1;stroke-miterlimit:4;"
     d="M 344.49103872549017 348.4844132352941 L 344.60592843137255 357.18635098039215 L 344.6423100490196 360.26826740196077 L 344.6499693627451 360.69144460784315 L 344.6566713235294 360.8982460784314 L 344.70741421568624 365.03236053921563 L 344.7217754901961 366.0740272058823 L 344.793581372549 372.08563112745094 L 351.336550245098 371.998506372549 L 352.51991421568624 371.98797499999995 L 357.38932303921564 371.9228705882353 L 357.7359068627451 371.9113818627451 L 362.0998009803921 371.85776666666663 L 364.8628982843137 371.8252144607843 L 365.09363504901955 371.8252144607843 L 366.00988039215684 371.8137254901961 L 370.0425093137255 371.7601102941176 L 369.9343213235294 363.6862362745098 L 369.92666200980386 363.23050710784315 L 369.891237745098 360.3333715686274 L 369.88357843137254 359.6287147058823 L 369.8481541666667 356.92593431372546 L 369.8328355392157 355.6458715686274 L 389.05101102941177 355.39598651960785 L 389.2817477941176 355.39598651960785 L 389.31047034313724 357.96760098039215 L 389.3324906862745 359.5090379901961 L 389.3612132352941 361.5923713235294 L 389.3755745098039 363.1328507352941 L 389.3832338235294 363.38273578431375 L 389.4483379901961 368.482881372549 L 415.0716147058823 368.15736053921563 L 415.09363504901955 369.4699754901961 L 415.1079963235294 370.7395068627451 L 418.21672034313724 370.69642303921563 L 421.48533235294116 370.6533394607843 L 421.74479166666663 370.6533394607843 L 424.80373014705884 370.6092985294117 L 426.06560196078425 370.5987669117647 L 428.52519901960784 370.5662147058823 L 429.34091617647056 370.5556833333333 L 433.61864264705883 370.50111053921563 L 436.9877833333333 370.4580269607843 L 439.91651348039215 370.41398578431375 L 440.2774585784313 370.41398578431375 L 440.40670955882354 370.4034544117647 L 443.32107843137254 370.3709022058823 L 443.667662254902 370.3603705882353 L 446.63277426470586 370.32781862745094 L 446.9784007352941 370.32781862745094 L 447.137331372549 370.3163296568627 L 450.3619024509804 370.2732460784314 L 453.7166818627451 370.230162254902 L 453.875612745098 370.240693872549 L 457.0925245098039 370.1861213235294 L 460.64165906862746 370.14303774509807 L 466.1458333333333 370.0779335784314 L 467.0266544117647 370.0559129901961 L 473.8578049019608 369.9802772058823 L 473.7859987745098 364.3918504901961 L 473.7496171568627 361.93991274509807 L 473.7496171568627 361.51673553921563 L 473.6988740196078 357.8594132352941 L 473.6701517156863 355.57023578431375 L 473.63376985294116 352.7161840686274 L 473.6194088235294 351.47920490196077 L 466.8246399509803 351.56537230392155 L 462.73360906862746 351.61994485294116 L 462.70488676470586 349.44948676470585 L 462.66946225490193 346.93244485294116 L 461.09643088235293 346.94297647058823 L 455.9091605392157 346.99754901960785 L 452.3897058823529 347.05116421568624 L 451.8334482843137 347.0626531862745 L 447.59210318627447 347.14882058823525 L 444.51210171568624 347.19286151960785 L 441.1937039215686 347.23594509803917 L 434.2610676470588 347.32306985294116 L 429.759306127451 347.38817401960785 L 428.44669117647055 347.3987056372549 L 428.042662254902 347.3766850490196 L 426.06560196078425 347.42072598039215 L 422.93485759803923 347.46380980392155 L 422.04063259803917 347.48583039215686 L 418.4771370098039 347.52891397058823 L 415.03523284313724 347.58348651960785 L 411.47173725490194 347.62657009803917 L 410.93079803921563 347.6380590686274 L 408.0738740196078 347.67061127450984 L 404.7200519607843 347.71369485294116 L 400.5572151960784 347.76826740196077 L 395.0310200980392 347.8439031862745 L 393.86297499999995 347.85443480392155 L 389.1879213235294 347.90900735294116 L 385.73261323529414 347.96357990196077 L 382.5157014705882 347.99613210784315 L 379.1178384803921 348.0392156862745 L 375.75635735294117 348.08229926470585 L 372.5892308823529 348.12634044117647 L 369.444125245098 348.16942401960785 L 366.0022210784314 348.21250759803917 L 362.17926617647055 348.25654877450984 L 359.0121399509804 348.29963235294116 L 357.4257046568627 348.32165294117647 L 357.28113504901955 348.33218431372546 L 356.48743872549016 348.44037230392155 L 351.0263480392157 348.40782009803917 Z M 344.49103872549017 348.4844132352941"
     id="path1952"
     inkscape:label="obstacle" />
  <path
     style="fill-rule:evenodd;fill:rgb(85.098039%,81.568627%,78.823529%);fill-opacity:1;stroke-width:0.75;stroke-linecap:butt;stroke-linejoin:miter;stroke:rgb(72.54902%,66.27451%,61.176471%);stroke-opacity:1;stroke-miterlimit:4;"
     d="M 133.0078125 196.9764857843137 L 133.56311274509804 202.6845894607843 L 134.95519313725492 209.9111519607843 L 137.17735147058823 215.44596348039215 L 140.3732 215.4239431372549 L 143.06449142156862 215.34830735294116 L 145.70408235294119 215.33681838235293 L 145.82663137254903 222.98751519607842 L 149.18907009803922 222.9329426470588 L 149.28289681372547 223.84440098039215 L 162.46266078431373 225.7333794117647 L 164.85715392156862 208.99969362745097 L 160.96143529411765 208.3161 L 160.7891007352941 198.072725245098 L 160.77378210784315 197.19381887254903 L 166.80549166666665 196.9219132352941 L 166.7901730392157 175.39253970588234 L 160.4204963235294 175.43562352941174 L 160.3850720588235 173.18952965686273 L 159.33861813725488 171.82234215686273 L 159.30989583333331 170.6609987745098 L 160.75271911764705 170.05399803921566 L 160.75271911764705 169.39146764705882 L 164.51056985294116 169.3704044117647 L 164.27983308823528 136.7608762254902 L 155.11833627450977 136.82598039215685 L 137.33628210784315 136.9561887254902 L 137.3793656862745 142.64227181372547 L 135.0202970588235 142.66429215686273 L 134.09735 168.41490490196077 L 134.13373161764704 170.63993578431374 L 137.76903333333334 170.65046715686273 L 137.7546720588235 172.53848799019607 L 137.81977647058824 180.69948676470588 L 137.78339460784312 181.64349730392155 L 137.8628600490196 190.57425710784312 L 137.66084558823528 191.07306985294116 L 136.3549325980392 191.09509044117647 L 133.04419411764704 191.07306985294116 Z M 133.0078125 196.9764857843137"
     id="path1953"
     inkscape:label="obstacle" />
  <path
     style="fill-rule:evenodd;fill:rgb(85.098039%,81.568627%,78.823529%);fill-opacity:1;stroke-width:0.75;stroke-linecap:butt;stroke-linejoin:miter;stroke:rgb(72.54902%,66.27451%,61.176471%);stroke-opacity:1;stroke-miterlimit:4;"
     d="M 166.2856156862745 249.9425551470588 L 166.3286995098039 252.8186274509804 L 166.3574218137255 254.61952352941174 L 166.63890171568627 269.3340225490196 L 166.69730392156862 274.84681372549016 L 183.88767622549017 274.4782093137255 L 183.98150269607842 272.9798558823529 L 188.33869485294116 272.93677230392154 L 188.57709093137254 276.61515784313724 L 202.36194093137254 276.61515784313724 L 208.11887254901958 255.28205416666663 L 203.23510269607843 255.52045049019605 L 202.9976639705882 250.19244019607842 L 202.87415735294115 238.4622012254902 L 169.82038921568628 239.45982696078428 L 169.78400735294116 249.63905490196078 Z M 166.2856156862745 249.9425551470588"
     id="path1954"
     inkscape:label="obstacle" />
  <path
     style="fill-rule:evenodd;fill:rgb(85.098039%,81.568627%,78.823529%);fill-opacity:1;stroke-width:0.75;stroke-linecap:butt;stroke-linejoin:miter;stroke:rgb(72.54902%,66.27451%,61.176471%);stroke-opacity:1;stroke-miterlimit:4;"
     d="M 500.7008272058823 296.571499754902 L 500.7439107843137 300.2278647058823 L 503.73774509803917 300.2173330882353 L 503.8535921568627 310.54783235294116 L 502.0929073529411 310.60240490196077 L 502.8722426470588 348.89610147058823 L 520.1564414215686 348.6146215686274 L 520.0051700980392 313.6297487745098 L 519.9257046568628 311.8929995098039 L 519.4565715686274 311.4267387254902 L 523.0928308823529 307.56357230392155 L 522.6380590686274 307.08582254901955 L 518.9587161764705 310.99302990196077 L 515.872012745098 307.85654117647056 L 516.3765700980392 307.313687254902 L 519.2047718137255 304.26528039215685 L 519.5503982843137 303.8957183823529 L 523.1071921568628 307.54155171568624 L 530.5884267156862 299.1976867647059 L 532.3768764705882 297.3087085784313 L 517.6681220588235 283.5171568627451 L 517.5455730392157 290.50532328431376 L 511.600987990196 296.592562745098 Z M 500.7008272058823 296.571499754902"
     id="path1955"
     inkscape:label="obstacle" />
  <path
     style="fill-rule:evenodd;fill:rgb(85.098039%,81.568627%,78.823529%);fill-opacity:1;stroke-width:0.75;stroke-linecap:butt;stroke-linejoin:miter;stroke:rgb(72.54902%,66.27451%,61.176471%);stroke-opacity:1;stroke-miterlimit:4;"
     d="M 165.73701740196077 300.1742495098039 L 166.06158088235293 335.35347745098034 L 171.18374705882354 335.320925245098 L 174.58926936274509 335.2452894607843 L 185.84271593137254 335.15816470588237 L 185.69814656862746 319.6633730392157 L 179.15517769607843 319.7284774509804 L 179.1187960784314 315.6910615196078 L 188.46794583333332 315.6048943627451 L 188.32433357843138 299.55575980392155 L 183.0575980392157 299.609375 L 183.02887549019604 296.74479166666663 L 183.0078125 294.053500245098 L 190.88541666666666 293.9778647058823 L 190.77722892156862 282.20358455882354 L 168.64468431372546 282.39889705882354 L 168.74521299019605 293.5441558823529 L 170.90226715686273 293.5221352941177 L 170.93098970588235 296.73426004901955 L 170.9606693627451 300.1302083333333 Z M 165.73701740196077 300.1742495098039"
     id="path1956"
     inkscape:label="obstacle" />
  <path
     style="fill-rule:evenodd;fill:rgb(85.098039%,81.568627%,78.823529%);fill-opacity:1;stroke-width:0.75;stroke-linecap:butt;stroke-linejoin:miter;stroke:rgb(72.54902%,66.27451%,61.176471%);stroke-opacity:1;stroke-miterlimit:4;"
     d="M 410.93845735294116 48.32931225490196 L 410.95281862745094 53.97231151960784 L 410.98154117647056 54.87323823529412 L 411.00260416666663 55.77416519607843 L 411.0677083333333 62.415747549019606 L 415.12905931372546 62.38319558823529 L 420.0999539215686 62.27405024509804 L 420.53270539215686 62.26351862745098 L 425.1780789215686 62.220435049019606 L 425.0631892156863 55.52427990196078 L 427.89809289215685 55.567363725490196 L 430.47353700980386 55.611404656862746 L 430.43715539215685 57.14135269607843 L 430.4658776960784 58.80150882352941 L 430.4591759803921 59.91976862745098 L 430.4591759803921 60.71155024509804 L 430.45151666666663 62.241498039215685 L 430.48023897058823 64.1189875 L 430.54534313725486 68.5470281862745 L 437.2108607843137 68.44937205882353 L 439.04335171568624 68.44937205882353 L 444.5475259803921 68.37277892156862 L 444.49008112745094 64.45503970588236 L 444.49678308823525 64.05388333333333 L 444.4326362745098 62.31809117647059 L 444.4326362745098 61.384612499999996 L 444.4393382352941 58.70385269607843 L 444.4393382352941 57.78186274509804 L 444.39625465686277 55.59991568627451 L 444.38859534313724 54.981426225490196 L 444.35317107843133 53.18052990196078 L 444.34551176470586 51.487821568627446 L 444.32444852941177 49.79511323529412 L 444.31008725490193 49.03492647058823 L 450.63668039215685 48.947801715686275 L 450.54955588235293 42.99077058823529 L 450.54955588235293 41.20040588235294 L 450.44136789215685 34.786688235294115 L 446.27948823529414 34.85179215686274 L 443.3354397058824 34.8843443627451 L 440.933287254902 34.91689656862745 L 436.3386566176471 34.95998014705882 L 436.410462745098 41.514437745098036 L 433.9719286764706 41.57954191176471 L 431.2672333333333 41.6015625 L 431.1877681372549 36.95714607843137 L 431.15904558823524 34.124157352941175 L 431.1303232843137 32.713886274509804 L 431.0939414215686 28.655407352941175 L 424.21875 28.753063725490193 L 422.35753676470586 28.753063725490193 L 417.0917585784314 28.83923088235294 L 417.14920343137254 32.58367794117647 L 417.156862745098 35.40517769607843 L 417.17122401960785 36.034198774509804 L 417.228668872549 39.00792745098039 L 417.2937730392157 41.4608225490196 L 417.2937730392157 41.9921875 L 417.2861137254902 45.00899975490196 L 417.2861137254902 45.51930147058823 L 417.3799401960784 47.03871789215686 L 417.39430147058823 48.23165588235294 L 414.37174485294116 48.3187806372549 Z M 410.93845735294116 48.32931225490196"
     id="path1957"
     inkscape:label="obstacle" />
  <path
     style="fill-rule:evenodd;fill:rgb(85.098039%,81.568627%,78.823529%);fill-opacity:1;stroke-width:0.75;stroke-linecap:butt;stroke-linejoin:miter;stroke:rgb(72.54902%,66.27451%,61.176471%);stroke-opacity:1;stroke-miterlimit:4;"
     d="M 308.1686580882353 341.48475784313723 L 308.4357767156863 362.7862669117647 L 308.5439644607843 371.4556524509804 L 330.1930147058823 371.1847044117647 L 330.0991882352941 363.8059129901961 L 329.6664367647059 329.64633112745094 L 317.71312034313723 329.64633112745094 L 310.8666514705882 329.6137791666667 L 310.77282475490193 340.11757058823525 L 310.7584634803921 341.4522058823529 Z M 308.1686580882353 341.48475784313723"
     id="path1958"
     inkscape:label="obstacle" />
  <path
     style="fill-rule:evenodd;fill:rgb(85.098039%,81.568627%,78.823529%);fill-opacity:1;stroke-width:0.75;stroke-linecap:butt;stroke-linejoin:miter;stroke:rgb(72.54902%,66.27451%,61.176471%);stroke-opacity:1;stroke-miterlimit:4;"
     d="M 164.2654718137255 345.85822598039215 L 164.80641078431373 370.7835477941176 L 168.2186350490196 370.71844362745094 L 168.3268230392157 375.9487975490196 L 165.80212156862746 376.00241274509807 L 165.91030931372546 380.9838387254902 L 178.361481372549 380.72342205882353 L 178.253293627451 375.76401666666663 L 177.57544411764704 375.77454803921563 L 177.43087475490194 369.1884955882353 L 179.8330269607843 369.1444546568627 L 179.32081029411765 345.5212161764706 L 174.82670808823528 345.6188725490196 L 171.4221431372549 345.6954656862745 Z M 164.2654718137255 345.85822598039215"
     id="path1959"
     inkscape:label="obstacle" />
  <path
     style="fill-rule:evenodd;fill:rgb(85.098039%,81.568627%,78.823529%);fill-opacity:1;stroke-width:0.75;stroke-linecap:butt;stroke-linejoin:miter;stroke:rgb(72.54902%,66.27451%,61.176471%);stroke-opacity:1;stroke-miterlimit:4;"
     d="M 430.9350107843137 -7.460171568627451 L 431.25287230392155 7.244753431372549 L 439.6350338235294 7.070503921568627 L 439.6206725490196 6.408930882352941 L 443.6820235294117 6.32180612745098 L 448.59451593137254 6.224149754901961 L 448.55143235294116 5.355775 L 456.4003139705882 5.237055882352941 L 456.16191789215685 -9.869025735294118 L 448.3130362745098 -9.749349019607843 L 448.32739730392154 -8.870442647058823 L 439.31717205882353 -8.707682352941175 L 439.31717205882353 -7.644952450980392 Z M 430.9350107843137 -7.460171568627451"
     id="path1960"
     inkscape:label="obstacle" />
  <path
     style="fill-rule:evenodd;fill:rgb(85.098039%,81.568627%,78.823529%);fill-opacity:1;stroke-width:0.75;stroke-linecap:butt;stroke-linejoin:miter;stroke:rgb(72.54902%,66.27451%,61.176471%);stroke-opacity:1;stroke-miterlimit:4;"
     d="M 84.03990490196078 54.71047794117647 L 84.2486213235294 69.2737056372549 L 86.51386323529411 69.16551764705882 L 94.24785539215686 67.40674779411763 L 94.35604313725489 70.3048406862745 L 99.80181519607842 70.17463235294117 L 99.56437647058823 54.47208186274509 Z M 84.03990490196078 54.71047794117647"
     id="path1961"
     inkscape:label="obstacle" />
  <path
     style="fill-rule:evenodd;fill:rgb(85.098039%,81.568627%,78.823529%);fill-opacity:1;stroke-width:0.75;stroke-linecap:butt;stroke-linejoin:miter;stroke:rgb(72.54902%,66.27451%,61.176471%);stroke-opacity:1;stroke-miterlimit:4;"
     d="M 68.28469656862745 105.32322303921568 L 68.47905171568627 119.61550245098039 L 82.03412230392158 119.42018995098039 L 81.96231617647058 114.04813872549019 L 86.47077965686273 113.98303455882352 L 86.40567549019607 109.23043039215685 L 82.29453897058823 109.28404558823529 L 82.23613676470588 105.12791053921568 Z M 68.28469656862745 105.32322303921568"
     id="path1962"
     inkscape:label="obstacle" />
  <path
     style="fill-rule:evenodd;fill:rgb(85.098039%,81.568627%,78.823529%);fill-opacity:1;stroke-width:0.75;stroke-linecap:butt;stroke-linejoin:miter;stroke:rgb(72.54902%,66.27451%,61.176471%);stroke-opacity:1;stroke-miterlimit:4;"
     d="M 126.92631740196077 168.63223799019607 L 126.94833799019607 173.16846666666666 L 126.98471960784313 180.7531019607843 L 137.81977647058824 180.69948676470588 L 137.7546720588235 172.53848799019607 L 137.76903333333334 170.65046715686273 L 134.13373161764704 170.63993578431374 L 132.86324289215688 170.67248774509804 L 132.85654117647059 168.59968602941174 Z M 126.92631740196077 168.63223799019607"
     id="path1963"
     inkscape:label="obstacle" />
  <path
     style="fill-rule:evenodd;fill:rgb(85.098039%,81.568627%,78.823529%);fill-opacity:1;stroke-width:0.75;stroke-linecap:butt;stroke-linejoin:miter;stroke:rgb(72.54902%,66.27451%,61.176471%);stroke-opacity:1;stroke-miterlimit:4;"
     d="M 155.21982230392157 250.1053156862745 L 155.26290588235295 252.96989901960782 L 155.29162843137254 254.78228406862746 L 166.3574218137255 254.61952352941174 L 166.3286995098039 252.8186274509804 L 166.2856156862745 249.9425551470588 Z M 155.21982230392157 250.1053156862745"
     id="path1964"
     inkscape:label="obstacle" />
  <path
     style="fill-rule:evenodd;fill:rgb(85.098039%,81.568627%,78.823529%);fill-opacity:1;stroke-width:0.75;stroke-linecap:butt;stroke-linejoin:miter;stroke:rgb(72.54902%,66.27451%,61.176471%);stroke-opacity:1;stroke-miterlimit:4;"
     d="M 363.57134656862746 304.35144754901955 L 363.60772818627447 307.35772818627447 L 370.4608992647059 307.27060343137254 L 370.42451740196077 304.26528039215685 Z M 363.57134656862746 304.35144754901955"
     id="path1965"
     inkscape:label="obstacle" />
  <path
     style="fill-rule:evenodd;fill:rgb(85.098039%,81.568627%,78.823529%);fill-opacity:1;stroke-width:0.75;stroke-linecap:butt;stroke-linejoin:miter;stroke:rgb(72.54902%,66.27451%,61.176471%);stroke-opacity:1;stroke-miterlimit:4;"
     d="M 399.4533164215686 145.50685514705881 L 399.50405931372546 149.38151029411762 L 403.392118627451 149.32693774509804 L 403.392118627451 145.55089607843138 Z M 399.4533164215686 145.50685514705881"
     id="path1966"
     inkscape:label="obstacle" />
  <path
     style="fill-rule:evenodd;fill:rgb(85.098039%,81.568627%,78.823529%);fill-opacity:1;stroke-width:0.75;stroke-linecap:butt;stroke-linejoin:miter;stroke:rgb(72.54902%,66.27451%,61.176471%);stroke-opacity:1;stroke-miterlimit:4;"
     d="M 304.01348039215685 291.4493335784313 L 307.5846352941177 291.514437745098 L 307.5626149509804 294.423062254902 L 307.5118720588235 301.464843627451 L 307.4687882352941 308.11695784313724 L 307.4190026960784 315.34447769607846 L 307.39698235294117 318.59968602941177 L 307.36825980392155 322.76635269607846 L 310.7374004901961 322.76635269607846 L 310.85229019607846 328.75593602941177 L 310.8666514705882 329.6137791666667 L 310.77282475490193 340.11757058823525 L 310.7584634803921 341.4522058823529 L 308.1686580882353 341.48475784313723 L 308.4357767156863 362.7862669117647 L 308.5439644607843 371.4556524509804 L 330.1930147058823 371.1847044117647 L 330.0991882352941 363.8059129901961 L 329.6664367647059 329.64633112745094 L 329.8177083333333 321.96308210784315 L 326.3193166666667 321.844362745098 L 326.3403799019608 321.0516237745098 L 326.3624004901961 318.36033235294116 L 319.05445784313724 318.32778039215685 L 319.05445784313724 315.897862990196 L 321.68064485294116 315.702550490196 L 321.4211857843137 287.988281372549 L 321.3129977941176 284.5482919117647 L 321.24023431372547 281.60711544117646 L 324.305874754902 281.5965838235294 L 324.3355544117647 282.8335632352941 L 327.14173553921563 282.9857919117647 L 337.8973269607843 282.920687745098 L 337.88966764705884 281.9221049019608 L 343.8562730392157 281.8895526960784 L 343.8706343137255 284.5157399509804 L 347.5854014705882 284.4937193627451 L 358.33429068627447 284.36351102941177 L 358.3122700980392 282.62676176470586 L 364.6034389705882 282.55112598039216 L 364.6752450980392 288.5627299019608 L 386.95906102941177 288.24869803921564 L 386.8939568627451 282.59420955882354 L 393.86297499999995 282.50804215686276 L 393.6820235294117 268.18416813725486 L 389.05867034313724 268.30288749999994 L 370.2081419117647 268.77010563725486 L 370.2445235294117 265.5254289215686 L 359.3012791666667 265.4383041666666 L 352.23173259803923 265.37319999999994 L 343.8486137254902 265.3080958333333 L 343.9060585784314 269.96400122549016 L 307.4257046568627 270.33260563725486 L 307.38932303921564 273.07751225490193 L 307.339537254902 276.6802620098039 L 304.04986225490194 276.58260563725486 L 304.0278416666667 283.78810514705884 Z M 304.01348039215685 291.4493335784313"
     id="path1967"
     inkscape:label="obstacle" />
  <path
     style="fill-rule:evenodd;fill:rgb(85.098039%,81.568627%,78.823529%);fill-opacity:1;stroke-width:0.75;stroke-linecap:butt;stroke-linejoin:miter;stroke:rgb(72.54902%,66.27451%,61.176471%);stroke-opacity:1;stroke-miterlimit:4;"
     d="M 333.81395539215686 93.48383872549019 L 333.94416372549017 103.34807745098038 L 344.06498921568624 103.21786911764704 L 344.0937117647059 105.46396299019608 L 379.4424019607843 104.97568161764704 L 385.7546338235294 104.88951446078431 L 386.29557303921564 144.29189656862746 L 368.3756509803921 144.54178161764705 L 368.7365960784314 171.06311274509804 L 357.7502681372549 171.20385269607843 L 357.95228235294115 186.02749705882354 L 361.79725784313723 185.97292426470588 L 367.07739730392154 185.8972887254902 L 367.5101485294117 217.0630362745098 L 368.76531862745094 217.0515470588235 L 368.9242495098039 229.1513480392157 L 375.683593627451 229.05369166666665 L 381.6138174019608 228.97805612745097 L 381.50562965686277 221.32735906862743 L 381.44722745098034 216.9213387254902 L 381.33903946078425 208.7612975490196 L 386.86523431372547 208.68566176470588 L 386.8144914215686 204.93068333333335 L 381.23851102941177 205.00631887254903 L 380.74065563725486 168.45798872549017 L 380.5960860294117 158.21461397058823 L 399.6266083333333 157.95419730392157 L 399.50405931372546 149.38151029411762 L 399.4533164215686 145.50685514705881 L 398.710362990196 91.2157245098039 L 382.17581960784315 91.43305759803921 L 344.22392009803923 91.95389093137254 L 344.2459406862745 93.34309901960785 L 337.0098039215686 93.44075514705881 Z M 333.81395539215686 93.48383872549019"
     id="path1968"
     inkscape:label="obstacle" />
  <path
     style="fill-rule:evenodd;fill:rgb(85.098039%,81.568627%,78.823529%);fill-opacity:1;stroke-width:0.75;stroke-linecap:butt;stroke-linejoin:miter;stroke:rgb(72.54902%,66.27451%,61.176471%);stroke-opacity:1;stroke-miterlimit:4;"
     d="M 285.15625 213.3300781862745 L 285.4951745098039 230.062806372549 L 288.87867647058823 230.21503529411763 L 288.9294193627451 232.5262330882353 L 287.52297794117646 232.67846200980392 L 287.4789367647059 238.3856080882353 L 293.4742647058823 244.38668039215685 L 295.6380208333333 244.50635735294117 L 297.2033931372549 244.40870098039215 L 297.44178921568624 252.3628982843137 L 301.264744117647 256.1389399509804 L 304.18677230392154 256.1714921568627 L 315.9160539215686 256.2796799019608 L 315.62787230392155 251.5921799019608 L 322.5317862745098 251.49452352941174 L 341.68485759803923 251.7444088235294 L 344.8299632352941 248.17421102941177 L 358.11791519607846 248.1301700980392 L 360.08731617647055 250.69125294117646 L 371.49203431372547 250.39828431372547 L 374.84011176470585 248.4231387254902 L 381.0652191176471 248.3254825980392 L 381.6138174019608 228.97805612745097 L 375.683593627451 229.05369166666665 L 368.9242495098039 229.1513480392157 L 368.1956571078431 229.16187965686274 L 368.18895539215686 232.0484833333333 L 354.70569093137254 232.211243872549 L 351.2714460784314 229.37921274509804 L 321.9688264705882 229.44431666666665 L 319.3072151960784 226.8832338235294 L 317.156862745098 224.81043186274508 L 317.03431372549016 193.7423406862745 L 308.3563112745098 193.89456960784312 L 308.7095970588235 205.92926617647058 L 292.41344975490193 206.362975 Z M 285.15625 213.3300781862745"
     id="path1969"
     inkscape:label="obstacle" />
  <path
     style="fill-rule:evenodd;fill:rgb(85.098039%,81.568627%,78.823529%);fill-opacity:1;stroke-width:0.75;stroke-linecap:butt;stroke-linejoin:miter;stroke:rgb(72.54902%,66.27451%,61.176471%);stroke-opacity:1;stroke-miterlimit:4;"
     d="M 431.2231924019608 139.64748014705881 L 431.5984987745098 152.45193774509804 L 440.0103401960784 152.3217294117647 L 439.75758284313724 145.86492794117646 L 447.8515625 137.8130745098039 L 458.65119485294116 137.82456348039216 L 459.30032156862745 171.33406102941174 L 467.77630980392155 171.356081372549 L 467.06207867647055 127.65586715686275 L 442.02282475490193 128.13361666666665 Z M 431.2231924019608 139.64748014705881"
     id="path1970"
     inkscape:label="obstacle" />
  <path
     style="fill-rule:evenodd;fill:rgb(85.098039%,81.568627%,78.823529%);fill-opacity:1;stroke-width:0.75;stroke-linecap:butt;stroke-linejoin:miter;stroke:rgb(72.54902%,66.27451%,61.176471%);stroke-opacity:1;stroke-miterlimit:4;"
     d="M 431.692325490196 157.16145833333331 L 432.4716605392157 192.6470588235294 L 448.55143235294116 192.59248627450978 L 448.61653651960785 178.25712303921566 L 440.23341764705884 178.2140394607843 L 440.110868627451 157.0638019607843 Z M 431.692325490196 157.16145833333331"
     id="path1971"
     inkscape:label="obstacle" />
  <path
     style="fill-rule:evenodd;fill:rgb(85.098039%,81.568627%,78.823529%);fill-opacity:1;stroke-width:0.75;stroke-linecap:butt;stroke-linejoin:miter;stroke:rgb(72.54902%,66.27451%,61.176471%);stroke-opacity:1;stroke-miterlimit:4;"
     d="M 435.5229397058824 239.5469514705882 L 437.8389245098039 239.5469514705882 L 437.8389245098039 241.86963848039215 L 451.0474112745098 241.86963848039215 L 457.7703737745098 235.57559754901962 L 460.670381372549 235.531556372549 L 460.670381372549 228.66306666666665 L 456.22702205882354 228.695618872549 L 455.0225950980392 228.75019142156862 L 452.15130980392155 231.5707338235294 L 449.14311421568624 234.52244166666665 L 435.73261323529414 234.43627450980392 Z M 435.5229397058824 239.5469514705882"
     id="path1972"
     inkscape:label="obstacle" />
  <path
     style="fill-rule:evenodd;fill:rgb(85.098039%,81.568627%,78.823529%);fill-opacity:1;stroke-width:0.75;stroke-linecap:butt;stroke-linejoin:miter;stroke:rgb(72.54902%,66.27451%,61.176471%);stroke-opacity:1;stroke-miterlimit:4;"
     d="M 171.18374705882354 335.320925245098 L 171.4221431372549 345.6954656862745 L 174.82670808823528 345.6188725490196 L 174.58926936274509 335.2452894607843 Z M 171.18374705882354 335.320925245098"
     id="path1973"
     inkscape:label="obstacle" />
  <line
     x1="0"
     y1="10"
     x2="50"
     y2="10"
     style="stroke:rgb(0,0,0);stroke-width:2"
     id="line1" />
  <line
     x1="50"
     y1="10"
     x2="100"
     y2="10"
     style="stroke:rgb(100%,100%,100%);stroke-width:2"
     id="line2" />
  <line
     x1="100"
     y1="10"
     x2="150"
     y2="10"
     style="stroke:rgb(0,0,0);stroke-width:2"
     id="line3" />
  <line
     x1="150"
     y1="10"
     x2="200"
     y2="10"
     style="stroke:rgb(100%,100%,100%);stroke-width:2"
     id="line4" />
  <line
     x1="200"
     y1="10"
     x2="250"
     y2="10"
     style="stroke:rgb(0,0,0);stroke-width:2"
     id="line5" />
  <line
     x1="250"
     y1="10"
     x2="300"
     y2="10"
     style="stroke:rgb(100%,100%,100%);stroke-width:2"
     id="line6" />
  <line
     x1="300"
     y1="10"
     x2="350"
     y2="10"
     style="stroke:rgb(0,0,0);stroke-width:2"
     id="line7" />
  <line
     x1="350"
     y1="10"
     x2="400"
     y2="10"
     style="stroke:rgb(100%,100%,100%);stroke-width:2"
     id="line8" />
  <line
     x1="400"
     y1="10"
     x2="450"
     y2="10"
     style="stroke:rgb(0,0,0);stroke-width:2"
     id="line9" />
  <line
     x1="450"
     y1="10"
     x2="500"
     y2="10"
     style="stroke:rgb(100%,100%,100%);stroke-width:2"
     id="line10" />
  <line
     x1="500"
     y1="10"
     x2="550"
     y2="10"
     style="stroke:rgb(0,0,0);stroke-width:2"
     id="line11" />
  <text
     x="10"
     y="30"
     style="font-size:12px"
     id="text11">50 m</text>
</svg>
