<?xml version="1.0" encoding="UTF-8" standalone="no"?>
<svg width="56.6" height="75.6" viewBox="0 0 56.6 75.6" version="1.1" id="svg_socnavbench_eth" xmlns="http://www.w3.org/2000/svg" xmlns:inkscape="http://www.inkscape.org/namespaces/inkscape">
  <g id="socnavbench_eth" inkscape:label="SocNavBench ETH converted map">
    <!-- Generated from SocNavBench traversible data.pkl; raw staged data remains outside git. -->
    <rect id="obstacle_0" x="0" y="0" width="56.6" height="0.4" style="fill:#000000" inkscape:label="obstacle" />
    <rect id="obstacle_1" x="17.6" y="0.4" width="39" height="0.4" style="fill:#000000" inkscape:label="obstacle" />
    <rect id="obstacle_2" x="17.8" y="0.8" width="2" height="0.2" style="fill:#000000" inkscape:label="obstacle" />
    <rect id="obstacle_3" x="20.4" y="0.8" width="11.2" height="0.2" style="fill:#000000" inkscape:label="obstacle" />
    <rect id="obstacle_4" x="33" y="0.8" width="23.6" height="0.2" style="fill:#000000" inkscape:label="obstacle" />
    <rect id="obstacle_5" x="17.8" y="1" width="1.6" height="0.2" style="fill:#000000" inkscape:label="obstacle" />
    <rect id="obstacle_6" x="20.6" y="1" width="6.6" height="0.2" style="fill:#000000" inkscape:label="obstacle" />
    <rect id="obstacle_7" x="27.6" y="1" width="1.4" height="0.2" style="fill:#000000" inkscape:label="obstacle" />
    <rect id="obstacle_8" x="29.2" y="1" width="0.8" height="0.2" style="fill:#000000" inkscape:label="obstacle" />
    <rect id="obstacle_9" x="33" y="1" width="4.8" height="0.2" style="fill:#000000" inkscape:label="obstacle" />
    <rect id="obstacle_10" x="38" y="1" width="1.2" height="0.2" style="fill:#000000" inkscape:label="obstacle" />
    <rect id="obstacle_11" x="40.4" y="1" width="1" height="0.2" style="fill:#000000" inkscape:label="obstacle" />
    <rect id="obstacle_12" x="42.2" y="1" width="14.4" height="0.2" style="fill:#000000" inkscape:label="obstacle" />
    <rect id="obstacle_13" x="17.8" y="1.2" width="1.2" height="0.2" style="fill:#000000" inkscape:label="obstacle" />
    <rect id="obstacle_14" x="20.6" y="1.2" width="3.8" height="0.2" style="fill:#000000" inkscape:label="obstacle" />
    <rect id="obstacle_15" x="25" y="1.2" width="2" height="0.2" style="fill:#000000" inkscape:label="obstacle" />
    <rect id="obstacle_16" x="29.4" y="1.2" width="0.4" height="0.2" style="fill:#000000" inkscape:label="obstacle" />
    <rect id="obstacle_17" x="30.2" y="1" width="0.4" height="0.4" style="fill:#000000" inkscape:label="obstacle" />
    <rect id="obstacle_18" x="33" y="1.2" width="4.6" height="0.2" style="fill:#000000" inkscape:label="obstacle" />
    <rect id="obstacle_19" x="38" y="1.2" width="1" height="0.2" style="fill:#000000" inkscape:label="obstacle" />
    <rect id="obstacle_20" x="40.8" y="1.2" width="0.6" height="0.2" style="fill:#000000" inkscape:label="obstacle" />
    <rect id="obstacle_21" x="18.2" y="1.4" width="0.2" height="0.2" style="fill:#000000" inkscape:label="obstacle" />
    <rect id="obstacle_22" x="20.8" y="1.4" width="2" height="0.2" style="fill:#000000" inkscape:label="obstacle" />
    <rect id="obstacle_23" x="23" y="1.4" width="0.2" height="0.2" style="fill:#000000" inkscape:label="obstacle" />
    <rect id="obstacle_24" x="25.4" y="1.4" width="1.4" height="0.2" style="fill:#000000" inkscape:label="obstacle" />
    <rect id="obstacle_25" x="27.4" y="1.2" width="1.4" height="0.4" style="fill:#000000" inkscape:label="obstacle" />
    <rect id="obstacle_26" x="30.2" y="1.4" width="0.2" height="0.2" style="fill:#000000" inkscape:label="obstacle" />
    <rect id="obstacle_27" x="30.8" y="1" width="0.6" height="0.6" style="fill:#000000" inkscape:label="obstacle" />
    <rect id="obstacle_28" x="33" y="1.4" width="4.4" height="0.2" style="fill:#000000" inkscape:label="obstacle" />
    <rect id="obstacle_29" x="41" y="1.4" width="0.4" height="0.2" style="fill:#000000" inkscape:label="obstacle" />
    <rect id="obstacle_30" x="42" y="1.2" width="14.6" height="0.4" style="fill:#000000" inkscape:label="obstacle" />
    <rect id="obstacle_31" x="20.8" y="1.6" width="0.6" height="0.2" style="fill:#000000" inkscape:label="obstacle" />
    <rect id="obstacle_32" x="25.8" y="1.6" width="0.8" height="0.2" style="fill:#000000" inkscape:label="obstacle" />
    <rect id="obstacle_33" x="27.6" y="1.6" width="1.2" height="0.2" style="fill:#000000" inkscape:label="obstacle" />
    <rect id="obstacle_34" x="30.6" y="1.6" width="0.6" height="0.2" style="fill:#000000" inkscape:label="obstacle" />
    <rect id="obstacle_35" x="33" y="1.6" width="1.6" height="0.2" style="fill:#000000" inkscape:label="obstacle" />
    <rect id="obstacle_36" x="35.6" y="1.6" width="1.6" height="0.2" style="fill:#000000" inkscape:label="obstacle" />
    <rect id="obstacle_37" x="38" y="1.4" width="0.8" height="0.4" style="fill:#000000" inkscape:label="obstacle" />
    <rect id="obstacle_38" x="27.8" y="1.8" width="1" height="0.2" style="fill:#000000" inkscape:label="obstacle" />
    <rect id="obstacle_39" x="33" y="1.8" width="1.4" height="0.2" style="fill:#000000" inkscape:label="obstacle" />
    <rect id="obstacle_40" x="36.2" y="1.8" width="1" height="0.2" style="fill:#000000" inkscape:label="obstacle" />
    <rect id="obstacle_41" x="38.2" y="1.8" width="0.4" height="0.2" style="fill:#000000" inkscape:label="obstacle" />
    <rect id="obstacle_42" x="42.2" y="1.6" width="14.4" height="0.4" style="fill:#000000" inkscape:label="obstacle" />
    <rect id="obstacle_43" x="30.8" y="1.8" width="0.4" height="0.4" style="fill:#000000" inkscape:label="obstacle" />
    <rect id="obstacle_44" x="32.8" y="2" width="1.4" height="0.2" style="fill:#000000" inkscape:label="obstacle" />
    <rect id="obstacle_45" x="38.2" y="2" width="0.2" height="0.2" style="fill:#000000" inkscape:label="obstacle" />
    <rect id="obstacle_46" x="42" y="2" width="14.6" height="0.2" style="fill:#000000" inkscape:label="obstacle" />
    <rect id="obstacle_47" x="27.8" y="2" width="1.4" height="0.4" style="fill:#000000" inkscape:label="obstacle" />
    <rect id="obstacle_48" x="30.8" y="2.2" width="0.2" height="0.2" style="fill:#000000" inkscape:label="obstacle" />
    <rect id="obstacle_49" x="42.2" y="2.2" width="14.4" height="0.2" style="fill:#000000" inkscape:label="obstacle" />
    <rect id="obstacle_50" x="27.6" y="2.4" width="0.8" height="0.2" style="fill:#000000" inkscape:label="obstacle" />
    <rect id="obstacle_51" x="28.6" y="2.4" width="0.6" height="0.2" style="fill:#000000" inkscape:label="obstacle" />
    <rect id="obstacle_52" x="32.8" y="2.2" width="1.2" height="0.4" style="fill:#000000" inkscape:label="obstacle" />
    <rect id="obstacle_53" x="42" y="2.4" width="14.6" height="0.2" style="fill:#000000" inkscape:label="obstacle" />
    <rect id="obstacle_54" x="27.6" y="2.6" width="0.6" height="0.2" style="fill:#000000" inkscape:label="obstacle" />
    <rect id="obstacle_55" x="32.8" y="2.6" width="1" height="0.2" style="fill:#000000" inkscape:label="obstacle" />
    <rect id="obstacle_56" x="42.2" y="2.6" width="14.4" height="0.2" style="fill:#000000" inkscape:label="obstacle" />
    <rect id="obstacle_57" x="27.8" y="2.8" width="0.4" height="0.2" style="fill:#000000" inkscape:label="obstacle" />
    <rect id="obstacle_58" x="28.6" y="2.6" width="0.8" height="0.4" style="fill:#000000" inkscape:label="obstacle" />
    <rect id="obstacle_59" x="32.6" y="2.8" width="1.2" height="0.2" style="fill:#000000" inkscape:label="obstacle" />
    <rect id="obstacle_60" x="42" y="2.8" width="14.6" height="0.2" style="fill:#000000" inkscape:label="obstacle" />
    <rect id="obstacle_61" x="28" y="3" width="0.2" height="0.2" style="fill:#000000" inkscape:label="obstacle" />
    <rect id="obstacle_62" x="29.2" y="3" width="0.2" height="0.2" style="fill:#000000" inkscape:label="obstacle" />
    <rect id="obstacle_63" x="32.6" y="3" width="1" height="0.2" style="fill:#000000" inkscape:label="obstacle" />
    <rect id="obstacle_64" x="42.2" y="3" width="14.4" height="0.2" style="fill:#000000" inkscape:label="obstacle" />
    <rect id="obstacle_65" x="42" y="3.2" width="14.6" height="2.8" style="fill:#000000" inkscape:label="obstacle" />
    <rect id="obstacle_66" x="0" y="0.4" width="17.4" height="6.2" style="fill:#000000" inkscape:label="obstacle" />
    <rect id="obstacle_67" x="0" y="6.6" width="17" height="0.2" style="fill:#000000" inkscape:label="obstacle" />
    <rect id="obstacle_68" x="0" y="6.8" width="16.8" height="1" style="fill:#000000" inkscape:label="obstacle" />
    <rect id="obstacle_69" x="41.6" y="6" width="15" height="2.4" style="fill:#000000" inkscape:label="obstacle" />
    <rect id="obstacle_70" x="0" y="7.8" width="16.6" height="0.8" style="fill:#000000" inkscape:label="obstacle" />
    <rect id="obstacle_71" x="0" y="8.6" width="16.8" height="0.2" style="fill:#000000" inkscape:label="obstacle" />
    <rect id="obstacle_72" x="0" y="8.8" width="16.6" height="0.2" style="fill:#000000" inkscape:label="obstacle" />
    <rect id="obstacle_73" x="0" y="9" width="16.8" height="0.2" style="fill:#000000" inkscape:label="obstacle" />
    <rect id="obstacle_74" x="0" y="9.2" width="16.6" height="0.4" style="fill:#000000" inkscape:label="obstacle" />
    <rect id="obstacle_75" x="0" y="9.6" width="16.8" height="0.2" style="fill:#000000" inkscape:label="obstacle" />
    <rect id="obstacle_76" x="0" y="9.8" width="16.6" height="0.8" style="fill:#000000" inkscape:label="obstacle" />
    <rect id="obstacle_77" x="0" y="10.6" width="16.8" height="0.2" style="fill:#000000" inkscape:label="obstacle" />
    <rect id="obstacle_78" x="0" y="10.8" width="16.6" height="0.2" style="fill:#000000" inkscape:label="obstacle" />
    <rect id="obstacle_79" x="0" y="11" width="16.8" height="0.4" style="fill:#000000" inkscape:label="obstacle" />
    <rect id="obstacle_80" x="41.4" y="8.4" width="15.2" height="3.4" style="fill:#000000" inkscape:label="obstacle" />
    <rect id="obstacle_81" x="0" y="11.4" width="16.6" height="0.6" style="fill:#000000" inkscape:label="obstacle" />
    <rect id="obstacle_82" x="41.6" y="11.8" width="15" height="0.2" style="fill:#000000" inkscape:label="obstacle" />
    <rect id="obstacle_83" x="42" y="12" width="14.6" height="0.6" style="fill:#000000" inkscape:label="obstacle" />
    <rect id="obstacle_84" x="41.8" y="12.6" width="14.8" height="0.2" style="fill:#000000" inkscape:label="obstacle" />
    <rect id="obstacle_85" x="0" y="12" width="16.8" height="1" style="fill:#000000" inkscape:label="obstacle" />
    <rect id="obstacle_86" x="0" y="13" width="16.6" height="0.2" style="fill:#000000" inkscape:label="obstacle" />
    <rect id="obstacle_87" x="0" y="13.2" width="16.8" height="0.2" style="fill:#000000" inkscape:label="obstacle" />
    <rect id="obstacle_88" x="42" y="12.8" width="14.6" height="0.8" style="fill:#000000" inkscape:label="obstacle" />
    <rect id="obstacle_89" x="41" y="13.6" width="0.6" height="0.2" style="fill:#000000" inkscape:label="obstacle" />
    <rect id="obstacle_90" x="41.8" y="13.6" width="14.8" height="0.2" style="fill:#000000" inkscape:label="obstacle" />
    <rect id="obstacle_91" x="40.8" y="13.8" width="15.8" height="0.2" style="fill:#000000" inkscape:label="obstacle" />
    <rect id="obstacle_92" x="40.4" y="14" width="16.2" height="0.4" style="fill:#000000" inkscape:label="obstacle" />
    <rect id="obstacle_93" x="40.4" y="14.4" width="1.4" height="0.2" style="fill:#000000" inkscape:label="obstacle" />
    <rect id="obstacle_94" x="42" y="14.4" width="14.6" height="0.2" style="fill:#000000" inkscape:label="obstacle" />
    <rect id="obstacle_95" x="40.4" y="14.6" width="1.2" height="0.2" style="fill:#000000" inkscape:label="obstacle" />
    <rect id="obstacle_96" x="42.2" y="14.6" width="14.4" height="0.2" style="fill:#000000" inkscape:label="obstacle" />
    <rect id="obstacle_97" x="40.4" y="14.8" width="1" height="0.2" style="fill:#000000" inkscape:label="obstacle" />
    <rect id="obstacle_98" x="40.8" y="15" width="0.4" height="0.2" style="fill:#000000" inkscape:label="obstacle" />
    <rect id="obstacle_99" x="40.8" y="15.2" width="0.2" height="0.2" style="fill:#000000" inkscape:label="obstacle" />
    <rect id="obstacle_100" x="0" y="13.4" width="16.6" height="2.6" style="fill:#000000" inkscape:label="obstacle" />
    <rect id="obstacle_101" x="0" y="16" width="16.8" height="0.6" style="fill:#000000" inkscape:label="obstacle" />
    <rect id="obstacle_102" x="0" y="16.6" width="16.6" height="0.6" style="fill:#000000" inkscape:label="obstacle" />
    <rect id="obstacle_103" x="0" y="17.2" width="16.8" height="0.2" style="fill:#000000" inkscape:label="obstacle" />
    <rect id="obstacle_104" x="0" y="17.4" width="17" height="0.2" style="fill:#000000" inkscape:label="obstacle" />
    <rect id="obstacle_105" x="0" y="17.6" width="17.2" height="3" style="fill:#000000" inkscape:label="obstacle" />
    <rect id="obstacle_106" x="42" y="14.8" width="14.6" height="6.8" style="fill:#000000" inkscape:label="obstacle" />
    <rect id="obstacle_107" x="17.4" y="22" width="0.4" height="0.2" style="fill:#000000" inkscape:label="obstacle" />
    <rect id="obstacle_108" x="17.4" y="22.2" width="0.6" height="0.2" style="fill:#000000" inkscape:label="obstacle" />
    <rect id="obstacle_109" x="0" y="20.6" width="17" height="2" style="fill:#000000" inkscape:label="obstacle" />
    <rect id="obstacle_110" x="41.8" y="21.6" width="14.8" height="1.2" style="fill:#000000" inkscape:label="obstacle" />
    <rect id="obstacle_111" x="0" y="22.6" width="17.2" height="0.4" style="fill:#000000" inkscape:label="obstacle" />
    <rect id="obstacle_112" x="17.4" y="22.4" width="0.8" height="0.6" style="fill:#000000" inkscape:label="obstacle" />
    <rect id="obstacle_113" x="41.4" y="22.8" width="15.2" height="0.6" style="fill:#000000" inkscape:label="obstacle" />
    <rect id="obstacle_114" x="0" y="23" width="18" height="0.6" style="fill:#000000" inkscape:label="obstacle" />
    <rect id="obstacle_115" x="0" y="23.6" width="17.8" height="0.6" style="fill:#000000" inkscape:label="obstacle" />
    <rect id="obstacle_116" x="0" y="24.2" width="17.6" height="0.6" style="fill:#000000" inkscape:label="obstacle" />
    <rect id="obstacle_117" x="0" y="24.8" width="17.4" height="0.6" style="fill:#000000" inkscape:label="obstacle" />
    <rect id="obstacle_118" x="0" y="25.4" width="17.2" height="0.6" style="fill:#000000" inkscape:label="obstacle" />
    <rect id="obstacle_119" x="0" y="26" width="17" height="0.2" style="fill:#000000" inkscape:label="obstacle" />
    <rect id="obstacle_120" x="0" y="26.2" width="16.4" height="0.6" style="fill:#000000" inkscape:label="obstacle" />
    <rect id="obstacle_121" x="0" y="26.8" width="16.2" height="0.2" style="fill:#000000" inkscape:label="obstacle" />
    <rect id="obstacle_122" x="0" y="27" width="16" height="0.8" style="fill:#000000" inkscape:label="obstacle" />
    <rect id="obstacle_123" x="41.2" y="23.4" width="15.4" height="4.4" style="fill:#000000" inkscape:label="obstacle" />
    <rect id="obstacle_124" x="0" y="27.8" width="15.8" height="0.4" style="fill:#000000" inkscape:label="obstacle" />
    <rect id="obstacle_125" x="41.4" y="27.8" width="15.2" height="0.6" style="fill:#000000" inkscape:label="obstacle" />
    <rect id="obstacle_126" x="0" y="28.2" width="15.6" height="0.8" style="fill:#000000" inkscape:label="obstacle" />
    <rect id="obstacle_127" x="41.6" y="28.4" width="15" height="0.6" style="fill:#000000" inkscape:label="obstacle" />
    <rect id="obstacle_128" x="0" y="29" width="15.4" height="0.6" style="fill:#000000" inkscape:label="obstacle" />
    <rect id="obstacle_129" x="41.8" y="29" width="14.8" height="0.6" style="fill:#000000" inkscape:label="obstacle" />
    <rect id="obstacle_130" x="0" y="29.6" width="15.2" height="0.4" style="fill:#000000" inkscape:label="obstacle" />
    <rect id="obstacle_131" x="42" y="29.6" width="14.6" height="0.6" style="fill:#000000" inkscape:label="obstacle" />
    <rect id="obstacle_132" x="42.8" y="30.2" width="13.8" height="0.6" style="fill:#000000" inkscape:label="obstacle" />
    <rect id="obstacle_133" x="0" y="30" width="15" height="1" style="fill:#000000" inkscape:label="obstacle" />
    <rect id="obstacle_134" x="43" y="30.8" width="13.6" height="0.4" style="fill:#000000" inkscape:label="obstacle" />
    <rect id="obstacle_135" x="0" y="31" width="14.8" height="0.6" style="fill:#000000" inkscape:label="obstacle" />
    <rect id="obstacle_136" x="43.2" y="31.2" width="13.4" height="0.6" style="fill:#000000" inkscape:label="obstacle" />
    <rect id="obstacle_137" x="0" y="31.6" width="14.6" height="0.4" style="fill:#000000" inkscape:label="obstacle" />
    <rect id="obstacle_138" x="42.8" y="31.8" width="13.8" height="0.2" style="fill:#000000" inkscape:label="obstacle" />
    <rect id="obstacle_139" x="42.6" y="32" width="14" height="0.2" style="fill:#000000" inkscape:label="obstacle" />
    <rect id="obstacle_140" x="42.4" y="32.2" width="1" height="0.2" style="fill:#000000" inkscape:label="obstacle" />
    <rect id="obstacle_141" x="43.6" y="32.2" width="13" height="0.2" style="fill:#000000" inkscape:label="obstacle" />
    <rect id="obstacle_142" x="0" y="32" width="14.4" height="0.8" style="fill:#000000" inkscape:label="obstacle" />
    <rect id="obstacle_143" x="42.2" y="32.4" width="1" height="0.4" style="fill:#000000" inkscape:label="obstacle" />
    <rect id="obstacle_144" x="42.2" y="32.8" width="0.8" height="0.2" style="fill:#000000" inkscape:label="obstacle" />
    <rect id="obstacle_145" x="0" y="32.8" width="14.2" height="0.4" style="fill:#000000" inkscape:label="obstacle" />
    <rect id="obstacle_146" x="42" y="33" width="1" height="0.2" style="fill:#000000" inkscape:label="obstacle" />
    <rect id="obstacle_147" x="43.8" y="32.4" width="12.8" height="0.8" style="fill:#000000" inkscape:label="obstacle" />
    <rect id="obstacle_148" x="42.2" y="33.2" width="0.8" height="0.4" style="fill:#000000" inkscape:label="obstacle" />
    <rect id="obstacle_149" x="42.2" y="33.6" width="0.6" height="0.2" style="fill:#000000" inkscape:label="obstacle" />
    <rect id="obstacle_150" x="44" y="33.2" width="12.6" height="0.6" style="fill:#000000" inkscape:label="obstacle" />
    <rect id="obstacle_151" x="0" y="33.2" width="14" height="0.8" style="fill:#000000" inkscape:label="obstacle" />
    <rect id="obstacle_152" x="42.2" y="33.8" width="0.2" height="0.2" style="fill:#000000" inkscape:label="obstacle" />
    <rect id="obstacle_153" x="42.6" y="33.8" width="0.2" height="0.2" style="fill:#000000" inkscape:label="obstacle" />
    <rect id="obstacle_154" x="44.2" y="33.8" width="12.4" height="0.4" style="fill:#000000" inkscape:label="obstacle" />
    <rect id="obstacle_155" x="0" y="34" width="13.8" height="0.6" style="fill:#000000" inkscape:label="obstacle" />
    <rect id="obstacle_156" x="44.4" y="34.2" width="12.2" height="0.4" style="fill:#000000" inkscape:label="obstacle" />
    <rect id="obstacle_157" x="0" y="34.6" width="13.6" height="0.6" style="fill:#000000" inkscape:label="obstacle" />
    <rect id="obstacle_158" x="44.6" y="34.6" width="12" height="0.6" style="fill:#000000" inkscape:label="obstacle" />
    <rect id="obstacle_159" x="0" y="35.2" width="13.4" height="0.4" style="fill:#000000" inkscape:label="obstacle" />
    <rect id="obstacle_160" x="0" y="35.6" width="13.6" height="0.2" style="fill:#000000" inkscape:label="obstacle" />
    <rect id="obstacle_161" x="44.8" y="35.2" width="11.8" height="0.6" style="fill:#000000" inkscape:label="obstacle" />
    <rect id="obstacle_162" x="0" y="35.8" width="13.8" height="0.4" style="fill:#000000" inkscape:label="obstacle" />
    <rect id="obstacle_163" x="45" y="35.8" width="11.6" height="0.6" style="fill:#000000" inkscape:label="obstacle" />
    <rect id="obstacle_164" x="0" y="36.2" width="13.6" height="0.6" style="fill:#000000" inkscape:label="obstacle" />
    <rect id="obstacle_165" x="45.2" y="36.4" width="11.4" height="0.6" style="fill:#000000" inkscape:label="obstacle" />
    <rect id="obstacle_166" x="0" y="36.8" width="13.4" height="0.6" style="fill:#000000" inkscape:label="obstacle" />
    <rect id="obstacle_167" x="45.4" y="37" width="11.2" height="0.4" style="fill:#000000" inkscape:label="obstacle" />
    <rect id="obstacle_168" x="0" y="37.4" width="13.2" height="0.6" style="fill:#000000" inkscape:label="obstacle" />
    <rect id="obstacle_169" x="45.6" y="37.4" width="11" height="0.6" style="fill:#000000" inkscape:label="obstacle" />
    <rect id="obstacle_170" x="0" y="38" width="13" height="0.6" style="fill:#000000" inkscape:label="obstacle" />
    <rect id="obstacle_171" x="0" y="38.6" width="12.8" height="0.6" style="fill:#000000" inkscape:label="obstacle" />
    <rect id="obstacle_172" x="45.8" y="38" width="10.8" height="1.2" style="fill:#000000" inkscape:label="obstacle" />
    <rect id="obstacle_173" x="46" y="39.2" width="10.6" height="0.4" style="fill:#000000" inkscape:label="obstacle" />
    <rect id="obstacle_174" x="0" y="39.2" width="12.6" height="0.6" style="fill:#000000" inkscape:label="obstacle" />
    <rect id="obstacle_175" x="45.8" y="39.6" width="10.8" height="0.2" style="fill:#000000" inkscape:label="obstacle" />
    <rect id="obstacle_176" x="45.6" y="39.8" width="11" height="0.4" style="fill:#000000" inkscape:label="obstacle" />
    <rect id="obstacle_177" x="0" y="39.8" width="12.4" height="0.8" style="fill:#000000" inkscape:label="obstacle" />
    <rect id="obstacle_178" x="0" y="40.6" width="12.2" height="0.2" style="fill:#000000" inkscape:label="obstacle" />
    <rect id="obstacle_179" x="45.8" y="40.2" width="10.8" height="0.6" style="fill:#000000" inkscape:label="obstacle" />
    <rect id="obstacle_180" x="12" y="40.8" width="0.2" height="0.2" style="fill:#000000" inkscape:label="obstacle" />
    <rect id="obstacle_181" x="46" y="40.8" width="10.6" height="0.4" style="fill:#000000" inkscape:label="obstacle" />
    <rect id="obstacle_182" x="46.2" y="41.2" width="10.4" height="0.6" style="fill:#000000" inkscape:label="obstacle" />
    <rect id="obstacle_183" x="0" y="40.8" width="11.8" height="1.4" style="fill:#000000" inkscape:label="obstacle" />
    <rect id="obstacle_184" x="46.4" y="41.8" width="10.2" height="0.6" style="fill:#000000" inkscape:label="obstacle" />
    <rect id="obstacle_185" x="0" y="42.2" width="11.6" height="0.6" style="fill:#000000" inkscape:label="obstacle" />
    <rect id="obstacle_186" x="0" y="42.8" width="11.4" height="0.2" style="fill:#000000" inkscape:label="obstacle" />
    <rect id="obstacle_187" x="46.6" y="42.4" width="10" height="0.6" style="fill:#000000" inkscape:label="obstacle" />
    <rect id="obstacle_188" x="0" y="43" width="11.2" height="0.4" style="fill:#000000" inkscape:label="obstacle" />
    <rect id="obstacle_189" x="0" y="43.4" width="11" height="0.2" style="fill:#000000" inkscape:label="obstacle" />
    <rect id="obstacle_190" x="46.8" y="43" width="9.8" height="0.6" style="fill:#000000" inkscape:label="obstacle" />
    <rect id="obstacle_191" x="0" y="43.6" width="10.8" height="0.2" style="fill:#000000" inkscape:label="obstacle" />
    <rect id="obstacle_192" x="47" y="43.6" width="9.6" height="0.4" style="fill:#000000" inkscape:label="obstacle" />
    <rect id="obstacle_193" x="0" y="43.8" width="10.6" height="0.6" style="fill:#000000" inkscape:label="obstacle" />
    <rect id="obstacle_194" x="47.2" y="44" width="9.4" height="0.6" style="fill:#000000" inkscape:label="obstacle" />
    <rect id="obstacle_195" x="0" y="44.4" width="10.4" height="0.4" style="fill:#000000" inkscape:label="obstacle" />
    <rect id="obstacle_196" x="47.4" y="44.6" width="0.2" height="0.2" style="fill:#000000" inkscape:label="obstacle" />
    <rect id="obstacle_197" x="0" y="44.8" width="10.2" height="0.6" style="fill:#000000" inkscape:label="obstacle" />
    <rect id="obstacle_198" x="48" y="44.6" width="8.6" height="0.8" style="fill:#000000" inkscape:label="obstacle" />
    <rect id="obstacle_199" x="0" y="45.4" width="10.4" height="0.2" style="fill:#000000" inkscape:label="obstacle" />
    <rect id="obstacle_200" x="0" y="45.6" width="10.6" height="0.4" style="fill:#000000" inkscape:label="obstacle" />
    <rect id="obstacle_201" x="48.2" y="45.4" width="8.4" height="0.6" style="fill:#000000" inkscape:label="obstacle" />
    <rect id="obstacle_202" x="48.4" y="46" width="8.2" height="0.2" style="fill:#000000" inkscape:label="obstacle" />
    <rect id="obstacle_203" x="0" y="46" width="10.4" height="0.4" style="fill:#000000" inkscape:label="obstacle" />
    <rect id="obstacle_204" x="0" y="46.4" width="9.8" height="0.2" style="fill:#000000" inkscape:label="obstacle" />
    <rect id="obstacle_205" x="10" y="46.4" width="0.4" height="0.2" style="fill:#000000" inkscape:label="obstacle" />
    <rect id="obstacle_206" x="48.6" y="46.2" width="8" height="0.4" style="fill:#000000" inkscape:label="obstacle" />
    <rect id="obstacle_207" x="48.8" y="46.6" width="7.8" height="0.4" style="fill:#000000" inkscape:label="obstacle" />
    <rect id="obstacle_208" x="0" y="46.6" width="9.6" height="0.6" style="fill:#000000" inkscape:label="obstacle" />
    <rect id="obstacle_209" x="49" y="47" width="7.6" height="0.6" style="fill:#000000" inkscape:label="obstacle" />
    <rect id="obstacle_210" x="0" y="47.2" width="9.4" height="0.6" style="fill:#000000" inkscape:label="obstacle" />
    <rect id="obstacle_211" x="0" y="47.8" width="9.2" height="0.6" style="fill:#000000" inkscape:label="obstacle" />
    <rect id="obstacle_212" x="49.2" y="47.6" width="7.4" height="0.8" style="fill:#000000" inkscape:label="obstacle" />
    <rect id="obstacle_213" x="0" y="48.4" width="9" height="0.6" style="fill:#000000" inkscape:label="obstacle" />
    <rect id="obstacle_214" x="49.4" y="48.4" width="7.2" height="0.8" style="fill:#000000" inkscape:label="obstacle" />
    <rect id="obstacle_215" x="0" y="49" width="8.8" height="0.6" style="fill:#000000" inkscape:label="obstacle" />
    <rect id="obstacle_216" x="49" y="49.2" width="7.6" height="0.4" style="fill:#000000" inkscape:label="obstacle" />
    <rect id="obstacle_217" x="49.2" y="49.6" width="7.4" height="0.6" style="fill:#000000" inkscape:label="obstacle" />
    <rect id="obstacle_218" x="0" y="49.6" width="8.6" height="0.8" style="fill:#000000" inkscape:label="obstacle" />
    <rect id="obstacle_219" x="49.4" y="50.2" width="7.2" height="0.2" style="fill:#000000" inkscape:label="obstacle" />
    <rect id="obstacle_220" x="49.4" y="50.4" width="0.2" height="0.2" style="fill:#000000" inkscape:label="obstacle" />
    <rect id="obstacle_221" x="0" y="50.4" width="8.4" height="0.4" style="fill:#000000" inkscape:label="obstacle" />
    <rect id="obstacle_222" x="50" y="50.4" width="6.6" height="0.4" style="fill:#000000" inkscape:label="obstacle" />
    <rect id="obstacle_223" x="0" y="50.8" width="8.2" height="0.2" style="fill:#000000" inkscape:label="obstacle" />
    <rect id="obstacle_224" x="0" y="51" width="8.4" height="0.2" style="fill:#000000" inkscape:label="obstacle" />
    <rect id="obstacle_225" x="50.2" y="50.8" width="6.4" height="0.4" style="fill:#000000" inkscape:label="obstacle" />
    <rect id="obstacle_226" x="50.4" y="51.2" width="6.2" height="0.6" style="fill:#000000" inkscape:label="obstacle" />
    <rect id="obstacle_227" x="0" y="51.2" width="8.6" height="1" style="fill:#000000" inkscape:label="obstacle" />
    <rect id="obstacle_228" x="50.6" y="51.8" width="6" height="0.4" style="fill:#000000" inkscape:label="obstacle" />
    <rect id="obstacle_229" x="0" y="52.2" width="8.4" height="0.2" style="fill:#000000" inkscape:label="obstacle" />
    <rect id="obstacle_230" x="0" y="52.4" width="7.8" height="0.2" style="fill:#000000" inkscape:label="obstacle" />
    <rect id="obstacle_231" x="50.8" y="52.2" width="5.8" height="0.4" style="fill:#000000" inkscape:label="obstacle" />
    <rect id="obstacle_232" x="0" y="52.6" width="7.6" height="0.6" style="fill:#000000" inkscape:label="obstacle" />
    <rect id="obstacle_233" x="51" y="52.6" width="5.6" height="0.8" style="fill:#000000" inkscape:label="obstacle" />
    <rect id="obstacle_234" x="0" y="53.2" width="7.4" height="0.6" style="fill:#000000" inkscape:label="obstacle" />
    <rect id="obstacle_235" x="51.2" y="53.4" width="5.4" height="0.8" style="fill:#000000" inkscape:label="obstacle" />
    <rect id="obstacle_236" x="0" y="53.8" width="7.2" height="0.6" style="fill:#000000" inkscape:label="obstacle" />
    <rect id="obstacle_237" x="51.4" y="54.2" width="5.2" height="0.2" style="fill:#000000" inkscape:label="obstacle" />
    <rect id="obstacle_238" x="0" y="54.4" width="7" height="0.2" style="fill:#000000" inkscape:label="obstacle" />
    <rect id="obstacle_239" x="51.6" y="54.4" width="5" height="0.2" style="fill:#000000" inkscape:label="obstacle" />
    <rect id="obstacle_240" x="0" y="54.6" width="3.8" height="0.2" style="fill:#000000" inkscape:label="obstacle" />
    <rect id="obstacle_241" x="4.2" y="54.6" width="2.8" height="0.2" style="fill:#000000" inkscape:label="obstacle" />
    <rect id="obstacle_242" x="51.4" y="54.6" width="5.2" height="0.2" style="fill:#000000" inkscape:label="obstacle" />
    <rect id="obstacle_243" x="0" y="54.8" width="3.4" height="0.2" style="fill:#000000" inkscape:label="obstacle" />
    <rect id="obstacle_244" x="4.4" y="54.8" width="1" height="0.2" style="fill:#000000" inkscape:label="obstacle" />
    <rect id="obstacle_245" x="6" y="54.8" width="1" height="0.2" style="fill:#000000" inkscape:label="obstacle" />
    <rect id="obstacle_246" x="51.2" y="54.8" width="5.4" height="0.2" style="fill:#000000" inkscape:label="obstacle" />
    <rect id="obstacle_247" x="0" y="55" width="2.4" height="0.2" style="fill:#000000" inkscape:label="obstacle" />
    <rect id="obstacle_248" x="2.8" y="55" width="0.4" height="0.2" style="fill:#000000" inkscape:label="obstacle" />
    <rect id="obstacle_249" x="4.6" y="55" width="0.4" height="0.2" style="fill:#000000" inkscape:label="obstacle" />
    <rect id="obstacle_250" x="6.2" y="55" width="0.6" height="0.2" style="fill:#000000" inkscape:label="obstacle" />
    <rect id="obstacle_251" x="51" y="55" width="5.6" height="0.2" style="fill:#000000" inkscape:label="obstacle" />
    <rect id="obstacle_252" x="3" y="55.2" width="0.4" height="0.2" style="fill:#000000" inkscape:label="obstacle" />
    <rect id="obstacle_253" x="6.4" y="55.2" width="0.4" height="0.2" style="fill:#000000" inkscape:label="obstacle" />
    <rect id="obstacle_254" x="51.2" y="55.2" width="5.4" height="0.2" style="fill:#000000" inkscape:label="obstacle" />
    <rect id="obstacle_255" x="0" y="55.2" width="1.8" height="0.4" style="fill:#000000" inkscape:label="obstacle" />
    <rect id="obstacle_256" x="6.6" y="55.4" width="0.2" height="0.2" style="fill:#000000" inkscape:label="obstacle" />
    <rect id="obstacle_257" x="51.2" y="55.4" width="0.6" height="0.2" style="fill:#000000" inkscape:label="obstacle" />
    <rect id="obstacle_258" x="52.6" y="55.4" width="1.2" height="0.2" style="fill:#000000" inkscape:label="obstacle" />
    <rect id="obstacle_259" x="54.2" y="55.4" width="1.2" height="0.2" style="fill:#000000" inkscape:label="obstacle" />
    <rect id="obstacle_260" x="55.8" y="55.4" width="0.8" height="0.2" style="fill:#000000" inkscape:label="obstacle" />
    <rect id="obstacle_261" x="0" y="55.6" width="2" height="0.2" style="fill:#000000" inkscape:label="obstacle" />
    <rect id="obstacle_262" x="51.4" y="55.6" width="0.2" height="0.2" style="fill:#000000" inkscape:label="obstacle" />
    <rect id="obstacle_263" x="53" y="55.6" width="0.6" height="0.2" style="fill:#000000" inkscape:label="obstacle" />
    <rect id="obstacle_264" x="56" y="55.6" width="0.6" height="0.2" style="fill:#000000" inkscape:label="obstacle" />
    <rect id="obstacle_265" x="54.4" y="55.6" width="1" height="0.4" style="fill:#000000" inkscape:label="obstacle" />
    <rect id="obstacle_266" x="56.2" y="55.8" width="0.4" height="0.2" style="fill:#000000" inkscape:label="obstacle" />
    <rect id="obstacle_267" x="56" y="56" width="0.6" height="0.2" style="fill:#000000" inkscape:label="obstacle" />
    <rect id="obstacle_268" x="0" y="55.8" width="1.6" height="0.6" style="fill:#000000" inkscape:label="obstacle" />
    <rect id="obstacle_269" x="54.6" y="56" width="0.6" height="0.4" style="fill:#000000" inkscape:label="obstacle" />
    <rect id="obstacle_270" x="55.6" y="56.2" width="1" height="0.2" style="fill:#000000" inkscape:label="obstacle" />
    <rect id="obstacle_271" x="0" y="56.4" width="1.8" height="0.2" style="fill:#000000" inkscape:label="obstacle" />
    <rect id="obstacle_272" x="55.8" y="56.4" width="0.8" height="0.4" style="fill:#000000" inkscape:label="obstacle" />
    <rect id="obstacle_273" x="0" y="56.6" width="2" height="0.4" style="fill:#000000" inkscape:label="obstacle" />
    <rect id="obstacle_274" x="56" y="56.8" width="0.6" height="0.2" style="fill:#000000" inkscape:label="obstacle" />
    <rect id="obstacle_275" x="0" y="57" width="1.8" height="0.2" style="fill:#000000" inkscape:label="obstacle" />
    <rect id="obstacle_276" x="55.6" y="57" width="1" height="0.2" style="fill:#000000" inkscape:label="obstacle" />
    <rect id="obstacle_277" x="0" y="57.2" width="1.2" height="0.2" style="fill:#000000" inkscape:label="obstacle" />
    <rect id="obstacle_278" x="1.6" y="57.2" width="0.2" height="0.2" style="fill:#000000" inkscape:label="obstacle" />
    <rect id="obstacle_279" x="55.4" y="57.2" width="1.2" height="0.2" style="fill:#000000" inkscape:label="obstacle" />
    <rect id="obstacle_280" x="55.2" y="57.4" width="1.4" height="0.2" style="fill:#000000" inkscape:label="obstacle" />
    <rect id="obstacle_281" x="0" y="57.4" width="1" height="0.4" style="fill:#000000" inkscape:label="obstacle" />
    <rect id="obstacle_282" x="55.4" y="57.6" width="1.2" height="0.2" style="fill:#000000" inkscape:label="obstacle" />
    <rect id="obstacle_283" x="55.6" y="57.8" width="1" height="0.2" style="fill:#000000" inkscape:label="obstacle" />
    <rect id="obstacle_284" x="56" y="58" width="0.6" height="0.4" style="fill:#000000" inkscape:label="obstacle" />
    <rect id="obstacle_285" x="0" y="57.8" width="0.8" height="0.8" style="fill:#000000" inkscape:label="obstacle" />
    <rect id="obstacle_286" x="0" y="58.6" width="1" height="0.4" style="fill:#000000" inkscape:label="obstacle" />
    <rect id="obstacle_287" x="0" y="59" width="1.2" height="1.4" style="fill:#000000" inkscape:label="obstacle" />
    <rect id="obstacle_288" x="54.8" y="60.2" width="0.4" height="0.2" style="fill:#000000" inkscape:label="obstacle" />
    <rect id="obstacle_289" x="54.8" y="60.4" width="1" height="0.2" style="fill:#000000" inkscape:label="obstacle" />
    <rect id="obstacle_290" x="56.2" y="58.4" width="0.4" height="2.2" style="fill:#000000" inkscape:label="obstacle" />
    <rect id="obstacle_291" x="0" y="60.4" width="1" height="0.8" style="fill:#000000" inkscape:label="obstacle" />
    <rect id="obstacle_292" x="54.8" y="60.6" width="1.8" height="1.2" style="fill:#000000" inkscape:label="obstacle" />
    <rect id="obstacle_293" x="55" y="61.8" width="1.6" height="0.4" style="fill:#000000" inkscape:label="obstacle" />
    <rect id="obstacle_294" x="55.2" y="62.2" width="1.4" height="0.2" style="fill:#000000" inkscape:label="obstacle" />
    <rect id="obstacle_295" x="55.4" y="62.4" width="1.2" height="0.2" style="fill:#000000" inkscape:label="obstacle" />
    <rect id="obstacle_296" x="0" y="61.2" width="0.8" height="1.6" style="fill:#000000" inkscape:label="obstacle" />
    <rect id="obstacle_297" x="55.6" y="62.6" width="1" height="0.4" style="fill:#000000" inkscape:label="obstacle" />
    <rect id="obstacle_298" x="0" y="62.8" width="1" height="0.6" style="fill:#000000" inkscape:label="obstacle" />
    <rect id="obstacle_299" x="0" y="63.4" width="1.2" height="0.2" style="fill:#000000" inkscape:label="obstacle" />
    <rect id="obstacle_300" x="55.8" y="63" width="0.8" height="1.8" style="fill:#000000" inkscape:label="obstacle" />
    <rect id="obstacle_301" x="0" y="63.6" width="1" height="3.2" style="fill:#000000" inkscape:label="obstacle" />
    <rect id="obstacle_302" x="55.6" y="64.8" width="1" height="2.6" style="fill:#000000" inkscape:label="obstacle" />
    <rect id="obstacle_303" x="0" y="66.8" width="1.2" height="1" style="fill:#000000" inkscape:label="obstacle" />
    <rect id="obstacle_304" x="55.8" y="67.4" width="0.8" height="0.4" style="fill:#000000" inkscape:label="obstacle" />
    <rect id="obstacle_305" x="0" y="67.8" width="1.4" height="0.2" style="fill:#000000" inkscape:label="obstacle" />
    <rect id="obstacle_306" x="56" y="67.8" width="0.6" height="0.2" style="fill:#000000" inkscape:label="obstacle" />
    <rect id="obstacle_307" x="0" y="68" width="1.2" height="0.4" style="fill:#000000" inkscape:label="obstacle" />
    <rect id="obstacle_308" x="56.2" y="68" width="0.4" height="0.4" style="fill:#000000" inkscape:label="obstacle" />
    <rect id="obstacle_309" x="55.8" y="68.4" width="0.8" height="0.2" style="fill:#000000" inkscape:label="obstacle" />
    <rect id="obstacle_310" x="0" y="68.4" width="0.8" height="0.4" style="fill:#000000" inkscape:label="obstacle" />
    <rect id="obstacle_311" x="55.6" y="68.6" width="1" height="0.2" style="fill:#000000" inkscape:label="obstacle" />
    <rect id="obstacle_312" x="0" y="68.8" width="0.6" height="0.6" style="fill:#000000" inkscape:label="obstacle" />
    <rect id="obstacle_313" x="55.4" y="68.8" width="1.2" height="0.6" style="fill:#000000" inkscape:label="obstacle" />
    <rect id="obstacle_314" x="55.6" y="69.4" width="1" height="0.2" style="fill:#000000" inkscape:label="obstacle" />
    <rect id="obstacle_315" x="55.8" y="69.6" width="0.8" height="0.4" style="fill:#000000" inkscape:label="obstacle" />
    <rect id="obstacle_316" x="56" y="70" width="0.6" height="0.2" style="fill:#000000" inkscape:label="obstacle" />
    <rect id="obstacle_317" x="0" y="69.4" width="0.8" height="1.2" style="fill:#000000" inkscape:label="obstacle" />
    <rect id="obstacle_318" x="0" y="70.6" width="1" height="1.2" style="fill:#000000" inkscape:label="obstacle" />
    <rect id="obstacle_319" x="0" y="71.8" width="1.2" height="0.4" style="fill:#000000" inkscape:label="obstacle" />
    <rect id="obstacle_320" x="0" y="72.2" width="1" height="0.4" style="fill:#000000" inkscape:label="obstacle" />
    <rect id="obstacle_321" x="56.2" y="70.2" width="0.4" height="2.4" style="fill:#000000" inkscape:label="obstacle" />
    <rect id="obstacle_322" x="0" y="72.6" width="1.2" height="0.2" style="fill:#000000" inkscape:label="obstacle" />
    <rect id="obstacle_323" x="47.4" y="72.6" width="0.6" height="0.4" style="fill:#000000" inkscape:label="obstacle" />
    <rect id="obstacle_324" x="0" y="72.8" width="1" height="0.4" style="fill:#000000" inkscape:label="obstacle" />
    <rect id="obstacle_325" x="47.2" y="73" width="0.8" height="0.2" style="fill:#000000" inkscape:label="obstacle" />
    <rect id="obstacle_326" x="0" y="73.2" width="0.4" height="0.2" style="fill:#000000" inkscape:label="obstacle" />
    <rect id="obstacle_327" x="56" y="72.6" width="0.6" height="0.8" style="fill:#000000" inkscape:label="obstacle" />
    <rect id="obstacle_328" x="0" y="73.4" width="0.6" height="0.2" style="fill:#000000" inkscape:label="obstacle" />
    <rect id="obstacle_329" x="47.2" y="73.2" width="1" height="0.4" style="fill:#000000" inkscape:label="obstacle" />
    <rect id="obstacle_330" x="55.8" y="73.4" width="0.8" height="0.4" style="fill:#000000" inkscape:label="obstacle" />
    <rect id="obstacle_331" x="11.2" y="73.8" width="3.6" height="0.2" style="fill:#000000" inkscape:label="obstacle" />
    <rect id="obstacle_332" x="15.8" y="73.8" width="0.4" height="0.2" style="fill:#000000" inkscape:label="obstacle" />
    <rect id="obstacle_333" x="22.2" y="73.8" width="1" height="0.2" style="fill:#000000" inkscape:label="obstacle" />
    <rect id="obstacle_334" x="30.6" y="73.8" width="0.6" height="0.2" style="fill:#000000" inkscape:label="obstacle" />
    <rect id="obstacle_335" x="47.4" y="73.6" width="0.8" height="0.4" style="fill:#000000" inkscape:label="obstacle" />
    <rect id="obstacle_336" x="56.2" y="73.8" width="0.4" height="0.2" style="fill:#000000" inkscape:label="obstacle" />
    <rect id="obstacle_337" x="0" y="73.6" width="4.4" height="0.6" style="fill:#000000" inkscape:label="obstacle" />
    <rect id="obstacle_338" x="15.8" y="74" width="0.8" height="0.2" style="fill:#000000" inkscape:label="obstacle" />
    <rect id="obstacle_339" x="49.4" y="74" width="0.6" height="0.2" style="fill:#000000" inkscape:label="obstacle" />
    <rect id="obstacle_340" x="50.6" y="74" width="0.6" height="0.2" style="fill:#000000" inkscape:label="obstacle" />
    <rect id="obstacle_341" x="0" y="74.2" width="4.8" height="0.2" style="fill:#000000" inkscape:label="obstacle" />
    <rect id="obstacle_342" x="11.2" y="74" width="3.8" height="0.4" style="fill:#000000" inkscape:label="obstacle" />
    <rect id="obstacle_343" x="15.8" y="74.2" width="1" height="0.2" style="fill:#000000" inkscape:label="obstacle" />
    <rect id="obstacle_344" x="0" y="74.4" width="5" height="0.2" style="fill:#000000" inkscape:label="obstacle" />
    <rect id="obstacle_345" x="7.8" y="74.4" width="1.6" height="0.2" style="fill:#000000" inkscape:label="obstacle" />
    <rect id="obstacle_346" x="10.4" y="74.4" width="4.8" height="0.2" style="fill:#000000" inkscape:label="obstacle" />
    <rect id="obstacle_347" x="15.6" y="74.4" width="1.4" height="0.2" style="fill:#000000" inkscape:label="obstacle" />
    <rect id="obstacle_348" x="18.2" y="73.8" width="0.8" height="0.8" style="fill:#000000" inkscape:label="obstacle" />
    <rect id="obstacle_349" x="22.4" y="74" width="0.8" height="0.6" style="fill:#000000" inkscape:label="obstacle" />
    <rect id="obstacle_350" x="47.6" y="74" width="0.6" height="0.6" style="fill:#000000" inkscape:label="obstacle" />
    <rect id="obstacle_351" x="0" y="74.6" width="18" height="0.2" style="fill:#000000" inkscape:label="obstacle" />
    <rect id="obstacle_352" x="18.2" y="74.6" width="1.8" height="0.2" style="fill:#000000" inkscape:label="obstacle" />
    <rect id="obstacle_353" x="20.8" y="74.6" width="1.2" height="0.2" style="fill:#000000" inkscape:label="obstacle" />
    <rect id="obstacle_354" x="22.2" y="74.6" width="1" height="0.2" style="fill:#000000" inkscape:label="obstacle" />
    <rect id="obstacle_355" x="25.4" y="74.6" width="0.2" height="0.2" style="fill:#000000" inkscape:label="obstacle" />
    <rect id="obstacle_356" x="25.8" y="74.6" width="0.4" height="0.2" style="fill:#000000" inkscape:label="obstacle" />
    <rect id="obstacle_357" x="26.4" y="73.8" width="0.8" height="1" style="fill:#000000" inkscape:label="obstacle" />
    <rect id="obstacle_358" x="30.6" y="74" width="0.8" height="0.8" style="fill:#000000" inkscape:label="obstacle" />
    <rect id="obstacle_359" x="34.6" y="74" width="1" height="0.8" style="fill:#000000" inkscape:label="obstacle" />
    <rect id="obstacle_360" x="38.8" y="74" width="3.6" height="0.8" style="fill:#000000" inkscape:label="obstacle" />
    <rect id="obstacle_361" x="49.4" y="74.2" width="3.6" height="0.6" style="fill:#000000" inkscape:label="obstacle" />
    <rect id="obstacle_362" x="0" y="74.8" width="31.4" height="0.2" style="fill:#000000" inkscape:label="obstacle" />
    <rect id="obstacle_363" x="31.6" y="74.8" width="0.8" height="0.2" style="fill:#000000" inkscape:label="obstacle" />
    <rect id="obstacle_364" x="33.4" y="74.8" width="2.2" height="0.2" style="fill:#000000" inkscape:label="obstacle" />
    <rect id="obstacle_365" x="35.8" y="74.8" width="0.2" height="0.2" style="fill:#000000" inkscape:label="obstacle" />
    <rect id="obstacle_366" x="37.6" y="74.8" width="0.8" height="0.2" style="fill:#000000" inkscape:label="obstacle" />
    <rect id="obstacle_367" x="38.8" y="74.8" width="4.4" height="0.2" style="fill:#000000" inkscape:label="obstacle" />
    <rect id="obstacle_368" x="47.8" y="74.6" width="0.4" height="0.4" style="fill:#000000" inkscape:label="obstacle" />
    <rect id="obstacle_369" x="48.6" y="74.8" width="4.4" height="0.2" style="fill:#000000" inkscape:label="obstacle" />
    <rect id="obstacle_370" x="0" y="75" width="43.2" height="0.2" style="fill:#000000" inkscape:label="obstacle" />
    <rect id="obstacle_371" x="43.8" y="75" width="1" height="0.2" style="fill:#000000" inkscape:label="obstacle" />
    <rect id="obstacle_372" x="46" y="75" width="0.2" height="0.2" style="fill:#000000" inkscape:label="obstacle" />
    <rect id="obstacle_373" x="46.4" y="75" width="0.8" height="0.2" style="fill:#000000" inkscape:label="obstacle" />
    <rect id="obstacle_374" x="47.8" y="75" width="8.4" height="0.2" style="fill:#000000" inkscape:label="obstacle" />
    <rect id="obstacle_375" x="56.4" y="74" width="0.2" height="1.2" style="fill:#000000" inkscape:label="obstacle" />
    <rect id="obstacle_376" x="0" y="75.2" width="56.6" height="0.4" style="fill:#000000" inkscape:label="obstacle" />
    <rect id="robot_spawn_zone_0" x="0.4" y="73.2" width="0.2" height="0.2" style="fill:#ffdf00" inkscape:label="robot_spawn_zone_0" />
    <rect id="robot_goal_zone_0" x="56.2" y="74" width="0.2" height="0.2" style="fill:#ff6c00" inkscape:label="robot_goal_zone_0" />
    <rect id="ped_spawn_zone_0" x="56.2" y="74" width="0.2" height="0.2" style="fill:#29a35a" inkscape:label="ped_spawn_zone_0" />
    <rect id="ped_goal_zone_0" x="0.4" y="73.2" width="0.2" height="0.2" style="fill:#246fe0" inkscape:label="ped_goal_zone_0" />
    <path id="robot_route_0_0" d="M 0.5,73.3 L 1.1,73.3 L 1.1,72.9 L 1.3,72.9 L 1.3,72.5 L 48.1,72.5 L 48.1,73.1 L 48.3,73.1 L 48.3,73.9 L 51.3,73.9 L 51.3,74.1 L 56.3,74.1" style="fill:none;stroke:#0310b4;stroke-width:0.08" inkscape:label="robot_route_0_0" />
    <path id="ped_route_0_0" d="M 56.3,74.1 L 51.3,74.1 L 51.3,73.9 L 48.3,73.9 L 48.3,73.1 L 48.1,73.1 L 48.1,72.5 L 1.3,72.5 L 1.3,72.9 L 1.1,72.9 L 1.1,73.3 L 0.5,73.3" style="fill:none;stroke:#00a05a;stroke-width:0.08" inkscape:label="ped_route_0_0" />
  </g>
</svg>
