<svg xmlns:ns0="http://www.w3.org/2000/svg" xmlns:ns1="http://www.inkscape.org/namespaces/inkscape" xmlns="http://www.w3.org/2000/svg" viewBox="0.0 0.0 488.4803921568627 458.3333333333333"><ns0:path style="fill-rule:evenodd;fill:rgb(85.098039%,81.568627%,78.823529%);fill-opacity:1;stroke-width:0.75;stroke-linecap:butt;stroke-linejoin:miter;stroke:rgb(72.54902%,66.27451%,61.176471%);stroke-opacity:1;stroke-miterlimit:4;" d="M 29.444316666666666 294.1138174019608 L 46.256510294117646 293.61404705882353 L 46.32831642156862 297.91187965686277 L 73.0181524509804 297.3154105392157 L 73.38675710784314 331.8627450980392 L 69.15785833333334 331.92784926470586 L 69.03530931372549 324.33076740196077 L 53.89763333333333 324.5911840686274 L 54.229855882352936 340.39426323529415 L 69.21626078431373 340.7408470588235 L 69.15115661764706 336.117493872549 L 71.43841911764706 335.9327129901961 L 73.4298406862745 335.7814414215686 L 73.72568161764706 364.02228872549017 L 79.7219669117647 364.3047257352941 L 79.86557892156863 368.86297499999995 L 87.4636181372549 368.7107460784314 L 87.34872843137255 330.81054681372547 L 87.26926323529412 304.6961166666666 L 113.93037696078432 304.26145073529415 L 113.78580735294118 301.22261789215685 L 115.86435343137255 301.16804534313724 L 116.52784166666667 340.0792740196078 L 117.07643995098039 372.3910463235294 L 123.07272524509804 372.1947764705882 L 123.02198235294117 379.98812794117646 L 133.37641691176472 378.33850343137254 L 131.3486137254902 367.64801617647055 L 130.66310514705881 343.69351249999994 L 130.4610906862745 304.00103406862746 L 150.49881274509804 303.80572156862746 L 150.64242499999997 299.88798259803923 L 157.22273284313724 299.7462852941177 L 157.19401029411762 292.0189950980392 L 157.16528799019608 290.2056524509804 L 157.1222044117647 287.34106911764707 L 153.05989583333331 287.4061735294117 L 153.05989583333331 284.21511176470585 L 142.27270980392157 284.1059666666667 L 141.73847279411763 275.7917816176471 L 126.42750465686274 278.46200980392155 L 106.95274215686274 278.55966617647056 L 106.91731764705881 279.2547487745098 L 96.14449289215685 277.57257205882354 L 91.4110370098039 276.9320617647059 L 90.88445931372549 281.6320083333333 L 83.61768529411763 281.8598727941176 L 83.25003823529411 248.3752681372549 L 79.27389705882352 248.53802843137254 L 79.20209093137254 246.91042426470588 L 78.76933970588235 245.60738357843135 L 77.20396764705882 245.80269607843135 L 75.48636642156862 245.94439338235293 L 75.03159460784313 242.57908235294119 L 64.0423943627451 243.88212303921566 L 66.96442254901962 259.066712745098 L 68.06161911764706 259.0341605392157 L 67.28898578431372 285.2462470588235 L 52.028760784313725 285.38698676470585 L 51.88419117647059 278.07138480392155 L 33.311312745098036 278.4189262254902 Z M 29.444316666666666 294.1138174019608" ns1:label="obstacle" />
<ns0:path style="fill-rule:evenodd;fill:rgb(85.098039%,81.568627%,78.823529%);fill-opacity:1;stroke-width:0.75;stroke-linecap:butt;stroke-linejoin:miter;stroke:rgb(72.54902%,66.27451%,61.176471%);stroke-opacity:1;stroke-miterlimit:4;" d="M 386.8556602941176 340.00363823529415 L 387.03661151960785 349.34800098039216 L 387.2309666666667 359.18160245098034 L 396.39437794117646 367.8643919117647 L 411.58279705882353 367.495787254902 L 411.7273666666666 373.50834852941176 L 416.3957183823529 373.38867181372547 L 416.252106372549 367.3866421568627 L 418.60351568627453 367.4517463235294 L 418.59681372549016 372.0435049019608 L 419.72943480392155 373.38867181372547 L 422.24073235294117 373.38867181372547 L 423.45281862745094 372.2933899509804 L 423.4595205882353 367.59344362745094 L 429.600375245098 367.5819546568627 L 430.2495022058824 367.5819546568627 L 447.1411612745098 367.64801617647055 L 453.46871176470586 361.2544041666667 L 461.79534313725486 352.734375 L 465.5694700980392 352.55055147058823 L 466.6082644607843 351.4973958333333 L 472.3661534313725 345.68014705882354 L 472.4025352941176 343.9108455882353 L 475.53423725490194 343.9213772058824 L 475.4911534313725 333.295994117647 L 469.515931372549 333.25195318627453 L 467.87875294117646 333.2308899509804 L 461.600987990196 328.0311735294117 L 461.55024509803917 318.719362745098 L 461.3625919117647 302.9488357843137 L 451.0589 303.00245098039215 L 448.34654558823524 305.2274816176471 L 423.81376372549016 305.4227941176471 L 419.5130590686274 301.35282622549016 L 419.21721813725486 299.12779558823524 L 416.8504901960784 299.105775 L 409.5415901960784 299.0301394607843 L 409.25245098039215 300.28913921568625 L 398.9995022058824 300.58210784313724 L 396.1923637254902 302.51416960784314 L 395.9692862745098 303.67551323529415 L 395.63706348039216 305.4227941176471 L 395.81705735294116 319.7504977941176 L 395.72323063725486 331.88476568627453 Z M 386.8556602941176 340.00363823529415" ns1:label="obstacle" />
<ns0:path style="fill-rule:evenodd;fill:rgb(85.098039%,81.568627%,78.823529%);fill-opacity:1;stroke-width:0.75;stroke-linecap:butt;stroke-linejoin:miter;stroke:rgb(72.54902%,66.27451%,61.176471%);stroke-opacity:1;stroke-miterlimit:4;" d="M 28.74444705882353 209.4094669117647 L 34.16341151960784 225.09382647058823 L 56.09106911764706 224.86596200980392 L 58.65215220588235 224.84394142156862 L 58.63108921568627 228.44764852941177 L 78.79136029411764 228.37105539215685 L 78.84114583333333 225.71231617647058 L 84.94561887254902 224.70320147058823 L 92.79641544117646 223.41164975490196 L 92.81077671568627 222.10860906862743 L 128.89476102941177 220.8926931372549 L 128.88039975490196 217.97353700980392 L 128.84497549019608 210.3860294117647 L 128.8229549019608 205.84980098039216 L 125.90762867647058 205.87086397058823 L 125.80710024509803 200.80231323529412 L 106.50562965686275 201.03017769607843 L 106.41946225490194 204.63388480392155 L 103.55487892156862 204.67696838235295 L 102.87607230392156 145.05591299019608 L 102.05365343137254 110.94132965686273 L 96.38193161764704 111.14813112745098 L 96.31012549019607 109.26968431372549 L 96.24502156862745 107.50038284313725 L 96.13683357843136 104.60229019607843 L 88.40188431372549 106.3610600490196 L 85.4224112745098 107.03412230392158 L 87.52202058823529 119.79836862745098 L 88.2936963235294 146.4345894607843 L 88.35880049019607 151.18815098039215 L 88.75517009803922 186.30131740196077 L 88.76953137254901 187.679993872549 L 69.08605245098039 188.0926394607843 L 69.08605245098039 192.3473882352941 L 49.42363676470588 192.5532323529412 L 49.42363676470588 212.92604926470588 L 47.24456176470588 212.99115343137254 L 46.32831642156862 209.333831127451 L 41.796875 209.35489436274509 Z M 28.74444705882353 209.4094669117647" ns1:label="obstacle" />
<ns0:path style="fill-rule:evenodd;fill:rgb(85.098039%,81.568627%,78.823529%);fill-opacity:1;stroke-width:0.75;stroke-linecap:butt;stroke-linejoin:miter;stroke:rgb(72.54902%,66.27451%,61.176471%);stroke-opacity:1;stroke-miterlimit:4;" d="M 299.41884950980386 153.500306372549 L 300.3638174019608 206.8694470588235 L 300.4940257352941 213.9361213235294 L 300.796568627451 231.291168872549 L 305.4218367647059 231.20404411764704 L 310.29220294117647 231.11787696078432 L 318.9721200980392 230.96564803921567 L 360.04997696078425 230.2380132352941 L 359.8987056372549 223.24888946078428 L 359.69669117647055 208.42237279411765 L 359.62488504901955 206.04511323529408 L 324.9329808823529 206.66360294117646 L 324.87457867647055 203.38541666666666 L 324.311619117647 171.62702965686273 L 331.02979460784314 171.53990490196077 L 336.4554610294117 171.40969656862742 L 335.9432446078431 148.64908848039215 L 335.8857995098039 140.55127916666666 L 335.7555911764706 130.68512549019607 L 335.3946460784313 111.58183970588235 L 316.82272524509807 111.90736053921567 L 317.3349416666667 140.81169583333332 L 317.36366421568624 146.56479779411765 L 317.5580193627451 153.1747855392157 Z M 299.41884950980386 153.500306372549" ns1:label="obstacle" />
<ns0:path style="fill-rule:evenodd;fill:rgb(85.098039%,81.568627%,78.823529%);fill-opacity:1;stroke-width:0.75;stroke-linecap:butt;stroke-linejoin:miter;stroke:rgb(72.54902%,66.27451%,61.176471%);stroke-opacity:1;stroke-miterlimit:4;" d="M 136.63736985294116 52.53523284313725 L 136.7675781862745 61.196959313725486 L 136.78864117647058 62.922219607843125 L 160.97483921568627 62.564146813725486 L 161.11940882352943 72.50689338235294 L 137.05575980392157 72.86496617647059 L 137.26543357843136 87.35543039215685 L 137.40234362745096 96.6030943627451 L 137.92892156862746 131.62913602941177 L 195.75386789215685 130.77225024509804 L 195.54419411764704 116.6724112745098 L 195.2560125 97.6342294117647 L 170.1104855392157 98.00283382352941 L 169.94389558823528 86.62779558823529 L 195.03197769607843 86.25919117647058 L 194.52742034313724 51.68792132352941 L 167.57716764705881 52.07854632352941 Z M 148.34846053921567 97.21105245098039 L 161.91310514705881 97.02627156862745 L 162.08639705882354 109.98583039215686 L 148.5217524509804 110.16007965686273 Z M 163.75995710784312 62.62925098039216 L 186.6048176470588 62.31426176470588 L 186.73406862745097 72.05116421568627 L 163.89016544117646 72.40923725490195 Z M 172.7653950980392 113.56847426470588 L 188.5598575980392 113.18838088235294 L 188.76187205882354 121.66532622549019 L 172.96740955882353 122.04541960784313 Z M 172.7653950980392 113.56847426470588" ns1:label="obstacle" />
<ns0:path style="fill-rule:evenodd;fill:rgb(85.098039%,81.568627%,78.823529%);fill-opacity:1;stroke-width:0.75;stroke-linecap:butt;stroke-linejoin:miter;stroke:rgb(72.54902%,66.27451%,61.176471%);stroke-opacity:1;stroke-miterlimit:4;" d="M 189.85140931372547 234.81828284313724 L 190.2200137254902 259.4898897058823 L 191.432100245098 259.467869117647 L 191.4531632352941 260.5535769607843 L 193.36511960784316 260.531556372549 L 193.35075833333332 259.5004213235294 L 199.55671715686273 259.4027649509804 L 199.58543970588235 261.5847120098039 L 206.7650887254902 261.4755666666667 L 206.7497700980392 260.36879607843133 L 224.19768676470585 260.1083794117647 L 225.75539975490196 260.0863588235294 L 225.7410387254902 258.84937965686277 L 228.32414215686273 258.80629607843133 L 228.346162745098 260.21656715686277 L 231.07383578431373 260.1734833333333 L 235.2653950980392 260.1189107843137 L 235.24433210784312 258.5018382352941 L 240.86531102941174 258.4262024509804 L 240.74946372549016 251.34899656862743 L 240.4392617647059 230.09727328431373 L 252.2652421568627 229.923981372549 L 252.02780343137252 214.38036151960785 L 251.81047034313727 200.05361519607843 L 244.3359375 200.16180294117646 L 244.30721519607843 198.38197009803923 L 220.69067867647058 198.74004289215685 L 220.71174166666665 200.08616715686273 L 212.55170049019608 200.20584411764705 L 201.40356911764704 200.37913602941177 L 201.48973651960785 206.29499852941174 L 190.4718137254902 206.45775882352942 L 190.59436274509804 214.61971519607843 L 192.24685980392158 214.58716299019608 L 192.5503600490196 234.7751990196078 Z M 189.85140931372547 234.81828284313724" ns1:label="obstacle" />
<ns0:path style="fill-rule:evenodd;fill:rgb(85.098039%,81.568627%,78.823529%);fill-opacity:1;stroke-width:0.75;stroke-linecap:butt;stroke-linejoin:miter;stroke:rgb(72.54902%,66.27451%,61.176471%);stroke-opacity:1;stroke-miterlimit:4;" d="M 383.01738676470586 285.5602789215686 L 384.7416897058824 285.6579350490196 L 386.9638480392157 287.8829656862745 L 422.4283852941176 287.34106911764707 L 426.1220894607843 284.1059666666667 L 426.1584710784314 283.0643 L 429.00869338235293 283.18397671568624 L 436.4554610294117 290.33586078431375 L 460.09976249999994 289.859068627451 L 466.868681127451 282.977175245098 L 474.06173406862746 275.66157328431376 L 477.8866039215686 275.5639169117647 L 484.73403039215685 275.4231769607843 L 488.6881509803921 275.3360524509804 L 495.2320772058823 275.2058441176471 L 498.76780784313723 274.9779794117647 L 498.75344656862745 268.49819999999994 L 498.7390855392157 262.8437117647059 L 495.54993872549016 262.8973269607843 L 488.4717754901961 262.8322227941177 L 484.6181833333333 262.8322227941177 L 477.4318321078431 262.82169117647055 L 471.9554227941176 262.6483992647059 L 469.603056127451 260.238587745098 L 467.37323823529414 260.1514629901961 L 467.085056617647 221.68543186274508 L 461.117493872549 215.5206419117647 L 450.5830651960784 215.4766007352941 L 450.5179610294117 229.81483602941177 L 453.43998921568624 229.8043044117647 L 453.39690563725486 232.69090833333334 L 456.9546568627451 232.71292892156862 L 456.89625465686277 234.05905343137255 L 449.84681372549016 234.01596960784315 L 449.8324524509803 239.05196838235292 L 450.99379607843133 239.07303161764705 L 450.95071225490193 241.6350720588235 L 452.18481911764707 242.86151960784312 L 457.2504977941176 242.9046031862745 L 457.2504977941176 244.18562352941174 L 453.2810585784314 244.18562352941174 L 453.6783852941176 260.531556372549 L 458.0001531862745 260.4013480392157 L 457.97143088235293 261.4650352941177 L 456.6875382352941 261.4650352941177 L 456.65881593137254 263.85282622549016 L 458.1954656862745 263.80974264705884 L 458.1954656862745 265.92562794117646 L 456.99008112745094 265.98020073529415 L 454.11879607843133 268.80265784313724 L 451.1096431372549 271.7543656862745 L 437.69626985294116 271.6672411764706 L 437.6742495098039 270.3000536764706 L 436.282169117647 269.0515855392157 L 433.5544960784314 269.08413749999994 L 433.5324754901961 267.9448147058824 L 428.5615808823529 268.009918872549 L 428.6410463235294 272.24264705882354 L 425.11201740196077 272.2866882352941 L 425.08329509803923 270.6255745098039 L 415.40000759803917 261.1940870098039 L 397.3470051470588 261.1720664215686 L 392.686312745098 266.50103406862746 L 383.5659850490196 266.2080651960784 Z M 383.01738676470586 285.5602789215686" ns1:label="obstacle" />
<ns0:path style="fill-rule:evenodd;fill:rgb(85.098039%,81.568627%,78.823529%);fill-opacity:1;stroke-width:0.75;stroke-linecap:butt;stroke-linejoin:miter;stroke:rgb(72.54902%,66.27451%,61.176471%);stroke-opacity:1;stroke-miterlimit:4;" d="M 346.4345894607843 385.7402725490196 L 346.5504365196078 394.44508284313724 L 346.58586078431375 397.527956372549 L 346.5935200980392 397.9511335784314 L 346.6002220588235 398.15697769607846 L 346.6509651960784 402.2920495098039 L 346.66532622549016 403.3346737745098 L 346.7380897058823 409.3472350490196 L 353.28201593137254 409.2601102941176 L 354.4653799019608 409.24957867647055 L 359.3357460784314 409.18447450980386 L 359.68232990196077 409.17394313725487 L 364.04813872549016 409.11937034313723 L 366.8112362745098 409.08681838235293 L 367.0419730392157 409.08681838235293 L 367.9582183823529 409.07628676470586 L 371.9918044117647 409.0217142156863 L 371.8836166666666 400.94688259803917 L 371.87691470588237 400.4901960784314 L 371.8405330882353 397.5930607843137 L 371.8328737745098 396.8874463235294 L 371.7974495098039 394.18466617647056 L 371.7830882352941 392.9036458333333 L 391.0050933823529 392.65471813725486 L 391.23583039215686 392.65471813725486 L 391.2645526960784 395.22633284313724 L 391.2865732843137 396.7677696078431 L 391.31529558823524 398.8520602941176 L 391.3296568627451 400.39253970588237 L 391.3363588235294 400.642425 L 391.4014629901961 405.74352794117647 L 417.03048406862746 405.41800710784315 L 417.05250465686277 406.7315794117647 L 417.0668656862745 408.00111053921563 L 420.17654705882353 407.9580269607843 L 423.44515931372547 407.91494338235293 L 423.70557598039215 407.91494338235293 L 426.7645144607843 407.8709022058823 L 428.027343627451 407.8603705882353 L 430.4878982843137 407.82781862745094 L 431.3036151960784 407.81728700980386 L 435.58229926470585 407.7627144607843 L 438.9514399509804 407.71963088235293 L 441.8811274509804 407.6755897058823 L 442.24207254901955 407.6755897058823 L 442.37132352941177 407.6650583333333 L 445.28664975490193 407.63250612745094 L 445.6332338235294 407.6210171568627 L 448.59834558823525 407.5884651960784 L 448.9449294117647 407.5884651960784 L 449.1038602941176 407.5779335784314 L 452.32938872549016 407.53484999999995 L 455.68416813725486 407.4908088235294 L 455.84309901960785 407.5022977941176 L 459.06096813725486 407.44772524509807 L 462.6110600490196 407.40464166666663 L 468.1161916666667 407.339537254902 L 468.99701274509806 407.3175169117647 L 475.83007818627453 407.24188112745094 L 475.7573147058824 401.65153946078425 L 475.72189019607845 399.1986443627451 L 475.72189019607845 398.7754671568627 L 475.67114730392154 395.11814485294116 L 475.642425 392.82801004901955 L 475.60604313725486 389.9739583333333 L 475.5916818627451 388.7360218137255 L 468.79499852941177 388.8231465686274 L 464.7039676470588 388.8777191176471 L 464.674287745098 386.7063036764706 L 464.63886323529414 384.1883041666666 L 463.0658318627451 384.19979313725486 L 457.87760416666663 384.2534083333333 L 454.35623480392155 384.3079808823529 L 453.80093431372546 384.31851249999994 L 449.55863210784315 384.40563725490193 L 446.47767303921563 384.4487208333333 L 443.15831813725487 384.4927620098039 L 436.2237669117647 384.5789291666666 L 431.7220051470588 384.6440333333333 L 430.40843284313723 384.65552230392154 L 430.0044041666667 384.63350196078426 L 428.027343627451 384.6765855392157 L 424.8956419117647 384.7206264705882 L 424.0014169117647 384.7416897058824 L 420.4369637254902 384.78573063725486 L 416.99505980392155 384.8393458333333 L 413.430606617647 384.8833870098039 L 412.88966764705884 384.89391862745094 L 410.0317862745098 384.9264705882353 L 406.6770068627451 384.9695541666666 L 402.51321225490193 385.02412696078426 L 396.9860600490196 385.09976249999994 L 395.81705735294116 385.1112514705882 L 391.14200367647055 385.16582401960784 L 387.68573823529414 385.2194392156863 L 384.467869117647 385.2519914215686 L 381.0690487745098 385.29603235294115 L 377.7066100490196 385.3391161764706 L 374.5385264705882 385.38219975490193 L 371.39342058823524 385.4262406862745 L 367.95151666666663 385.4693245098039 L 364.1266468137255 385.5124080882353 L 360.9595205882353 385.55644901960784 L 359.3721276960784 385.57751225490193 L 359.2275583333333 385.58900122549016 L 358.43386176470585 385.6971889705882 L 352.97181372549016 385.6646370098039 Z M 346.4345894607843 385.7402725490196" ns1:label="obstacle" />
<ns0:path style="fill-rule:evenodd;fill:rgb(85.098039%,81.568627%,78.823529%);fill-opacity:1;stroke-width:0.75;stroke-linecap:butt;stroke-linejoin:miter;stroke:rgb(72.54902%,66.27451%,61.176471%);stroke-opacity:1;stroke-miterlimit:4;" d="M 134.90540735294115 234.1997931372549 L 135.46166519607843 239.90885416666666 L 136.85374534313726 247.1382889705882 L 139.07590392156862 252.67310049019608 L 142.27270980392157 252.65203725490196 L 144.9640012254902 252.57544411764707 L 147.6045495098039 252.56491274509804 L 147.72805612745097 260.21656715686277 L 151.09049485294116 260.1629519607843 L 151.18336397058823 261.0744102941177 L 164.36695784313727 262.962431127451 L 166.76240808823528 246.22587303921566 L 162.8657323529412 245.5422794117647 L 162.69244019607842 235.29603235294115 L 162.6780789215686 234.4171262254902 L 168.7097887254902 234.14617794117646 L 168.6954274509804 212.61201740196077 L 162.32479313725491 212.65510098039212 L 162.28841151960782 210.40804999999997 L 161.24195784313727 209.04086249999997 L 161.21323529411765 207.87951911764705 L 162.65605857843136 207.27156102941174 L 162.65605857843136 206.60903039215685 L 166.4158240196078 206.58796715686273 L 166.18508725490196 173.97077965686273 L 157.02071838235295 174.03684117647057 L 139.23483455882354 174.1670495098039 L 139.27791813725491 179.85409019607843 L 136.91884950980392 179.8761105392157 L 135.99494485294116 205.63246789215685 L 136.03132647058823 207.85749852941174 L 139.66758578431373 207.86802990196077 L 139.65322450980392 209.75700833333332 L 139.71832867647058 217.9189644607843 L 139.6819470588235 218.862975 L 139.76141225490193 227.7966068627451 L 139.55939803921567 228.29541960784312 L 138.2534850490196 228.31744019607842 L 134.94178921568627 228.29541960784312 Z M 134.90540735294115 234.1997931372549" ns1:label="obstacle" />
<ns0:path style="fill-rule:evenodd;fill:rgb(85.098039%,81.568627%,78.823529%);fill-opacity:1;stroke-width:0.75;stroke-linecap:butt;stroke-linejoin:miter;stroke:rgb(72.54902%,66.27451%,61.176471%);stroke-opacity:1;stroke-miterlimit:4;" d="M 315.2640549019608 464.93853406862746 L 315.27841617647056 469.63848039215685 L 315.2927772058823 471.7227710784313 L 315.2927772058823 472.0262715686274 L 315.29947916666663 473.8061044117647 L 315.3502220588235 484.64882058823525 L 315.4009651960784 495.14399509803917 L 315.41532622549016 499.4418274509803 L 353.67934289215685 499.2685355392157 L 353.65732230392155 495.10091151960785 L 353.62859999999995 488.6862362745098 L 353.6142387254902 484.84413284313723 L 353.556793872549 472.06935514705884 L 353.54913455882354 471.5054382352941 L 353.54147524509807 469.44316789215685 L 353.5634955882353 469.44316789215685 L 353.54147524509807 464.93853406862746 L 353.48403039215685 451.93684901960785 L 346.536075490196 451.9694009803921 L 333.90107990196077 452.02301617647055 L 324.0157781862745 452.06705735294116 L 324.05981911764707 464.9174708333333 L 315.5665977941176 464.9605544117647 Z M 315.2640549019608 464.93853406862746" ns1:label="obstacle" />
<ns0:path style="fill-rule:evenodd;fill:rgb(85.098039%,81.568627%,78.823529%);fill-opacity:1;stroke-width:0.75;stroke-linecap:butt;stroke-linejoin:miter;stroke:rgb(72.54902%,66.27451%,61.176471%);stroke-opacity:1;stroke-miterlimit:4;" d="M 168.1908700980392 287.1783088235294 L 168.23395367647058 290.054381127451 L 168.26267622549017 291.85623480392155 L 168.54415588235295 306.5736058823529 L 168.6016007352941 312.0873544117647 L 185.7967600490196 311.71875 L 185.89058676470586 310.2203968137255 L 190.24873627450978 310.1773132352941 L 190.48617499999997 313.8566558823529 L 204.2748544117647 313.8566558823529 L 210.03370098039215 292.51780784313723 L 205.14801617647058 292.75716151960785 L 204.91057745098038 287.42723651960785 L 204.78802843137254 275.694125245098 L 171.7266007352941 276.6927083333333 L 171.69021911764705 286.87385098039215 Z M 168.1908700980392 287.1783088235294" ns1:label="obstacle" />
<ns0:path style="fill-rule:evenodd;fill:rgb(85.098039%,81.568627%,78.823529%);fill-opacity:1;stroke-width:0.75;stroke-linecap:butt;stroke-linejoin:miter;stroke:rgb(72.54902%,66.27451%,61.176471%);stroke-opacity:1;stroke-miterlimit:4;" d="M 167.64227181372547 337.4195772058823 L 167.96683529411766 372.60742181372547 L 173.08995857843138 372.57486985294116 L 176.49548088235292 372.49923406862746 L 187.75179999999997 372.41210931372547 L 187.60723039215685 356.913487990196 L 181.06330416666665 356.9785921568627 L 181.0269225490196 352.94117647058823 L 190.37798725490197 352.85405171568624 L 190.234375 336.801087745098 L 184.96668186274508 336.8556602941176 L 184.91593897058823 331.29882818627453 L 192.79545808823528 331.2222350490196 L 192.6872700980392 319.44604019607846 L 170.5499387254902 319.64135269607846 L 170.6514245098039 330.7885264705882 L 172.80847892156862 330.76650588235293 L 172.86592377450978 337.376493627451 Z M 167.64227181372547 337.4195772058823" ns1:label="obstacle" />
<ns0:path style="fill-rule:evenodd;fill:rgb(85.098039%,81.568627%,78.823529%);fill-opacity:1;stroke-width:0.75;stroke-linecap:butt;stroke-linejoin:miter;stroke:rgb(72.54902%,66.27451%,61.176471%);stroke-opacity:1;stroke-miterlimit:4;" d="M 412.8963696078431 85.52102475490194 L 412.91073063725486 91.16498161764706 L 412.93945318627453 92.06590833333333 L 412.96147352941176 92.96683529411764 L 413.0265779411764 99.609375 L 417.0888862745098 99.57682303921568 L 422.0597808823529 99.4686350490196 L 422.4934897058823 99.45810343137255 L 427.1398208333333 99.4140625 L 427.02397352941176 92.71694999999998 L 429.96132058823525 92.6843980392157 L 432.4362362745098 92.80407475490196 L 432.3998544117647 94.33498014705883 L 432.4285769607843 95.99513627450979 L 432.421875 97.11339607843136 L 432.421875 97.90517769607843 L 432.4142156862745 99.43608308823529 L 432.4429382352941 101.31357230392156 L 432.50804215686276 105.7425705882353 L 439.17547499999995 105.64491421568627 L 441.0079656862745 105.64491421568627 L 446.51309754901956 105.56832107843137 L 446.4556524509804 101.65058210784314 L 446.46331176470585 101.2484681372549 L 446.39820784313724 99.51171862745097 L 446.39820784313724 98.57823995098039 L 446.4049095588235 95.89748014705883 L 446.4049095588235 94.97453284313725 L 446.36182598039215 92.79354313725489 L 446.3551240196078 92.17409607843138 L 446.3187424019608 90.37319999999998 L 446.3110830882353 88.67953431372548 L 446.29001985294116 86.98586862745098 L 446.2756588235294 86.22663921568628 L 452.6032093137255 86.13951446078431 L 452.5170419117647 80.18056838235294 L 452.5170419117647 78.3892463235294 L 452.40885416666663 71.97457107843137 L 448.24505980392155 72.03967524509804 L 445.30101102941177 72.07222745098039 L 442.8988588235294 72.1047794117647 L 438.3023132352941 72.1488205882353 L 438.374119117647 78.70423553921567 L 435.93558529411763 78.76933970588235 L 433.22993259803917 78.79136029411764 L 433.1504671568627 74.14598651960785 L 433.12174485294116 71.31299779411763 L 433.09302230392154 69.9017693627451 L 433.05664068627453 65.84233308823529 L 426.1804916666666 65.93998921568627 L 424.3183210784314 65.93998921568627 L 419.0515855392157 66.02711397058823 L 419.10903039215685 69.77156102941177 L 419.1166897058824 72.59306078431372 L 419.1310509803921 73.22303921568627 L 419.1884955882353 76.19676764705882 L 419.25359999999995 78.65062034313725 L 419.25359999999995 79.18198529411764 L 419.2459406862745 82.19975490196079 L 419.2459406862745 82.71005661764706 L 419.3397671568627 84.22947303921568 L 419.35412843137254 85.42336862745098 L 416.33061421568624 85.5104931372549 Z M 412.8963696078431 85.52102475490194" ns1:label="obstacle" />
<ns0:path style="fill-rule:evenodd;fill:rgb(85.098039%,81.568627%,78.823529%);fill-opacity:1;stroke-width:0.75;stroke-linecap:butt;stroke-linejoin:miter;stroke:rgb(72.54902%,66.27451%,61.176471%);stroke-opacity:1;stroke-miterlimit:4;" d="M 310.1045495098039 378.73965980392154 L 310.37166813725486 400.0459558823529 L 310.4798558823529 408.717256372549 L 332.13369338235293 408.4463083333333 L 332.0398666666666 401.06560196078425 L 331.60711544117646 366.89836078431375 L 319.65092671568624 366.89836078431375 L 312.803500245098 366.8658088235294 L 312.70967377450984 377.37247254901956 L 312.6953125 378.70710784313724 Z M 310.1045495098039 378.73965980392154" ns1:label="obstacle" />
<ns0:path style="fill-rule:evenodd;fill:rgb(85.098039%,81.568627%,78.823529%);fill-opacity:1;stroke-width:0.75;stroke-linecap:butt;stroke-linejoin:miter;stroke:rgb(72.54902%,66.27451%,61.176471%);stroke-opacity:1;stroke-miterlimit:4;" d="M 166.17072598039215 383.1140855392157 L 166.71166519607843 408.0451517156863 L 170.12484681372547 407.9800475490196 L 170.23303455882353 413.2113588235294 L 167.70737598039213 413.26497401960785 L 167.8155637254902 418.24735759803923 L 180.26960784313724 417.98694093137254 L 180.1614200980392 413.0265779411764 L 179.4826132352941 413.03710931372547 L 179.3390012254902 406.4491421568627 L 181.74115343137254 406.4060585784314 L 181.22893676470585 382.77707573529415 L 176.73387720588235 382.8756892156863 L 173.32835490196078 382.95132499999994 Z M 166.17072598039215 383.1140855392157" ns1:label="obstacle" />
<ns0:path style="fill-rule:evenodd;fill:rgb(85.098039%,81.568627%,78.823529%);fill-opacity:1;stroke-width:0.75;stroke-linecap:butt;stroke-linejoin:miter;stroke:rgb(72.54902%,66.27451%,61.176471%);stroke-opacity:1;stroke-miterlimit:4;" d="M 432.89770980392154 29.719094607843136 L 433.2155713235294 44.426891911764706 L 441.5996475490196 44.252642401960784 L 441.58528651960785 43.59106911764706 L 445.6475950980392 43.50394460784314 L 450.56104460784314 43.40628823529411 L 450.5179610294117 42.53791372549019 L 458.36875759803917 42.41823676470588 L 458.13036151960785 27.309283088235293 L 450.2795649509804 27.42895980392157 L 450.2939262254902 28.307866176470586 L 441.2817862745098 28.470626470588233 L 441.2817862745098 29.534313725490193 Z M 432.89770980392154 29.719094607843136" ns1:label="obstacle" />
<ns0:path style="fill-rule:evenodd;fill:rgb(85.098039%,81.568627%,78.823529%);fill-opacity:1;stroke-width:0.75;stroke-linecap:butt;stroke-linejoin:miter;stroke:rgb(72.54902%,66.27451%,61.176471%);stroke-opacity:1;stroke-miterlimit:4;" d="M 85.92696838235292 91.9031480392157 L 86.13664215686273 106.46924779411763 L 88.40188431372549 106.3610600490196 L 96.13683357843136 104.60229019607843 L 96.24502156862745 107.50038284313725 L 101.69270833333333 107.37017450980392 L 101.45431225490196 91.66475196078432 Z M 85.92696838235292 91.9031480392157" ns1:label="obstacle" />
<ns0:path style="fill-rule:evenodd;fill:rgb(85.098039%,81.568627%,78.823529%);fill-opacity:1;stroke-width:0.75;stroke-linecap:butt;stroke-linejoin:miter;stroke:rgb(72.54902%,66.27451%,61.176471%);stroke-opacity:1;stroke-miterlimit:4;" d="M 70.16888774509803 142.52738210784312 L 70.36324289215685 156.8215762254902 L 83.92118578431372 156.6262637254902 L 83.84937965686275 151.25325514705884 L 88.35880049019607 151.18815098039215 L 88.2936963235294 146.4345894607843 L 84.18064485294117 146.48916200980392 L 84.12319999999998 142.33206960784312 Z M 70.16888774509803 142.52738210784312" ns1:label="obstacle" />
<ns0:path style="fill-rule:evenodd;fill:rgb(85.098039%,81.568627%,78.823529%);fill-opacity:1;stroke-width:0.75;stroke-linecap:butt;stroke-linejoin:miter;stroke:rgb(72.54902%,66.27451%,61.176471%);stroke-opacity:1;stroke-miterlimit:4;" d="M 128.8229549019608 205.84980098039216 L 128.84497549019608 210.3860294117647 L 128.88039975490196 217.97353700980392 L 139.71832867647058 217.9189644607843 L 139.65322450980392 209.75700833333332 L 139.66758578431373 207.86802990196077 L 136.03132647058823 207.85749852941174 L 134.76179534313724 207.89005049019607 L 134.75413602941177 205.8172487745098 Z M 128.8229549019608 205.84980098039216" ns1:label="obstacle" />
<ns0:path style="fill-rule:evenodd;fill:rgb(85.098039%,81.568627%,78.823529%);fill-opacity:1;stroke-width:0.75;stroke-linecap:butt;stroke-linejoin:miter;stroke:rgb(72.54902%,66.27451%,61.176471%);stroke-opacity:1;stroke-miterlimit:4;" d="M 157.1222044117647 287.34106911764707 L 157.16528799019608 290.2056524509804 L 157.19401029411762 292.0189950980392 L 168.26267622549017 291.85623480392155 L 168.23395367647058 290.054381127451 L 168.1908700980392 287.1783088235294 Z M 157.1222044117647 287.34106911764707" ns1:label="obstacle" />
<ns0:path style="fill-rule:evenodd;fill:rgb(85.098039%,81.568627%,78.823529%);fill-opacity:1;stroke-width:0.75;stroke-linecap:butt;stroke-linejoin:miter;stroke:rgb(72.54902%,66.27451%,61.176471%);stroke-opacity:1;stroke-miterlimit:4;" d="M 365.51968431372546 341.5986901960784 L 365.55606617647055 344.6049708333333 L 372.41019460784315 344.5188036764706 L 372.3747700980392 341.5115656862745 Z M 365.51968431372546 341.5986901960784" ns1:label="obstacle" />
<ns0:path style="fill-rule:evenodd;fill:rgb(85.098039%,81.568627%,78.823529%);fill-opacity:1;stroke-width:0.75;stroke-linecap:butt;stroke-linejoin:miter;stroke:rgb(72.54902%,66.27451%,61.176471%);stroke-opacity:1;stroke-miterlimit:4;" d="M 401.40931372549016 182.71963088235293 L 401.460056617647 186.5942862745098 L 405.3490732843137 186.5406710784314 L 405.3490732843137 182.7627144607843 Z M 401.40931372549016 182.71963088235293" ns1:label="obstacle" />
<ns0:path style="fill-rule:evenodd;fill:rgb(85.098039%,81.568627%,78.823529%);fill-opacity:1;stroke-width:0.75;stroke-linecap:butt;stroke-linejoin:miter;stroke:rgb(72.54902%,66.27451%,61.176471%);stroke-opacity:1;stroke-miterlimit:4;" d="M 305.9484144607843 328.6937039215686 L 309.5205269607843 328.7588083333333 L 309.498506372549 331.6674325980392 L 309.44776348039215 338.7111289215686 L 309.4046799019608 345.36515784313724 L 309.3539367647059 352.59363504901955 L 309.3328737745098 355.8498009803921 L 309.3041514705882 360.017425 L 312.6732919117647 360.017425 L 312.78913921568625 366.00892303921563 L 312.803500245098 366.8658088235294 L 312.70967377450984 377.37247254901956 L 312.6953125 378.70710784313724 L 310.1045495098039 378.73965980392154 L 310.37166813725486 400.0459558823529 L 310.4798558823529 408.717256372549 L 332.13369338235293 408.4463083333333 L 332.0398666666666 401.06560196078425 L 331.60711544117646 366.89836078431375 L 331.7583870098039 359.2141544117647 L 328.2590379901961 359.09447769607846 L 328.28010098039215 358.3026960784314 L 328.3021215686274 355.61044730392155 L 320.99322156862746 355.5778950980392 L 320.99322156862746 353.1470205882353 L 323.6194088235294 352.9517080882353 L 323.3599495098039 325.23169411764707 L 323.25176176470586 321.7907475490196 L 323.1789980392157 318.8495710784314 L 326.2455958333333 318.83808210784315 L 326.27431838235293 320.07601862745094 L 329.0814568627451 320.22729019607846 L 339.83992034313724 320.16218602941177 L 339.83226102941177 319.16360294117646 L 345.7998237745098 319.1310509803921 L 345.8141850490196 321.75819558823525 L 349.5299095588235 321.736175 L 360.2816713235294 321.6059666666667 L 360.2596507352941 319.8692171568627 L 366.5517769607843 319.793581372549 L 366.6235830882353 325.80614264705883 L 388.91218602941177 325.49211078431375 L 388.8470818627451 319.83666519607846 L 395.81705735294116 319.7504977941176 L 395.63706348039216 305.4227941176471 L 391.01179534313724 305.5424708333333 L 372.157437254902 306.00968897058823 L 372.193818872549 302.7640549019608 L 361.2477022058823 302.6769301470588 L 354.1771982843137 302.61182598039215 L 345.7921644607843 302.54672181372547 L 345.8505666666667 307.20358455882354 L 309.3615960784314 307.57218897058823 L 309.3252144607843 310.31805294117646 L 309.2754289215686 313.92176004901955 L 305.9847963235294 313.8241039215686 L 305.9627757352941 321.0305607843137 Z M 305.9484144607843 328.6937039215686" ns1:label="obstacle" />
<ns0:path style="fill-rule:evenodd;fill:rgb(85.098039%,81.568627%,78.823529%);fill-opacity:1;stroke-width:0.75;stroke-linecap:butt;stroke-linejoin:miter;stroke:rgb(72.54902%,66.27451%,61.176471%);stroke-opacity:1;stroke-miterlimit:4;" d="M 391.40912230392155 542.9314107843137 L 391.44454656862746 546.4585247549019 L 395.34122254901956 546.4154411764706 L 395.45706960784315 547.6744409313726 L 395.5212161764706 549.7041590686274 L 393.80457254901955 549.7041590686274 L 394.20860147058823 569.8156019607843 L 400.2115884803921 569.6413526960785 L 404.4471889705882 569.6308210784314 L 404.9306833333333 590.5120249999999 L 425.5811504901961 590.2736289215686 L 425.05457254901955 555.8469286764706 L 414.45503970588237 555.6190639705882 L 413.30805759803917 545.5365348039215 L 412.3046875 468.8141468137255 L 412.02320784313724 447.1392463235294 L 392.3253676470588 447.3996629901961 L 392.60684754901956 469.05254289215685 L 393.49437034313723 542.7906710784314 Z M 391.40912230392155 542.9314107843137" ns1:label="obstacle" />
<ns0:path style="fill-rule:evenodd;fill:rgb(85.098039%,81.568627%,78.823529%);fill-opacity:1;stroke-width:0.75;stroke-linecap:butt;stroke-linejoin:miter;stroke:rgb(72.54902%,66.27451%,61.176471%);stroke-opacity:1;stroke-miterlimit:4;" d="M 335.7555911764706 130.68512549019607 L 335.8857995098039 140.55127916666666 L 346.00854019607846 140.42107083333332 L 346.0382200980392 142.66812205882354 L 381.39361225490194 142.1798406862745 L 387.70680147058823 142.09271593137254 L 388.24869803921564 181.50371470588235 L 370.3249463235294 181.7536 L 370.68589166666663 208.28067549019607 L 359.69669117647055 208.42237279411765 L 359.8987056372549 223.24888946078428 L 363.74463848039215 223.19431666666665 L 369.0266926470588 223.11772352941173 L 369.459443872549 254.29017303921566 L 370.71461397058823 254.27964166666663 L 370.87354460784314 266.3823147058824 L 377.6348039215686 266.2846583333333 L 383.5659850490196 266.2080651960784 L 383.45779705882353 258.5564107843137 L 383.39939485294116 254.14943333333332 L 383.2912071078431 245.9874769607843 L 388.81835931372547 245.91184117647057 L 388.7676164215686 242.15590539215685 L 383.1906786764706 242.23154117647059 L 382.6928232843137 205.67555147058823 L 382.54825367647055 195.4293044117647 L 401.58260563725486 195.168887745098 L 401.460056617647 186.5942862745098 L 401.40931372549016 182.71963088235293 L 400.6663602941176 128.4170112745098 L 384.12798725490194 128.6333870098039 L 346.1674708333333 129.15517769607843 L 346.1894914215686 130.5443857843137 L 338.95239730392154 130.64204191176472 Z M 335.7555911764706 130.68512549019607" ns1:label="obstacle" />
<ns0:path style="fill-rule:evenodd;fill:rgb(85.098039%,81.568627%,78.823529%);fill-opacity:1;stroke-width:0.75;stroke-linecap:butt;stroke-linejoin:miter;stroke:rgb(72.54902%,66.27451%,61.176471%);stroke-opacity:1;stroke-miterlimit:4;" d="M 287.0873544117647 250.55721519607843 L 287.4262791666667 267.2937730392157 L 290.81073823529414 267.4460019607843 L 290.861481372549 269.75719975490193 L 289.45408235294116 269.9094286764706 L 289.4109987745098 275.6184897058823 L 295.40728406862746 281.6205193627451 L 297.57104019607846 281.7401960784314 L 299.13736985294116 281.64253970588237 L 299.37576593137254 289.5986519607843 L 303.19967843137255 293.37565098039215 L 306.121706372549 293.40820318627453 L 317.8538602941176 293.51639093137254 L 317.5656786764706 288.8279335784314 L 324.47055 288.7302772058823 L 343.62745098039215 288.97920490196077 L 346.77351421568625 285.40900735294116 L 360.0643382352941 285.3649661764706 L 362.03469656862745 287.9270068627451 L 373.44228700980386 287.6340379901961 L 376.7903647058823 285.6579350490196 L 383.01738676470586 285.5602789215686 L 383.5659850490196 266.2080651960784 L 377.6348039215686 266.2846583333333 L 370.87354460784314 266.3823147058824 L 370.1449524509804 266.3928460784314 L 370.13729313725486 269.27944999999994 L 356.65211397058823 269.4422105392157 L 353.21691176470586 266.6101791666666 L 323.90759044117647 266.6752833333333 L 321.2450215686274 264.11324289215685 L 319.09562647058823 262.04044117647055 L 318.9721200980392 230.96564803921567 L 310.29220294117647 231.11787696078432 L 310.6454887254902 243.15448823529408 L 294.3464691176471 243.5891544117647 Z M 287.0873544117647 250.55721519607843" ns1:label="obstacle" />
<ns0:path style="fill-rule:evenodd;fill:rgb(85.098039%,81.568627%,78.823529%);fill-opacity:1;stroke-width:0.75;stroke-linecap:butt;stroke-linejoin:miter;stroke:rgb(72.54902%,66.27451%,61.176471%);stroke-opacity:1;stroke-miterlimit:4;" d="M 433.18684901960785 176.85834093137254 L 433.56119803921564 189.66662843137254 L 441.9749539215686 189.5364200980392 L 441.72219656862745 183.07770367647058 L 449.8180911764706 175.02393529411765 L 460.61963848039215 175.03542426470588 L 461.26876519607845 208.552581127451 L 469.74762549019607 208.57364436274509 L 469.03243725490194 164.86481323529412 L 443.9883960784313 165.34256274509804 Z M 433.18684901960785 176.85834093137254" ns1:label="obstacle" />
<ns0:path style="fill-rule:evenodd;fill:rgb(85.098039%,81.568627%,78.823529%);fill-opacity:1;stroke-width:0.75;stroke-linecap:butt;stroke-linejoin:miter;stroke:rgb(72.54902%,66.27451%,61.176471%);stroke-opacity:1;stroke-miterlimit:4;" d="M 433.6550245098039 194.377106372549 L 434.43435980392155 229.86940882352943 L 450.5179610294117 229.81483602941177 L 450.5830651960784 215.4766007352941 L 442.19898897058823 215.43351715686273 L 442.07548259803923 194.27945 Z M 433.6550245098039 194.377106372549" ns1:label="obstacle" />
<ns0:path style="fill-rule:evenodd;fill:rgb(85.098039%,81.568627%,78.823529%);fill-opacity:1;stroke-width:0.75;stroke-linecap:butt;stroke-linejoin:miter;stroke:rgb(72.54902%,66.27451%,61.176471%);stroke-opacity:1;stroke-miterlimit:4;" d="M 173.08995857843138 372.57486985294116 L 173.32835490196078 382.95132499999994 L 176.73387720588235 382.8756892156863 L 176.49548088235292 372.49923406862746 Z M 173.08995857843138 372.57486985294116" ns1:label="obstacle" />
<line x1="0" y1="10" x2="50" y2="10" style="stroke:rgb(0,0,0);stroke-width:2" /><line x1="50" y1="10" x2="100" y2="10" style="stroke:rgb(100%,100%,100%);stroke-width:2" /><line x1="100" y1="10" x2="150" y2="10" style="stroke:rgb(0,0,0);stroke-width:2" /><line x1="150" y1="10" x2="200" y2="10" style="stroke:rgb(100%,100%,100%);stroke-width:2" /><line x1="200" y1="10" x2="250" y2="10" style="stroke:rgb(0,0,0);stroke-width:2" /><line x1="250" y1="10" x2="300" y2="10" style="stroke:rgb(100%,100%,100%);stroke-width:2" /><line x1="300" y1="10" x2="350" y2="10" style="stroke:rgb(0,0,0);stroke-width:2" /><line x1="350" y1="10" x2="400" y2="10" style="stroke:rgb(100%,100%,100%);stroke-width:2" /><line x1="400" y1="10" x2="450" y2="10" style="stroke:rgb(0,0,0);stroke-width:2" /><line x1="450" y1="10" x2="500" y2="10" style="stroke:rgb(100%,100%,100%);stroke-width:2" /><text x="10" y="30" style="font-size:12px">50 m</text></svg>