<?xml version="1.0" encoding="UTF-8" standalone="no"?>
<svg
   viewBox="0.0 0.0 488.4803921568627 458.3333333333333"
   version="1.1"
   id="svg38"
   sodipodi:docname="map3_1350_buildings_inkscape.svg"
   inkscape:version="1.3.2 (091e20e, 2023-11-25)"
   xmlns:inkscape="http://www.inkscape.org/namespaces/inkscape"
   xmlns:sodipodi="http://sodipodi.sourceforge.net/DTD/sodipodi-0.dtd"
   xmlns="http://www.w3.org/2000/svg"
   xmlns:svg="http://www.w3.org/2000/svg">
  <defs
     id="defs38" />
  <sodipodi:namedview
     id="namedview38"
     pagecolor="#ffffff"
     bordercolor="#000000"
     borderopacity="0.25"
     inkscape:showpageshadow="2"
     inkscape:pageopacity="0.0"
     inkscape:pagecheckerboard="0"
     inkscape:deskcolor="#d1d1d1"
     inkscape:zoom="3.6286148"
     inkscape:cx="244.3081"
     inkscape:cy="229.01301"
     inkscape:window-width="2508"
     inkscape:window-height="1376"
     inkscape:window-x="1252"
     inkscape:window-y="27"
     inkscape:window-maximized="1"
     inkscape:current-layer="svg38" />
  <path
     style="fill:#d9cfc7;fill-opacity:1;fill-rule:evenodd;stroke:#b8a89c;stroke-width:0.75;stroke-linecap:butt;stroke-linejoin:miter;stroke-miterlimit:4;stroke-opacity:1"
     d="M 29.444317,294.11382 46.25651,293.61405 46.328316,297.91188 73.018152,297.31541 73.386757,331.86275 69.157858,331.92785 69.035309,324.33077 53.897633,324.59118 54.229856,340.39426 69.216261,340.74085 69.151157,336.11749 71.438419,335.93271 73.429841,335.78144 73.725682,364.02229 79.721967,364.30473 79.865579,368.86297 87.463618,368.71075 87.348728,330.81055 87.269263,304.69612 113.93038,304.26145 113.78581,301.22262 115.86435,301.16805 116.52784,340.07927 117.07644,372.39105 123.07273,372.19478 123.02198,379.98813 133.37642,378.3385 131.34861,367.64802 130.66311,343.69351 130.46109,304.00103 150.49881,303.80572 150.64242,299.88798 157.22273,299.74629 157.19401,292.019 157.16529,290.20565 157.1222,287.34107 153.0599,287.40617 V 284.21511 L 142.27271,284.10597 141.73847,275.79178 126.4275,278.46201 106.95274,278.55967 106.91732,279.25475 96.144493,277.57257 91.411037,276.93206 90.884459,281.63201 83.617685,281.85987 83.250038,248.37527 79.273897,248.53803 79.202091,246.91042 78.76934,245.60738 77.203968,245.8027 75.486366,245.94439 75.031595,242.57908 64.042394,243.88212 66.964423,259.06671 68.061619,259.03416 67.288986,285.24625 52.028761,285.38699 51.884191,278.07138 33.311313,278.41893 Z M 29.444317,294.11382"
     inkscape:label="obstacle"
     id="path1" />
  <path
     style="fill:#d9cfc7;fill-opacity:1;fill-rule:evenodd;stroke:#b8a89c;stroke-width:0.75;stroke-linecap:butt;stroke-linejoin:miter;stroke-miterlimit:4;stroke-opacity:1"
     d="M 386.85566,340.00364 387.03661,349.348 387.23097,359.1816 396.39438,367.86439 411.5828,367.49579 411.72737,373.50835 416.39572,373.38867 416.25211,367.38664 418.60352,367.45175 418.59681,372.0435 419.72943,373.38867 H 422.24073 L 423.45282,372.29339 423.45952,367.59344 429.60038,367.58195 H 430.2495 L 447.14116,367.64802 453.46871,361.2544 461.79534,352.73437 465.56947,352.55055 466.60826,351.4974 472.36615,345.68015 472.40254,343.91085 475.53424,343.92138 475.49115,333.29599 469.51593,333.25195 467.87875,333.23089 461.60099,328.03117 461.55025,318.71936 461.36259,302.94884 451.0589,303.00245 448.34655,305.22748 423.81376,305.42279 419.51306,301.35283 419.21722,299.1278 416.85049,299.10577 409.54159,299.03014 409.25245,300.28914 398.9995,300.58211 396.19236,302.51417 395.96929,303.67551 395.63706,305.42279 395.81706,319.7505 395.72323,331.88477 Z M 386.85566,340.00364"
     inkscape:label="obstacle"
     id="path2" />
  <path
     style="fill:#d9cfc7;fill-opacity:1;fill-rule:evenodd;stroke:#b8a89c;stroke-width:0.75;stroke-linecap:butt;stroke-linejoin:miter;stroke-miterlimit:4;stroke-opacity:1"
     d="M 28.744447,209.40947 34.163412,225.09383 56.091069,224.86596 58.652152,224.84394 58.631089,228.44765 78.79136,228.37106 78.841146,225.71232 84.945619,224.7032 92.796415,223.41165 92.810777,222.10861 128.89476,220.89269 128.8804,217.97354 128.84498,210.38603 128.82295,205.8498 125.90763,205.87086 125.8071,200.80231 106.50563,201.03018 106.41946,204.63388 103.55488,204.67697 102.87607,145.05591 102.05365,110.94133 96.381932,111.14813 96.310125,109.26968 96.245022,107.50038 96.136834,104.60229 88.401884,106.36106 85.422411,107.03412 87.522021,119.79837 88.293696,146.43459 88.3588,151.18815 88.75517,186.30132 88.769531,187.67999 69.086052,188.09264 V 192.34739 L 49.423637,192.55323 V 212.92605 L 47.244562,212.99115 46.328316,209.33383 41.796875,209.35489 Z M 28.744447,209.40947"
     inkscape:label="obstacle"
     id="path3" />
  <path
     style="fill:#d9cfc7;fill-opacity:1;fill-rule:evenodd;stroke:#b8a89c;stroke-width:0.75;stroke-linecap:butt;stroke-linejoin:miter;stroke-miterlimit:4;stroke-opacity:1"
     d="M 299.41885,153.50031 300.36382,206.86945 300.49403,213.93612 300.79657,231.29117 305.42184,231.20404 310.2922,231.11788 318.97212,230.96565 360.04998,230.23801 359.89871,223.24889 359.69669,208.42237 359.62489,206.04511 324.93298,206.6636 324.87458,203.38542 324.31162,171.62703 331.02979,171.5399 336.45546,171.4097 335.94324,148.64909 335.8858,140.55128 335.75559,130.68513 335.39465,111.58184 316.82273,111.90736 317.33494,140.8117 317.36366,146.5648 317.55802,153.17479 Z M 299.41885,153.50031"
     inkscape:label="obstacle"
     id="path4" />
  <path
     style="fill:#d9cfc7;fill-opacity:1;fill-rule:evenodd;stroke:#b8a89c;stroke-width:0.75;stroke-linecap:butt;stroke-linejoin:miter;stroke-miterlimit:4;stroke-opacity:1"
     d="M 136.63737,52.535233 136.76758,61.196959 136.78864,62.92222 160.97484,62.564147 161.11941,72.506893 137.05576,72.864966 137.26543,87.35543 137.40234,96.603094 137.92892,131.62914 195.75387,130.77225 195.54419,116.67241 195.25601,97.634229 170.11049,98.00283 169.9439,86.627796 195.03198,86.259191 194.52742,51.687921 167.57717,52.078546 Z M 148.34846,97.211052 161.91311,97.026272 162.0864,109.98583 148.52175,110.16008 Z M 163.75996,62.629251 186.60482,62.314262 186.73407,72.051164 163.89017,72.409237 Z M 172.7654,113.56847 188.55986,113.18838 188.76187,121.66533 172.96741,122.04542 Z M 172.7654,113.56847"
     inkscape:label="obstacle"
     id="path5" />
  <path
     style="fill:#d9cfc7;fill-opacity:1;fill-rule:evenodd;stroke:#b8a89c;stroke-width:0.75;stroke-linecap:butt;stroke-linejoin:miter;stroke-miterlimit:4;stroke-opacity:1"
     d="M 189.85141,234.81828 190.22001,259.48989 191.4321,259.46787 191.45316,260.55358 193.36512,260.53156 193.35076,259.50042 199.55672,259.40276 199.58544,261.58471 206.76509,261.47557 206.74977,260.3688 224.19769,260.10838 225.7554,260.08636 225.74104,258.84938 228.32414,258.8063 228.34616,260.21657 231.07384,260.17348 235.2654,260.11891 235.24433,258.50184 240.86531,258.4262 240.74946,251.349 240.43926,230.09727 252.26524,229.92398 252.0278,214.38036 251.81047,200.05362 244.33594,200.1618 244.30722,198.38197 220.69068,198.74004 220.71174,200.08617 212.5517,200.20584 201.40357,200.37914 201.48974,206.295 190.47181,206.45776 190.59436,214.61972 192.24686,214.58716 192.55036,234.7752 Z M 189.85141,234.81828"
     inkscape:label="obstacle"
     id="path6" />
  <path
     style="fill:#d9cfc7;fill-opacity:1;fill-rule:evenodd;stroke:#b8a89c;stroke-width:0.75;stroke-linecap:butt;stroke-linejoin:miter;stroke-miterlimit:4;stroke-opacity:1"
     d="M 383.01739,285.56028 384.74169,285.65794 386.96385,287.88297 422.42839,287.34107 426.12209,284.10597 426.15847,283.0643 429.00869,283.18398 436.45546,290.33586 460.09976,289.85907 466.86868,282.97718 474.06173,275.66157 477.8866,275.56392 484.73403,275.42318 488.68815,275.33605 495.23208,275.20584 498.76781,274.97798 498.75345,268.4982 498.73909,262.84371 495.54994,262.89733 488.47178,262.83222 H 484.61818 L 477.43183,262.82169 471.95542,262.6484 469.60306,260.23859 467.37324,260.15146 467.08506,221.68543 461.11749,215.52064 450.58307,215.4766 450.51796,229.81484 453.43999,229.8043 453.39691,232.69091 456.95466,232.71293 456.89625,234.05905 449.84681,234.01597 449.83245,239.05197 450.9938,239.07303 450.95071,241.63507 452.18482,242.86152 457.2505,242.9046 V 244.18562 H 453.28106 L 453.67839,260.53156 458.00015,260.40135 457.97143,261.46504 H 456.68754 L 456.65882,263.85283 458.19547,263.80974 V 265.92563 L 456.99008,265.9802 454.1188,268.80266 451.10964,271.75437 437.69627,271.66724 437.67425,270.30005 436.28217,269.05159 433.5545,269.08414 433.53248,267.94481 428.56158,268.00992 428.64105,272.24265 425.11202,272.28669 425.0833,270.62557 415.40001,261.19409 397.34701,261.17207 392.68631,266.50103 383.56599,266.20807 Z M 383.01739,285.56028"
     inkscape:label="obstacle"
     id="path7" />
  <path
     style="fill:#d9cfc7;fill-opacity:1;fill-rule:evenodd;stroke:#b8a89c;stroke-width:0.75;stroke-linecap:butt;stroke-linejoin:miter;stroke-miterlimit:4;stroke-opacity:1"
     d="M 346.43459,385.74027 346.55044,394.44508 346.58586,397.52796 346.59352,397.95113 346.60022,398.15698 346.65097,402.29205 346.66533,403.33467 346.73809,409.34724 353.28202,409.26011 354.46538,409.24958 359.33575,409.18447 359.68233,409.17394 364.04814,409.11937 366.81124,409.08682 H 367.04197 L 367.95822,409.07629 371.9918,409.02171 371.88362,400.94688 371.87691,400.4902 371.84053,397.59306 371.83287,396.88745 371.79745,394.18467 371.78309,392.90365 391.00509,392.65472 H 391.23583 L 391.26455,395.22633 391.28657,396.76777 391.3153,398.85206 391.32966,400.39254 391.33636,400.64242 391.40146,405.74353 417.03048,405.41801 417.0525,406.73158 417.06687,408.00111 420.17655,407.95803 423.44516,407.91494 H 423.70558 L 426.76451,407.8709 428.02734,407.86037 430.4879,407.82782 431.30362,407.81729 435.5823,407.76271 438.95144,407.71963 441.88113,407.67559 H 442.24207 L 442.37132,407.66506 445.28665,407.63251 445.63323,407.62102 448.59835,407.58847 H 448.94493 L 449.10386,407.57793 452.32939,407.53485 455.68417,407.49081 455.8431,407.5023 459.06097,407.44773 462.61106,407.40464 468.11619,407.33954 468.99701,407.31752 475.83008,407.24188 475.75731,401.65154 475.72189,399.19864 V 398.77547 L 475.67115,395.11814 475.64242,392.82801 475.60604,389.97396 475.59168,388.73602 468.795,388.82315 464.70397,388.87772 464.67429,386.7063 464.63886,384.1883 463.06583,384.19979 457.8776,384.25341 454.35623,384.30798 453.80093,384.31851 449.55863,384.40564 446.47767,384.44872 443.15832,384.49276 436.22377,384.57893 431.72201,384.64403 430.40843,384.65552 430.0044,384.6335 428.02734,384.67659 424.89564,384.72063 424.00142,384.74169 420.43696,384.78573 416.99506,384.83935 413.43061,384.88339 412.88967,384.89392 410.03179,384.92647 406.67701,384.96955 402.51321,385.02413 396.98606,385.09976 395.81706,385.11125 391.142,385.16582 387.68574,385.21944 384.46787,385.25199 381.06905,385.29603 377.70661,385.33912 374.53853,385.3822 371.39342,385.42624 367.95152,385.46932 364.12665,385.51241 360.95952,385.55645 359.37213,385.57751 359.22756,385.589 358.43386,385.69719 352.97181,385.66464 Z M 346.43459,385.74027"
     inkscape:label="obstacle"
     id="path8" />
  <path
     style="fill:#d9cfc7;fill-opacity:1;fill-rule:evenodd;stroke:#b8a89c;stroke-width:0.75;stroke-linecap:butt;stroke-linejoin:miter;stroke-miterlimit:4;stroke-opacity:1"
     d="M 134.90541,234.19979 135.46167,239.90885 136.85375,247.13829 139.0759,252.6731 142.27271,252.65204 144.964,252.57544 147.60455,252.56491 147.72806,260.21657 151.09049,260.16295 151.18336,261.07441 164.36696,262.96243 166.76241,246.22587 162.86573,245.54228 162.69244,235.29603 162.67808,234.41713 168.70979,234.14618 168.69543,212.61202 162.32479,212.6551 162.28841,210.40805 161.24196,209.04086 161.21324,207.87952 162.65606,207.27156 V 206.60903 L 166.41582,206.58797 166.18509,173.97078 157.02072,174.03684 139.23483,174.16705 139.27792,179.85409 136.91885,179.87611 135.99494,205.63247 136.03133,207.8575 139.66759,207.86803 139.65322,209.75701 139.71833,217.91896 139.68195,218.86297 139.76141,227.79661 139.5594,228.29542 138.25349,228.31744 134.94179,228.29542 Z M 134.90541,234.19979"
     inkscape:label="obstacle"
     id="path9" />
  <path
     style="fill:#d9cfc7;fill-opacity:1;fill-rule:evenodd;stroke:#b8a89c;stroke-width:0.75;stroke-linecap:butt;stroke-linejoin:miter;stroke-miterlimit:4;stroke-opacity:1"
     d="M 315.26405,464.93853 315.27842,469.63848 315.29278,471.72277 V 472.02627 L 315.29948,473.8061 315.35022,484.64882 315.40097,495.144 315.41533,499.44183 353.67934,499.26854 353.65732,495.10091 353.6286,488.68624 353.61424,484.84413 353.55679,472.06936 353.54913,471.50544 353.54148,469.44317 H 353.5635 L 353.54148,464.93853 353.48403,451.93685 346.53608,451.9694 333.90108,452.02302 324.01578,452.06706 324.05982,464.91747 315.5666,464.96055 Z M 315.26405,464.93853"
     inkscape:label="obstacle"
     id="path10" />
  <path
     style="fill:#d9cfc7;fill-opacity:1;fill-rule:evenodd;stroke:#b8a89c;stroke-width:0.75;stroke-linecap:butt;stroke-linejoin:miter;stroke-miterlimit:4;stroke-opacity:1"
     d="M 168.19087,287.17831 168.23395,290.05438 168.26268,291.85623 168.54416,306.57361 168.6016,312.08735 185.79676,311.71875 185.89059,310.2204 190.24874,310.17731 190.48617,313.85666 H 204.27485 L 210.0337,292.51781 205.14802,292.75716 204.91058,287.42724 204.78803,275.69413 171.7266,276.69271 171.69022,286.87385 Z M 168.19087,287.17831"
     inkscape:label="obstacle"
     id="path11" />
  <path
     style="fill:#d9cfc7;fill-opacity:1;fill-rule:evenodd;stroke:#b8a89c;stroke-width:0.75;stroke-linecap:butt;stroke-linejoin:miter;stroke-miterlimit:4;stroke-opacity:1"
     d="M 167.64227,337.41958 167.96684,372.60742 173.08996,372.57487 176.49548,372.49923 187.7518,372.41211 187.60723,356.91349 181.0633,356.97859 181.02692,352.94118 190.37799,352.85405 190.23437,336.80109 184.96668,336.85566 184.91594,331.29883 192.79546,331.22224 192.68727,319.44604 170.54994,319.64135 170.65142,330.78853 172.80848,330.76651 172.86592,337.37649 Z M 167.64227,337.41958"
     inkscape:label="obstacle"
     id="path12" />
  <path
     style="fill:#d9cfc7;fill-opacity:1;fill-rule:evenodd;stroke:#b8a89c;stroke-width:0.75;stroke-linecap:butt;stroke-linejoin:miter;stroke-miterlimit:4;stroke-opacity:1"
     d="M 412.89637,85.521025 412.91073,91.164982 412.93945,92.065908 412.96147,92.966835 413.02658,99.60938 417.08889,99.57682 422.05978,99.46864 422.49349,99.4581 427.13982,99.41406 427.02397,92.71695 429.96132,92.684398 432.43624,92.804075 432.39985,94.33498 432.42858,95.995136 432.42187,97.113396 V 97.905178 L 432.41422,99.43608 432.44294,101.31357 432.50804,105.74257 439.17547,105.64491 H 441.00797 L 446.5131,105.56832 446.45565,101.65058 446.46331,101.24847 446.39821,99.51172 V 98.57824 L 446.40491,95.89748 V 94.974533 L 446.36183,92.793543 446.35512,92.174096 446.31874,90.3732 446.31108,88.679534 446.29002,86.985869 446.27566,86.226639 452.60321,86.139514 452.51704,80.180568 V 78.389246 L 452.40885,71.974571 448.24506,72.039675 445.30101,72.072227 442.89886,72.104779 438.30231,72.148821 438.37412,78.704236 435.93559,78.76934 433.22993,78.79136 433.15047,74.145987 433.12174,71.312998 433.09302,69.901769 433.05664,65.842333 426.18049,65.939989 H 424.31832 L 419.05159,66.027114 419.10903,69.771561 419.11669,72.593061 419.13105,73.223039 419.1885,76.196768 419.2536,78.65062 V 79.181985 L 419.24594,82.199755 V 82.710057 L 419.33977,84.229473 419.35413,85.423369 416.33061,85.510493 Z M 412.89637,85.521025"
     inkscape:label="obstacle"
     id="path13" />
  <path
     style="fill:#d9cfc7;fill-opacity:1;fill-rule:evenodd;stroke:#b8a89c;stroke-width:0.75;stroke-linecap:butt;stroke-linejoin:miter;stroke-miterlimit:4;stroke-opacity:1"
     d="M 310.10455,378.73966 310.37167,400.04596 310.47986,408.71726 332.13369,408.44631 332.03987,401.0656 331.60712,366.89836 H 319.65093 L 312.8035,366.86581 312.70967,377.37247 312.69531,378.70711 Z M 310.10455,378.73966"
     inkscape:label="obstacle"
     id="path14" />
  <path
     style="fill:#d9cfc7;fill-opacity:1;fill-rule:evenodd;stroke:#b8a89c;stroke-width:0.75;stroke-linecap:butt;stroke-linejoin:miter;stroke-miterlimit:4;stroke-opacity:1"
     d="M 166.17073,383.11409 166.71167,408.04515 170.12485,407.98005 170.23303,413.21136 167.70738,413.26497 167.81556,418.24736 180.26961,417.98694 180.16142,413.02658 179.48261,413.03711 179.339,406.44914 181.74115,406.40606 181.22894,382.77708 176.73388,382.87569 173.32835,382.95132 Z M 166.17073,383.11409"
     inkscape:label="obstacle"
     id="path15" />
  <path
     style="fill:#d9cfc7;fill-opacity:1;fill-rule:evenodd;stroke:#b8a89c;stroke-width:0.75;stroke-linecap:butt;stroke-linejoin:miter;stroke-miterlimit:4;stroke-opacity:1"
     d="M 432.89771,29.719095 433.21557,44.426892 441.59965,44.252642 441.58529,43.591069 445.6476,43.503945 450.56104,43.406288 450.51796,42.537914 458.36876,42.418237 458.13036,27.309283 450.27956,27.42896 450.29393,28.307866 441.28179,28.470626 V 29.534314 Z M 432.89771,29.719095"
     inkscape:label="obstacle"
     id="path16" />
  <path
     style="fill:#d9cfc7;fill-opacity:1;fill-rule:evenodd;stroke:#b8a89c;stroke-width:0.75;stroke-linecap:butt;stroke-linejoin:miter;stroke-miterlimit:4;stroke-opacity:1"
     d="M 85.926968,91.903148 86.136642,106.46925 88.401884,106.36106 96.136834,104.60229 96.245022,107.50038 101.69271,107.37017 101.45431,91.664752 Z M 85.926968,91.903148"
     inkscape:label="obstacle"
     id="path17" />
  <path
     style="fill:#d9cfc7;fill-opacity:1;fill-rule:evenodd;stroke:#b8a89c;stroke-width:0.75;stroke-linecap:butt;stroke-linejoin:miter;stroke-miterlimit:4;stroke-opacity:1"
     d="M 70.168888,142.52738 70.363243,156.82158 83.921186,156.62626 83.84938,151.25326 88.3588,151.18815 88.293696,146.43459 84.180645,146.48916 84.1232,142.33207 Z M 70.168888,142.52738"
     inkscape:label="obstacle"
     id="path18" />
  <path
     style="fill:#d9cfc7;fill-opacity:1;fill-rule:evenodd;stroke:#b8a89c;stroke-width:0.75;stroke-linecap:butt;stroke-linejoin:miter;stroke-miterlimit:4;stroke-opacity:1"
     d="M 128.82295,205.8498 128.84498,210.38603 128.8804,217.97354 139.71833,217.91896 139.65322,209.75701 139.66759,207.86803 136.03133,207.8575 134.7618,207.89005 134.75414,205.81725 Z M 128.82295,205.8498"
     inkscape:label="obstacle"
     id="path19" />
  <path
     style="fill:#d9cfc7;fill-opacity:1;fill-rule:evenodd;stroke:#b8a89c;stroke-width:0.75;stroke-linecap:butt;stroke-linejoin:miter;stroke-miterlimit:4;stroke-opacity:1"
     d="M 157.1222,287.34107 157.16529,290.20565 157.19401,292.019 168.26268,291.85623 168.23395,290.05438 168.19087,287.17831 Z M 157.1222,287.34107"
     inkscape:label="obstacle"
     id="path20" />
  <path
     style="fill:#d9cfc7;fill-opacity:1;fill-rule:evenodd;stroke:#b8a89c;stroke-width:0.75;stroke-linecap:butt;stroke-linejoin:miter;stroke-miterlimit:4;stroke-opacity:1"
     d="M 365.51968,341.59869 365.55607,344.60497 372.41019,344.5188 372.37477,341.51157 Z M 365.51968,341.59869"
     inkscape:label="obstacle"
     id="path21" />
  <path
     style="fill:#d9cfc7;fill-opacity:1;fill-rule:evenodd;stroke:#b8a89c;stroke-width:0.75;stroke-linecap:butt;stroke-linejoin:miter;stroke-miterlimit:4;stroke-opacity:1"
     d="M 401.40931,182.71963 401.46006,186.59429 405.34907,186.54067 V 182.76271 Z M 401.40931,182.71963"
     inkscape:label="obstacle"
     id="path22" />
  <path
     style="fill:#d9cfc7;fill-opacity:1;fill-rule:evenodd;stroke:#b8a89c;stroke-width:0.75;stroke-linecap:butt;stroke-linejoin:miter;stroke-miterlimit:4;stroke-opacity:1"
     d="M 305.94841,328.6937 309.52053,328.75881 309.49851,331.66743 309.44776,338.71113 309.40468,345.36516 309.35394,352.59364 309.33287,355.8498 309.30415,360.01742 H 312.67329 L 312.78914,366.00892 312.8035,366.86581 312.70967,377.37247 312.69531,378.70711 310.10455,378.73966 310.37167,400.04596 310.47986,408.71726 332.13369,408.44631 332.03987,401.0656 331.60712,366.89836 331.75839,359.21415 328.25904,359.09448 328.2801,358.3027 328.30212,355.61045 320.99322,355.5779 V 353.14702 L 323.61941,352.95171 323.35995,325.23169 323.25176,321.79075 323.179,318.84957 326.2456,318.83808 326.27432,320.07602 329.08146,320.22729 339.83992,320.16219 339.83226,319.1636 345.79982,319.13105 345.81419,321.7582 349.52991,321.73617 360.28167,321.60597 360.25965,319.86922 366.55178,319.79358 366.62358,325.80614 388.91219,325.49211 388.84708,319.83667 395.81706,319.7505 395.63706,305.42279 391.0118,305.54247 372.15744,306.00969 372.19382,302.76405 361.2477,302.67693 354.1772,302.61183 345.79216,302.54672 345.85057,307.20358 309.3616,307.57219 309.32521,310.31805 309.27543,313.92176 305.9848,313.8241 305.96278,321.03056 Z M 305.94841,328.6937"
     inkscape:label="obstacle"
     id="path23" />
  <path
     style="fill:#d9cfc7;fill-opacity:1;fill-rule:evenodd;stroke:#b8a89c;stroke-width:0.75;stroke-linecap:butt;stroke-linejoin:miter;stroke-miterlimit:4;stroke-opacity:1"
     d="M 391.40912,542.93141 391.44455,546.45852 395.34122,546.41544 395.45707,547.67444 395.52122,549.70416 H 393.80457 L 394.2086,569.8156 400.21159,569.64135 404.44719,569.63082 404.93068,590.51202 425.58115,590.27363 425.05457,555.84693 414.45504,555.61906 413.30806,545.53653 412.30469,468.81415 412.02321,447.13925 392.32537,447.39966 392.60685,469.05254 393.49437,542.79067 Z M 391.40912,542.93141"
     inkscape:label="obstacle"
     id="path24" />
  <path
     style="fill:#d9cfc7;fill-opacity:1;fill-rule:evenodd;stroke:#b8a89c;stroke-width:0.75;stroke-linecap:butt;stroke-linejoin:miter;stroke-miterlimit:4;stroke-opacity:1"
     d="M 335.75559,130.68513 335.8858,140.55128 346.00854,140.42107 346.03822,142.66812 381.39361,142.17984 387.7068,142.09272 388.2487,181.50371 370.32495,181.7536 370.68589,208.28068 359.69669,208.42237 359.89871,223.24889 363.74464,223.19432 369.02669,223.11772 369.45944,254.29017 370.71461,254.27964 370.87354,266.38231 377.6348,266.28466 383.56599,266.20807 383.4578,258.55641 383.39939,254.14943 383.29121,245.98748 388.81836,245.91184 388.76762,242.15591 383.19068,242.23154 382.69282,205.67555 382.54825,195.4293 401.58261,195.16889 401.46006,186.59429 401.40931,182.71963 400.66636,128.41701 384.12799,128.63339 346.16747,129.15518 346.18949,130.54439 338.9524,130.64204 Z M 335.75559,130.68513"
     inkscape:label="obstacle"
     id="path25" />
  <path
     style="fill:#d9cfc7;fill-opacity:1;fill-rule:evenodd;stroke:#b8a89c;stroke-width:0.75;stroke-linecap:butt;stroke-linejoin:miter;stroke-miterlimit:4;stroke-opacity:1"
     d="M 287.08735,250.55722 287.42628,267.29377 290.81074,267.446 290.86148,269.7572 289.45408,269.90943 289.411,275.61849 295.40728,281.62052 297.57104,281.7402 299.13737,281.64254 299.37577,289.59865 303.19968,293.37565 306.12171,293.4082 317.85386,293.51639 317.56568,288.82793 324.47055,288.73028 343.62745,288.9792 346.77351,285.40901 360.06434,285.36497 362.0347,287.92701 373.44229,287.63404 376.79036,285.65794 383.01739,285.56028 383.56599,266.20807 377.6348,266.28466 370.87354,266.38231 370.14495,266.39285 370.13729,269.27945 356.65211,269.44221 353.21691,266.61018 323.90759,266.67528 321.24502,264.11324 319.09563,262.04044 318.97212,230.96565 310.2922,231.11788 310.64549,243.15449 294.34647,243.58915 Z M 287.08735,250.55722"
     inkscape:label="obstacle"
     id="path26" />
  <path
     style="fill:#d9cfc7;fill-opacity:1;fill-rule:evenodd;stroke:#b8a89c;stroke-width:0.75;stroke-linecap:butt;stroke-linejoin:miter;stroke-miterlimit:4;stroke-opacity:1"
     d="M 433.18685,176.85834 433.5612,189.66663 441.97495,189.53642 441.7222,183.0777 449.81809,175.02394 460.61964,175.03542 461.26877,208.55258 469.74763,208.57364 469.03244,164.86481 443.9884,165.34256 Z M 433.18685,176.85834"
     inkscape:label="obstacle"
     id="path27" />
  <path
     style="fill:#d9cfc7;fill-opacity:1;fill-rule:evenodd;stroke:#b8a89c;stroke-width:0.75;stroke-linecap:butt;stroke-linejoin:miter;stroke-miterlimit:4;stroke-opacity:1"
     d="M 433.65502,194.37711 434.43436,229.86941 450.51796,229.81484 450.58307,215.4766 442.19899,215.43352 442.07548,194.27945 Z M 433.65502,194.37711"
     inkscape:label="obstacle"
     id="path28" />
  <path
     style="fill:#d9cfc7;fill-opacity:1;fill-rule:evenodd;stroke:#b8a89c;stroke-width:0.75;stroke-linecap:butt;stroke-linejoin:miter;stroke-miterlimit:4;stroke-opacity:1"
     d="M 173.08996,372.57487 173.32835,382.95132 176.73388,382.87569 176.49548,372.49923 Z M 173.08996,372.57487"
     inkscape:label="obstacle"
     id="path29" />
  <line
     x1="0"
     y1="10"
     x2="50"
     y2="10"
     style="stroke:#000000;stroke-width:2"
     id="line29" />
  <line
     x1="50"
     y1="10"
     x2="100"
     y2="10"
     style="stroke:#ffffff;stroke-width:2"
     id="line30" />
  <line
     x1="100"
     y1="10"
     x2="150"
     y2="10"
     style="stroke:#000000;stroke-width:2"
     id="line31" />
  <line
     x1="150"
     y1="10"
     x2="200"
     y2="10"
     style="stroke:#ffffff;stroke-width:2"
     id="line32" />
  <line
     x1="200"
     y1="10"
     x2="250"
     y2="10"
     style="stroke:#000000;stroke-width:2"
     id="line33" />
  <line
     x1="250"
     y1="10"
     x2="300"
     y2="10"
     style="stroke:#ffffff;stroke-width:2"
     id="line34" />
  <line
     x1="300"
     y1="10"
     x2="350"
     y2="10"
     style="stroke:#000000;stroke-width:2"
     id="line35" />
  <line
     x1="350"
     y1="10"
     x2="400"
     y2="10"
     style="stroke:#ffffff;stroke-width:2"
     id="line36" />
  <line
     x1="400"
     y1="10"
     x2="450"
     y2="10"
     style="stroke:#000000;stroke-width:2"
     id="line37" />
  <line
     x1="450"
     y1="10"
     x2="500"
     y2="10"
     style="stroke:#ffffff;stroke-width:2"
     id="line38" />
  <text
     x="10"
     y="30"
     style="font-size:12px"
     id="text38">50 m</text>
  <path
     style="fill:none;stroke:#000000"
     d="M 45.740505,59.604627 104.54393,90.370964 137.13797,135.57515 255.60157,199.33295 306.87017,409.38986 318.00476,417.3415 471.45393,428.42352"
     id="path38"
     inkscape:label="route" />
</svg>
