<?xml version="1.0" encoding="UTF-8"?>
<svg xmlns="http://www.w3.org/2000/svg" xmlns:inkscape="http://www.inkscape.org/namespaces/inkscape" width="350.0000" height="240.0000" viewBox="0 0 350.0000 240.0000">
  <g id="obstacles_layer" inkscape:label="Obstacles" inkscape:groupmode="layer">
    <path id="obstacle_0" inkscape:label="obstacle" d="M 153.1200,161.0000 L 148.7500,158.8100 L 146.5600,155.7500 L 144.8100,153.5600 L 140.8800,151.3800 L 141.7500,140.0000 L 141.7500,137.8100 L 141.7500,140.0000 L 140.8800,151.3800 L 144.8100,153.5600 L 146.5600,155.7500 L 148.7500,158.8100 Z" style="fill:#333333;stroke:#000000;stroke-width:0.3" />
    <path id="obstacle_1" inkscape:label="obstacle" d="M 148.7500,167.5600 L 142.1900,164.0600 L 138.2500,160.5600 L 135.6200,155.7500 L 128.6200,155.7500 L 135.6200,155.7500 L 138.2500,160.5600 L 142.1900,164.0600 Z" style="fill:#333333;stroke:#000000;stroke-width:0.3" />
    <path id="obstacle_2" inkscape:label="obstacle" d="M 25.3800,84.8800 L 24.9400,79.1900 L 24.9400,68.6900 L 24.5000,61.6900 L 25.8100,52.5000 L 27.5600,41.5600 L 30.1900,37.6200 L 34.5600,33.2500 L 38.5000,29.3100 L 30.1900,25.3800 L 17.9400,24.0600 L 11.8100,32.3800 L 7.8800,39.3800 L 6.1200,50.3100 L 3.0600,60.3800 L 3.5000,78.3100 L 4.3800,84.4400 Z" style="fill:#333333;stroke:#000000;stroke-width:0.3" />
    <path id="obstacle_3" inkscape:label="obstacle" d="M 13.5600,167.5600 L 14.8800,180.2500 L 16.1900,190.7500 L 21.4400,204.3100 L 28.4400,210.8800 L 33.6900,218.7500 L 36.7500,220.9400 L 41.5600,213.5000 L 54.2500,215.2500 L 69.1200,218.3100 L 80.9400,224.0000 L 84.8800,226.1900 L 86.1900,240.1900 L 85.7500,245.0000 L 84.8800,248.9400 L 74.3800,248.0600 L 66.0600,246.3100 L 55.5600,244.1200 L 49.8800,244.1200 L 43.3100,242.8100 L 38.9400,241.0600 L 31.5000,234.9400 L 27.5600,230.5600 L 14.4400,215.6900 L 10.0600,202.5600 L 6.5600,186.3800 L 5.2500,180.2500 L 4.8100,168.0000 L 4.8100,165.8100 Z" style="fill:#333333;stroke:#000000;stroke-width:0.3" />
    <path id="obstacle_4" inkscape:label="obstacle" d="M 169.3100,171.5000 L 170.1900,178.0600 L 172.3800,181.5600 L 174.1200,187.2500 L 175.0000,188.5600 L 174.5600,197.7500 L 175.0000,203.0000 L 172.8100,205.6200 L 170.6200,213.5000 L 168.0000,216.1200 L 164.9400,218.7500 L 151.8100,222.2500 L 143.0600,222.2500 L 138.2500,219.1900 L 137.3800,213.0600 L 141.3100,207.8100 L 150.0600,201.2500 L 154.4400,192.9400 L 160.1200,185.5000 L 163.6200,176.3100 L 164.5000,171.9400 Z" style="fill:#333333;stroke:#000000;stroke-width:0.3" />
    <path id="obstacle_5" inkscape:label="obstacle" d="M 170.1900,166.2500 L 168.4400,160.5600 L 165.3800,155.7500 L 163.6200,150.9400 L 161.4400,142.6200 L 159.6900,136.0600 L 161.8800,128.6200 L 164.5000,122.5000 L 166.6900,113.3100 L 166.2500,105.8800 L 164.5000,99.7500 L 163.1900,94.0600 L 161.4400,89.2500 L 160.1200,87.0600 L 154.8800,86.6200 L 154.8800,88.8100 L 155.7500,92.7500 L 157.0600,98.4400 L 157.5000,100.6200 L 158.3800,104.1200 L 159.2500,107.1900 L 159.6900,111.1200 L 159.2500,115.9400 L 158.3800,119.4400 L 156.1900,122.9400 L 154.4400,126.4400 L 154.4400,133.4400 L 154.4400,139.5600 L 155.3100,145.6900 L 155.7500,148.7500 L 157.5000,154.8800 L 160.1200,159.2500 L 162.7500,163.1900 L 163.6200,165.3800 Z" style="fill:#333333;stroke:#000000;stroke-width:0.3" />
    <path id="obstacle_6" inkscape:label="obstacle" d="M 158.8100,82.2500 L 157.5000,74.8100 L 157.9400,64.3100 L 157.5000,54.2500 L 157.5000,49.0000 L 163.6200,46.3800 L 173.2500,44.1900 L 178.0600,40.6900 L 182.0000,31.9400 L 181.5600,24.9400 L 179.8100,21.4400 L 162.7500,14.0000 L 158.3800,6.5600 L 146.1200,5.6900 L 129.9400,4.8100 L 131.6900,13.5600 L 130.8100,23.1900 L 130.8100,29.7500 L 133.4400,33.2500 L 136.9400,39.8100 L 142.6200,49.4400 L 146.1200,49.8800 L 147.4400,56.0000 L 148.7500,65.6200 L 150.9400,73.5000 L 152.2500,81.8100 Z" style="fill:#333333;stroke:#000000;stroke-width:0.3" />
    <path id="obstacle_7" inkscape:label="obstacle" d="M 297.0600,165.7500 L 302.3100,165.7500 L 302.3100,40.0000 L 297.0600,40.0000 Z" style="fill:#333333;stroke:#000000;stroke-width:0.3" />
    <path id="obstacle_8" inkscape:label="obstacle" d="M 297.0600,172.7500 L 302.3100,172.7500 L 302.3100,244.5000 L 297.0600,244.5000 Z" style="fill:#333333;stroke:#000000;stroke-width:0.3" />
    <path id="obstacle_9" inkscape:label="obstacle" d="M 6.8437,159.1198 L 6.8437,159.1198 L 17.5573,158.8021 L 17.5573,158.8021 L 17.6042,161.5417 L 17.6042,161.5417 L 34.6146,161.1615 L 34.6146,161.1615 L 34.8490,183.1823 L 34.8490,183.1823 L 32.1563,183.2240 L 32.1563,183.2240 L 32.0781,178.3802 L 32.0781,178.3802 L 22.4271,178.5469 L 22.4271,178.5469 L 22.6406,188.6198 L 22.6406,188.6198 L 32.1927,188.8385 L 32.1927,188.8385 L 32.1510,185.8958 L 32.1510,185.8958 L 33.6094,185.7760 L 33.6094,185.7760 L 34.8750,185.6771 L 34.8750,185.6771 L 35.0625,203.6771 L 35.0625,203.6771 L 38.8854,203.8594 L 38.8854,203.8594 L 38.9792,206.7656 L 38.9792,206.7656 L 43.8229,206.6667 L 43.8229,206.6667 L 43.7500,182.5104 L 43.7500,182.5104 L 43.6979,165.8646 L 43.6979,165.8646 L 60.6927,165.5885 L 60.6927,165.5885 L 60.5990,163.6510 L 60.5990,163.6510 L 61.9219,163.6198 L 61.9219,163.6198 L 62.3437,188.4167 L 62.3437,188.4167 L 62.6979,209.0104 L 62.6979,209.0104 L 66.5156,208.8906 L 66.5156,208.8906 L 66.4844,213.8542 L 66.4844,213.8542 L 73.0833,212.8021 L 73.0833,212.8021 L 71.7917,205.9896 L 71.7917,205.9896 L 71.3542,190.7240 L 71.3542,190.7240 L 71.2240,165.4219 L 71.2240,165.4219 L 84.0000,165.2969 L 84.0000,165.2969 L 84.0885,162.8021 L 84.0885,162.8021 L 88.2865,162.7135 L 88.2865,162.7135 L 88.2656,157.7865 L 88.2656,157.7865 L 88.2448,156.6302 L 88.2448,156.6302 L 88.2187,154.8021 L 88.2187,154.8021 L 85.6302,154.8437 L 85.6302,154.8437 L 85.6302,152.8125 L 85.6302,152.8125 L 78.7552,152.7448 L 78.7552,152.7448 L 78.4167,147.4427 L 78.4167,147.4427 L 68.6563,149.1458 L 68.6563,149.1458 L 56.2448,149.2083 L 56.2448,149.2083 L 56.2187,149.6510 L 56.2187,149.6510 L 49.3542,148.5781 L 49.3542,148.5781 L 46.3385,148.1719 L 46.3385,148.1719 L 46.0000,151.1667 L 46.0000,151.1667 L 41.3698,151.3125 L 41.3698,151.3125 L 41.1354,129.9687 L 41.1354,129.9687 L 38.5990,130.0729 L 38.5990,130.0729 L 38.5573,129.0365 L 38.5573,129.0365 L 38.2813,128.2031 L 38.2813,128.2031 L 37.2813,128.3281 L 37.2813,128.3281 L 36.1875,128.4167 L 36.1875,128.4167 L 35.8958,126.2760 L 35.8958,126.2760 L 28.8906,127.1042 L 28.8906,127.1042 L 30.7552,136.7813 L 30.7552,136.7813 L 31.4531,136.7604 L 31.4531,136.7604 L 30.9635,153.4687 L 30.9635,153.4687 L 21.2344,153.5573 L 21.2344,153.5573 L 21.1458,148.8958 L 21.1458,148.8958 L 9.3073,149.1198 L 9.3073,149.1198 L 6.8437,159.1198 L 6.8437,159.1198 L 6.8437,159.1198 Z" style="fill:#333333;stroke:#000000;stroke-width:0.3" />
    <path id="obstacle_10" inkscape:label="obstacle" d="M 234.6458,188.3698 L 234.6458,188.3698 L 234.7604,194.3281 L 234.7604,194.3281 L 234.8854,200.5937 L 234.8854,200.5937 L 240.7240,206.1302 L 240.7240,206.1302 L 250.4063,205.8906 L 250.4063,205.8906 L 250.5000,209.7240 L 250.5000,209.7240 L 253.4740,209.6510 L 253.4740,209.6510 L 253.3802,205.8229 L 253.3802,205.8229 L 254.8802,205.8646 L 254.8802,205.8646 L 254.8750,208.7917 L 254.8750,208.7917 L 255.5990,209.6510 L 255.5990,209.6510 L 257.1979,209.6510 L 257.1979,209.6510 L 257.9687,208.9479 L 257.9687,208.9479 L 257.9740,205.9531 L 257.9740,205.9531 L 261.8906,205.9479 L 261.8906,205.9479 L 262.3021,205.9479 L 262.3021,205.9479 L 273.0677,205.9896 L 273.0677,205.9896 L 277.1042,201.9167 L 277.1042,201.9167 L 282.4115,196.4844 L 282.4115,196.4844 L 284.8177,196.3646 L 284.8177,196.3646 L 285.4792,195.6979 L 285.4792,195.6979 L 289.1458,191.9896 L 289.1458,191.9896 L 289.1719,190.8594 L 289.1719,190.8594 L 291.1667,190.8646 L 291.1667,190.8646 L 291.1406,184.0937 L 291.1406,184.0937 L 287.3333,184.0677 L 287.3333,184.0677 L 286.2865,184.0521 L 286.2865,184.0521 L 282.2865,180.7396 L 282.2865,180.7396 L 282.2552,174.8021 L 282.2552,174.8021 L 282.1354,164.7500 L 282.1354,164.7500 L 275.5677,164.7865 L 275.5677,164.7865 L 273.8385,166.2031 L 273.8385,166.2031 L 258.2031,166.3281 L 258.2031,166.3281 L 255.4583,163.7344 L 255.4583,163.7344 L 255.2708,162.3177 L 255.2708,162.3177 L 253.7656,162.3021 L 253.7656,162.3021 L 249.1042,162.2552 L 249.1042,162.2552 L 248.9219,163.0573 L 248.9219,163.0573 L 242.3854,163.2448 L 242.3854,163.2448 L 240.5937,164.4740 L 240.5937,164.4740 L 240.4531,165.2135 L 240.4531,165.2135 L 240.2448,166.3281 L 240.2448,166.3281 L 240.3594,175.4635 L 240.3594,175.4635 L 240.2969,183.1927 L 240.2969,183.1927 L 234.6458,188.3698 L 234.6458,188.3698 L 234.6458,188.3698 Z" style="fill:#333333;stroke:#000000;stroke-width:0.3" />
    <path id="obstacle_11" inkscape:label="obstacle" d="M 6.3958,105.1354 L 6.3958,105.1354 L 9.8490,115.1302 L 9.8490,115.1302 L 23.8229,114.9844 L 23.8229,114.9844 L 25.4583,114.9687 L 25.4583,114.9687 L 25.4427,117.2656 L 25.4427,117.2656 L 38.2917,117.2187 L 38.2917,117.2187 L 38.3281,115.5260 L 38.3281,115.5260 L 42.2187,114.8802 L 42.2187,114.8802 L 47.2187,114.0573 L 47.2187,114.0573 L 47.2292,113.2292 L 47.2292,113.2292 L 70.2292,112.4531 L 70.2292,112.4531 L 70.2187,110.5937 L 70.2187,110.5937 L 70.2187,110.5937 L 70.1979,105.7552 L 70.1979,105.7552 L 70.1823,102.8646 L 70.1823,102.8646 L 68.3229,102.8802 L 68.3229,102.8802 L 68.2604,99.6458 L 68.2604,99.6458 L 55.9583,99.7917 L 55.9583,99.7917 L 55.9010,102.0885 L 55.9010,102.0885 L 54.0781,102.1146 L 54.0781,102.1146 L 53.6458,64.1146 L 53.6458,64.1146 L 53.1198,42.3698 L 53.1198,42.3698 L 49.5052,42.5052 L 49.5052,42.5052 L 49.4583,41.3073 L 49.4583,41.3073 L 49.4167,40.1771 L 49.4167,40.1771 L 49.3490,38.3333 L 49.3490,38.3333 L 44.4167,39.4531 L 44.4167,39.4531 L 42.5208,39.8802 L 42.5208,39.8802 L 43.8594,48.0156 L 43.8594,48.0156 L 44.3490,64.9948 L 44.3490,64.9948 L 44.3906,68.0260 L 44.3906,68.0260 L 44.6458,90.4063 L 44.6458,90.4063 L 44.6563,91.2813 L 44.6563,91.2813 L 32.1094,91.5469 L 32.1094,91.5469 L 32.1094,94.2604 L 32.1094,94.2604 L 19.5781,94.3906 L 19.5781,94.3906 L 19.5781,107.3750 L 19.5781,107.3750 L 18.1875,107.4167 L 18.1875,107.4167 L 17.6042,105.0833 L 17.6042,105.0833 L 14.7135,105.0990 L 14.7135,105.0990 L 6.3958,105.1354 L 6.3958,105.1354 L 6.3958,105.1354 Z" style="fill:#333333;stroke:#000000;stroke-width:0.3" />
    <path id="obstacle_12" inkscape:label="obstacle" d="M 178.9167,69.5000 L 178.9167,69.5000 L 179.5156,103.5156 L 179.5156,103.5156 L 179.5990,108.0156 L 179.5990,108.0156 L 179.7917,119.0781 L 179.7917,119.0781 L 182.7396,119.0260 L 182.7396,119.0260 L 185.8437,118.9687 L 185.8437,118.9687 L 191.3802,118.8698 L 191.3802,118.8698 L 217.5625,118.4063 L 217.5625,118.4063 L 217.4635,113.9531 L 217.4635,113.9531 L 217.3333,104.5052 L 217.3333,104.5052 L 217.2865,102.9896 L 217.2865,102.9896 L 195.1771,103.3854 L 195.1771,103.3854 L 195.1406,101.2917 L 195.1406,101.2917 L 194.7813,81.0521 L 194.7813,81.0521 L 199.0625,80.9948 L 199.0625,80.9948 L 202.5208,80.9115 L 202.5208,80.9115 L 202.1927,66.4063 L 202.1927,66.4063 L 202.1563,61.2448 L 202.1563,61.2448 L 202.0781,54.9583 L 202.0781,54.9583 L 201.8437,42.7813 L 201.8437,42.7813 L 190.0104,42.9896 L 190.0104,42.9896 L 190.3333,61.4115 L 190.3333,61.4115 L 190.3542,65.0781 L 190.3542,65.0781 L 190.4792,69.2917 L 190.4792,69.2917 L 178.9167,69.5000 L 178.9167,69.5000 L 178.9167,69.5000 Z" style="fill:#333333;stroke:#000000;stroke-width:0.3" />
    <path id="obstacle_13" inkscape:label="obstacle" d="M 75.6900,18.3800 L 76.5600,55.5600 L 112.4400,54.6900 L 112.4400,34.5600 L 97.1200,33.6900 L 96.6900,27.5600 L 112.0000,27.1200 L 112.4400,5.6900 L 76.1200,6.1200 L 75.6900,12.2500 L 90.5600,12.6900 L 91.0000,18.3800 L 75.6900,18.8100 Z" style="fill:#333333;stroke:#000000;stroke-width:0.3" />
    <path id="obstacle_14" inkscape:label="obstacle" d="M 109.0781,121.3281 L 109.0781,121.3281 L 109.3125,137.0521 L 109.3125,137.0521 L 110.0885,137.0365 L 110.0885,137.0365 L 110.0990,137.7292 L 110.0990,137.7292 L 111.3177,137.7187 L 111.3177,137.7187 L 111.3125,137.0573 L 111.3125,137.0573 L 115.2656,137.0000 L 115.2656,137.0000 L 115.2865,138.3854 L 115.2865,138.3854 L 119.8594,138.3177 L 119.8594,138.3177 L 119.8490,137.6146 L 119.8490,137.6146 L 130.9687,137.4479 L 130.9687,137.4479 L 131.9635,137.4323 L 131.9635,137.4323 L 131.9531,136.6458 L 131.9531,136.6458 L 133.6042,136.6146 L 133.6042,136.6146 L 133.6146,137.5156 L 133.6146,137.5156 L 135.3542,137.4896 L 135.3542,137.4896 L 138.0260,137.4531 L 138.0260,137.4531 L 138.0104,136.4219 L 138.0104,136.4219 L 141.5937,136.3750 L 141.5937,136.3750 L 141.5208,131.8646 L 141.5208,131.8646 L 141.3229,118.3177 L 141.3229,118.3177 L 148.8594,118.2083 L 148.8594,118.2083 L 148.7083,108.3021 L 148.7083,108.3021 L 148.5729,99.1719 L 148.5729,99.1719 L 143.8073,99.2396 L 143.8073,99.2396 L 143.7865,98.1042 L 143.7865,98.1042 L 128.7344,98.3333 L 128.7344,98.3333 L 128.7500,99.1927 L 128.7500,99.1927 L 123.5469,99.2656 L 123.5469,99.2656 L 116.4427,99.3750 L 116.4427,99.3750 L 116.5000,103.1458 L 116.5000,103.1458 L 109.4740,103.2500 L 109.4740,103.2500 L 109.5521,108.4531 L 109.5521,108.4531 L 110.6094,108.4323 L 110.6094,108.4323 L 110.8021,121.3021 L 110.8021,121.3021 L 109.0781,121.3281 L 109.0781,121.3281 L 109.0781,121.3281 Z" style="fill:#333333;stroke:#000000;stroke-width:0.3" />
    <path id="obstacle_15" inkscape:label="obstacle" d="M 232.1979,153.6719 L 232.1979,153.6719 L 233.2969,153.7344 L 233.2969,153.7344 L 234.7135,155.1510 L 234.7135,155.1510 L 257.3177,154.8021 L 257.3177,154.8021 L 259.6719,152.7448 L 259.6719,152.7448 L 259.6979,152.0781 L 259.6979,152.0781 L 261.5104,152.1563 L 261.5104,152.1563 L 266.2604,156.7135 L 266.2604,156.7135 L 281.3281,156.4115 L 281.3281,156.4115 L 285.6406,152.0208 L 285.6406,152.0208 L 290.2292,147.3594 L 290.2292,147.3594 L 292.6667,147.2969 L 292.6667,147.2969 L 297.0313,147.2083 L 297.0313,147.2083 L 299.5521,147.1510 L 299.5521,147.1510 L 303.7240,147.0677 L 303.7240,147.0677 L 305.9740,146.9271 L 305.9740,146.9271 L 305.9635,142.7969 L 305.9635,142.7969 L 305.9583,139.1927 L 305.9583,139.1927 L 303.9219,139.2240 L 303.9219,139.2240 L 299.4115,139.1823 L 299.4115,139.1823 L 296.9583,139.1823 L 296.9583,139.1823 L 292.3750,139.1771 L 292.3750,139.1771 L 288.8854,139.0677 L 288.8854,139.0677 L 287.3854,137.5313 L 287.3854,137.5313 L 285.9635,137.4740 L 285.9635,137.4740 L 285.7813,112.9583 L 285.7813,112.9583 L 281.9792,109.0260 L 281.9792,109.0260 L 275.2656,109.0000 L 275.2656,109.0000 L 275.2240,118.1406 L 275.2240,118.1406 L 277.0833,118.1302 L 277.0833,118.1302 L 277.0573,119.9740 L 277.0573,119.9740 L 279.3229,119.9844 L 279.3229,119.9844 L 279.2865,120.8437 L 279.2865,120.8437 L 274.7917,120.8177 L 274.7917,120.8177 L 274.7865,124.0260 L 274.7865,124.0260 L 275.5260,124.0417 L 275.5260,124.0417 L 275.5000,125.6719 L 275.5000,125.6719 L 276.2865,126.4531 L 276.2865,126.4531 L 279.5104,126.4844 L 279.5104,126.4844 L 279.5104,127.2969 L 279.5104,127.2969 L 276.9844,127.2969 L 276.9844,127.2969 L 277.2344,137.7187 L 277.2344,137.7187 L 279.9896,137.6354 L 279.9896,137.6354 L 279.9740,138.3125 L 279.9740,138.3125 L 279.1563,138.3125 L 279.1563,138.3125 L 279.1354,139.8333 L 279.1354,139.8333 L 280.1146,139.8073 L 280.1146,139.8073 L 280.1146,141.1563 L 280.1146,141.1563 L 279.3490,141.1875 L 279.3490,141.1875 L 277.5156,142.9896 L 277.5156,142.9896 L 275.5990,144.8698 L 275.5990,144.8698 L 267.0469,144.8125 L 267.0469,144.8125 L 267.0365,143.9427 L 267.0365,143.9427 L 266.1458,143.1458 L 266.1458,143.1458 L 264.4115,143.1667 L 264.4115,143.1667 L 264.3958,142.4427 L 264.3958,142.4427 L 261.2292,142.4844 L 261.2292,142.4844 L 261.2760,145.1823 L 261.2760,145.1823 L 259.0313,145.2083 L 259.0313,145.2083 L 259.0104,144.1510 L 259.0104,144.1510 L 252.8385,138.1406 L 252.8385,138.1406 L 241.3333,138.1250 L 241.3333,138.1250 L 238.3594,141.5208 L 238.3594,141.5208 L 232.5469,141.3333 L 232.5469,141.3333 L 232.1979,153.6719 L 232.1979,153.6719 L 232.1979,153.6719 Z" style="fill:#333333;stroke:#000000;stroke-width:0.3" />
    <path id="obstacle_16" inkscape:label="obstacle" d="M 306.2500,147.4400 L 313.6900,147.4400 L 319.3800,154.4400 L 319.8100,164.5000 L 327.2500,164.5000 L 327.2500,153.5600 L 332.5000,153.1200 L 332.9400,157.5000 L 343.8800,157.0600 L 343.8800,142.6200 L 322.4400,122.5000 L 321.1200,122.5000 L 321.1200,120.7500 L 322.0000,121.1900 L 321.5600,107.1900 L 308.0000,108.0600 L 308.4400,120.7500 L 309.3100,121.1900 L 309.3100,121.6200 L 307.1200,122.5000 L 304.5000,122.5000 L 304.9400,133.8800 L 318.0600,134.3100 L 320.2500,135.1900 L 316.3100,138.2500 L 306.2500,140.0000 Z" style="fill:#333333;stroke:#000000;stroke-width:0.3" />
    <path id="obstacle_17" inkscape:label="obstacle" d="M 208.8802,217.5208 L 208.8802,217.5208 L 208.9531,223.0677 L 208.9531,223.0677 L 208.9792,225.0365 L 208.9792,225.0365 L 208.9844,225.3021 L 208.9844,225.3021 L 208.9896,225.4375 L 208.9896,225.4375 L 209.0208,228.0729 L 209.0208,228.0729 L 209.0313,228.7344 L 209.0313,228.7344 L 209.0729,232.5677 L 209.0729,232.5677 L 213.2448,232.5104 L 213.2448,232.5104 L 214.0000,232.5052 L 214.0000,232.5052 L 217.1042,232.4635 L 217.1042,232.4635 L 217.3281,232.4583 L 217.3281,232.4583 L 220.1094,232.4219 L 220.1094,232.4219 L 221.8698,232.4010 L 221.8698,232.4010 L 222.0156,232.4010 L 222.0156,232.4010 L 222.5990,232.3958 L 222.5990,232.3958 L 225.1719,232.3594 L 225.1719,232.3594 L 225.1042,227.2135 L 225.1042,227.2135 L 225.0990,226.9219 L 225.0990,226.9219 L 225.0729,225.0781 L 225.0729,225.0781 L 225.0677,224.6250 L 225.0677,224.6250 L 225.0469,222.9010 L 225.0469,222.9010 L 225.0365,222.0885 L 225.0365,222.0885 L 237.2917,221.9271 L 237.2917,221.9271 L 237.4375,221.9271 L 237.4375,221.9271 L 237.4531,223.5677 L 237.4531,223.5677 L 237.4687,224.5521 L 237.4687,224.5521 L 237.4896,225.8802 L 237.4896,225.8802 L 237.4948,226.8594 L 237.4948,226.8594 L 237.5000,227.0208 L 237.5000,227.0208 L 237.5417,230.2708 L 237.5417,230.2708 L 253.8802,230.0625 L 253.8802,230.0625 L 253.8906,230.9010 L 253.8906,230.9010 L 253.9010,231.7083 L 253.9010,231.7083 L 255.8854,231.6823 L 255.8854,231.6823 L 257.9687,231.6563 L 257.9687,231.6563 L 258.1302,231.6563 L 258.1302,231.6563 L 260.0833,231.6250 L 260.0833,231.6250 L 260.8854,231.6198 L 260.8854,231.6198 L 262.4531,231.5990 L 262.4531,231.5990 L 262.9740,231.5937 L 262.9740,231.5937 L 265.7031,231.5573 L 265.7031,231.5573 L 267.8490,231.5313 L 267.8490,231.5313 L 269.7187,231.5000 L 269.7187,231.5000 L 269.9479,231.5000 L 269.9479,231.5000 L 270.0313,231.4948 L 270.0313,231.4948 L 271.8854,231.4740 L 271.8854,231.4740 L 272.1094,231.4687 L 272.1094,231.4687 L 274.0000,231.4479 L 274.0000,231.4479 L 274.2187,231.4479 L 274.2187,231.4479 L 274.3229,231.4427 L 274.3229,231.4427 L 276.3750,231.4115 L 276.3750,231.4115 L 278.5156,231.3854 L 278.5156,231.3854 L 278.6146,231.3906 L 278.6146,231.3906 L 280.6667,231.3594 L 280.6667,231.3594 L 282.9271,231.3281 L 282.9271,231.3281 L 286.4375,231.2865 L 286.4375,231.2865 L 287.0000,231.2760 L 287.0000,231.2760 L 291.3542,231.2240 L 291.3542,231.2240 L 291.3073,227.6615 L 291.3073,227.6615 L 291.2865,226.0990 L 291.2865,226.0990 L 291.2865,225.8281 L 291.2865,225.8281 L 291.2552,223.5000 L 291.2552,223.5000 L 291.2344,222.0365 L 291.2344,222.0365 L 291.2135,220.2187 L 291.2135,220.2187 L 291.2031,219.4323 L 291.2031,219.4323 L 286.8698,219.4844 L 286.8698,219.4844 L 284.2656,219.5208 L 284.2656,219.5208 L 284.2448,218.1354 L 284.2448,218.1354 L 284.2240,216.5313 L 284.2240,216.5313 L 283.2187,216.5417 L 283.2187,216.5417 L 279.9115,216.5729 L 279.9115,216.5729 L 277.6667,216.6094 L 277.6667,216.6094 L 277.3125,216.6146 L 277.3125,216.6146 L 274.6094,216.6719 L 274.6094,216.6719 L 272.6458,216.6979 L 272.6458,216.6979 L 270.5313,216.7240 L 270.5313,216.7240 L 266.1094,216.7813 L 266.1094,216.7813 L 263.2396,216.8229 L 263.2396,216.8229 L 262.4063,216.8281 L 262.4063,216.8281 L 262.1458,216.8177 L 262.1458,216.8177 L 260.8854,216.8437 L 260.8854,216.8437 L 258.8906,216.8698 L 258.8906,216.8698 L 258.3229,216.8854 L 258.3229,216.8854 L 256.0469,216.9115 L 256.0469,216.9115 L 253.8542,216.9479 L 253.8542,216.9479 L 251.5833,216.9740 L 251.5833,216.9740 L 251.2396,216.9844 L 251.2396,216.9844 L 249.4167,217.0052 L 249.4167,217.0052 L 247.2760,217.0313 L 247.2760,217.0313 L 244.6250,217.0625 L 244.6250,217.0625 L 241.1042,217.1146 L 241.1042,217.1146 L 240.3594,217.1198 L 240.3594,217.1198 L 237.3750,217.1563 L 237.3750,217.1563 L 235.1719,217.1875 L 235.1719,217.1875 L 233.1250,217.2083 L 233.1250,217.2083 L 230.9583,217.2396 L 230.9583,217.2396 L 228.8125,217.2656 L 228.8125,217.2656 L 226.7969,217.2917 L 226.7969,217.2917 L 224.7917,217.3229 L 224.7917,217.3229 L 222.5937,217.3490 L 222.5937,217.3490 L 220.1563,217.3750 L 220.1563,217.3750 L 218.1406,217.4063 L 218.1406,217.4063 L 217.1302,217.4167 L 217.1302,217.4167 L 217.0365,217.4271 L 217.0365,217.4271 L 216.5313,217.4948 L 216.5313,217.4948 L 213.0469,217.4740 L 213.0469,217.4740 L 208.8802,217.5208 L 208.8802,217.5208 L 208.8802,217.5208 Z" style="fill:#333333;stroke:#000000;stroke-width:0.3" />
    <path id="obstacle_18" inkscape:label="obstacle" d="M 74.0573,120.9323 L 74.0573,120.9323 L 74.4115,124.5729 L 74.4115,124.5729 L 75.3021,129.1823 L 75.3021,129.1823 L 76.7187,132.7083 L 76.7187,132.7083 L 78.7552,132.6927 L 78.7552,132.6927 L 80.4687,132.6458 L 80.4687,132.6458 L 82.1510,132.6406 L 82.1510,132.6406 L 82.2292,137.5156 L 82.2292,137.5156 L 84.3750,137.4792 L 84.3750,137.4792 L 84.4323,138.0625 L 84.4323,138.0625 L 92.8385,139.2656 L 92.8385,139.2656 L 94.3646,128.5990 L 94.3646,128.5990 L 91.8802,128.1615 L 91.8802,128.1615 L 91.7708,121.6302 L 91.7708,121.6302 L 91.7604,121.0729 L 91.7604,121.0729 L 95.6042,120.9010 L 95.6042,120.9010 L 95.5937,107.1719 L 95.5937,107.1719 L 91.5365,107.2031 L 91.5365,107.2031 L 91.5104,105.7708 L 91.5104,105.7708 L 90.8437,104.8958 L 90.8437,104.8958 L 90.8281,104.1563 L 90.8281,104.1563 L 91.7448,103.7708 L 91.7448,103.7708 L 91.7448,103.3490 L 91.7448,103.3490 L 94.1406,103.3333 L 94.1406,103.3333 L 93.9948,82.5469 L 93.9948,82.5469 L 88.1563,82.5885 L 88.1563,82.5885 L 76.8177,82.6719 L 76.8177,82.6719 L 76.8437,86.2969 L 76.8437,86.2969 L 75.3437,86.3073 L 75.3437,86.3073 L 74.7552,102.7240 L 74.7552,102.7240 L 74.7760,104.1458 L 74.7760,104.1458 L 77.0937,104.1510 L 77.0937,104.1510 L 77.0833,105.3542 L 77.0833,105.3542 L 77.1250,110.5573 L 77.1250,110.5573 L 77.1042,111.1563 L 77.1042,111.1563 L 77.1563,116.8542 L 77.1563,116.8542 L 77.0260,117.1719 L 77.0260,117.1719 L 76.1927,117.1823 L 76.1927,117.1823 L 74.0833,117.1719 L 74.0833,117.1719 L 74.0573,120.9323 L 74.0573,120.9323 L 74.0573,120.9323 Z" style="fill:#333333;stroke:#000000;stroke-width:0.3" />
    <path id="obstacle_19" inkscape:label="obstacle" d="M 95.2760,154.6979 L 95.2760,154.6979 L 95.3021,156.5313 L 95.3021,156.5313 L 95.3177,157.6823 L 95.3177,157.6823 L 95.5000,167.0625 L 95.5000,167.0625 L 95.5365,170.5781 L 95.5365,170.5781 L 106.4948,170.3437 L 106.4948,170.3437 L 106.5573,169.3854 L 106.5573,169.3854 L 109.3333,169.3594 L 109.3333,169.3594 L 109.4844,171.7031 L 109.4844,171.7031 L 118.2760,171.7031 L 118.2760,171.7031 L 121.9427,158.1042 L 121.9427,158.1042 L 118.8281,158.2552 L 118.8281,158.2552 L 118.6771,154.8594 L 118.6771,154.8594 L 118.5990,147.3802 L 118.5990,147.3802 L 97.5260,148.0156 L 97.5260,148.0156 L 97.5052,154.5052 L 97.5052,154.5052 L 95.2760,154.6979 L 95.2760,154.6979 L 95.2760,154.6979 Z" style="fill:#333333;stroke:#000000;stroke-width:0.3" />
    <path id="obstacle_20" inkscape:label="obstacle" d="M 308.4687,184.4271 L 308.4687,184.4271 L 308.4948,186.7604 L 308.4948,186.7604 L 310.4063,186.7500 L 310.4063,186.7500 L 310.4792,193.3385 L 310.4792,193.3385 L 309.3542,193.3698 L 309.3542,193.3698 L 309.8542,217.7865 L 309.8542,217.7865 L 320.8698,217.6042 L 320.8698,217.6042 L 320.7760,195.3021 L 320.7760,195.3021 L 320.7240,194.1927 L 320.7240,194.1927 L 320.4271,193.8958 L 320.4271,193.8958 L 322.7448,191.4323 L 322.7448,191.4323 L 322.4531,191.1302 L 322.4531,191.1302 L 320.1094,193.6198 L 320.1094,193.6198 L 318.1406,191.6198 L 318.1406,191.6198 L 318.4635,191.2760 L 318.4635,191.2760 L 320.2656,189.3333 L 320.2656,189.3333 L 320.4844,189.0937 L 320.4844,189.0937 L 322.7500,191.4219 L 322.7500,191.4219 L 327.5208,186.0990 L 327.5208,186.0990 L 328.6615,184.8958 L 328.6615,184.8958 L 319.2865,176.1042 L 319.2865,176.1042 L 319.2083,180.5573 L 319.2083,180.5573 L 315.4167,184.4427 L 315.4167,184.4427 L 308.4687,184.4271 L 308.4687,184.4271 L 308.4687,184.4271 Z" style="fill:#333333;stroke:#000000;stroke-width:0.3" />
    <path id="obstacle_21" inkscape:label="obstacle" d="M 94.9271,186.7240 L 94.9271,186.7240 L 95.1302,209.1510 L 95.1302,209.1510 L 98.3958,209.1302 L 98.3958,209.1302 L 100.5677,209.0833 L 100.5677,209.0833 L 107.7396,209.0260 L 107.7396,209.0260 L 107.6510,199.1458 L 107.6510,199.1458 L 103.4792,199.1875 L 103.4792,199.1875 L 103.4583,196.6146 L 103.4583,196.6146 L 109.4167,196.5625 L 109.4167,196.5625 L 109.3229,186.3281 L 109.3229,186.3281 L 105.9687,186.3646 L 105.9687,186.3646 L 105.9323,182.8229 L 105.9323,182.8229 L 110.9583,182.7708 L 110.9583,182.7708 L 110.8854,175.2656 L 110.8854,175.2656 L 96.7760,175.3906 L 96.7760,175.3906 L 96.8437,182.4948 L 96.8437,182.4948 L 98.2187,182.4844 L 98.2187,182.4844 L 98.2552,186.6979 L 98.2552,186.6979 L 94.9271,186.7240 L 94.9271,186.7240 L 94.9271,186.7240 Z" style="fill:#333333;stroke:#000000;stroke-width:0.3" />
    <path id="obstacle_22" inkscape:label="obstacle" d="M 185.7240,213.0573 L 185.7240,213.0573 L 185.8958,226.6406 L 185.8958,226.6406 L 185.9635,232.1667 L 185.9635,232.1667 L 199.7656,231.9948 L 199.7656,231.9948 L 199.7083,227.2917 L 199.7083,227.2917 L 199.4323,205.5104 L 199.4323,205.5104 L 191.8125,205.5104 L 191.8125,205.5104 L 187.4479,205.4896 L 187.4479,205.4896 L 187.3854,212.1875 L 187.3854,212.1875 L 187.3750,213.0365 L 187.3750,213.0365 L 185.7240,213.0573 L 185.7240,213.0573 L 185.7240,213.0573 Z" style="fill:#333333;stroke:#000000;stroke-width:0.3" />
    <path id="obstacle_23" inkscape:label="obstacle" d="M 93.9844,215.8490 L 93.9844,215.8490 L 94.3333,231.7396 L 94.3333,231.7396 L 96.5052,231.6979 L 96.5052,231.6979 L 96.5781,235.0313 L 96.5781,235.0313 L 94.9687,235.0625 L 94.9687,235.0625 L 95.0365,238.2396 L 95.0365,238.2396 L 102.9740,238.0729 L 102.9740,238.0729 L 102.9063,234.9115 L 102.9063,234.9115 L 102.4740,234.9219 L 102.4740,234.9219 L 102.3802,230.7187 L 102.3802,230.7187 L 103.9115,230.6927 L 103.9115,230.6927 L 103.5833,215.6354 L 103.5833,215.6354 L 100.7187,215.6927 L 100.7187,215.6927 L 98.5469,215.7448 L 98.5469,215.7448 L 93.9844,215.8490 L 93.9844,215.8490 L 93.9844,215.8490 Z" style="fill:#333333;stroke:#000000;stroke-width:0.3" />
    <path id="obstacle_24" inkscape:label="obstacle" d="M 42.8437,30.2396 L 42.8437,30.2396 L 42.9740,39.5208 L 42.9740,39.5208 L 44.4167,39.4531 L 44.4167,39.4531 L 49.3490,38.3333 L 49.3490,38.3333 L 49.4167,40.1771 L 49.4167,40.1771 L 52.8906,40.0937 L 52.8906,40.0937 L 52.7396,30.0833 L 52.7396,30.0833 L 42.8437,30.2396 L 42.8437,30.2396 L 42.8437,30.2396 Z" style="fill:#333333;stroke:#000000;stroke-width:0.3" />
    <path id="obstacle_25" inkscape:label="obstacle" d="M 32.7969,62.5052 L 32.7969,62.5052 L 32.9219,71.6146 L 32.9219,71.6146 L 41.5625,71.4896 L 41.5625,71.4896 L 41.5156,68.0677 L 41.5156,68.0677 L 44.3906,68.0260 L 44.3906,68.0260 L 44.3490,64.9948 L 44.3490,64.9948 L 41.7292,65.0313 L 41.7292,65.0313 L 41.6927,62.3802 L 41.6927,62.3802 L 32.7969,62.5052 L 32.7969,62.5052 L 32.7969,62.5052 Z" style="fill:#333333;stroke:#000000;stroke-width:0.3" />
    <path id="obstacle_26" inkscape:label="obstacle" d="M 88.2187,154.8021 L 88.2187,154.8021 L 88.2448,156.6302 L 88.2448,156.6302 L 88.2656,157.7865 L 88.2656,157.7865 L 95.3177,157.6823 L 95.3177,157.6823 L 95.3021,156.5313 L 95.3021,156.5313 L 95.2760,154.6979 L 95.2760,154.6979 L 88.2187,154.8021 L 88.2187,154.8021 L 88.2187,154.8021 Z" style="fill:#333333;stroke:#000000;stroke-width:0.3" />
    <path id="obstacle_27" inkscape:label="obstacle" d="M 221.0469,189.3854 L 221.0469,189.3854 L 221.0677,191.3021 L 221.0677,191.3021 L 225.4375,191.2500 L 225.4375,191.2500 L 225.4167,189.3333 L 225.4167,189.3333 L 221.0469,189.3854 L 221.0469,189.3854 L 221.0469,189.3854 Z" style="fill:#333333;stroke:#000000;stroke-width:0.3" />
    <path id="obstacle_28" inkscape:label="obstacle" d="M 243.9219,88.1198 L 243.9219,88.1198 L 243.9531,90.5937 L 243.9531,90.5937 L 246.4323,90.5573 L 246.4323,90.5573 L 246.4323,88.1510 L 246.4323,88.1510 L 243.9219,88.1198 L 243.9219,88.1198 L 243.9219,88.1198 Z" style="fill:#333333;stroke:#000000;stroke-width:0.3" />
    <path id="obstacle_29" inkscape:label="obstacle" d="M 183.0781,181.1615 L 183.0781,181.1615 L 185.3542,181.2031 L 185.3542,181.2031 L 185.3385,183.0573 L 185.3385,183.0573 L 185.3073,187.5469 L 185.3073,187.5469 L 185.2813,191.7865 L 185.2813,191.7865 L 185.2500,196.3958 L 185.2500,196.3958 L 185.2344,198.4687 L 185.2344,198.4687 L 185.2135,201.1250 L 185.2135,201.1250 L 187.3646,201.1250 L 187.3646,201.1250 L 187.4375,204.9427 L 187.4375,204.9427 L 187.4479,205.4896 L 187.4479,205.4896 L 187.3854,212.1875 L 187.3854,212.1875 L 187.3750,213.0365 L 187.3750,213.0365 L 185.7240,213.0573 L 185.7240,213.0573 L 185.8958,226.6406 L 185.8958,226.6406 L 185.9635,232.1667 L 185.9635,232.1667 L 199.7656,231.9948 L 199.7656,231.9948 L 199.7083,227.2917 L 199.7083,227.2917 L 199.4323,205.5104 L 199.4323,205.5104 L 199.5260,200.6146 L 199.5260,200.6146 L 197.2969,200.5365 L 197.2969,200.5365 L 197.3125,200.0313 L 197.3125,200.0313 L 197.3229,198.3177 L 197.3229,198.3177 L 192.6667,198.2969 L 192.6667,198.2969 L 192.6667,196.7448 L 192.6667,196.7448 L 194.3385,196.6250 L 194.3385,196.6250 L 194.1771,178.9531 L 194.1771,178.9531 L 194.1042,176.7604 L 194.1042,176.7604 L 194.0573,174.8854 L 194.0573,174.8854 L 196.0156,174.8802 L 196.0156,174.8802 L 196.0313,175.6667 L 196.0313,175.6667 L 197.8229,175.7656 L 197.8229,175.7656 L 204.6771,175.7240 L 204.6771,175.7240 L 204.6719,175.0885 L 204.6719,175.0885 L 208.4792,175.0677 L 208.4792,175.0677 L 208.4844,176.7396 L 208.4844,176.7396 L 210.8542,176.7292 L 210.8542,176.7292 L 217.7083,176.6458 L 217.7083,176.6458 L 217.6927,175.5365 L 217.6927,175.5365 L 221.7031,175.4896 L 221.7031,175.4896 L 221.7500,179.3229 L 221.7500,179.3229 L 235.9583,179.1198 L 235.9583,179.1198 L 235.9167,175.5156 L 235.9167,175.5156 L 240.3594,175.4635 L 240.3594,175.4635 L 240.2448,166.3281 L 240.2448,166.3281 L 237.2969,166.4063 L 237.2969,166.4063 L 225.2760,166.7031 L 225.2760,166.7031 L 225.3021,164.6354 L 225.3021,164.6354 L 218.3229,164.5781 L 218.3229,164.5781 L 213.8177,164.5365 L 213.8177,164.5365 L 208.4740,164.4948 L 208.4740,164.4948 L 208.5104,167.4635 L 208.5104,167.4635 L 185.2552,167.6979 L 185.2552,167.6979 L 185.2292,169.4479 L 185.2292,169.4479 L 185.1979,171.7448 L 185.1979,171.7448 L 183.0990,171.6823 L 183.0990,171.6823 L 183.0885,176.2760 L 183.0885,176.2760 L 183.0781,181.1615 L 183.0781,181.1615 L 183.0781,181.1615 Z" style="fill:#333333;stroke:#000000;stroke-width:0.3" />
    <path id="obstacle_30" inkscape:label="obstacle" d="M 202.0781,54.9583 L 202.0781,54.9583 L 202.1563,61.2448 L 202.1563,61.2448 L 208.6094,61.1615 L 208.6094,61.1615 L 208.6302,62.5937 L 208.6302,62.5937 L 231.1615,62.2813 L 231.1615,62.2813 L 235.1875,62.2292 L 235.1875,62.2292 L 235.5313,87.3490 L 235.5313,87.3490 L 224.1094,87.5052 L 224.1094,87.5052 L 224.3385,104.4115 L 224.3385,104.4115 L 217.3333,104.5052 L 217.3333,104.5052 L 217.4635,113.9531 L 217.4635,113.9531 L 219.9167,113.9167 L 219.9167,113.9167 L 223.2813,113.8698 L 223.2813,113.8698 L 223.5573,133.7396 L 223.5573,133.7396 L 224.3594,133.7344 L 224.3594,133.7344 L 224.4583,141.4479 L 224.4583,141.4479 L 228.7656,141.3854 L 228.7656,141.3854 L 232.5469,141.3333 L 232.5469,141.3333 L 232.4792,136.4583 L 232.4792,136.4583 L 232.4427,133.6510 L 232.4427,133.6510 L 232.3750,128.4479 L 232.3750,128.4479 L 235.8958,128.3958 L 235.8958,128.3958 L 235.8646,126.0052 L 235.8646,126.0052 L 232.3073,126.0521 L 232.3073,126.0521 L 231.9896,102.7552 L 231.9896,102.7552 L 231.9010,96.2240 L 231.9010,96.2240 L 244.0313,96.0573 L 244.0313,96.0573 L 243.9531,90.5937 L 243.9531,90.5937 L 243.9219,88.1198 L 243.9219,88.1198 L 243.4479,53.5104 L 243.4479,53.5104 L 232.9063,53.6510 L 232.9063,53.6510 L 208.7135,53.9792 L 208.7135,53.9792 L 208.7240,54.8646 L 208.7240,54.8646 L 204.1146,54.9271 L 204.1146,54.9271 L 202.0781,54.9583 L 202.0781,54.9583 L 202.0781,54.9583 Z" style="fill:#333333;stroke:#000000;stroke-width:0.3" />
    <path id="obstacle_31" inkscape:label="obstacle" d="M 171.0573,131.3594 L 171.0573,131.3594 L 171.2708,142.0260 L 171.2708,142.0260 L 173.4271,142.1250 L 173.4271,142.1250 L 173.4635,143.5990 L 173.4635,143.5990 L 172.5625,143.6927 L 172.5625,143.6927 L 172.5365,147.3333 L 172.5365,147.3333 L 176.3594,151.1563 L 176.3594,151.1563 L 177.7396,151.2344 L 177.7396,151.2344 L 178.7344,151.1719 L 178.7344,151.1719 L 178.8854,156.2448 L 178.8854,156.2448 L 181.3229,158.6510 L 181.3229,158.6510 L 183.1875,158.6719 L 183.1875,158.6719 L 190.6667,158.7396 L 190.6667,158.7396 L 190.4792,155.7500 L 190.4792,155.7500 L 194.8854,155.6875 L 194.8854,155.6875 L 207.0937,155.8490 L 207.0937,155.8490 L 209.0990,153.5729 L 209.0990,153.5729 L 217.5677,153.5469 L 217.5677,153.5469 L 218.8229,155.1771 L 218.8229,155.1771 L 226.0937,154.9896 L 226.0937,154.9896 L 228.2292,153.7344 L 228.2292,153.7344 L 232.1979,153.6719 L 232.1979,153.6719 L 232.5469,141.3333 L 232.5469,141.3333 L 228.7656,141.3854 L 228.7656,141.3854 L 224.4583,141.4479 L 224.4583,141.4479 L 223.9948,141.4531 L 223.9948,141.4531 L 223.9896,143.2917 L 223.9896,143.2917 L 215.3958,143.3958 L 215.3958,143.3958 L 213.2031,141.5885 L 213.2031,141.5885 L 194.5260,141.6302 L 194.5260,141.6302 L 192.8281,140.0000 L 192.8281,140.0000 L 191.4583,138.6771 L 191.4583,138.6771 L 191.3802,118.8698 L 191.3802,118.8698 L 185.8437,118.9687 L 185.8437,118.9687 L 186.0729,126.6406 L 186.0729,126.6406 L 175.6823,126.9167 L 175.6823,126.9167 L 171.0573,131.3594 L 171.0573,131.3594 L 171.0573,131.3594 Z" style="fill:#333333;stroke:#000000;stroke-width:0.3" />
    <path id="obstacle_32" inkscape:label="obstacle" d="M 264.1771,84.3854 L 264.1771,84.3854 L 264.4167,92.5469 L 264.4167,92.5469 L 269.7760,92.4687 L 269.7760,92.4687 L 269.6146,88.3490 L 269.6146,88.3490 L 274.7760,83.2187 L 274.7760,83.2187 L 281.6615,83.2240 L 281.6615,83.2240 L 282.0729,104.5885 L 282.0729,104.5885 L 287.4792,104.5990 L 287.4792,104.5990 L 287.0208,76.7396 L 287.0208,76.7396 L 271.0573,77.0469 L 271.0573,77.0469 L 264.1771,84.3854 L 264.1771,84.3854 L 264.1771,84.3854 Z" style="fill:#333333;stroke:#000000;stroke-width:0.3" />
    <path id="obstacle_33" inkscape:label="obstacle" d="M 264.4740,95.5521 L 264.4740,95.5521 L 264.9687,118.1719 L 264.9687,118.1719 L 275.2240,118.1406 L 275.2240,118.1406 L 275.2656,109.0000 L 275.2656,109.0000 L 269.9167,108.9740 L 269.9167,108.9740 L 269.8385,95.4896 L 269.8385,95.4896 L 264.4740,95.5521 L 264.4740,95.5521 L 264.4740,95.5521 Z" style="fill:#333333;stroke:#000000;stroke-width:0.3" />
    <path id="obstacle_34" inkscape:label="obstacle" d="M 98.3958,209.1302 L 98.3958,209.1302 L 98.5469,215.7448 L 98.5469,215.7448 L 100.7187,215.6927 L 100.7187,215.6927 L 100.5677,209.0833 L 100.5677,209.0833 L 98.3958,209.1302 L 98.3958,209.1302 L 98.3958,209.1302 Z" style="fill:#333333;stroke:#000000;stroke-width:0.3" />
  </g>
  <g id="robot_layer" inkscape:label="Robot" inkscape:groupmode="layer">
    <rect id="robot_spawn_zone_0" inkscape:label="robot_spawn_zone" x="309.3100" y="176.7500" width="5.2500" height="5.2500" style="fill:#ffdf00;stroke:none;stroke-width:0.5" />
    <rect id="robot_spawn_zone_1" inkscape:label="robot_spawn_zone" x="227.9400" y="224.8800" width="5.6800" height="4.8100" style="fill:#ffdf00;stroke:none;stroke-width:0.5" />
    <rect id="robot_spawn_zone_2" inkscape:label="robot_spawn_zone" x="176.7500" y="120.8800" width="5.6900" height="4.3700" style="fill:#ffdf00;stroke:none;stroke-width:0.5" />
    <rect id="robot_spawn_zone_3" inkscape:label="robot_spawn_zone" x="262.0600" y="213.9400" width="3.0600" height="1.7500" style="fill:#ffdf00;stroke:none;stroke-width:0.5" />
    <rect id="robot_spawn_zone_4" inkscape:label="robot_spawn_zone" x="259.8800" y="154.4400" width="3.0600" height="3.9400" style="fill:#ffdf00;stroke:none;stroke-width:0.5" />
    <rect id="robot_spawn_zone_5" inkscape:label="robot_spawn_zone" x="61.2500" y="33.6900" width="7.8700" height="7.0000" style="fill:#ffdf00;stroke:none;stroke-width:0.5" />
    <rect id="robot_spawn_zone_6" inkscape:label="robot_spawn_zone" x="56.4400" y="142.6200" width="7.0000" height="3.9400" style="fill:#ffdf00;stroke:none;stroke-width:0.5" />
    <rect id="robot_spawn_zone_7" inkscape:label="robot_spawn_zone" x="91.8800" y="179.3800" width="3.5000" height="6.3700" style="fill:#ffdf00;stroke:none;stroke-width:0.5" />
    <rect id="robot_spawn_zone_8" inkscape:label="robot_spawn_zone" x="210.8800" y="154.8800" width="4.3700" height="4.0600" style="fill:#ffdf00;stroke:none;stroke-width:0.5" />
    <rect id="robot_spawn_zone_9" inkscape:label="robot_spawn_zone" x="131.6900" y="138.5600" width="4.3700" height="3.6300" style="fill:#ffdf00;stroke:none;stroke-width:0.5" />
    <rect id="robot_spawn_zone_10" inkscape:label="robot_spawn_zone" x="183.4400" y="204.3100" width="3.3700" height="5.2500" style="fill:#ffdf00;stroke:none;stroke-width:0.5" />
    <rect id="robot_goal_zone_0" inkscape:label="robot_goal_zone" x="309.3100" y="176.7500" width="5.2500" height="5.2500" style="fill:#ff6c00;stroke:none;stroke-width:0.5" />
    <rect id="robot_goal_zone_1" inkscape:label="robot_goal_zone" x="227.9400" y="224.8800" width="5.6800" height="4.8100" style="fill:#ff6c00;stroke:none;stroke-width:0.5" />
    <rect id="robot_goal_zone_2" inkscape:label="robot_goal_zone" x="176.7500" y="120.8800" width="5.6900" height="4.3700" style="fill:#ff6c00;stroke:none;stroke-width:0.5" />
    <rect id="robot_goal_zone_3" inkscape:label="robot_goal_zone" x="262.0600" y="213.9400" width="3.0600" height="1.7500" style="fill:#ff6c00;stroke:none;stroke-width:0.5" />
    <rect id="robot_goal_zone_4" inkscape:label="robot_goal_zone" x="259.8800" y="154.4400" width="3.0600" height="3.9400" style="fill:#ff6c00;stroke:none;stroke-width:0.5" />
    <rect id="robot_goal_zone_5" inkscape:label="robot_goal_zone" x="61.2500" y="33.6900" width="7.8700" height="7.0000" style="fill:#ff6c00;stroke:none;stroke-width:0.5" />
    <rect id="robot_goal_zone_6" inkscape:label="robot_goal_zone" x="56.4400" y="142.6200" width="7.0000" height="3.9400" style="fill:#ff6c00;stroke:none;stroke-width:0.5" />
    <rect id="robot_goal_zone_7" inkscape:label="robot_goal_zone" x="91.8800" y="179.3800" width="3.5000" height="6.3700" style="fill:#ff6c00;stroke:none;stroke-width:0.5" />
    <rect id="robot_goal_zone_8" inkscape:label="robot_goal_zone" x="210.8800" y="154.8800" width="4.3700" height="4.0600" style="fill:#ff6c00;stroke:none;stroke-width:0.5" />
    <rect id="robot_goal_zone_9" inkscape:label="robot_goal_zone" x="131.6900" y="138.5600" width="4.3700" height="3.6300" style="fill:#ff6c00;stroke:none;stroke-width:0.5" />
    <rect id="robot_goal_zone_10" inkscape:label="robot_goal_zone" x="183.4400" y="204.3100" width="3.3700" height="5.2500" style="fill:#ff6c00;stroke:none;stroke-width:0.5" />
    <path id="robot_route_0" inkscape:label="robot_route_1_10" d="M 230.1200,230.5600 L 229.2500,233.1900 L 224.8800,235.3800 L 215.6900,236.2500 L 211.7500,235.3800 L 206.5000,235.3800 L 195.1200,235.3800 L 185.5000,234.9400 L 182.0000,233.1900 L 180.6900,226.1900 L 181.1200,220.5000 L 181.5600,213.9400 L 182.8800,209.5600" style="fill:none;stroke:#0000cc;stroke-width:0.4" />
    <path id="robot_route_1" inkscape:label="robot_route_10_1" d="M 182.8800,209.5600 L 181.5600,213.9400 L 181.1200,220.5000 L 180.6900,226.1900 L 182.0000,233.1900 L 185.5000,234.9400 L 195.1200,235.3800 L 206.5000,235.3800 L 211.7500,235.3800 L 215.6900,236.2500 L 224.8800,235.3800 L 229.2500,233.1900 L 230.1200,230.5600" style="fill:none;stroke:#0000cc;stroke-width:0.4" />
    <path id="robot_route_2" inkscape:label="robot_route_8_0" d="M 216.1200,158.8100 L 220.0600,159.6900 L 230.5600,160.5600 L 235.8100,159.2500 L 244.1200,159.2500 L 255.0600,158.8100 L 262.9400,158.8100 L 274.3100,160.5600 L 284.8100,162.3100 L 290.9400,166.2500 L 298.8100,169.3100 L 306.2500,168.4400 L 310.6200,173.2500" style="fill:none;stroke:#0000cc;stroke-width:0.4" />
    <path id="robot_route_3" inkscape:label="robot_route_0_8" d="M 310.6200,173.2500 L 306.2500,168.4400 L 298.8100,169.3100 L 290.9400,166.2500 L 284.8100,162.3100 L 274.3100,160.5600 L 262.9400,158.8100 L 255.0600,158.8100 L 244.1200,159.2500 L 235.8100,159.2500 L 230.5600,160.5600 L 220.0600,159.6900 L 216.1200,158.8100" style="fill:none;stroke:#0000cc;stroke-width:0.4" />
    <path id="robot_route_4" inkscape:label="robot_route_2_9" d="M 174.5600,122.9400 L 170.6200,125.5600 L 169.7500,127.3100 L 168.0000,134.3100 L 168.0000,143.5000 L 170.6200,149.6200 L 173.2500,157.0600 L 174.1200,163.1900 L 173.2500,167.1200 L 169.3100,168.4400 L 164.5000,168.4400 L 159.2500,166.6900 L 152.2500,164.9400 L 148.7500,163.1900 L 142.1900,157.5000 L 137.8100,154.4400 L 133.0000,150.0600 L 133.4400,144.8100 L 133.8800,142.6200" style="fill:none;stroke:#0000cc;stroke-width:0.4" />
    <path id="robot_route_5" inkscape:label="robot_route_9_2" d="M 133.8800,142.6200 L 133.4400,144.8100 L 133.0000,150.0600 L 137.8100,154.4400 L 142.1900,157.5000 L 148.7500,163.1900 L 152.2500,164.9400 L 159.2500,166.6900 L 164.5000,168.4400 L 169.3100,168.4400 L 173.2500,167.1200 L 174.1200,163.1900 L 173.2500,157.0600 L 170.6200,149.6200 L 168.0000,143.5000 L 168.0000,134.3100 L 169.7500,127.3100 L 170.6200,125.5600 L 174.5600,122.9400" style="fill:none;stroke:#0000cc;stroke-width:0.4" />
    <path id="robot_route_6" inkscape:label="robot_route_6_7" d="M 65.1900,144.8100 L 71.3100,143.0600 L 77.8800,143.0600 L 91.4400,144.8100 L 98.0000,145.6900 L 106.3100,144.8100 L 115.9400,144.8100 L 122.0600,145.6900 L 123.8100,153.1200 L 122.9400,164.0600 L 121.1900,170.6200 L 119.8800,172.8100 L 114.1900,173.2500 L 106.7500,172.8100 L 100.6200,173.2500 L 93.1900,173.2500 L 93.1900,176.7500" style="fill:none;stroke:#0000cc;stroke-width:0.4" />
    <path id="robot_route_7" inkscape:label="robot_route_7_6" d="M 93.1900,176.7500 L 93.1900,173.2500 L 100.6200,173.2500 L 106.7500,172.8100 L 114.1900,173.2500 L 119.8800,172.8100 L 121.1900,170.6200 L 122.9400,164.0600 L 123.8100,153.1200 L 122.0600,145.6900 L 115.9400,144.8100 L 106.3100,144.8100 L 98.0000,145.6900 L 91.4400,144.8100 L 77.8800,143.0600 L 71.3100,143.0600 L 65.1900,144.8100" style="fill:none;stroke:#0000cc;stroke-width:0.4" />
    <path id="robot_route_8" inkscape:label="robot_route_3_4" d="M 267.3100,212.6200 L 273.8800,210.8800 L 280.0000,210.8800 L 286.1200,210.0000 L 292.2500,206.0600 L 293.5600,199.0600 L 294.0000,189.8800 L 294.0000,182.8800 L 290.0600,174.5600 L 287.8800,165.8100 L 279.5600,159.6900 L 273.4400,159.6900 L 267.3100,158.8100 L 264.2500,157.9400" style="fill:none;stroke:#0000cc;stroke-width:0.4" />
    <path id="robot_route_9" inkscape:label="robot_route_4_3" d="M 264.2500,157.9400 L 267.3100,158.8100 L 273.4400,159.6900 L 279.5600,159.6900 L 287.8800,165.8100 L 290.0600,174.5600 L 294.0000,182.8800 L 294.0000,189.8800 L 293.5600,199.0600 L 292.2500,206.0600 L 286.1200,210.0000 L 280.0000,210.8800 L 273.8800,210.8800 L 267.3100,212.6200" style="fill:none;stroke:#0000cc;stroke-width:0.4" />
    <path id="robot_route_10" inkscape:label="robot_route_8_5" d="M 210.0000,157.5000 L 203.8800,161.0000 L 199.5000,161.8800 L 193.3800,162.7500 L 187.6900,162.7500 L 179.3800,162.7500 L 174.1200,157.5000 L 169.3100,147.0000 L 168.0000,138.2500 L 168.4400,128.6200 L 169.3100,120.3100 L 173.6900,115.0600 L 173.2500,104.1200 L 171.9400,94.0600 L 167.5600,86.1900 L 161.4400,84.8800 L 157.0600,83.5600 L 148.7500,87.0600 L 142.1900,87.9400 L 126.0000,88.3800 L 113.7500,87.0600 L 103.2500,83.5600 L 96.6900,80.0600 L 84.0000,77.0000 L 73.5000,72.6200 L 67.3800,62.5600 L 64.3100,54.2500 L 63.8800,46.8100" style="fill:none;stroke:#0000cc;stroke-width:0.4" />
    <path id="robot_route_11" inkscape:label="robot_route_5_8" d="M 63.8800,46.8100 L 64.3100,54.2500 L 67.3800,62.5600 L 73.5000,72.6200 L 84.0000,77.0000 L 96.6900,80.0600 L 103.2500,83.5600 L 113.7500,87.0600 L 126.0000,88.3800 L 142.1900,87.9400 L 148.7500,87.0600 L 157.0600,83.5600 L 161.4400,84.8800 L 167.5600,86.1900 L 171.9400,94.0600 L 173.2500,104.1200 L 173.6900,115.0600 L 169.3100,120.3100 L 168.4400,128.6200 L 168.0000,138.2500 L 169.3100,147.0000 L 174.1200,157.5000 L 179.3800,162.7500 L 187.6900,162.7500 L 193.3800,162.7500 L 199.5000,161.8800 L 203.8800,161.0000 L 210.0000,157.5000" style="fill:none;stroke:#0000cc;stroke-width:0.4" />
    <path id="robot_route_12" inkscape:label="robot_route_0_5" d="M 308.4400,176.3100 L 304.9400,171.5000 L 300.1200,169.3100 L 293.5600,168.8800 L 288.7500,165.8100 L 278.6900,162.3100 L 271.2500,161.4400 L 262.0600,160.5600 L 252.0000,159.2500 L 245.0000,159.2500 L 237.1200,159.2500 L 226.6200,158.3800 L 218.7500,158.8100 L 209.1200,158.8100 L 201.2500,160.5600 L 193.3800,161.0000 L 183.3100,162.7500 L 175.4400,165.3800 L 166.2500,167.1200 L 158.3800,164.5000 L 145.6900,160.5600 L 140.8800,155.7500 L 135.1900,150.5000 L 123.3800,146.1200 L 115.0600,141.7500 L 103.2500,141.7500 L 94.5000,142.6200 L 81.3800,139.1200 L 72.6200,136.0600 L 68.2500,126.4400 L 67.8100,116.3800 L 70.8800,113.7500 L 73.0600,110.6900 L 72.6200,102.3800 L 71.3100,94.5000 L 70.8800,84.4400 L 71.3100,77.4400 L 69.5600,68.6900 L 66.9400,60.8100 L 65.6200,51.6200 L 65.1900,45.0600" style="fill:none;stroke:#0000cc;stroke-width:0.4" />
    <path id="robot_route_13" inkscape:label="robot_route_5_0" d="M 65.1900,45.0600 L 65.6200,51.6200 L 66.9400,60.8100 L 69.5600,68.6900 L 71.3100,77.4400 L 70.8800,84.4400 L 71.3100,94.5000 L 72.6200,102.3800 L 73.0600,110.6900 L 70.8800,113.7500 L 67.8100,116.3800 L 68.2500,126.4400 L 72.6200,136.0600 L 81.3800,139.1200 L 94.5000,142.6200 L 103.2500,141.7500 L 115.0600,141.7500 L 123.3800,146.1200 L 135.1900,150.5000 L 140.8800,155.7500 L 145.6900,160.5600 L 158.3800,164.5000 L 166.2500,167.1200 L 175.4400,165.3800 L 183.3100,162.7500 L 193.3800,161.0000 L 201.2500,160.5600 L 209.1200,158.8100 L 218.7500,158.8100 L 226.6200,158.3800 L 237.1200,159.2500 L 245.0000,159.2500 L 252.0000,159.2500 L 262.0600,160.5600 L 271.2500,161.4400 L 278.6900,162.3100 L 288.7500,165.8100 L 293.5600,168.8800 L 300.1200,169.3100 L 304.9400,171.5000 L 308.4400,176.3100" style="fill:none;stroke:#0000cc;stroke-width:0.4" />
    <path id="robot_route_14" inkscape:label="robot_route_4_1" d="M 264.6900,158.8100 L 272.1200,160.1200 L 280.8800,160.5600 L 286.1200,163.1900 L 289.1900,171.9400 L 293.1200,178.0600 L 293.5600,184.1900 L 293.5600,196.0000 L 294.0000,202.5600 L 294.0000,209.5600 L 293.5600,217.0000 L 294.0000,224.0000 L 293.5600,232.3100 L 287.8800,234.0600 L 278.2500,234.5000 L 266.8800,234.9400 L 259.4400,234.9400 L 248.9400,235.3800 L 240.6200,234.9400 L 231.8800,233.1900" style="fill:none;stroke:#0000cc;stroke-width:0.4" />
    <path id="robot_route_15" inkscape:label="robot_route_1_4" d="M 231.8800,233.1900 L 240.6200,234.9400 L 248.9400,235.3800 L 259.4400,234.9400 L 266.8800,234.9400 L 278.2500,234.5000 L 287.8800,234.0600 L 293.5600,232.3100 L 294.0000,224.0000 L 293.5600,217.0000 L 294.0000,209.5600 L 294.0000,202.5600 L 293.5600,196.0000 L 293.5600,184.1900 L 293.1200,178.0600 L 289.1900,171.9400 L 286.1200,163.1900 L 280.8800,160.5600 L 272.1200,160.1200 L 264.6900,158.8100" style="fill:none;stroke:#0000cc;stroke-width:0.4" />
  </g>
  <g id="ped_layer" inkscape:label="Pedestrian" inkscape:groupmode="layer">
    <rect id="ped_spawn_zone_0" inkscape:label="ped_spawn_zone" x="331.6200" y="160.5600" width="8.7600" height="8.3200" style="fill:#23ff00;stroke:none;stroke-width:0.5" />
    <rect id="ped_spawn_zone_1" inkscape:label="ped_spawn_zone" x="180.2500" y="57.3100" width="6.1300" height="7.4400" style="fill:#23ff00;stroke:none;stroke-width:0.5" />
    <rect id="ped_spawn_zone_2" inkscape:label="ped_spawn_zone" x="15.3100" y="119.0000" width="7.4400" height="7.0000" style="fill:#23ff00;stroke:none;stroke-width:0.5" />
    <rect id="ped_spawn_zone_3" inkscape:label="ped_spawn_zone" x="84.8800" y="189.4400" width="6.5600" height="7.4400" style="fill:#23ff00;stroke:none;stroke-width:0.5" />
    <rect id="ped_spawn_zone_4" inkscape:label="ped_spawn_zone" x="211.7500" y="207.3800" width="7.4400" height="7.0000" style="fill:#23ff00;stroke:none;stroke-width:0.5" />
    <rect id="ped_spawn_zone_5" inkscape:label="ped_spawn_zone" x="98.0000" y="94.9400" width="6.5600" height="7.8700" style="fill:#23ff00;stroke:none;stroke-width:0.5" />
    <rect id="ped_spawn_zone_6" inkscape:label="ped_spawn_zone" x="146.5600" y="176.7500" width="7.4400" height="7.0000" style="fill:#23ff00;stroke:none;stroke-width:0.5" />
    <rect id="ped_goal_zone_0" inkscape:label="ped_goal_zone" x="331.6200" y="160.5600" width="8.7600" height="8.3200" style="fill:#107400;stroke:none;stroke-width:0.5" />
    <rect id="ped_goal_zone_1" inkscape:label="ped_goal_zone" x="180.2500" y="57.3100" width="6.1300" height="7.4400" style="fill:#107400;stroke:none;stroke-width:0.5" />
    <rect id="ped_goal_zone_2" inkscape:label="ped_goal_zone" x="15.3100" y="119.0000" width="7.4400" height="7.0000" style="fill:#107400;stroke:none;stroke-width:0.5" />
    <rect id="ped_goal_zone_3" inkscape:label="ped_goal_zone" x="84.8800" y="189.4400" width="6.5600" height="7.4400" style="fill:#107400;stroke:none;stroke-width:0.5" />
    <rect id="ped_goal_zone_4" inkscape:label="ped_goal_zone" x="211.7500" y="207.3800" width="7.4400" height="7.0000" style="fill:#107400;stroke:none;stroke-width:0.5" />
    <rect id="ped_goal_zone_5" inkscape:label="ped_goal_zone" x="98.0000" y="94.9400" width="6.5600" height="7.8700" style="fill:#107400;stroke:none;stroke-width:0.5" />
    <rect id="ped_goal_zone_6" inkscape:label="ped_goal_zone" x="146.5600" y="176.7500" width="7.4400" height="7.0000" style="fill:#107400;stroke:none;stroke-width:0.5" />
    <rect id="ped_crowded_zone_0" inkscape:label="ped_crowded_zone" x="45.5000" y="118.5600" width="27.1200" height="21.6900" style="fill:#ff0000;stroke:none;stroke-width:0.2" />
    <rect id="ped_crowded_zone_1" inkscape:label="ped_crowded_zone" x="80.5000" y="140.4400" width="14.8800" height="10.9400" style="fill:#ff0000;stroke:none;stroke-width:0.2" />
    <rect id="ped_crowded_zone_2" inkscape:label="ped_crowded_zone" x="120.7500" y="142.7500" width="17.9400" height="9.9400" style="fill:#ff0000;stroke:none;stroke-width:0.2" />
    <rect id="ped_crowded_zone_3" inkscape:label="ped_crowded_zone" x="172.3800" y="160.1200" width="8.7400" height="10.9400" style="fill:#ff0000;stroke:none;stroke-width:0.2" />
    <rect id="ped_crowded_zone_4" inkscape:label="ped_crowded_zone" x="285.6900" y="155.3100" width="8.7500" height="24.9400" style="fill:#ff0000;stroke:none;stroke-width:0.2" />
    <rect id="ped_crowded_zone_5" inkscape:label="ped_crowded_zone" x="305.8100" y="152.6900" width="10.0700" height="22.4300" style="fill:#ff0000;stroke:none;stroke-width:0.2" />
    <path id="ped_route_0" inkscape:label="ped_route_3_6" d="M 87.9400,187.2500 L 87.9400,183.7500 L 87.9400,178.9400 L 89.6900,174.5600 L 93.6200,172.8100 L 98.0000,172.8100 L 103.2500,172.8100 L 107.1900,172.8100 L 112.0000,173.2500 L 121.1900,172.3800 L 124.6900,169.3100 L 125.5600,162.3100 L 124.6900,160.5600 L 125.1200,155.3100 L 126.8800,153.1200 L 131.6900,151.3800 L 134.3100,151.8100 L 138.2500,154.8800 L 141.3100,157.5000 L 145.6900,159.6900 L 150.9400,163.6200 L 152.6900,166.2500 L 151.8100,171.5000 L 150.0600,175.8800" style="fill:none;stroke:#cc0000;stroke-width:0.4" />
    <path id="ped_route_1" inkscape:label="ped_route_6_3" d="M 150.0600,175.8800 L 151.8100,171.5000 L 152.6900,166.2500 L 150.9400,163.6200 L 145.6900,159.6900 L 141.3100,157.5000 L 138.2500,154.8800 L 134.3100,151.8100 L 131.6900,151.3800 L 126.8800,153.1200 L 125.1200,155.3100 L 124.6900,160.5600 L 125.5600,162.3100 L 124.6900,169.3100 L 121.1900,172.3800 L 112.0000,173.2500 L 107.1900,172.8100 L 103.2500,172.8100 L 98.0000,172.8100 L 93.6200,172.8100 L 89.6900,174.5600 L 87.9400,178.9400 L 87.9400,183.7500 L 87.9400,187.2500" style="fill:none;stroke:#cc0000;stroke-width:0.4" />
    <path id="ped_route_2" inkscape:label="ped_route_2_5" d="M 24.5000,122.5000 L 31.5000,122.0600 L 41.1200,120.7500 L 49.4400,118.5600 L 60.3800,116.8100 L 69.5600,115.0600 L 72.6200,114.1900 L 73.0600,113.3100 L 73.5000,109.3800 L 73.0600,106.7500 L 72.1900,101.9400 L 70.8800,96.2500 L 69.1200,90.5600 L 70.4400,84.4400 L 71.3100,79.6200 L 75.6900,75.6900 L 86.1900,73.9400 L 99.7500,77.8800 L 101.9400,83.1200 L 100.6200,91.0000" style="fill:none;stroke:#cc0000;stroke-width:0.4" />
    <path id="ped_route_3" inkscape:label="ped_route_2_6" d="M 24.5000,122.9400 L 31.9400,122.9400 L 36.7500,123.3800 L 45.0600,123.8100 L 54.6900,125.5600 L 64.3100,129.9400 L 70.8800,132.5600 L 75.2500,134.3100 L 80.5000,138.6900 L 79.6200,143.9400 L 74.8100,143.0600 L 70.8800,140.0000 L 71.7500,138.6900 L 74.8100,138.2500 L 80.0600,139.5600 L 86.6200,141.7500 L 90.1200,142.6200 L 100.1900,143.5000 L 105.0000,144.3800 L 112.0000,145.1200 L 119.4400,145.5000 L 124.6900,148.7500 L 129.0600,150.0600 L 135.1900,152.6900 L 139.5600,154.4400 L 143.0600,158.3800 L 146.1200,162.3100 L 150.5000,165.3800 L 151.3800,166.6900 L 151.3800,169.7500 L 151.8100,171.9400" style="fill:none;stroke:#cc0000;stroke-width:0.4" />
    <path id="ped_route_4" inkscape:label="ped_route_6_0" d="M 152.2500,175.0000 L 153.1200,168.8800 L 158.3800,166.6900 L 166.6900,168.8800 L 170.1900,168.8800 L 178.0600,166.2500 L 185.5000,163.1900 L 194.6900,162.7500 L 206.5000,161.0000 L 210.0000,160.5600 L 215.2500,160.5600 L 224.4400,160.5600 L 234.9400,159.2500 L 243.6900,159.6900 L 254.1900,159.6900 L 265.5600,160.5600 L 272.5600,161.0000 L 279.1200,160.5600 L 286.5600,163.1900 L 293.1200,168.0000 L 296.1900,168.4400 L 300.5600,168.4400 L 307.1200,169.3100 L 312.8100,168.8800 L 318.0600,168.8800 L 325.0600,168.8800 L 330.3100,168.8800" style="fill:none;stroke:#cc0000;stroke-width:0.4" />
    <path id="ped_route_5" inkscape:label="ped_route_0_1" d="M 328.5600,168.0000 L 320.2500,169.3100 L 314.1200,168.8800 L 307.5600,168.4400 L 299.2500,168.0000 L 292.6900,167.1200 L 290.0600,163.6200 L 280.8800,161.8800 L 270.3800,160.1200 L 258.1200,160.5600 L 249.8100,159.6900 L 241.9400,159.2500 L 227.0600,159.6900 L 219.1900,160.5600 L 213.5000,160.5600 L 205.1900,161.4400 L 198.1900,161.8800 L 191.6200,161.8800 L 185.0600,161.8800 L 175.4400,160.5600 L 169.7500,149.6200 L 167.5600,140.0000 L 168.0000,127.7500 L 172.8100,120.3100 L 175.0000,110.2500 L 172.8100,97.5600 L 174.5600,81.3800 L 173.6900,70.0000 L 174.1200,63.8800 L 178.9400,61.6900" style="fill:none;stroke:#cc0000;stroke-width:0.4" />
    <path id="ped_route_6" inkscape:label="ped_route_0_6" d="M 329.0000,167.5600 L 315.8800,168.8800 L 312.3800,168.4400 L 305.8100,168.4400 L 299.2500,168.4400 L 294.0000,168.4400 L 293.5600,171.9400 L 293.5600,177.1900 L 294.0000,182.0000 L 293.1200,188.5600 L 293.1200,193.3800 L 292.6900,200.3800 L 293.1200,204.3100 L 294.4400,207.3800 L 294.0000,216.1200 L 293.5600,222.6900 L 295.3100,227.5000 L 294.0000,231.0000 L 292.2500,233.6200 L 290.0600,234.5000 L 283.5000,235.3800 L 280.4400,235.3800 L 271.2500,234.9400 L 266.4400,234.9400 L 258.1200,235.3800 L 249.8100,235.3800 L 241.0600,235.3800 L 236.6900,235.3800 L 227.0600,235.3800 L 217.4400,235.3800 L 211.7500,236.2500 L 203.0000,235.8100 L 193.8100,236.6900 L 183.3100,235.8100 L 181.5600,231.4400 L 178.5000,224.0000 L 179.8100,215.2500 L 182.0000,206.9400 L 182.0000,198.1900 L 181.1200,189.4400 L 178.9400,180.6900 L 176.3100,172.3800 L 174.1200,166.6900 L 168.8800,168.4400 L 161.4400,168.4400 L 157.0600,171.9400 L 154.4400,173.6900" style="fill:none;stroke:#cc0000;stroke-width:0.4" />
    <path id="ped_route_7" inkscape:label="ped_route_4_4" d="M 209.5600,211.3100 L 206.5000,213.0600 L 205.6200,218.3100 L 204.3100,227.0600 L 206.0600,230.5600 L 207.3800,234.0600 L 210.8800,234.9400 L 219.1900,234.0600 L 227.0600,234.5000 L 233.6200,235.3800 L 241.9400,235.3800 L 252.8800,234.9400 L 255.9400,234.9400 L 262.0600,234.9400 L 272.1200,234.9400 L 277.8100,234.9400 L 284.3800,234.9400 L 290.9400,234.0600 L 293.5600,232.7500 L 293.5600,225.3100 L 294.4400,218.7500 L 290.9400,213.5000 L 285.6900,211.3100 L 276.5000,210.0000 L 270.8100,210.4400 L 262.0600,211.3100 L 259.4400,212.6200 L 252.4400,212.6200 L 244.1200,211.7500 L 236.2500,212.6200 L 231.0000,212.6200 L 227.0600,212.1900 L 222.2500,211.3100" style="fill:none;stroke:#cc0000;stroke-width:0.4" />
    <path id="ped_route_8" inkscape:label="ped_route_4_0" d="M 221.8100,210.8800 L 229.2500,210.8800 L 235.8100,211.7500 L 242.8100,211.7500 L 249.3800,211.7500 L 257.6900,212.1900 L 269.9400,211.7500 L 278.6900,210.8800 L 283.5000,211.3100 L 290.5000,210.0000 L 292.2500,205.6200 L 291.8100,198.1900 L 293.1200,192.9400 L 293.1200,186.8100 L 293.1200,178.0600 L 294.0000,171.5000 L 294.8800,169.3100 L 299.2500,167.5600 L 306.2500,167.5600 L 315.0000,168.8800 L 323.7500,168.8800 L 330.3100,169.7500" style="fill:none;stroke:#cc0000;stroke-width:0.4" />
    <path id="ped_route_9" inkscape:label="ped_route_1_5" d="M 175.4400,62.5600 L 172.3800,66.0600 L 170.1900,72.1900 L 170.1900,77.8800 L 168.8800,83.5600 L 162.3100,84.0000 L 158.8100,84.0000 L 153.1200,83.5600 L 149.1900,85.3100 L 142.1900,87.5000 L 140.0000,87.5000 L 131.2500,87.0600 L 128.1900,87.0600 L 119.0000,88.3800 L 112.8800,88.8100 L 110.2500,89.2500 L 106.7500,91.0000" style="fill:none;stroke:#cc0000;stroke-width:0.4" />
    <path id="ped_route_10" inkscape:label="ped_route_5_4" d="M 108.9400,91.8800 L 117.6900,90.1200 L 128.6200,87.9400 L 139.5600,87.0600 L 149.6200,85.7500 L 159.2500,84.4400 L 169.7500,86.6200 L 171.0600,91.4400 L 174.1200,103.6900 L 170.6200,118.5600 L 170.1900,123.3800 L 168.0000,129.9400 L 166.6900,141.3100 L 168.8800,145.6900 L 173.6900,155.3100 L 177.6200,168.0000 L 178.9400,176.3100 L 178.9400,185.5000 L 180.2500,196.8800 L 179.8100,209.5600 L 178.5000,221.8100 L 182.0000,230.1200 L 186.8100,234.0600 L 197.3100,236.2500 L 203.0000,233.6200 L 203.8800,224.8800 L 204.3100,217.8800 L 208.2500,212.6200" style="fill:none;stroke:#cc0000;stroke-width:0.4" />
    <path id="ped_route_11" inkscape:label="ped_route_5_3" d="M 100.1900,89.6900 L 99.3100,84.8800 L 98.0000,79.6200 L 91.0000,76.5600 L 82.2500,75.6900 L 76.1200,77.0000 L 70.8800,80.5000 L 71.3100,87.9400 L 72.1900,95.8100 L 72.6200,99.7500 L 73.0600,103.6900 L 72.1900,106.3100 L 72.1900,110.2500 L 69.5600,115.0600 L 69.1200,121.1900 L 68.6900,134.3100 L 77.4400,138.2500 L 87.0600,142.1900 L 96.2500,144.3800 L 103.2500,143.0600 L 117.2500,144.3800 L 121.1900,145.2500 L 122.5000,150.5000 L 123.3800,156.1900 L 123.8100,160.1200 L 123.8100,162.7500 L 122.9400,168.8800 L 120.3100,172.3800 L 119.0000,174.1200 L 115.5000,173.6900 L 111.5600,173.2500 L 105.4400,172.8100 L 101.0600,173.2500 L 96.2500,173.2500 L 91.8800,173.2500 L 89.2500,178.5000 L 88.8100,182.4400 L 88.3800,185.9400" style="fill:none;stroke:#cc0000;stroke-width:0.4" />
  </g>
</svg>