<svg xmlns="http://www.w3.org/2000/svg" width="900" height="560" viewBox="0 0 900 560" role="img">
<title>SNQI scalarization sensitivity Pareto diagnostic</title>
<rect width="100%" height="100%" fill="#ffffff"/>
<line x1="90" y1="470" x2="870" y2="470" stroke="#333"/>
<line x1="90" y1="40" x2="90" y2="470" stroke="#333"/>
<text x="450.0" y="536" text-anchor="middle" font-family="sans-serif" font-size="15">Constraints-first score (higher is better)</text>
<text x="24" y="280.0" text-anchor="middle" transform="rotate(-90 24 280.0)" font-family="sans-serif" font-size="15">SNQI mean (higher is better)</text>
<polyline points="767.0,69.7 816.2,128.4" fill="none" stroke="#1f77b4" stroke-width="2.5"/>
<circle cx="767.0" cy="69.7" r="5" fill="#1f77b4"/>
<text x="775.0" y="61.7" font-family="sans-serif" font-size="12">ppo</text>
<circle cx="816.2" cy="128.4" r="5" fill="#1f77b4"/>
<text x="824.2" y="120.4" font-family="sans-serif" font-size="12">hybrid_rule_v3_fast_progress_static_escape</text>
<circle cx="808.3" cy="130.0" r="5" fill="#777777"/>
<text x="816.3" y="122.0" font-family="sans-serif" font-size="12">scenario_adaptive_hybrid_orca_v1</text>
<circle cx="698.4" cy="172.5" r="5" fill="#777777"/>
<text x="706.4" y="164.5" font-family="sans-serif" font-size="12">orca</text>
<circle cx="277.1" cy="251.1" r="5" fill="#777777"/>
<text x="285.1" y="243.1" font-family="sans-serif" font-size="12">socnav_sampling</text>
<circle cx="430.3" cy="322.3" r="5" fill="#777777"/>
<text x="438.3" y="314.3" font-family="sans-serif" font-size="12">prediction_planner</text>
<circle cx="287.8" cy="374.2" r="5" fill="#777777"/>
<text x="295.8" y="366.2" font-family="sans-serif" font-size="12">social_force</text>
<circle cx="143.8" cy="433.0" r="5" fill="#777777"/>
<text x="151.8" y="425.0" font-family="sans-serif" font-size="12">sacadrl</text>
<circle cx="157.3" cy="440.3" r="5" fill="#777777"/>
<text x="165.3" y="432.3" font-family="sans-serif" font-size="12">goal</text>
</svg>
