<svg xmlns="http://www.w3.org/2000/svg" width="900" height="560" viewBox="0 0 900 560" role="img">
<title>SNQI scalarization sensitivity Pareto diagnostic</title>
<rect width="100%" height="100%" fill="#ffffff"/>
<line class="gridline x-gridline" x1="186.4" y1="40" x2="186.4" y2="470" stroke="#E5E5E5"/>
<line class="axis-tick x-axis-tick" x1="186.4" y1="470" x2="186.4" y2="476" stroke="#333"/>
<text class="tick-label x-tick-label" x="186.4" y="492" text-anchor="middle" font-family="sans-serif" font-size="11">-0.75</text>
<line class="gridline x-gridline" x1="338.1" y1="40" x2="338.1" y2="470" stroke="#E5E5E5"/>
<line class="axis-tick x-axis-tick" x1="338.1" y1="470" x2="338.1" y2="476" stroke="#333"/>
<text class="tick-label x-tick-label" x="338.1" y="492" text-anchor="middle" font-family="sans-serif" font-size="11">-0.50</text>
<line class="gridline x-gridline" x1="489.8" y1="40" x2="489.8" y2="470" stroke="#E5E5E5"/>
<line class="axis-tick x-axis-tick" x1="489.8" y1="470" x2="489.8" y2="476" stroke="#333"/>
<text class="tick-label x-tick-label" x="489.8" y="492" text-anchor="middle" font-family="sans-serif" font-size="11">-0.25</text>
<line class="gridline x-gridline" x1="641.5" y1="40" x2="641.5" y2="470" stroke="#E5E5E5"/>
<line class="axis-tick x-axis-tick" x1="641.5" y1="470" x2="641.5" y2="476" stroke="#333"/>
<text class="tick-label x-tick-label" x="641.5" y="492" text-anchor="middle" font-family="sans-serif" font-size="11">0.00</text>
<line class="gridline x-gridline" x1="793.2" y1="40" x2="793.2" y2="470" stroke="#E5E5E5"/>
<line class="axis-tick x-axis-tick" x1="793.2" y1="470" x2="793.2" y2="476" stroke="#333"/>
<text class="tick-label x-tick-label" x="793.2" y="492" text-anchor="middle" font-family="sans-serif" font-size="11">0.25</text>
<line class="gridline y-gridline" x1="90" y1="455.8" x2="870" y2="455.8" stroke="#E5E5E5"/>
<line class="axis-tick y-axis-tick" x1="84" y1="455.8" x2="90" y2="455.8" stroke="#333"/>
<text class="tick-label y-tick-label" x="80" y="459.8" text-anchor="end" font-family="sans-serif" font-size="11">-0.25</text>
<line class="gridline y-gridline" x1="90" y1="360.0" x2="870" y2="360.0" stroke="#E5E5E5"/>
<line class="axis-tick y-axis-tick" x1="84" y1="360.0" x2="90" y2="360.0" stroke="#333"/>
<text class="tick-label y-tick-label" x="80" y="364.0" text-anchor="end" font-family="sans-serif" font-size="11">-0.20</text>
<line class="gridline y-gridline" x1="90" y1="264.1" x2="870" y2="264.1" stroke="#E5E5E5"/>
<line class="axis-tick y-axis-tick" x1="84" y1="264.1" x2="90" y2="264.1" stroke="#333"/>
<text class="tick-label y-tick-label" x="80" y="268.1" text-anchor="end" font-family="sans-serif" font-size="11">-0.15</text>
<line class="gridline y-gridline" x1="90" y1="168.3" x2="870" y2="168.3" stroke="#E5E5E5"/>
<line class="axis-tick y-axis-tick" x1="84" y1="168.3" x2="90" y2="168.3" stroke="#333"/>
<text class="tick-label y-tick-label" x="80" y="172.3" text-anchor="end" font-family="sans-serif" font-size="11">-0.10</text>
<line class="gridline y-gridline" x1="90" y1="72.4" x2="870" y2="72.4" stroke="#E5E5E5"/>
<line class="axis-tick y-axis-tick" x1="84" y1="72.4" x2="90" y2="72.4" stroke="#333"/>
<text class="tick-label y-tick-label" x="80" y="76.4" text-anchor="end" font-family="sans-serif" font-size="11">-0.05</text>
<line class="axis x-axis" x1="90" y1="470" x2="870" y2="470" stroke="#333"/>
<line class="axis y-axis" x1="90" y1="40" x2="90" y2="470" stroke="#333"/>
<text x="450.0" y="536" text-anchor="middle" font-family="sans-serif" font-size="15">Constraints-first score (higher is better)</text>
<text x="24" y="280.0" text-anchor="middle" transform="rotate(-90 24 280.0)" font-family="sans-serif" font-size="15">SNQI mean (higher is better)</text>
<polyline points="767.0,69.7 816.2,128.4" fill="none" stroke="#1f77b4" stroke-width="2.5"/>
<circle class="point-halo front" cx="816.2" cy="128.4" r="7" fill="white"/>
<circle class="pareto-point front" data-planner="hybrid_rule_v3_fast_progress_static_escape" cx="816.2" cy="128.4" r="5" fill="#1f77b4"/>
<text class="point-index front" x="825.2" y="120.4" text-anchor="start" font-family="sans-serif" font-size="11" font-weight="600" fill="#1f77b4">1</text>
<circle class="point-halo front" cx="767.0" cy="69.7" r="7" fill="white"/>
<circle class="pareto-point front" data-planner="ppo" cx="767.0" cy="69.7" r="5" fill="#1f77b4"/>
<text class="point-index front" x="758.0" y="61.7" text-anchor="end" font-family="sans-serif" font-size="11" font-weight="600" fill="#1f77b4">2</text>
<circle class="point-halo non-front" cx="808.3" cy="130.0" r="7" fill="white"/>
<circle class="pareto-point non-front" data-planner="scenario_adaptive_hybrid_orca_v1" cx="808.3" cy="130.0" r="5" fill="#777777"/>
<text class="point-index non-front" x="817.3" y="144.0" text-anchor="start" font-family="sans-serif" font-size="11" font-weight="600" fill="#777777">3</text>
<circle class="point-halo non-front" cx="698.4" cy="172.5" r="7" fill="white"/>
<circle class="pareto-point non-front" data-planner="orca" cx="698.4" cy="172.5" r="5" fill="#777777"/>
<text class="point-index non-front" x="689.4" y="186.5" text-anchor="end" font-family="sans-serif" font-size="11" font-weight="600" fill="#777777">4</text>
<circle class="point-halo non-front" cx="430.3" cy="322.3" r="7" fill="white"/>
<circle class="pareto-point non-front" data-planner="prediction_planner" cx="430.3" cy="322.3" r="5" fill="#777777"/>
<text class="point-index non-front" x="439.3" y="314.3" text-anchor="start" font-family="sans-serif" font-size="11" font-weight="600" fill="#777777">5</text>
<circle class="point-halo non-front" cx="287.8" cy="374.2" r="7" fill="white"/>
<circle class="pareto-point non-front" data-planner="social_force" cx="287.8" cy="374.2" r="5" fill="#777777"/>
<text class="point-index non-front" x="278.8" y="366.2" text-anchor="end" font-family="sans-serif" font-size="11" font-weight="600" fill="#777777">6</text>
<circle class="point-halo non-front" cx="277.1" cy="251.1" r="7" fill="white"/>
<circle class="pareto-point non-front" data-planner="socnav_sampling" cx="277.1" cy="251.1" r="5" fill="#777777"/>
<text class="point-index non-front" x="286.1" y="265.1" text-anchor="start" font-family="sans-serif" font-size="11" font-weight="600" fill="#777777">7</text>
<circle class="point-halo non-front" cx="157.3" cy="440.3" r="7" fill="white"/>
<circle class="pareto-point non-front" data-planner="goal" cx="157.3" cy="440.3" r="5" fill="#777777"/>
<text class="point-index non-front" x="148.3" y="454.3" text-anchor="end" font-family="sans-serif" font-size="11" font-weight="600" fill="#777777">8</text>
<circle class="point-halo non-front" cx="143.8" cy="433.0" r="7" fill="white"/>
<circle class="pareto-point non-front" data-planner="sacadrl" cx="143.8" cy="433.0" r="5" fill="#777777"/>
<text class="point-index non-front" x="152.8" y="425.0" text-anchor="start" font-family="sans-serif" font-size="11" font-weight="600" fill="#777777">9</text>
<rect class="planner-legend" x="102" y="52" width="291.6" height="174" rx="4" fill="#ffffff" fill-opacity="0.94" stroke="#CCCCCC"/>
<text x="112" y="69" font-family="sans-serif" font-size="11" font-weight="600" fill="#333">Planner legend</text>
<circle class="legend-swatch" cx="114" cy="90" r="4" fill="#1f77b4"/>
<text class="legend-entry" x="124" y="94" font-family="sans-serif" font-size="10" fill="#333">1. hybrid_rule_v3_fast_progress_static_escape</text>
<circle class="legend-swatch" cx="114" cy="106" r="4" fill="#1f77b4"/>
<text class="legend-entry" x="124" y="110" font-family="sans-serif" font-size="10" fill="#333">2. ppo</text>
<circle class="legend-swatch" cx="114" cy="122" r="4" fill="#777777"/>
<text class="legend-entry" x="124" y="126" font-family="sans-serif" font-size="10" fill="#333">3. scenario_adaptive_hybrid_orca_v1</text>
<circle class="legend-swatch" cx="114" cy="138" r="4" fill="#777777"/>
<text class="legend-entry" x="124" y="142" font-family="sans-serif" font-size="10" fill="#333">4. orca</text>
<circle class="legend-swatch" cx="114" cy="154" r="4" fill="#777777"/>
<text class="legend-entry" x="124" y="158" font-family="sans-serif" font-size="10" fill="#333">5. prediction_planner</text>
<circle class="legend-swatch" cx="114" cy="170" r="4" fill="#777777"/>
<text class="legend-entry" x="124" y="174" font-family="sans-serif" font-size="10" fill="#333">6. social_force</text>
<circle class="legend-swatch" cx="114" cy="186" r="4" fill="#777777"/>
<text class="legend-entry" x="124" y="190" font-family="sans-serif" font-size="10" fill="#333">7. socnav_sampling</text>
<circle class="legend-swatch" cx="114" cy="202" r="4" fill="#777777"/>
<text class="legend-entry" x="124" y="206" font-family="sans-serif" font-size="10" fill="#333">8. goal</text>
<circle class="legend-swatch" cx="114" cy="218" r="4" fill="#777777"/>
<text class="legend-entry" x="124" y="222" font-family="sans-serif" font-size="10" fill="#333">9. sacadrl</text>
</svg>
