<?xml version="1.0" encoding="utf-8" standalone="no"?>
<!DOCTYPE svg PUBLIC "-//W3C//DTD SVG 1.1//EN"
  "http://www.w3.org/Graphics/SVG/1.1/DTD/svg11.dtd">
<svg xmlns:xlink="http://www.w3.org/1999/xlink" width="792pt" height="288pt" viewBox="0 0 792 288" xmlns="http://www.w3.org/2000/svg" version="1.1">
 <metadata>
  <rdf:RDF xmlns:dc="http://purl.org/dc/elements/1.1/" xmlns:cc="http://creativecommons.org/ns#" xmlns:rdf="http://www.w3.org/1999/02/22-rdf-syntax-ns#">
   <cc:Work>
    <dc:type rdf:resource="http://purl.org/dc/dcmitype/StillImage"/>
    <dc:date>2026-06-19T00:00:00+00:00</dc:date>
    <dc:format>image/svg+xml</dc:format>
    <dc:creator>
     <cc:Agent>
      <dc:title>Matplotlib v3.10.8, https://matplotlib.org/</dc:title>
     </cc:Agent>
    </dc:creator>
   </cc:Work>
  </rdf:RDF>
 </metadata>
 <defs>
  <style type="text/css">*{stroke-linejoin: round; stroke-linecap: butt}</style>
 </defs>
 <g id="figure_1">
  <g id="patch_1">
   <path d="M 0 288 
L 792 288 
L 792 0 
L 0 0 
z
" style="fill: #ffffff"/>
  </g>
  <g id="axes_1">
   <g id="patch_2">
    <path d="M 65.093526 174.599752 
L 781.2 174.599752 
L 781.2 26.88 
L 65.093526 26.88 
z
" style="fill: #ffffff"/>
   </g>
   <g id="patch_3">
    <path d="M 97.64382 174.599752 
L 119.344016 174.599752 
L 119.344016 174.599752 
L 97.64382 174.599752 
z
" clip-path="url(#p980c1dfcf1)" style="fill: #1f77b4"/>
   </g>
   <g id="patch_4">
    <path d="M 233.270046 174.599752 
L 254.970243 174.599752 
L 254.970243 174.599752 
L 233.270046 174.599752 
z
" clip-path="url(#p980c1dfcf1)" style="fill: #1f77b4"/>
   </g>
   <g id="patch_5">
    <path d="M 368.896273 174.599752 
L 390.596469 174.599752 
L 390.596469 174.599752 
L 368.896273 174.599752 
z
" clip-path="url(#p980c1dfcf1)" style="fill: #1f77b4"/>
   </g>
   <g id="patch_6">
    <path d="M 504.522499 174.599752 
L 526.222695 174.599752 
L 526.222695 174.599752 
L 504.522499 174.599752 
z
" clip-path="url(#p980c1dfcf1)" style="fill: #1f77b4"/>
   </g>
   <g id="patch_7">
    <path d="M 640.148725 174.599752 
L 661.848921 174.599752 
L 661.848921 174.599752 
L 640.148725 174.599752 
z
" clip-path="url(#p980c1dfcf1)" style="fill: #1f77b4"/>
   </g>
   <g id="patch_8">
    <path d="M 119.344016 174.599752 
L 141.044213 174.599752 
L 141.044213 174.599752 
L 119.344016 174.599752 
z
" clip-path="url(#p980c1dfcf1)" style="fill: #ff7f0e"/>
   </g>
   <g id="patch_9">
    <path d="M 254.970243 174.599752 
L 276.670439 174.599752 
L 276.670439 174.599752 
L 254.970243 174.599752 
z
" clip-path="url(#p980c1dfcf1)" style="fill: #ff7f0e"/>
   </g>
   <g id="patch_10">
    <path d="M 390.596469 174.599752 
L 412.296665 174.599752 
L 412.296665 174.599752 
L 390.596469 174.599752 
z
" clip-path="url(#p980c1dfcf1)" style="fill: #ff7f0e"/>
   </g>
   <g id="patch_11">
    <path d="M 526.222695 174.599752 
L 547.922891 174.599752 
L 547.922891 174.599752 
L 526.222695 174.599752 
z
" clip-path="url(#p980c1dfcf1)" style="fill: #ff7f0e"/>
   </g>
   <g id="patch_12">
    <path d="M 661.848921 174.599752 
L 683.549117 174.599752 
L 683.549117 174.599752 
L 661.848921 174.599752 
z
" clip-path="url(#p980c1dfcf1)" style="fill: #ff7f0e"/>
   </g>
   <g id="patch_13">
    <path d="M 141.044213 174.599752 
L 162.744409 174.599752 
L 162.744409 174.599752 
L 141.044213 174.599752 
z
" clip-path="url(#p980c1dfcf1)" style="fill: #2ca02c"/>
   </g>
   <g id="patch_14">
    <path d="M 276.670439 174.599752 
L 298.370635 174.599752 
L 298.370635 174.599752 
L 276.670439 174.599752 
z
" clip-path="url(#p980c1dfcf1)" style="fill: #2ca02c"/>
   </g>
   <g id="patch_15">
    <path d="M 412.296665 174.599752 
L 433.996861 174.599752 
L 433.996861 174.599752 
L 412.296665 174.599752 
z
" clip-path="url(#p980c1dfcf1)" style="fill: #2ca02c"/>
   </g>
   <g id="patch_16">
    <path d="M 547.922891 174.599752 
L 569.623087 174.599752 
L 569.623087 174.599752 
L 547.922891 174.599752 
z
" clip-path="url(#p980c1dfcf1)" style="fill: #2ca02c"/>
   </g>
   <g id="patch_17">
    <path d="M 683.549117 174.599752 
L 705.249313 174.599752 
L 705.249313 174.599752 
L 683.549117 174.599752 
z
" clip-path="url(#p980c1dfcf1)" style="fill: #2ca02c"/>
   </g>
   <g id="patch_18">
    <path d="M 162.744409 174.599752 
L 184.444605 174.599752 
L 184.444605 174.599752 
L 162.744409 174.599752 
z
" clip-path="url(#p980c1dfcf1)" style="fill: #d62728"/>
   </g>
   <g id="patch_19">
    <path d="M 298.370635 174.599752 
L 320.070831 174.599752 
L 320.070831 174.599752 
L 298.370635 174.599752 
z
" clip-path="url(#p980c1dfcf1)" style="fill: #d62728"/>
   </g>
   <g id="patch_20">
    <path d="M 433.996861 174.599752 
L 455.697057 174.599752 
L 455.697057 174.599752 
L 433.996861 174.599752 
z
" clip-path="url(#p980c1dfcf1)" style="fill: #d62728"/>
   </g>
   <g id="patch_21">
    <path d="M 569.623087 174.599752 
L 591.323283 174.599752 
L 591.323283 174.599752 
L 569.623087 174.599752 
z
" clip-path="url(#p980c1dfcf1)" style="fill: #d62728"/>
   </g>
   <g id="patch_22">
    <path d="M 705.249313 174.599752 
L 726.94951 174.599752 
L 726.94951 174.599752 
L 705.249313 174.599752 
z
" clip-path="url(#p980c1dfcf1)" style="fill: #d62728"/>
   </g>
   <g id="patch_23">
    <path d="M 184.444605 174.599752 
L 206.144801 174.599752 
L 206.144801 174.599752 
L 184.444605 174.599752 
z
" clip-path="url(#p980c1dfcf1)" style="fill: #9467bd"/>
   </g>
   <g id="patch_24">
    <path d="M 320.070831 174.599752 
L 341.771027 174.599752 
L 341.771027 174.599752 
L 320.070831 174.599752 
z
" clip-path="url(#p980c1dfcf1)" style="fill: #9467bd"/>
   </g>
   <g id="patch_25">
    <path d="M 455.697057 174.599752 
L 477.397253 174.599752 
L 477.397253 174.599752 
L 455.697057 174.599752 
z
" clip-path="url(#p980c1dfcf1)" style="fill: #9467bd"/>
   </g>
   <g id="patch_26">
    <path d="M 591.323283 174.599752 
L 613.02348 174.599752 
L 613.02348 174.599752 
L 591.323283 174.599752 
z
" clip-path="url(#p980c1dfcf1)" style="fill: #9467bd"/>
   </g>
   <g id="patch_27">
    <path d="M 726.94951 174.599752 
L 748.649706 174.599752 
L 748.649706 174.599752 
L 726.94951 174.599752 
z
" clip-path="url(#p980c1dfcf1)" style="fill: #9467bd"/>
   </g>
   <g id="matplotlib.axis_1">
    <g id="xtick_1">
     <g id="line2d_1">
      <defs>
       <path id="m14228c9a03" d="M 0 0 
L 0 3.5 
" style="stroke: #000000; stroke-width: 0.8"/>
      </defs>
      <g>
       <use xlink:href="#m14228c9a03" x="151.894311" y="174.599752" style="stroke: #000000; stroke-width: 0.8"/>
      </g>
     </g>
     <g id="text_1">
      <!-- classic_bottleneck_medium -->
      <g transform="translate(26.536851 246.476765) rotate(-25) scale(0.1 -0.1)">
       <defs>
        <path id="DejaVuSans-63" d="M 3122 3366 
L 3122 2828 
Q 2878 2963 2633 3030 
Q 2388 3097 2138 3097 
Q 1578 3097 1268 2742 
Q 959 2388 959 1747 
Q 959 1106 1268 751 
Q 1578 397 2138 397 
Q 2388 397 2633 464 
Q 2878 531 3122 666 
L 3122 134 
Q 2881 22 2623 -34 
Q 2366 -91 2075 -91 
Q 1284 -91 818 406 
Q 353 903 353 1747 
Q 353 2603 823 3093 
Q 1294 3584 2113 3584 
Q 2378 3584 2631 3529 
Q 2884 3475 3122 3366 
z
" transform="scale(0.015625)"/>
        <path id="DejaVuSans-6c" d="M 603 4863 
L 1178 4863 
L 1178 0 
L 603 0 
L 603 4863 
z
" transform="scale(0.015625)"/>
        <path id="DejaVuSans-61" d="M 2194 1759 
Q 1497 1759 1228 1600 
Q 959 1441 959 1056 
Q 959 750 1161 570 
Q 1363 391 1709 391 
Q 2188 391 2477 730 
Q 2766 1069 2766 1631 
L 2766 1759 
L 2194 1759 
z
M 3341 1997 
L 3341 0 
L 2766 0 
L 2766 531 
Q 2569 213 2275 61 
Q 1981 -91 1556 -91 
Q 1019 -91 701 211 
Q 384 513 384 1019 
Q 384 1609 779 1909 
Q 1175 2209 1959 2209 
L 2766 2209 
L 2766 2266 
Q 2766 2663 2505 2880 
Q 2244 3097 1772 3097 
Q 1472 3097 1187 3025 
Q 903 2953 641 2809 
L 641 3341 
Q 956 3463 1253 3523 
Q 1550 3584 1831 3584 
Q 2591 3584 2966 3190 
Q 3341 2797 3341 1997 
z
" transform="scale(0.015625)"/>
        <path id="DejaVuSans-73" d="M 2834 3397 
L 2834 2853 
Q 2591 2978 2328 3040 
Q 2066 3103 1784 3103 
Q 1356 3103 1142 2972 
Q 928 2841 928 2578 
Q 928 2378 1081 2264 
Q 1234 2150 1697 2047 
L 1894 2003 
Q 2506 1872 2764 1633 
Q 3022 1394 3022 966 
Q 3022 478 2636 193 
Q 2250 -91 1575 -91 
Q 1294 -91 989 -36 
Q 684 19 347 128 
L 347 722 
Q 666 556 975 473 
Q 1284 391 1588 391 
Q 1994 391 2212 530 
Q 2431 669 2431 922 
Q 2431 1156 2273 1281 
Q 2116 1406 1581 1522 
L 1381 1569 
Q 847 1681 609 1914 
Q 372 2147 372 2553 
Q 372 3047 722 3315 
Q 1072 3584 1716 3584 
Q 2034 3584 2315 3537 
Q 2597 3491 2834 3397 
z
" transform="scale(0.015625)"/>
        <path id="DejaVuSans-69" d="M 603 3500 
L 1178 3500 
L 1178 0 
L 603 0 
L 603 3500 
z
M 603 4863 
L 1178 4863 
L 1178 4134 
L 603 4134 
L 603 4863 
z
" transform="scale(0.015625)"/>
        <path id="DejaVuSans-5f" d="M 3263 -1063 
L 3263 -1509 
L -63 -1509 
L -63 -1063 
L 3263 -1063 
z
" transform="scale(0.015625)"/>
        <path id="DejaVuSans-62" d="M 3116 1747 
Q 3116 2381 2855 2742 
Q 2594 3103 2138 3103 
Q 1681 3103 1420 2742 
Q 1159 2381 1159 1747 
Q 1159 1113 1420 752 
Q 1681 391 2138 391 
Q 2594 391 2855 752 
Q 3116 1113 3116 1747 
z
M 1159 2969 
Q 1341 3281 1617 3432 
Q 1894 3584 2278 3584 
Q 2916 3584 3314 3078 
Q 3713 2572 3713 1747 
Q 3713 922 3314 415 
Q 2916 -91 2278 -91 
Q 1894 -91 1617 61 
Q 1341 213 1159 525 
L 1159 0 
L 581 0 
L 581 4863 
L 1159 4863 
L 1159 2969 
z
" transform="scale(0.015625)"/>
        <path id="DejaVuSans-6f" d="M 1959 3097 
Q 1497 3097 1228 2736 
Q 959 2375 959 1747 
Q 959 1119 1226 758 
Q 1494 397 1959 397 
Q 2419 397 2687 759 
Q 2956 1122 2956 1747 
Q 2956 2369 2687 2733 
Q 2419 3097 1959 3097 
z
M 1959 3584 
Q 2709 3584 3137 3096 
Q 3566 2609 3566 1747 
Q 3566 888 3137 398 
Q 2709 -91 1959 -91 
Q 1206 -91 779 398 
Q 353 888 353 1747 
Q 353 2609 779 3096 
Q 1206 3584 1959 3584 
z
" transform="scale(0.015625)"/>
        <path id="DejaVuSans-74" d="M 1172 4494 
L 1172 3500 
L 2356 3500 
L 2356 3053 
L 1172 3053 
L 1172 1153 
Q 1172 725 1289 603 
Q 1406 481 1766 481 
L 2356 481 
L 2356 0 
L 1766 0 
Q 1100 0 847 248 
Q 594 497 594 1153 
L 594 3053 
L 172 3053 
L 172 3500 
L 594 3500 
L 594 4494 
L 1172 4494 
z
" transform="scale(0.015625)"/>
        <path id="DejaVuSans-65" d="M 3597 1894 
L 3597 1613 
L 953 1613 
Q 991 1019 1311 708 
Q 1631 397 2203 397 
Q 2534 397 2845 478 
Q 3156 559 3463 722 
L 3463 178 
Q 3153 47 2828 -22 
Q 2503 -91 2169 -91 
Q 1331 -91 842 396 
Q 353 884 353 1716 
Q 353 2575 817 3079 
Q 1281 3584 2069 3584 
Q 2775 3584 3186 3129 
Q 3597 2675 3597 1894 
z
M 3022 2063 
Q 3016 2534 2758 2815 
Q 2500 3097 2075 3097 
Q 1594 3097 1305 2825 
Q 1016 2553 972 2059 
L 3022 2063 
z
" transform="scale(0.015625)"/>
        <path id="DejaVuSans-6e" d="M 3513 2113 
L 3513 0 
L 2938 0 
L 2938 2094 
Q 2938 2591 2744 2837 
Q 2550 3084 2163 3084 
Q 1697 3084 1428 2787 
Q 1159 2491 1159 1978 
L 1159 0 
L 581 0 
L 581 3500 
L 1159 3500 
L 1159 2956 
Q 1366 3272 1645 3428 
Q 1925 3584 2291 3584 
Q 2894 3584 3203 3211 
Q 3513 2838 3513 2113 
z
" transform="scale(0.015625)"/>
        <path id="DejaVuSans-6b" d="M 581 4863 
L 1159 4863 
L 1159 1991 
L 2875 3500 
L 3609 3500 
L 1753 1863 
L 3688 0 
L 2938 0 
L 1159 1709 
L 1159 0 
L 581 0 
L 581 4863 
z
" transform="scale(0.015625)"/>
        <path id="DejaVuSans-6d" d="M 3328 2828 
Q 3544 3216 3844 3400 
Q 4144 3584 4550 3584 
Q 5097 3584 5394 3201 
Q 5691 2819 5691 2113 
L 5691 0 
L 5113 0 
L 5113 2094 
Q 5113 2597 4934 2840 
Q 4756 3084 4391 3084 
Q 3944 3084 3684 2787 
Q 3425 2491 3425 1978 
L 3425 0 
L 2847 0 
L 2847 2094 
Q 2847 2600 2669 2842 
Q 2491 3084 2119 3084 
Q 1678 3084 1418 2786 
Q 1159 2488 1159 1978 
L 1159 0 
L 581 0 
L 581 3500 
L 1159 3500 
L 1159 2956 
Q 1356 3278 1631 3431 
Q 1906 3584 2284 3584 
Q 2666 3584 2933 3390 
Q 3200 3197 3328 2828 
z
" transform="scale(0.015625)"/>
        <path id="DejaVuSans-64" d="M 2906 2969 
L 2906 4863 
L 3481 4863 
L 3481 0 
L 2906 0 
L 2906 525 
Q 2725 213 2448 61 
Q 2172 -91 1784 -91 
Q 1150 -91 751 415 
Q 353 922 353 1747 
Q 353 2572 751 3078 
Q 1150 3584 1784 3584 
Q 2172 3584 2448 3432 
Q 2725 3281 2906 2969 
z
M 947 1747 
Q 947 1113 1208 752 
Q 1469 391 1925 391 
Q 2381 391 2643 752 
Q 2906 1113 2906 1747 
Q 2906 2381 2643 2742 
Q 2381 3103 1925 3103 
Q 1469 3103 1208 2742 
Q 947 2381 947 1747 
z
" transform="scale(0.015625)"/>
        <path id="DejaVuSans-75" d="M 544 1381 
L 544 3500 
L 1119 3500 
L 1119 1403 
Q 1119 906 1312 657 
Q 1506 409 1894 409 
Q 2359 409 2629 706 
Q 2900 1003 2900 1516 
L 2900 3500 
L 3475 3500 
L 3475 0 
L 2900 0 
L 2900 538 
Q 2691 219 2414 64 
Q 2138 -91 1772 -91 
Q 1169 -91 856 284 
Q 544 659 544 1381 
z
M 1991 3584 
L 1991 3584 
z
" transform="scale(0.015625)"/>
       </defs>
       <use xlink:href="#DejaVuSans-63"/>
       <use xlink:href="#DejaVuSans-6c" transform="translate(54.980469 0)"/>
       <use xlink:href="#DejaVuSans-61" transform="translate(82.763672 0)"/>
       <use xlink:href="#DejaVuSans-73" transform="translate(144.042969 0)"/>
       <use xlink:href="#DejaVuSans-73" transform="translate(196.142578 0)"/>
       <use xlink:href="#DejaVuSans-69" transform="translate(248.242188 0)"/>
       <use xlink:href="#DejaVuSans-63" transform="translate(276.025391 0)"/>
       <use xlink:href="#DejaVuSans-5f" transform="translate(331.005859 0)"/>
       <use xlink:href="#DejaVuSans-62" transform="translate(381.005859 0)"/>
       <use xlink:href="#DejaVuSans-6f" transform="translate(444.482422 0)"/>
       <use xlink:href="#DejaVuSans-74" transform="translate(505.664062 0)"/>
       <use xlink:href="#DejaVuSans-74" transform="translate(544.873047 0)"/>
       <use xlink:href="#DejaVuSans-6c" transform="translate(584.082031 0)"/>
       <use xlink:href="#DejaVuSans-65" transform="translate(611.865234 0)"/>
       <use xlink:href="#DejaVuSans-6e" transform="translate(673.388672 0)"/>
       <use xlink:href="#DejaVuSans-65" transform="translate(736.767578 0)"/>
       <use xlink:href="#DejaVuSans-63" transform="translate(798.291016 0)"/>
       <use xlink:href="#DejaVuSans-6b" transform="translate(853.271484 0)"/>
       <use xlink:href="#DejaVuSans-5f" transform="translate(911.181641 0)"/>
       <use xlink:href="#DejaVuSans-6d" transform="translate(961.181641 0)"/>
       <use xlink:href="#DejaVuSans-65" transform="translate(1058.59375 0)"/>
       <use xlink:href="#DejaVuSans-64" transform="translate(1120.117188 0)"/>
       <use xlink:href="#DejaVuSans-69" transform="translate(1183.59375 0)"/>
       <use xlink:href="#DejaVuSans-75" transform="translate(1211.376953 0)"/>
       <use xlink:href="#DejaVuSans-6d" transform="translate(1274.755859 0)"/>
      </g>
     </g>
    </g>
    <g id="xtick_2">
     <g id="line2d_2">
      <g>
       <use xlink:href="#m14228c9a03" x="287.520537" y="174.599752" style="stroke: #000000; stroke-width: 0.8"/>
      </g>
     </g>
     <g id="text_2">
      <!-- classic_cross_trap_low -->
      <g transform="translate(185.375885 235.652454) rotate(-25) scale(0.1 -0.1)">
       <defs>
        <path id="DejaVuSans-72" d="M 2631 2963 
Q 2534 3019 2420 3045 
Q 2306 3072 2169 3072 
Q 1681 3072 1420 2755 
Q 1159 2438 1159 1844 
L 1159 0 
L 581 0 
L 581 3500 
L 1159 3500 
L 1159 2956 
Q 1341 3275 1631 3429 
Q 1922 3584 2338 3584 
Q 2397 3584 2469 3576 
Q 2541 3569 2628 3553 
L 2631 2963 
z
" transform="scale(0.015625)"/>
        <path id="DejaVuSans-70" d="M 1159 525 
L 1159 -1331 
L 581 -1331 
L 581 3500 
L 1159 3500 
L 1159 2969 
Q 1341 3281 1617 3432 
Q 1894 3584 2278 3584 
Q 2916 3584 3314 3078 
Q 3713 2572 3713 1747 
Q 3713 922 3314 415 
Q 2916 -91 2278 -91 
Q 1894 -91 1617 61 
Q 1341 213 1159 525 
z
M 3116 1747 
Q 3116 2381 2855 2742 
Q 2594 3103 2138 3103 
Q 1681 3103 1420 2742 
Q 1159 2381 1159 1747 
Q 1159 1113 1420 752 
Q 1681 391 2138 391 
Q 2594 391 2855 752 
Q 3116 1113 3116 1747 
z
" transform="scale(0.015625)"/>
        <path id="DejaVuSans-77" d="M 269 3500 
L 844 3500 
L 1563 769 
L 2278 3500 
L 2956 3500 
L 3675 769 
L 4391 3500 
L 4966 3500 
L 4050 0 
L 3372 0 
L 2619 2869 
L 1863 0 
L 1184 0 
L 269 3500 
z
" transform="scale(0.015625)"/>
       </defs>
       <use xlink:href="#DejaVuSans-63"/>
       <use xlink:href="#DejaVuSans-6c" transform="translate(54.980469 0)"/>
       <use xlink:href="#DejaVuSans-61" transform="translate(82.763672 0)"/>
       <use xlink:href="#DejaVuSans-73" transform="translate(144.042969 0)"/>
       <use xlink:href="#DejaVuSans-73" transform="translate(196.142578 0)"/>
       <use xlink:href="#DejaVuSans-69" transform="translate(248.242188 0)"/>
       <use xlink:href="#DejaVuSans-63" transform="translate(276.025391 0)"/>
       <use xlink:href="#DejaVuSans-5f" transform="translate(331.005859 0)"/>
       <use xlink:href="#DejaVuSans-63" transform="translate(381.005859 0)"/>
       <use xlink:href="#DejaVuSans-72" transform="translate(435.986328 0)"/>
       <use xlink:href="#DejaVuSans-6f" transform="translate(474.849609 0)"/>
       <use xlink:href="#DejaVuSans-73" transform="translate(536.03125 0)"/>
       <use xlink:href="#DejaVuSans-73" transform="translate(588.130859 0)"/>
       <use xlink:href="#DejaVuSans-5f" transform="translate(640.230469 0)"/>
       <use xlink:href="#DejaVuSans-74" transform="translate(690.230469 0)"/>
       <use xlink:href="#DejaVuSans-72" transform="translate(729.439453 0)"/>
       <use xlink:href="#DejaVuSans-61" transform="translate(770.552734 0)"/>
       <use xlink:href="#DejaVuSans-70" transform="translate(831.832031 0)"/>
       <use xlink:href="#DejaVuSans-5f" transform="translate(895.308594 0)"/>
       <use xlink:href="#DejaVuSans-6c" transform="translate(945.308594 0)"/>
       <use xlink:href="#DejaVuSans-6f" transform="translate(973.091797 0)"/>
       <use xlink:href="#DejaVuSans-77" transform="translate(1034.273438 0)"/>
      </g>
     </g>
    </g>
    <g id="xtick_3">
     <g id="line2d_3">
      <g>
       <use xlink:href="#m14228c9a03" x="423.146763" y="174.599752" style="stroke: #000000; stroke-width: 0.8"/>
      </g>
     </g>
     <g id="text_3">
      <!-- classic_doorway_high -->
      <g transform="translate(324.429087 234.054429) rotate(-25) scale(0.1 -0.1)">
       <defs>
        <path id="DejaVuSans-79" d="M 2059 -325 
Q 1816 -950 1584 -1140 
Q 1353 -1331 966 -1331 
L 506 -1331 
L 506 -850 
L 844 -850 
Q 1081 -850 1212 -737 
Q 1344 -625 1503 -206 
L 1606 56 
L 191 3500 
L 800 3500 
L 1894 763 
L 2988 3500 
L 3597 3500 
L 2059 -325 
z
" transform="scale(0.015625)"/>
        <path id="DejaVuSans-68" d="M 3513 2113 
L 3513 0 
L 2938 0 
L 2938 2094 
Q 2938 2591 2744 2837 
Q 2550 3084 2163 3084 
Q 1697 3084 1428 2787 
Q 1159 2491 1159 1978 
L 1159 0 
L 581 0 
L 581 4863 
L 1159 4863 
L 1159 2956 
Q 1366 3272 1645 3428 
Q 1925 3584 2291 3584 
Q 2894 3584 3203 3211 
Q 3513 2838 3513 2113 
z
" transform="scale(0.015625)"/>
        <path id="DejaVuSans-67" d="M 2906 1791 
Q 2906 2416 2648 2759 
Q 2391 3103 1925 3103 
Q 1463 3103 1205 2759 
Q 947 2416 947 1791 
Q 947 1169 1205 825 
Q 1463 481 1925 481 
Q 2391 481 2648 825 
Q 2906 1169 2906 1791 
z
M 3481 434 
Q 3481 -459 3084 -895 
Q 2688 -1331 1869 -1331 
Q 1566 -1331 1297 -1286 
Q 1028 -1241 775 -1147 
L 775 -588 
Q 1028 -725 1275 -790 
Q 1522 -856 1778 -856 
Q 2344 -856 2625 -561 
Q 2906 -266 2906 331 
L 2906 616 
Q 2728 306 2450 153 
Q 2172 0 1784 0 
Q 1141 0 747 490 
Q 353 981 353 1791 
Q 353 2603 747 3093 
Q 1141 3584 1784 3584 
Q 2172 3584 2450 3431 
Q 2728 3278 2906 2969 
L 2906 3500 
L 3481 3500 
L 3481 434 
z
" transform="scale(0.015625)"/>
       </defs>
       <use xlink:href="#DejaVuSans-63"/>
       <use xlink:href="#DejaVuSans-6c" transform="translate(54.980469 0)"/>
       <use xlink:href="#DejaVuSans-61" transform="translate(82.763672 0)"/>
       <use xlink:href="#DejaVuSans-73" transform="translate(144.042969 0)"/>
       <use xlink:href="#DejaVuSans-73" transform="translate(196.142578 0)"/>
       <use xlink:href="#DejaVuSans-69" transform="translate(248.242188 0)"/>
       <use xlink:href="#DejaVuSans-63" transform="translate(276.025391 0)"/>
       <use xlink:href="#DejaVuSans-5f" transform="translate(331.005859 0)"/>
       <use xlink:href="#DejaVuSans-64" transform="translate(381.005859 0)"/>
       <use xlink:href="#DejaVuSans-6f" transform="translate(444.482422 0)"/>
       <use xlink:href="#DejaVuSans-6f" transform="translate(505.664062 0)"/>
       <use xlink:href="#DejaVuSans-72" transform="translate(566.845703 0)"/>
       <use xlink:href="#DejaVuSans-77" transform="translate(607.958984 0)"/>
       <use xlink:href="#DejaVuSans-61" transform="translate(689.746094 0)"/>
       <use xlink:href="#DejaVuSans-79" transform="translate(751.025391 0)"/>
       <use xlink:href="#DejaVuSans-5f" transform="translate(810.205078 0)"/>
       <use xlink:href="#DejaVuSans-68" transform="translate(860.205078 0)"/>
       <use xlink:href="#DejaVuSans-69" transform="translate(923.583984 0)"/>
       <use xlink:href="#DejaVuSans-67" transform="translate(951.367188 0)"/>
       <use xlink:href="#DejaVuSans-68" transform="translate(1014.84375 0)"/>
      </g>
     </g>
    </g>
    <g id="xtick_4">
     <g id="line2d_4">
      <g>
       <use xlink:href="#m14228c9a03" x="558.772989" y="174.599752" style="stroke: #000000; stroke-width: 0.8"/>
      </g>
     </g>
     <g id="text_4">
      <!-- classic_head_on_corridor_medium -->
      <g transform="translate(403.122191 260.60278) rotate(-25) scale(0.1 -0.1)">
       <use xlink:href="#DejaVuSans-63"/>
       <use xlink:href="#DejaVuSans-6c" transform="translate(54.980469 0)"/>
       <use xlink:href="#DejaVuSans-61" transform="translate(82.763672 0)"/>
       <use xlink:href="#DejaVuSans-73" transform="translate(144.042969 0)"/>
       <use xlink:href="#DejaVuSans-73" transform="translate(196.142578 0)"/>
       <use xlink:href="#DejaVuSans-69" transform="translate(248.242188 0)"/>
       <use xlink:href="#DejaVuSans-63" transform="translate(276.025391 0)"/>
       <use xlink:href="#DejaVuSans-5f" transform="translate(331.005859 0)"/>
       <use xlink:href="#DejaVuSans-68" transform="translate(381.005859 0)"/>
       <use xlink:href="#DejaVuSans-65" transform="translate(444.384766 0)"/>
       <use xlink:href="#DejaVuSans-61" transform="translate(505.908203 0)"/>
       <use xlink:href="#DejaVuSans-64" transform="translate(567.1875 0)"/>
       <use xlink:href="#DejaVuSans-5f" transform="translate(630.664062 0)"/>
       <use xlink:href="#DejaVuSans-6f" transform="translate(680.664062 0)"/>
       <use xlink:href="#DejaVuSans-6e" transform="translate(741.845703 0)"/>
       <use xlink:href="#DejaVuSans-5f" transform="translate(805.224609 0)"/>
       <use xlink:href="#DejaVuSans-63" transform="translate(855.224609 0)"/>
       <use xlink:href="#DejaVuSans-6f" transform="translate(910.205078 0)"/>
       <use xlink:href="#DejaVuSans-72" transform="translate(971.386719 0)"/>
       <use xlink:href="#DejaVuSans-72" transform="translate(1010.75 0)"/>
       <use xlink:href="#DejaVuSans-69" transform="translate(1051.863281 0)"/>
       <use xlink:href="#DejaVuSans-64" transform="translate(1079.646484 0)"/>
       <use xlink:href="#DejaVuSans-6f" transform="translate(1143.123047 0)"/>
       <use xlink:href="#DejaVuSans-72" transform="translate(1204.304688 0)"/>
       <use xlink:href="#DejaVuSans-5f" transform="translate(1245.417969 0)"/>
       <use xlink:href="#DejaVuSans-6d" transform="translate(1295.417969 0)"/>
       <use xlink:href="#DejaVuSans-65" transform="translate(1392.830078 0)"/>
       <use xlink:href="#DejaVuSans-64" transform="translate(1454.353516 0)"/>
       <use xlink:href="#DejaVuSans-69" transform="translate(1517.830078 0)"/>
       <use xlink:href="#DejaVuSans-75" transform="translate(1545.613281 0)"/>
       <use xlink:href="#DejaVuSans-6d" transform="translate(1608.992188 0)"/>
      </g>
     </g>
    </g>
    <g id="xtick_5">
     <g id="line2d_5">
      <g>
       <use xlink:href="#m14228c9a03" x="694.399215" y="174.599752" style="stroke: #000000; stroke-width: 0.8"/>
      </g>
     </g>
     <g id="text_5">
      <!-- classic_overtaking_medium -->
      <g transform="translate(568.510715 246.724393) rotate(-25) scale(0.1 -0.1)">
       <defs>
        <path id="DejaVuSans-76" d="M 191 3500 
L 800 3500 
L 1894 563 
L 2988 3500 
L 3597 3500 
L 2284 0 
L 1503 0 
L 191 3500 
z
" transform="scale(0.015625)"/>
       </defs>
       <use xlink:href="#DejaVuSans-63"/>
       <use xlink:href="#DejaVuSans-6c" transform="translate(54.980469 0)"/>
       <use xlink:href="#DejaVuSans-61" transform="translate(82.763672 0)"/>
       <use xlink:href="#DejaVuSans-73" transform="translate(144.042969 0)"/>
       <use xlink:href="#DejaVuSans-73" transform="translate(196.142578 0)"/>
       <use xlink:href="#DejaVuSans-69" transform="translate(248.242188 0)"/>
       <use xlink:href="#DejaVuSans-63" transform="translate(276.025391 0)"/>
       <use xlink:href="#DejaVuSans-5f" transform="translate(331.005859 0)"/>
       <use xlink:href="#DejaVuSans-6f" transform="translate(381.005859 0)"/>
       <use xlink:href="#DejaVuSans-76" transform="translate(442.1875 0)"/>
       <use xlink:href="#DejaVuSans-65" transform="translate(501.367188 0)"/>
       <use xlink:href="#DejaVuSans-72" transform="translate(562.890625 0)"/>
       <use xlink:href="#DejaVuSans-74" transform="translate(604.003906 0)"/>
       <use xlink:href="#DejaVuSans-61" transform="translate(643.212891 0)"/>
       <use xlink:href="#DejaVuSans-6b" transform="translate(704.492188 0)"/>
       <use xlink:href="#DejaVuSans-69" transform="translate(762.402344 0)"/>
       <use xlink:href="#DejaVuSans-6e" transform="translate(790.185547 0)"/>
       <use xlink:href="#DejaVuSans-67" transform="translate(853.564453 0)"/>
       <use xlink:href="#DejaVuSans-5f" transform="translate(917.041016 0)"/>
       <use xlink:href="#DejaVuSans-6d" transform="translate(967.041016 0)"/>
       <use xlink:href="#DejaVuSans-65" transform="translate(1064.453125 0)"/>
       <use xlink:href="#DejaVuSans-64" transform="translate(1125.976562 0)"/>
       <use xlink:href="#DejaVuSans-69" transform="translate(1189.453125 0)"/>
       <use xlink:href="#DejaVuSans-75" transform="translate(1217.236328 0)"/>
       <use xlink:href="#DejaVuSans-6d" transform="translate(1280.615234 0)"/>
      </g>
     </g>
    </g>
    <g id="text_6">
     <!-- scenario_id -->
     <g transform="translate(394.916294 274.338121) scale(0.1 -0.1)">
      <use xlink:href="#DejaVuSans-73"/>
      <use xlink:href="#DejaVuSans-63" transform="translate(52.099609 0)"/>
      <use xlink:href="#DejaVuSans-65" transform="translate(107.080078 0)"/>
      <use xlink:href="#DejaVuSans-6e" transform="translate(168.603516 0)"/>
      <use xlink:href="#DejaVuSans-61" transform="translate(231.982422 0)"/>
      <use xlink:href="#DejaVuSans-72" transform="translate(293.261719 0)"/>
      <use xlink:href="#DejaVuSans-69" transform="translate(334.375 0)"/>
      <use xlink:href="#DejaVuSans-6f" transform="translate(362.158203 0)"/>
      <use xlink:href="#DejaVuSans-5f" transform="translate(423.339844 0)"/>
      <use xlink:href="#DejaVuSans-69" transform="translate(473.339844 0)"/>
      <use xlink:href="#DejaVuSans-64" transform="translate(501.123047 0)"/>
     </g>
    </g>
   </g>
   <g id="matplotlib.axis_2">
    <g id="ytick_1">
     <g id="line2d_6">
      <path d="M 65.093526 174.599752 
L 781.2 174.599752 
" clip-path="url(#p980c1dfcf1)" style="fill: none; stroke: #b0b0b0; stroke-opacity: 0.25; stroke-width: 0.8; stroke-linecap: square"/>
     </g>
     <g id="line2d_7">
      <defs>
       <path id="m0c4145da49" d="M 0 0 
L -3.5 0 
" style="stroke: #000000; stroke-width: 0.8"/>
      </defs>
      <g>
       <use xlink:href="#m0c4145da49" x="65.093526" y="174.599752" style="stroke: #000000; stroke-width: 0.8"/>
      </g>
     </g>
     <g id="text_7">
      <!-- 0.0 -->
      <g transform="translate(42.190401 178.398971) scale(0.1 -0.1)">
       <defs>
        <path id="DejaVuSans-30" d="M 2034 4250 
Q 1547 4250 1301 3770 
Q 1056 3291 1056 2328 
Q 1056 1369 1301 889 
Q 1547 409 2034 409 
Q 2525 409 2770 889 
Q 3016 1369 3016 2328 
Q 3016 3291 2770 3770 
Q 2525 4250 2034 4250 
z
M 2034 4750 
Q 2819 4750 3233 4129 
Q 3647 3509 3647 2328 
Q 3647 1150 3233 529 
Q 2819 -91 2034 -91 
Q 1250 -91 836 529 
Q 422 1150 422 2328 
Q 422 3509 836 4129 
Q 1250 4750 2034 4750 
z
" transform="scale(0.015625)"/>
        <path id="DejaVuSans-2e" d="M 684 794 
L 1344 794 
L 1344 0 
L 684 0 
L 684 794 
z
" transform="scale(0.015625)"/>
       </defs>
       <use xlink:href="#DejaVuSans-30"/>
       <use xlink:href="#DejaVuSans-2e" transform="translate(63.623047 0)"/>
       <use xlink:href="#DejaVuSans-30" transform="translate(95.410156 0)"/>
      </g>
     </g>
    </g>
    <g id="ytick_2">
     <g id="line2d_8">
      <path d="M 65.093526 147.741616 
L 781.2 147.741616 
" clip-path="url(#p980c1dfcf1)" style="fill: none; stroke: #b0b0b0; stroke-opacity: 0.25; stroke-width: 0.8; stroke-linecap: square"/>
     </g>
     <g id="line2d_9">
      <g>
       <use xlink:href="#m0c4145da49" x="65.093526" y="147.741616" style="stroke: #000000; stroke-width: 0.8"/>
      </g>
     </g>
     <g id="text_8">
      <!-- 0.2 -->
      <g transform="translate(42.190401 151.540834) scale(0.1 -0.1)">
       <defs>
        <path id="DejaVuSans-32" d="M 1228 531 
L 3431 531 
L 3431 0 
L 469 0 
L 469 531 
Q 828 903 1448 1529 
Q 2069 2156 2228 2338 
Q 2531 2678 2651 2914 
Q 2772 3150 2772 3378 
Q 2772 3750 2511 3984 
Q 2250 4219 1831 4219 
Q 1534 4219 1204 4116 
Q 875 4013 500 3803 
L 500 4441 
Q 881 4594 1212 4672 
Q 1544 4750 1819 4750 
Q 2544 4750 2975 4387 
Q 3406 4025 3406 3419 
Q 3406 3131 3298 2873 
Q 3191 2616 2906 2266 
Q 2828 2175 2409 1742 
Q 1991 1309 1228 531 
z
" transform="scale(0.015625)"/>
       </defs>
       <use xlink:href="#DejaVuSans-30"/>
       <use xlink:href="#DejaVuSans-2e" transform="translate(63.623047 0)"/>
       <use xlink:href="#DejaVuSans-32" transform="translate(95.410156 0)"/>
      </g>
     </g>
    </g>
    <g id="ytick_3">
     <g id="line2d_10">
      <path d="M 65.093526 120.883479 
L 781.2 120.883479 
" clip-path="url(#p980c1dfcf1)" style="fill: none; stroke: #b0b0b0; stroke-opacity: 0.25; stroke-width: 0.8; stroke-linecap: square"/>
     </g>
     <g id="line2d_11">
      <g>
       <use xlink:href="#m0c4145da49" x="65.093526" y="120.883479" style="stroke: #000000; stroke-width: 0.8"/>
      </g>
     </g>
     <g id="text_9">
      <!-- 0.4 -->
      <g transform="translate(42.190401 124.682698) scale(0.1 -0.1)">
       <defs>
        <path id="DejaVuSans-34" d="M 2419 4116 
L 825 1625 
L 2419 1625 
L 2419 4116 
z
M 2253 4666 
L 3047 4666 
L 3047 1625 
L 3713 1625 
L 3713 1100 
L 3047 1100 
L 3047 0 
L 2419 0 
L 2419 1100 
L 313 1100 
L 313 1709 
L 2253 4666 
z
" transform="scale(0.015625)"/>
       </defs>
       <use xlink:href="#DejaVuSans-30"/>
       <use xlink:href="#DejaVuSans-2e" transform="translate(63.623047 0)"/>
       <use xlink:href="#DejaVuSans-34" transform="translate(95.410156 0)"/>
      </g>
     </g>
    </g>
    <g id="ytick_4">
     <g id="line2d_12">
      <path d="M 65.093526 94.025342 
L 781.2 94.025342 
" clip-path="url(#p980c1dfcf1)" style="fill: none; stroke: #b0b0b0; stroke-opacity: 0.25; stroke-width: 0.8; stroke-linecap: square"/>
     </g>
     <g id="line2d_13">
      <g>
       <use xlink:href="#m0c4145da49" x="65.093526" y="94.025342" style="stroke: #000000; stroke-width: 0.8"/>
      </g>
     </g>
     <g id="text_10">
      <!-- 0.6 -->
      <g transform="translate(42.190401 97.824561) scale(0.1 -0.1)">
       <defs>
        <path id="DejaVuSans-36" d="M 2113 2584 
Q 1688 2584 1439 2293 
Q 1191 2003 1191 1497 
Q 1191 994 1439 701 
Q 1688 409 2113 409 
Q 2538 409 2786 701 
Q 3034 994 3034 1497 
Q 3034 2003 2786 2293 
Q 2538 2584 2113 2584 
z
M 3366 4563 
L 3366 3988 
Q 3128 4100 2886 4159 
Q 2644 4219 2406 4219 
Q 1781 4219 1451 3797 
Q 1122 3375 1075 2522 
Q 1259 2794 1537 2939 
Q 1816 3084 2150 3084 
Q 2853 3084 3261 2657 
Q 3669 2231 3669 1497 
Q 3669 778 3244 343 
Q 2819 -91 2113 -91 
Q 1303 -91 875 529 
Q 447 1150 447 2328 
Q 447 3434 972 4092 
Q 1497 4750 2381 4750 
Q 2619 4750 2861 4703 
Q 3103 4656 3366 4563 
z
" transform="scale(0.015625)"/>
       </defs>
       <use xlink:href="#DejaVuSans-30"/>
       <use xlink:href="#DejaVuSans-2e" transform="translate(63.623047 0)"/>
       <use xlink:href="#DejaVuSans-36" transform="translate(95.410156 0)"/>
      </g>
     </g>
    </g>
    <g id="ytick_5">
     <g id="line2d_14">
      <path d="M 65.093526 67.167205 
L 781.2 67.167205 
" clip-path="url(#p980c1dfcf1)" style="fill: none; stroke: #b0b0b0; stroke-opacity: 0.25; stroke-width: 0.8; stroke-linecap: square"/>
     </g>
     <g id="line2d_15">
      <g>
       <use xlink:href="#m0c4145da49" x="65.093526" y="67.167205" style="stroke: #000000; stroke-width: 0.8"/>
      </g>
     </g>
     <g id="text_11">
      <!-- 0.8 -->
      <g transform="translate(42.190401 70.966424) scale(0.1 -0.1)">
       <defs>
        <path id="DejaVuSans-38" d="M 2034 2216 
Q 1584 2216 1326 1975 
Q 1069 1734 1069 1313 
Q 1069 891 1326 650 
Q 1584 409 2034 409 
Q 2484 409 2743 651 
Q 3003 894 3003 1313 
Q 3003 1734 2745 1975 
Q 2488 2216 2034 2216 
z
M 1403 2484 
Q 997 2584 770 2862 
Q 544 3141 544 3541 
Q 544 4100 942 4425 
Q 1341 4750 2034 4750 
Q 2731 4750 3128 4425 
Q 3525 4100 3525 3541 
Q 3525 3141 3298 2862 
Q 3072 2584 2669 2484 
Q 3125 2378 3379 2068 
Q 3634 1759 3634 1313 
Q 3634 634 3220 271 
Q 2806 -91 2034 -91 
Q 1263 -91 848 271 
Q 434 634 434 1313 
Q 434 1759 690 2068 
Q 947 2378 1403 2484 
z
M 1172 3481 
Q 1172 3119 1398 2916 
Q 1625 2713 2034 2713 
Q 2441 2713 2670 2916 
Q 2900 3119 2900 3481 
Q 2900 3844 2670 4047 
Q 2441 4250 2034 4250 
Q 1625 4250 1398 4047 
Q 1172 3844 1172 3481 
z
" transform="scale(0.015625)"/>
       </defs>
       <use xlink:href="#DejaVuSans-30"/>
       <use xlink:href="#DejaVuSans-2e" transform="translate(63.623047 0)"/>
       <use xlink:href="#DejaVuSans-38" transform="translate(95.410156 0)"/>
      </g>
     </g>
    </g>
    <g id="ytick_6">
     <g id="line2d_16">
      <path d="M 65.093526 40.309068 
L 781.2 40.309068 
" clip-path="url(#p980c1dfcf1)" style="fill: none; stroke: #b0b0b0; stroke-opacity: 0.25; stroke-width: 0.8; stroke-linecap: square"/>
     </g>
     <g id="line2d_17">
      <g>
       <use xlink:href="#m0c4145da49" x="65.093526" y="40.309068" style="stroke: #000000; stroke-width: 0.8"/>
      </g>
     </g>
     <g id="text_12">
      <!-- 1.0 -->
      <g transform="translate(42.190401 44.108287) scale(0.1 -0.1)">
       <defs>
        <path id="DejaVuSans-31" d="M 794 531 
L 1825 531 
L 1825 4091 
L 703 3866 
L 703 4441 
L 1819 4666 
L 2450 4666 
L 2450 531 
L 3481 531 
L 3481 0 
L 794 0 
L 794 531 
z
" transform="scale(0.015625)"/>
       </defs>
       <use xlink:href="#DejaVuSans-31"/>
       <use xlink:href="#DejaVuSans-2e" transform="translate(63.623047 0)"/>
       <use xlink:href="#DejaVuSans-30" transform="translate(95.410156 0)"/>
      </g>
     </g>
    </g>
    <g id="text_13">
     <!-- max delta -->
     <g transform="translate(36.110713 125.886751) rotate(-90) scale(0.1 -0.1)">
      <defs>
       <path id="DejaVuSans-78" d="M 3513 3500 
L 2247 1797 
L 3578 0 
L 2900 0 
L 1881 1375 
L 863 0 
L 184 0 
L 1544 1831 
L 300 3500 
L 978 3500 
L 1906 2253 
L 2834 3500 
L 3513 3500 
z
" transform="scale(0.015625)"/>
       <path id="DejaVuSans-20" transform="scale(0.015625)"/>
      </defs>
      <use xlink:href="#DejaVuSans-6d"/>
      <use xlink:href="#DejaVuSans-61" transform="translate(97.412109 0)"/>
      <use xlink:href="#DejaVuSans-78" transform="translate(158.691406 0)"/>
      <use xlink:href="#DejaVuSans-20" transform="translate(217.871094 0)"/>
      <use xlink:href="#DejaVuSans-64" transform="translate(249.658203 0)"/>
      <use xlink:href="#DejaVuSans-65" transform="translate(313.134766 0)"/>
      <use xlink:href="#DejaVuSans-6c" transform="translate(374.658203 0)"/>
      <use xlink:href="#DejaVuSans-74" transform="translate(402.441406 0)"/>
      <use xlink:href="#DejaVuSans-61" transform="translate(441.650391 0)"/>
     </g>
    </g>
    <g id="text_14">
     <!-- 1e−6 -->
     <g transform="translate(65.093526 23.88) scale(0.1 -0.1)">
      <defs>
       <path id="DejaVuSans-2212" d="M 678 2272 
L 4684 2272 
L 4684 1741 
L 678 1741 
L 678 2272 
z
" transform="scale(0.015625)"/>
      </defs>
      <use xlink:href="#DejaVuSans-31"/>
      <use xlink:href="#DejaVuSans-65" transform="translate(63.623047 0)"/>
      <use xlink:href="#DejaVuSans-2212" transform="translate(125.146484 0)"/>
      <use xlink:href="#DejaVuSans-36" transform="translate(208.935547 0)"/>
     </g>
    </g>
   </g>
   <g id="patch_28">
    <path d="M 65.093526 174.599752 
L 65.093526 26.88 
" style="fill: none; stroke: #000000; stroke-width: 0.8; stroke-linejoin: miter; stroke-linecap: square"/>
   </g>
   <g id="patch_29">
    <path d="M 781.2 174.599752 
L 781.2 26.88 
" style="fill: none; stroke: #000000; stroke-width: 0.8; stroke-linejoin: miter; stroke-linecap: square"/>
   </g>
   <g id="patch_30">
    <path d="M 65.093526 174.599752 
L 781.2 174.599752 
" style="fill: none; stroke: #000000; stroke-width: 0.8; stroke-linejoin: miter; stroke-linecap: square"/>
   </g>
   <g id="patch_31">
    <path d="M 65.093526 26.88 
L 781.2 26.88 
" style="fill: none; stroke: #000000; stroke-width: 0.8; stroke-linejoin: miter; stroke-linecap: square"/>
   </g>
   <g id="text_15">
    <!-- Issue #2434 scenario sweep max deltas (all zero in this classic slice) -->
    <g transform="translate(216.073638 20.88) scale(0.12 -0.12)">
     <defs>
      <path id="DejaVuSans-49" d="M 628 4666 
L 1259 4666 
L 1259 0 
L 628 0 
L 628 4666 
z
" transform="scale(0.015625)"/>
      <path id="DejaVuSans-23" d="M 3272 2816 
L 2363 2816 
L 2100 1772 
L 3016 1772 
L 3272 2816 
z
M 2803 4594 
L 2478 3297 
L 3391 3297 
L 3719 4594 
L 4219 4594 
L 3897 3297 
L 4872 3297 
L 4872 2816 
L 3775 2816 
L 3519 1772 
L 4513 1772 
L 4513 1294 
L 3397 1294 
L 3072 0 
L 2572 0 
L 2894 1294 
L 1978 1294 
L 1656 0 
L 1153 0 
L 1478 1294 
L 494 1294 
L 494 1772 
L 1594 1772 
L 1856 2816 
L 850 2816 
L 850 3297 
L 1978 3297 
L 2297 4594 
L 2803 4594 
z
" transform="scale(0.015625)"/>
      <path id="DejaVuSans-33" d="M 2597 2516 
Q 3050 2419 3304 2112 
Q 3559 1806 3559 1356 
Q 3559 666 3084 287 
Q 2609 -91 1734 -91 
Q 1441 -91 1130 -33 
Q 819 25 488 141 
L 488 750 
Q 750 597 1062 519 
Q 1375 441 1716 441 
Q 2309 441 2620 675 
Q 2931 909 2931 1356 
Q 2931 1769 2642 2001 
Q 2353 2234 1838 2234 
L 1294 2234 
L 1294 2753 
L 1863 2753 
Q 2328 2753 2575 2939 
Q 2822 3125 2822 3475 
Q 2822 3834 2567 4026 
Q 2313 4219 1838 4219 
Q 1578 4219 1281 4162 
Q 984 4106 628 3988 
L 628 4550 
Q 988 4650 1302 4700 
Q 1616 4750 1894 4750 
Q 2613 4750 3031 4423 
Q 3450 4097 3450 3541 
Q 3450 3153 3228 2886 
Q 3006 2619 2597 2516 
z
" transform="scale(0.015625)"/>
      <path id="DejaVuSans-28" d="M 1984 4856 
Q 1566 4138 1362 3434 
Q 1159 2731 1159 2009 
Q 1159 1288 1364 580 
Q 1569 -128 1984 -844 
L 1484 -844 
Q 1016 -109 783 600 
Q 550 1309 550 2009 
Q 550 2706 781 3412 
Q 1013 4119 1484 4856 
L 1984 4856 
z
" transform="scale(0.015625)"/>
      <path id="DejaVuSans-7a" d="M 353 3500 
L 3084 3500 
L 3084 2975 
L 922 459 
L 3084 459 
L 3084 0 
L 275 0 
L 275 525 
L 2438 3041 
L 353 3041 
L 353 3500 
z
" transform="scale(0.015625)"/>
      <path id="DejaVuSans-29" d="M 513 4856 
L 1013 4856 
Q 1481 4119 1714 3412 
Q 1947 2706 1947 2009 
Q 1947 1309 1714 600 
Q 1481 -109 1013 -844 
L 513 -844 
Q 928 -128 1133 580 
Q 1338 1288 1338 2009 
Q 1338 2731 1133 3434 
Q 928 4138 513 4856 
z
" transform="scale(0.015625)"/>
     </defs>
     <use xlink:href="#DejaVuSans-49"/>
     <use xlink:href="#DejaVuSans-73" transform="translate(29.492188 0)"/>
     <use xlink:href="#DejaVuSans-73" transform="translate(81.591797 0)"/>
     <use xlink:href="#DejaVuSans-75" transform="translate(133.691406 0)"/>
     <use xlink:href="#DejaVuSans-65" transform="translate(197.070312 0)"/>
     <use xlink:href="#DejaVuSans-20" transform="translate(258.59375 0)"/>
     <use xlink:href="#DejaVuSans-23" transform="translate(290.380859 0)"/>
     <use xlink:href="#DejaVuSans-32" transform="translate(374.169922 0)"/>
     <use xlink:href="#DejaVuSans-34" transform="translate(437.792969 0)"/>
     <use xlink:href="#DejaVuSans-33" transform="translate(501.416016 0)"/>
     <use xlink:href="#DejaVuSans-34" transform="translate(565.039062 0)"/>
     <use xlink:href="#DejaVuSans-20" transform="translate(628.662109 0)"/>
     <use xlink:href="#DejaVuSans-73" transform="translate(660.449219 0)"/>
     <use xlink:href="#DejaVuSans-63" transform="translate(712.548828 0)"/>
     <use xlink:href="#DejaVuSans-65" transform="translate(767.529297 0)"/>
     <use xlink:href="#DejaVuSans-6e" transform="translate(829.052734 0)"/>
     <use xlink:href="#DejaVuSans-61" transform="translate(892.431641 0)"/>
     <use xlink:href="#DejaVuSans-72" transform="translate(953.710938 0)"/>
     <use xlink:href="#DejaVuSans-69" transform="translate(994.824219 0)"/>
     <use xlink:href="#DejaVuSans-6f" transform="translate(1022.607422 0)"/>
     <use xlink:href="#DejaVuSans-20" transform="translate(1083.789062 0)"/>
     <use xlink:href="#DejaVuSans-73" transform="translate(1115.576172 0)"/>
     <use xlink:href="#DejaVuSans-77" transform="translate(1167.675781 0)"/>
     <use xlink:href="#DejaVuSans-65" transform="translate(1249.462891 0)"/>
     <use xlink:href="#DejaVuSans-65" transform="translate(1310.986328 0)"/>
     <use xlink:href="#DejaVuSans-70" transform="translate(1372.509766 0)"/>
     <use xlink:href="#DejaVuSans-20" transform="translate(1435.986328 0)"/>
     <use xlink:href="#DejaVuSans-6d" transform="translate(1467.773438 0)"/>
     <use xlink:href="#DejaVuSans-61" transform="translate(1565.185547 0)"/>
     <use xlink:href="#DejaVuSans-78" transform="translate(1626.464844 0)"/>
     <use xlink:href="#DejaVuSans-20" transform="translate(1685.644531 0)"/>
     <use xlink:href="#DejaVuSans-64" transform="translate(1717.431641 0)"/>
     <use xlink:href="#DejaVuSans-65" transform="translate(1780.908203 0)"/>
     <use xlink:href="#DejaVuSans-6c" transform="translate(1842.431641 0)"/>
     <use xlink:href="#DejaVuSans-74" transform="translate(1870.214844 0)"/>
     <use xlink:href="#DejaVuSans-61" transform="translate(1909.423828 0)"/>
     <use xlink:href="#DejaVuSans-73" transform="translate(1970.703125 0)"/>
     <use xlink:href="#DejaVuSans-20" transform="translate(2022.802734 0)"/>
     <use xlink:href="#DejaVuSans-28" transform="translate(2054.589844 0)"/>
     <use xlink:href="#DejaVuSans-61" transform="translate(2093.603516 0)"/>
     <use xlink:href="#DejaVuSans-6c" transform="translate(2154.882812 0)"/>
     <use xlink:href="#DejaVuSans-6c" transform="translate(2182.666016 0)"/>
     <use xlink:href="#DejaVuSans-20" transform="translate(2210.449219 0)"/>
     <use xlink:href="#DejaVuSans-7a" transform="translate(2242.236328 0)"/>
     <use xlink:href="#DejaVuSans-65" transform="translate(2294.726562 0)"/>
     <use xlink:href="#DejaVuSans-72" transform="translate(2356.25 0)"/>
     <use xlink:href="#DejaVuSans-6f" transform="translate(2395.113281 0)"/>
     <use xlink:href="#DejaVuSans-20" transform="translate(2456.294922 0)"/>
     <use xlink:href="#DejaVuSans-69" transform="translate(2488.082031 0)"/>
     <use xlink:href="#DejaVuSans-6e" transform="translate(2515.865234 0)"/>
     <use xlink:href="#DejaVuSans-20" transform="translate(2579.244141 0)"/>
     <use xlink:href="#DejaVuSans-74" transform="translate(2611.03125 0)"/>
     <use xlink:href="#DejaVuSans-68" transform="translate(2650.240234 0)"/>
     <use xlink:href="#DejaVuSans-69" transform="translate(2713.619141 0)"/>
     <use xlink:href="#DejaVuSans-73" transform="translate(2741.402344 0)"/>
     <use xlink:href="#DejaVuSans-20" transform="translate(2793.501953 0)"/>
     <use xlink:href="#DejaVuSans-63" transform="translate(2825.289062 0)"/>
     <use xlink:href="#DejaVuSans-6c" transform="translate(2880.269531 0)"/>
     <use xlink:href="#DejaVuSans-61" transform="translate(2908.052734 0)"/>
     <use xlink:href="#DejaVuSans-73" transform="translate(2969.332031 0)"/>
     <use xlink:href="#DejaVuSans-73" transform="translate(3021.431641 0)"/>
     <use xlink:href="#DejaVuSans-69" transform="translate(3073.53125 0)"/>
     <use xlink:href="#DejaVuSans-63" transform="translate(3101.314453 0)"/>
     <use xlink:href="#DejaVuSans-20" transform="translate(3156.294922 0)"/>
     <use xlink:href="#DejaVuSans-73" transform="translate(3188.082031 0)"/>
     <use xlink:href="#DejaVuSans-6c" transform="translate(3240.181641 0)"/>
     <use xlink:href="#DejaVuSans-69" transform="translate(3267.964844 0)"/>
     <use xlink:href="#DejaVuSans-63" transform="translate(3295.748047 0)"/>
     <use xlink:href="#DejaVuSans-65" transform="translate(3350.728516 0)"/>
     <use xlink:href="#DejaVuSans-29" transform="translate(3412.251953 0)"/>
    </g>
   </g>
   <g id="legend_1">
    <g id="patch_32">
     <path d="M 603.25125 93.105 
L 775.6 93.105 
Q 777.2 93.105 777.2 91.505 
L 777.2 32.48 
Q 777.2 30.88 775.6 30.88 
L 603.25125 30.88 
Q 601.65125 30.88 601.65125 32.48 
L 601.65125 91.505 
Q 601.65125 93.105 603.25125 93.105 
z
" style="fill: #ffffff; opacity: 0.8; stroke: #cccccc; stroke-linejoin: miter"/>
    </g>
    <g id="patch_33">
     <path d="M 604.85125 40.15875 
L 620.85125 40.15875 
L 620.85125 34.55875 
L 604.85125 34.55875 
z
" style="fill: #1f77b4"/>
    </g>
    <g id="text_16">
     <!-- per_frame_max_abs_delta -->
     <g transform="translate(627.25125 40.15875) scale(0.08 -0.08)">
      <defs>
       <path id="DejaVuSans-66" d="M 2375 4863 
L 2375 4384 
L 1825 4384 
Q 1516 4384 1395 4259 
Q 1275 4134 1275 3809 
L 1275 3500 
L 2222 3500 
L 2222 3053 
L 1275 3053 
L 1275 0 
L 697 0 
L 697 3053 
L 147 3053 
L 147 3500 
L 697 3500 
L 697 3744 
Q 697 4328 969 4595 
Q 1241 4863 1831 4863 
L 2375 4863 
z
" transform="scale(0.015625)"/>
      </defs>
      <use xlink:href="#DejaVuSans-70"/>
      <use xlink:href="#DejaVuSans-65" transform="translate(63.476562 0)"/>
      <use xlink:href="#DejaVuSans-72" transform="translate(125 0)"/>
      <use xlink:href="#DejaVuSans-5f" transform="translate(166.113281 0)"/>
      <use xlink:href="#DejaVuSans-66" transform="translate(216.113281 0)"/>
      <use xlink:href="#DejaVuSans-72" transform="translate(251.318359 0)"/>
      <use xlink:href="#DejaVuSans-61" transform="translate(292.431641 0)"/>
      <use xlink:href="#DejaVuSans-6d" transform="translate(353.710938 0)"/>
      <use xlink:href="#DejaVuSans-65" transform="translate(451.123047 0)"/>
      <use xlink:href="#DejaVuSans-5f" transform="translate(512.646484 0)"/>
      <use xlink:href="#DejaVuSans-6d" transform="translate(562.646484 0)"/>
      <use xlink:href="#DejaVuSans-61" transform="translate(660.058594 0)"/>
      <use xlink:href="#DejaVuSans-78" transform="translate(721.337891 0)"/>
      <use xlink:href="#DejaVuSans-5f" transform="translate(780.517578 0)"/>
      <use xlink:href="#DejaVuSans-61" transform="translate(830.517578 0)"/>
      <use xlink:href="#DejaVuSans-62" transform="translate(891.796875 0)"/>
      <use xlink:href="#DejaVuSans-73" transform="translate(955.273438 0)"/>
      <use xlink:href="#DejaVuSans-5f" transform="translate(1007.373047 0)"/>
      <use xlink:href="#DejaVuSans-64" transform="translate(1057.373047 0)"/>
      <use xlink:href="#DejaVuSans-65" transform="translate(1120.849609 0)"/>
      <use xlink:href="#DejaVuSans-6c" transform="translate(1182.373047 0)"/>
      <use xlink:href="#DejaVuSans-74" transform="translate(1210.15625 0)"/>
      <use xlink:href="#DejaVuSans-61" transform="translate(1249.365234 0)"/>
     </g>
    </g>
    <g id="patch_34">
     <path d="M 604.85125 52.12375 
L 620.85125 52.12375 
L 620.85125 46.52375 
L 604.85125 46.52375 
z
" style="fill: #ff7f0e"/>
    </g>
    <g id="text_17">
     <!-- robot_max_abs_delta -->
     <g transform="translate(627.25125 52.12375) scale(0.08 -0.08)">
      <use xlink:href="#DejaVuSans-72"/>
      <use xlink:href="#DejaVuSans-6f" transform="translate(38.863281 0)"/>
      <use xlink:href="#DejaVuSans-62" transform="translate(100.044922 0)"/>
      <use xlink:href="#DejaVuSans-6f" transform="translate(163.521484 0)"/>
      <use xlink:href="#DejaVuSans-74" transform="translate(224.703125 0)"/>
      <use xlink:href="#DejaVuSans-5f" transform="translate(263.912109 0)"/>
      <use xlink:href="#DejaVuSans-6d" transform="translate(313.912109 0)"/>
      <use xlink:href="#DejaVuSans-61" transform="translate(411.324219 0)"/>
      <use xlink:href="#DejaVuSans-78" transform="translate(472.603516 0)"/>
      <use xlink:href="#DejaVuSans-5f" transform="translate(531.783203 0)"/>
      <use xlink:href="#DejaVuSans-61" transform="translate(581.783203 0)"/>
      <use xlink:href="#DejaVuSans-62" transform="translate(643.0625 0)"/>
      <use xlink:href="#DejaVuSans-73" transform="translate(706.539062 0)"/>
      <use xlink:href="#DejaVuSans-5f" transform="translate(758.638672 0)"/>
      <use xlink:href="#DejaVuSans-64" transform="translate(808.638672 0)"/>
      <use xlink:href="#DejaVuSans-65" transform="translate(872.115234 0)"/>
      <use xlink:href="#DejaVuSans-6c" transform="translate(933.638672 0)"/>
      <use xlink:href="#DejaVuSans-74" transform="translate(961.421875 0)"/>
      <use xlink:href="#DejaVuSans-61" transform="translate(1000.630859 0)"/>
     </g>
    </g>
    <g id="patch_35">
     <path d="M 604.85125 64.08875 
L 620.85125 64.08875 
L 620.85125 58.48875 
L 604.85125 58.48875 
z
" style="fill: #2ca02c"/>
    </g>
    <g id="text_18">
     <!-- selected_action_max_abs_delta -->
     <g transform="translate(627.25125 64.08875) scale(0.08 -0.08)">
      <use xlink:href="#DejaVuSans-73"/>
      <use xlink:href="#DejaVuSans-65" transform="translate(52.099609 0)"/>
      <use xlink:href="#DejaVuSans-6c" transform="translate(113.623047 0)"/>
      <use xlink:href="#DejaVuSans-65" transform="translate(141.40625 0)"/>
      <use xlink:href="#DejaVuSans-63" transform="translate(202.929688 0)"/>
      <use xlink:href="#DejaVuSans-74" transform="translate(257.910156 0)"/>
      <use xlink:href="#DejaVuSans-65" transform="translate(297.119141 0)"/>
      <use xlink:href="#DejaVuSans-64" transform="translate(358.642578 0)"/>
      <use xlink:href="#DejaVuSans-5f" transform="translate(422.119141 0)"/>
      <use xlink:href="#DejaVuSans-61" transform="translate(472.119141 0)"/>
      <use xlink:href="#DejaVuSans-63" transform="translate(533.398438 0)"/>
      <use xlink:href="#DejaVuSans-74" transform="translate(588.378906 0)"/>
      <use xlink:href="#DejaVuSans-69" transform="translate(627.587891 0)"/>
      <use xlink:href="#DejaVuSans-6f" transform="translate(655.371094 0)"/>
      <use xlink:href="#DejaVuSans-6e" transform="translate(716.552734 0)"/>
      <use xlink:href="#DejaVuSans-5f" transform="translate(779.931641 0)"/>
      <use xlink:href="#DejaVuSans-6d" transform="translate(829.931641 0)"/>
      <use xlink:href="#DejaVuSans-61" transform="translate(927.34375 0)"/>
      <use xlink:href="#DejaVuSans-78" transform="translate(988.623047 0)"/>
      <use xlink:href="#DejaVuSans-5f" transform="translate(1047.802734 0)"/>
      <use xlink:href="#DejaVuSans-61" transform="translate(1097.802734 0)"/>
      <use xlink:href="#DejaVuSans-62" transform="translate(1159.082031 0)"/>
      <use xlink:href="#DejaVuSans-73" transform="translate(1222.558594 0)"/>
      <use xlink:href="#DejaVuSans-5f" transform="translate(1274.658203 0)"/>
      <use xlink:href="#DejaVuSans-64" transform="translate(1324.658203 0)"/>
      <use xlink:href="#DejaVuSans-65" transform="translate(1388.134766 0)"/>
      <use xlink:href="#DejaVuSans-6c" transform="translate(1449.658203 0)"/>
      <use xlink:href="#DejaVuSans-74" transform="translate(1477.441406 0)"/>
      <use xlink:href="#DejaVuSans-61" transform="translate(1516.650391 0)"/>
     </g>
    </g>
    <g id="patch_36">
     <path d="M 604.85125 76.05375 
L 620.85125 76.05375 
L 620.85125 70.45375 
L 604.85125 70.45375 
z
" style="fill: #d62728"/>
    </g>
    <g id="text_19">
     <!-- event_max_abs_delta -->
     <g transform="translate(627.25125 76.05375) scale(0.08 -0.08)">
      <use xlink:href="#DejaVuSans-65"/>
      <use xlink:href="#DejaVuSans-76" transform="translate(61.523438 0)"/>
      <use xlink:href="#DejaVuSans-65" transform="translate(120.703125 0)"/>
      <use xlink:href="#DejaVuSans-6e" transform="translate(182.226562 0)"/>
      <use xlink:href="#DejaVuSans-74" transform="translate(245.605469 0)"/>
      <use xlink:href="#DejaVuSans-5f" transform="translate(284.814453 0)"/>
      <use xlink:href="#DejaVuSans-6d" transform="translate(334.814453 0)"/>
      <use xlink:href="#DejaVuSans-61" transform="translate(432.226562 0)"/>
      <use xlink:href="#DejaVuSans-78" transform="translate(493.505859 0)"/>
      <use xlink:href="#DejaVuSans-5f" transform="translate(552.685547 0)"/>
      <use xlink:href="#DejaVuSans-61" transform="translate(602.685547 0)"/>
      <use xlink:href="#DejaVuSans-62" transform="translate(663.964844 0)"/>
      <use xlink:href="#DejaVuSans-73" transform="translate(727.441406 0)"/>
      <use xlink:href="#DejaVuSans-5f" transform="translate(779.541016 0)"/>
      <use xlink:href="#DejaVuSans-64" transform="translate(829.541016 0)"/>
      <use xlink:href="#DejaVuSans-65" transform="translate(893.017578 0)"/>
      <use xlink:href="#DejaVuSans-6c" transform="translate(954.541016 0)"/>
      <use xlink:href="#DejaVuSans-74" transform="translate(982.324219 0)"/>
      <use xlink:href="#DejaVuSans-61" transform="translate(1021.533203 0)"/>
     </g>
    </g>
    <g id="patch_37">
     <path d="M 604.85125 88.01875 
L 620.85125 88.01875 
L 620.85125 82.41875 
L 604.85125 82.41875 
z
" style="fill: #9467bd"/>
    </g>
    <g id="text_20">
     <!-- ammv_force_vectors_max_abs_delta -->
     <g transform="translate(627.25125 88.01875) scale(0.08 -0.08)">
      <use xlink:href="#DejaVuSans-61"/>
      <use xlink:href="#DejaVuSans-6d" transform="translate(61.279297 0)"/>
      <use xlink:href="#DejaVuSans-6d" transform="translate(158.691406 0)"/>
      <use xlink:href="#DejaVuSans-76" transform="translate(256.103516 0)"/>
      <use xlink:href="#DejaVuSans-5f" transform="translate(315.283203 0)"/>
      <use xlink:href="#DejaVuSans-66" transform="translate(365.283203 0)"/>
      <use xlink:href="#DejaVuSans-6f" transform="translate(400.488281 0)"/>
      <use xlink:href="#DejaVuSans-72" transform="translate(461.669922 0)"/>
      <use xlink:href="#DejaVuSans-63" transform="translate(500.533203 0)"/>
      <use xlink:href="#DejaVuSans-65" transform="translate(555.513672 0)"/>
      <use xlink:href="#DejaVuSans-5f" transform="translate(617.037109 0)"/>
      <use xlink:href="#DejaVuSans-76" transform="translate(667.037109 0)"/>
      <use xlink:href="#DejaVuSans-65" transform="translate(726.216797 0)"/>
      <use xlink:href="#DejaVuSans-63" transform="translate(787.740234 0)"/>
      <use xlink:href="#DejaVuSans-74" transform="translate(842.720703 0)"/>
      <use xlink:href="#DejaVuSans-6f" transform="translate(881.929688 0)"/>
      <use xlink:href="#DejaVuSans-72" transform="translate(943.111328 0)"/>
      <use xlink:href="#DejaVuSans-73" transform="translate(984.224609 0)"/>
      <use xlink:href="#DejaVuSans-5f" transform="translate(1036.324219 0)"/>
      <use xlink:href="#DejaVuSans-6d" transform="translate(1086.324219 0)"/>
      <use xlink:href="#DejaVuSans-61" transform="translate(1183.736328 0)"/>
      <use xlink:href="#DejaVuSans-78" transform="translate(1245.015625 0)"/>
      <use xlink:href="#DejaVuSans-5f" transform="translate(1304.195312 0)"/>
      <use xlink:href="#DejaVuSans-61" transform="translate(1354.195312 0)"/>
      <use xlink:href="#DejaVuSans-62" transform="translate(1415.474609 0)"/>
      <use xlink:href="#DejaVuSans-73" transform="translate(1478.951172 0)"/>
      <use xlink:href="#DejaVuSans-5f" transform="translate(1531.050781 0)"/>
      <use xlink:href="#DejaVuSans-64" transform="translate(1581.050781 0)"/>
      <use xlink:href="#DejaVuSans-65" transform="translate(1644.527344 0)"/>
      <use xlink:href="#DejaVuSans-6c" transform="translate(1706.050781 0)"/>
      <use xlink:href="#DejaVuSans-74" transform="translate(1733.833984 0)"/>
      <use xlink:href="#DejaVuSans-61" transform="translate(1773.042969 0)"/>
     </g>
    </g>
   </g>
  </g>
 </g>
 <defs>
  <clipPath id="p980c1dfcf1">
   <rect x="65.093526" y="26.88" width="716.106474" height="147.719752"/>
  </clipPath>
 </defs>
</svg>
