<?xml version="1.0" encoding="utf-8" standalone="no"?>
<!DOCTYPE svg PUBLIC "-//W3C//DTD SVG 1.1//EN"
  "http://www.w3.org/Graphics/SVG/1.1/DTD/svg11.dtd">
<svg xmlns:xlink="http://www.w3.org/1999/xlink" width="648pt" height="288pt" viewBox="0 0 648 288" xmlns="http://www.w3.org/2000/svg" version="1.1">
 <metadata>
  <rdf:RDF xmlns:dc="http://purl.org/dc/elements/1.1/" xmlns:cc="http://creativecommons.org/ns#" xmlns:rdf="http://www.w3.org/1999/02/22-rdf-syntax-ns#">
   <cc:Work>
    <dc:type rdf:resource="http://purl.org/dc/dcmitype/StillImage"/>
    <dc:date>2026-06-19T00:00:00+00:00</dc:date>
    <dc:format>image/svg+xml</dc:format>
    <dc:creator>
     <cc:Agent>
      <dc:title>Matplotlib v3.10.8, https://matplotlib.org/</dc:title>
     </cc:Agent>
    </dc:creator>
   </cc:Work>
  </rdf:RDF>
 </metadata>
 <defs>
  <style type="text/css">*{stroke-linejoin: round; stroke-linecap: butt}</style>
 </defs>
 <g id="figure_1">
  <g id="patch_1">
   <path d="M 0 288 
L 648 288 
L 648 0 
L 0 0 
z
" style="fill: #ffffff"/>
  </g>
  <g id="axes_1">
   <g id="patch_2">
    <path d="M 47.72 245.93875 
L 637.2 245.93875 
L 637.2 26.88 
L 47.72 26.88 
z
" style="fill: #ffffff"/>
   </g>
   <g id="patch_3">
    <path d="M 74.514545 245.93875 
L 101.763236 245.93875 
L 101.763236 37.311369 
L 74.514545 37.311369 
z
" clip-path="url(#p793b2f2321)" style="fill: #1f77b4"/>
   </g>
   <g id="patch_4">
    <path d="M 225.896158 245.93875 
L 253.144848 245.93875 
L 253.144848 245.93875 
L 225.896158 245.93875 
z
" clip-path="url(#p793b2f2321)" style="fill: #1f77b4"/>
   </g>
   <g id="patch_5">
    <path d="M 377.277771 245.93875 
L 404.526461 245.93875 
L 404.526461 37.311369 
L 377.277771 37.311369 
z
" clip-path="url(#p793b2f2321)" style="fill: #1f77b4"/>
   </g>
   <g id="patch_6">
    <path d="M 528.659384 245.93875 
L 555.908074 245.93875 
L 555.908074 245.93875 
L 528.659384 245.93875 
z
" clip-path="url(#p793b2f2321)" style="fill: #1f77b4"/>
   </g>
   <g id="patch_7">
    <path d="M 101.763236 245.93875 
L 129.011926 245.93875 
L 129.011926 37.311369 
L 101.763236 37.311369 
z
" clip-path="url(#p793b2f2321)" style="fill: #ff7f0e"/>
   </g>
   <g id="patch_8">
    <path d="M 253.144848 245.93875 
L 280.393539 245.93875 
L 280.393539 245.93875 
L 253.144848 245.93875 
z
" clip-path="url(#p793b2f2321)" style="fill: #ff7f0e"/>
   </g>
   <g id="patch_9">
    <path d="M 404.526461 245.93875 
L 431.775152 245.93875 
L 431.775152 37.311369 
L 404.526461 37.311369 
z
" clip-path="url(#p793b2f2321)" style="fill: #ff7f0e"/>
   </g>
   <g id="patch_10">
    <path d="M 555.908074 245.93875 
L 583.156764 245.93875 
L 583.156764 245.93875 
L 555.908074 245.93875 
z
" clip-path="url(#p793b2f2321)" style="fill: #ff7f0e"/>
   </g>
   <g id="patch_11">
    <path d="M 101.763236 245.93875 
L 129.011926 245.93875 
L 129.011926 245.93875 
L 101.763236 245.93875 
z
" clip-path="url(#p793b2f2321)" style="fill: #2ca02c"/>
   </g>
   <g id="patch_12">
    <path d="M 253.144848 245.93875 
L 280.393539 245.93875 
L 280.393539 37.311369 
L 253.144848 37.311369 
z
" clip-path="url(#p793b2f2321)" style="fill: #2ca02c"/>
   </g>
   <g id="patch_13">
    <path d="M 404.526461 245.93875 
L 431.775152 245.93875 
L 431.775152 245.93875 
L 404.526461 245.93875 
z
" clip-path="url(#p793b2f2321)" style="fill: #2ca02c"/>
   </g>
   <g id="patch_14">
    <path d="M 555.908074 245.93875 
L 583.156764 245.93875 
L 583.156764 37.311369 
L 555.908074 37.311369 
z
" clip-path="url(#p793b2f2321)" style="fill: #2ca02c"/>
   </g>
   <g id="patch_15">
    <path d="M 129.011926 245.93875 
L 156.260616 245.93875 
L 156.260616 245.93875 
L 129.011926 245.93875 
z
" clip-path="url(#p793b2f2321)" style="fill: #d62728"/>
   </g>
   <g id="patch_16">
    <path d="M 280.393539 245.93875 
L 307.642229 245.93875 
L 307.642229 37.311369 
L 280.393539 37.311369 
z
" clip-path="url(#p793b2f2321)" style="fill: #d62728"/>
   </g>
   <g id="patch_17">
    <path d="M 431.775152 245.93875 
L 459.023842 245.93875 
L 459.023842 245.93875 
L 431.775152 245.93875 
z
" clip-path="url(#p793b2f2321)" style="fill: #d62728"/>
   </g>
   <g id="patch_18">
    <path d="M 583.156764 245.93875 
L 610.405455 245.93875 
L 610.405455 37.311369 
L 583.156764 37.311369 
z
" clip-path="url(#p793b2f2321)" style="fill: #d62728"/>
   </g>
   <g id="matplotlib.axis_1">
    <g id="xtick_1">
     <g id="line2d_1">
      <defs>
       <path id="m14228c9a03" d="M 0 0 
L 0 3.5 
" style="stroke: #000000; stroke-width: 0.8"/>
      </defs>
      <g>
       <use xlink:href="#m14228c9a03" x="101.763236" y="245.93875" style="stroke: #000000; stroke-width: 0.8"/>
      </g>
     </g>
     <g id="text_1">
      <!-- green_proceed -->
      <g transform="translate(64.571048 260.537188) scale(0.1 -0.1)">
       <defs>
        <path id="DejaVuSans-67" d="M 2906 1791 
Q 2906 2416 2648 2759 
Q 2391 3103 1925 3103 
Q 1463 3103 1205 2759 
Q 947 2416 947 1791 
Q 947 1169 1205 825 
Q 1463 481 1925 481 
Q 2391 481 2648 825 
Q 2906 1169 2906 1791 
z
M 3481 434 
Q 3481 -459 3084 -895 
Q 2688 -1331 1869 -1331 
Q 1566 -1331 1297 -1286 
Q 1028 -1241 775 -1147 
L 775 -588 
Q 1028 -725 1275 -790 
Q 1522 -856 1778 -856 
Q 2344 -856 2625 -561 
Q 2906 -266 2906 331 
L 2906 616 
Q 2728 306 2450 153 
Q 2172 0 1784 0 
Q 1141 0 747 490 
Q 353 981 353 1791 
Q 353 2603 747 3093 
Q 1141 3584 1784 3584 
Q 2172 3584 2450 3431 
Q 2728 3278 2906 2969 
L 2906 3500 
L 3481 3500 
L 3481 434 
z
" transform="scale(0.015625)"/>
        <path id="DejaVuSans-72" d="M 2631 2963 
Q 2534 3019 2420 3045 
Q 2306 3072 2169 3072 
Q 1681 3072 1420 2755 
Q 1159 2438 1159 1844 
L 1159 0 
L 581 0 
L 581 3500 
L 1159 3500 
L 1159 2956 
Q 1341 3275 1631 3429 
Q 1922 3584 2338 3584 
Q 2397 3584 2469 3576 
Q 2541 3569 2628 3553 
L 2631 2963 
z
" transform="scale(0.015625)"/>
        <path id="DejaVuSans-65" d="M 3597 1894 
L 3597 1613 
L 953 1613 
Q 991 1019 1311 708 
Q 1631 397 2203 397 
Q 2534 397 2845 478 
Q 3156 559 3463 722 
L 3463 178 
Q 3153 47 2828 -22 
Q 2503 -91 2169 -91 
Q 1331 -91 842 396 
Q 353 884 353 1716 
Q 353 2575 817 3079 
Q 1281 3584 2069 3584 
Q 2775 3584 3186 3129 
Q 3597 2675 3597 1894 
z
M 3022 2063 
Q 3016 2534 2758 2815 
Q 2500 3097 2075 3097 
Q 1594 3097 1305 2825 
Q 1016 2553 972 2059 
L 3022 2063 
z
" transform="scale(0.015625)"/>
        <path id="DejaVuSans-6e" d="M 3513 2113 
L 3513 0 
L 2938 0 
L 2938 2094 
Q 2938 2591 2744 2837 
Q 2550 3084 2163 3084 
Q 1697 3084 1428 2787 
Q 1159 2491 1159 1978 
L 1159 0 
L 581 0 
L 581 3500 
L 1159 3500 
L 1159 2956 
Q 1366 3272 1645 3428 
Q 1925 3584 2291 3584 
Q 2894 3584 3203 3211 
Q 3513 2838 3513 2113 
z
" transform="scale(0.015625)"/>
        <path id="DejaVuSans-5f" d="M 3263 -1063 
L 3263 -1509 
L -63 -1509 
L -63 -1063 
L 3263 -1063 
z
" transform="scale(0.015625)"/>
        <path id="DejaVuSans-70" d="M 1159 525 
L 1159 -1331 
L 581 -1331 
L 581 3500 
L 1159 3500 
L 1159 2969 
Q 1341 3281 1617 3432 
Q 1894 3584 2278 3584 
Q 2916 3584 3314 3078 
Q 3713 2572 3713 1747 
Q 3713 922 3314 415 
Q 2916 -91 2278 -91 
Q 1894 -91 1617 61 
Q 1341 213 1159 525 
z
M 3116 1747 
Q 3116 2381 2855 2742 
Q 2594 3103 2138 3103 
Q 1681 3103 1420 2742 
Q 1159 2381 1159 1747 
Q 1159 1113 1420 752 
Q 1681 391 2138 391 
Q 2594 391 2855 752 
Q 3116 1113 3116 1747 
z
" transform="scale(0.015625)"/>
        <path id="DejaVuSans-6f" d="M 1959 3097 
Q 1497 3097 1228 2736 
Q 959 2375 959 1747 
Q 959 1119 1226 758 
Q 1494 397 1959 397 
Q 2419 397 2687 759 
Q 2956 1122 2956 1747 
Q 2956 2369 2687 2733 
Q 2419 3097 1959 3097 
z
M 1959 3584 
Q 2709 3584 3137 3096 
Q 3566 2609 3566 1747 
Q 3566 888 3137 398 
Q 2709 -91 1959 -91 
Q 1206 -91 779 398 
Q 353 888 353 1747 
Q 353 2609 779 3096 
Q 1206 3584 1959 3584 
z
" transform="scale(0.015625)"/>
        <path id="DejaVuSans-63" d="M 3122 3366 
L 3122 2828 
Q 2878 2963 2633 3030 
Q 2388 3097 2138 3097 
Q 1578 3097 1268 2742 
Q 959 2388 959 1747 
Q 959 1106 1268 751 
Q 1578 397 2138 397 
Q 2388 397 2633 464 
Q 2878 531 3122 666 
L 3122 134 
Q 2881 22 2623 -34 
Q 2366 -91 2075 -91 
Q 1284 -91 818 406 
Q 353 903 353 1747 
Q 353 2603 823 3093 
Q 1294 3584 2113 3584 
Q 2378 3584 2631 3529 
Q 2884 3475 3122 3366 
z
" transform="scale(0.015625)"/>
        <path id="DejaVuSans-64" d="M 2906 2969 
L 2906 4863 
L 3481 4863 
L 3481 0 
L 2906 0 
L 2906 525 
Q 2725 213 2448 61 
Q 2172 -91 1784 -91 
Q 1150 -91 751 415 
Q 353 922 353 1747 
Q 353 2572 751 3078 
Q 1150 3584 1784 3584 
Q 2172 3584 2448 3432 
Q 2725 3281 2906 2969 
z
M 947 1747 
Q 947 1113 1208 752 
Q 1469 391 1925 391 
Q 2381 391 2643 752 
Q 2906 1113 2906 1747 
Q 2906 2381 2643 2742 
Q 2381 3103 1925 3103 
Q 1469 3103 1208 2742 
Q 947 2381 947 1747 
z
" transform="scale(0.015625)"/>
       </defs>
       <use xlink:href="#DejaVuSans-67"/>
       <use xlink:href="#DejaVuSans-72" transform="translate(63.476562 0)"/>
       <use xlink:href="#DejaVuSans-65" transform="translate(102.339844 0)"/>
       <use xlink:href="#DejaVuSans-65" transform="translate(163.863281 0)"/>
       <use xlink:href="#DejaVuSans-6e" transform="translate(225.386719 0)"/>
       <use xlink:href="#DejaVuSans-5f" transform="translate(288.765625 0)"/>
       <use xlink:href="#DejaVuSans-70" transform="translate(338.765625 0)"/>
       <use xlink:href="#DejaVuSans-72" transform="translate(402.242188 0)"/>
       <use xlink:href="#DejaVuSans-6f" transform="translate(441.105469 0)"/>
       <use xlink:href="#DejaVuSans-63" transform="translate(502.287109 0)"/>
       <use xlink:href="#DejaVuSans-65" transform="translate(557.267578 0)"/>
       <use xlink:href="#DejaVuSans-65" transform="translate(618.791016 0)"/>
       <use xlink:href="#DejaVuSans-64" transform="translate(680.314453 0)"/>
      </g>
     </g>
    </g>
    <g id="xtick_2">
     <g id="line2d_2">
      <g>
       <use xlink:href="#m14228c9a03" x="253.144848" y="245.93875" style="stroke: #000000; stroke-width: 0.8"/>
      </g>
     </g>
     <g id="text_2">
      <!-- proxy_only_denominator_excluded -->
      <g transform="translate(166.490161 260.537188) scale(0.1 -0.1)">
       <defs>
        <path id="DejaVuSans-78" d="M 3513 3500 
L 2247 1797 
L 3578 0 
L 2900 0 
L 1881 1375 
L 863 0 
L 184 0 
L 1544 1831 
L 300 3500 
L 978 3500 
L 1906 2253 
L 2834 3500 
L 3513 3500 
z
" transform="scale(0.015625)"/>
        <path id="DejaVuSans-79" d="M 2059 -325 
Q 1816 -950 1584 -1140 
Q 1353 -1331 966 -1331 
L 506 -1331 
L 506 -850 
L 844 -850 
Q 1081 -850 1212 -737 
Q 1344 -625 1503 -206 
L 1606 56 
L 191 3500 
L 800 3500 
L 1894 763 
L 2988 3500 
L 3597 3500 
L 2059 -325 
z
" transform="scale(0.015625)"/>
        <path id="DejaVuSans-6c" d="M 603 4863 
L 1178 4863 
L 1178 0 
L 603 0 
L 603 4863 
z
" transform="scale(0.015625)"/>
        <path id="DejaVuSans-6d" d="M 3328 2828 
Q 3544 3216 3844 3400 
Q 4144 3584 4550 3584 
Q 5097 3584 5394 3201 
Q 5691 2819 5691 2113 
L 5691 0 
L 5113 0 
L 5113 2094 
Q 5113 2597 4934 2840 
Q 4756 3084 4391 3084 
Q 3944 3084 3684 2787 
Q 3425 2491 3425 1978 
L 3425 0 
L 2847 0 
L 2847 2094 
Q 2847 2600 2669 2842 
Q 2491 3084 2119 3084 
Q 1678 3084 1418 2786 
Q 1159 2488 1159 1978 
L 1159 0 
L 581 0 
L 581 3500 
L 1159 3500 
L 1159 2956 
Q 1356 3278 1631 3431 
Q 1906 3584 2284 3584 
Q 2666 3584 2933 3390 
Q 3200 3197 3328 2828 
z
" transform="scale(0.015625)"/>
        <path id="DejaVuSans-69" d="M 603 3500 
L 1178 3500 
L 1178 0 
L 603 0 
L 603 3500 
z
M 603 4863 
L 1178 4863 
L 1178 4134 
L 603 4134 
L 603 4863 
z
" transform="scale(0.015625)"/>
        <path id="DejaVuSans-61" d="M 2194 1759 
Q 1497 1759 1228 1600 
Q 959 1441 959 1056 
Q 959 750 1161 570 
Q 1363 391 1709 391 
Q 2188 391 2477 730 
Q 2766 1069 2766 1631 
L 2766 1759 
L 2194 1759 
z
M 3341 1997 
L 3341 0 
L 2766 0 
L 2766 531 
Q 2569 213 2275 61 
Q 1981 -91 1556 -91 
Q 1019 -91 701 211 
Q 384 513 384 1019 
Q 384 1609 779 1909 
Q 1175 2209 1959 2209 
L 2766 2209 
L 2766 2266 
Q 2766 2663 2505 2880 
Q 2244 3097 1772 3097 
Q 1472 3097 1187 3025 
Q 903 2953 641 2809 
L 641 3341 
Q 956 3463 1253 3523 
Q 1550 3584 1831 3584 
Q 2591 3584 2966 3190 
Q 3341 2797 3341 1997 
z
" transform="scale(0.015625)"/>
        <path id="DejaVuSans-74" d="M 1172 4494 
L 1172 3500 
L 2356 3500 
L 2356 3053 
L 1172 3053 
L 1172 1153 
Q 1172 725 1289 603 
Q 1406 481 1766 481 
L 2356 481 
L 2356 0 
L 1766 0 
Q 1100 0 847 248 
Q 594 497 594 1153 
L 594 3053 
L 172 3053 
L 172 3500 
L 594 3500 
L 594 4494 
L 1172 4494 
z
" transform="scale(0.015625)"/>
        <path id="DejaVuSans-75" d="M 544 1381 
L 544 3500 
L 1119 3500 
L 1119 1403 
Q 1119 906 1312 657 
Q 1506 409 1894 409 
Q 2359 409 2629 706 
Q 2900 1003 2900 1516 
L 2900 3500 
L 3475 3500 
L 3475 0 
L 2900 0 
L 2900 538 
Q 2691 219 2414 64 
Q 2138 -91 1772 -91 
Q 1169 -91 856 284 
Q 544 659 544 1381 
z
M 1991 3584 
L 1991 3584 
z
" transform="scale(0.015625)"/>
       </defs>
       <use xlink:href="#DejaVuSans-70"/>
       <use xlink:href="#DejaVuSans-72" transform="translate(63.476562 0)"/>
       <use xlink:href="#DejaVuSans-6f" transform="translate(102.339844 0)"/>
       <use xlink:href="#DejaVuSans-78" transform="translate(160.396484 0)"/>
       <use xlink:href="#DejaVuSans-79" transform="translate(219.576172 0)"/>
       <use xlink:href="#DejaVuSans-5f" transform="translate(278.755859 0)"/>
       <use xlink:href="#DejaVuSans-6f" transform="translate(328.755859 0)"/>
       <use xlink:href="#DejaVuSans-6e" transform="translate(389.9375 0)"/>
       <use xlink:href="#DejaVuSans-6c" transform="translate(453.316406 0)"/>
       <use xlink:href="#DejaVuSans-79" transform="translate(481.099609 0)"/>
       <use xlink:href="#DejaVuSans-5f" transform="translate(540.279297 0)"/>
       <use xlink:href="#DejaVuSans-64" transform="translate(590.279297 0)"/>
       <use xlink:href="#DejaVuSans-65" transform="translate(653.755859 0)"/>
       <use xlink:href="#DejaVuSans-6e" transform="translate(715.279297 0)"/>
       <use xlink:href="#DejaVuSans-6f" transform="translate(778.658203 0)"/>
       <use xlink:href="#DejaVuSans-6d" transform="translate(839.839844 0)"/>
       <use xlink:href="#DejaVuSans-69" transform="translate(937.251953 0)"/>
       <use xlink:href="#DejaVuSans-6e" transform="translate(965.035156 0)"/>
       <use xlink:href="#DejaVuSans-61" transform="translate(1028.414062 0)"/>
       <use xlink:href="#DejaVuSans-74" transform="translate(1089.693359 0)"/>
       <use xlink:href="#DejaVuSans-6f" transform="translate(1128.902344 0)"/>
       <use xlink:href="#DejaVuSans-72" transform="translate(1190.083984 0)"/>
       <use xlink:href="#DejaVuSans-5f" transform="translate(1231.197266 0)"/>
       <use xlink:href="#DejaVuSans-65" transform="translate(1281.197266 0)"/>
       <use xlink:href="#DejaVuSans-78" transform="translate(1340.970703 0)"/>
       <use xlink:href="#DejaVuSans-63" transform="translate(1398.400391 0)"/>
       <use xlink:href="#DejaVuSans-6c" transform="translate(1453.380859 0)"/>
       <use xlink:href="#DejaVuSans-75" transform="translate(1481.164062 0)"/>
       <use xlink:href="#DejaVuSans-64" transform="translate(1544.542969 0)"/>
       <use xlink:href="#DejaVuSans-65" transform="translate(1608.019531 0)"/>
       <use xlink:href="#DejaVuSans-64" transform="translate(1669.542969 0)"/>
      </g>
     </g>
    </g>
    <g id="xtick_3">
     <g id="line2d_3">
      <g>
       <use xlink:href="#m14228c9a03" x="404.526461" y="245.93875" style="stroke: #000000; stroke-width: 0.8"/>
      </g>
     </g>
     <g id="text_3">
      <!-- red_required_stop -->
      <g transform="translate(359.588961 260.537188) scale(0.1 -0.1)">
       <defs>
        <path id="DejaVuSans-71" d="M 947 1747 
Q 947 1113 1208 752 
Q 1469 391 1925 391 
Q 2381 391 2643 752 
Q 2906 1113 2906 1747 
Q 2906 2381 2643 2742 
Q 2381 3103 1925 3103 
Q 1469 3103 1208 2742 
Q 947 2381 947 1747 
z
M 2906 525 
Q 2725 213 2448 61 
Q 2172 -91 1784 -91 
Q 1150 -91 751 415 
Q 353 922 353 1747 
Q 353 2572 751 3078 
Q 1150 3584 1784 3584 
Q 2172 3584 2448 3432 
Q 2725 3281 2906 2969 
L 2906 3500 
L 3481 3500 
L 3481 -1331 
L 2906 -1331 
L 2906 525 
z
" transform="scale(0.015625)"/>
        <path id="DejaVuSans-73" d="M 2834 3397 
L 2834 2853 
Q 2591 2978 2328 3040 
Q 2066 3103 1784 3103 
Q 1356 3103 1142 2972 
Q 928 2841 928 2578 
Q 928 2378 1081 2264 
Q 1234 2150 1697 2047 
L 1894 2003 
Q 2506 1872 2764 1633 
Q 3022 1394 3022 966 
Q 3022 478 2636 193 
Q 2250 -91 1575 -91 
Q 1294 -91 989 -36 
Q 684 19 347 128 
L 347 722 
Q 666 556 975 473 
Q 1284 391 1588 391 
Q 1994 391 2212 530 
Q 2431 669 2431 922 
Q 2431 1156 2273 1281 
Q 2116 1406 1581 1522 
L 1381 1569 
Q 847 1681 609 1914 
Q 372 2147 372 2553 
Q 372 3047 722 3315 
Q 1072 3584 1716 3584 
Q 2034 3584 2315 3537 
Q 2597 3491 2834 3397 
z
" transform="scale(0.015625)"/>
       </defs>
       <use xlink:href="#DejaVuSans-72"/>
       <use xlink:href="#DejaVuSans-65" transform="translate(38.863281 0)"/>
       <use xlink:href="#DejaVuSans-64" transform="translate(100.386719 0)"/>
       <use xlink:href="#DejaVuSans-5f" transform="translate(163.863281 0)"/>
       <use xlink:href="#DejaVuSans-72" transform="translate(213.863281 0)"/>
       <use xlink:href="#DejaVuSans-65" transform="translate(252.726562 0)"/>
       <use xlink:href="#DejaVuSans-71" transform="translate(314.25 0)"/>
       <use xlink:href="#DejaVuSans-75" transform="translate(377.726562 0)"/>
       <use xlink:href="#DejaVuSans-69" transform="translate(441.105469 0)"/>
       <use xlink:href="#DejaVuSans-72" transform="translate(468.888672 0)"/>
       <use xlink:href="#DejaVuSans-65" transform="translate(507.751953 0)"/>
       <use xlink:href="#DejaVuSans-64" transform="translate(569.275391 0)"/>
       <use xlink:href="#DejaVuSans-5f" transform="translate(632.751953 0)"/>
       <use xlink:href="#DejaVuSans-73" transform="translate(682.751953 0)"/>
       <use xlink:href="#DejaVuSans-74" transform="translate(734.851562 0)"/>
       <use xlink:href="#DejaVuSans-6f" transform="translate(774.060547 0)"/>
       <use xlink:href="#DejaVuSans-70" transform="translate(835.242188 0)"/>
      </g>
     </g>
    </g>
    <g id="xtick_4">
     <g id="line2d_4">
      <g>
       <use xlink:href="#m14228c9a03" x="555.908074" y="245.93875" style="stroke: #000000; stroke-width: 0.8"/>
      </g>
     </g>
     <g id="text_4">
      <!-- unavailable_no_claim -->
      <g transform="translate(502.311199 260.537188) scale(0.1 -0.1)">
       <defs>
        <path id="DejaVuSans-76" d="M 191 3500 
L 800 3500 
L 1894 563 
L 2988 3500 
L 3597 3500 
L 2284 0 
L 1503 0 
L 191 3500 
z
" transform="scale(0.015625)"/>
        <path id="DejaVuSans-62" d="M 3116 1747 
Q 3116 2381 2855 2742 
Q 2594 3103 2138 3103 
Q 1681 3103 1420 2742 
Q 1159 2381 1159 1747 
Q 1159 1113 1420 752 
Q 1681 391 2138 391 
Q 2594 391 2855 752 
Q 3116 1113 3116 1747 
z
M 1159 2969 
Q 1341 3281 1617 3432 
Q 1894 3584 2278 3584 
Q 2916 3584 3314 3078 
Q 3713 2572 3713 1747 
Q 3713 922 3314 415 
Q 2916 -91 2278 -91 
Q 1894 -91 1617 61 
Q 1341 213 1159 525 
L 1159 0 
L 581 0 
L 581 4863 
L 1159 4863 
L 1159 2969 
z
" transform="scale(0.015625)"/>
       </defs>
       <use xlink:href="#DejaVuSans-75"/>
       <use xlink:href="#DejaVuSans-6e" transform="translate(63.378906 0)"/>
       <use xlink:href="#DejaVuSans-61" transform="translate(126.757812 0)"/>
       <use xlink:href="#DejaVuSans-76" transform="translate(188.037109 0)"/>
       <use xlink:href="#DejaVuSans-61" transform="translate(247.216797 0)"/>
       <use xlink:href="#DejaVuSans-69" transform="translate(308.496094 0)"/>
       <use xlink:href="#DejaVuSans-6c" transform="translate(336.279297 0)"/>
       <use xlink:href="#DejaVuSans-61" transform="translate(364.0625 0)"/>
       <use xlink:href="#DejaVuSans-62" transform="translate(425.341797 0)"/>
       <use xlink:href="#DejaVuSans-6c" transform="translate(488.818359 0)"/>
       <use xlink:href="#DejaVuSans-65" transform="translate(516.601562 0)"/>
       <use xlink:href="#DejaVuSans-5f" transform="translate(578.125 0)"/>
       <use xlink:href="#DejaVuSans-6e" transform="translate(628.125 0)"/>
       <use xlink:href="#DejaVuSans-6f" transform="translate(691.503906 0)"/>
       <use xlink:href="#DejaVuSans-5f" transform="translate(752.685547 0)"/>
       <use xlink:href="#DejaVuSans-63" transform="translate(802.685547 0)"/>
       <use xlink:href="#DejaVuSans-6c" transform="translate(857.666016 0)"/>
       <use xlink:href="#DejaVuSans-61" transform="translate(885.449219 0)"/>
       <use xlink:href="#DejaVuSans-69" transform="translate(946.728516 0)"/>
       <use xlink:href="#DejaVuSans-6d" transform="translate(974.511719 0)"/>
      </g>
     </g>
    </g>
    <g id="text_5">
     <!-- row_type -->
     <g transform="translate(319.698281 274.215312) scale(0.1 -0.1)">
      <defs>
       <path id="DejaVuSans-77" d="M 269 3500 
L 844 3500 
L 1563 769 
L 2278 3500 
L 2956 3500 
L 3675 769 
L 4391 3500 
L 4966 3500 
L 4050 0 
L 3372 0 
L 2619 2869 
L 1863 0 
L 1184 0 
L 269 3500 
z
" transform="scale(0.015625)"/>
      </defs>
      <use xlink:href="#DejaVuSans-72"/>
      <use xlink:href="#DejaVuSans-6f" transform="translate(38.863281 0)"/>
      <use xlink:href="#DejaVuSans-77" transform="translate(100.044922 0)"/>
      <use xlink:href="#DejaVuSans-5f" transform="translate(181.832031 0)"/>
      <use xlink:href="#DejaVuSans-74" transform="translate(231.832031 0)"/>
      <use xlink:href="#DejaVuSans-79" transform="translate(271.041016 0)"/>
      <use xlink:href="#DejaVuSans-70" transform="translate(330.220703 0)"/>
      <use xlink:href="#DejaVuSans-65" transform="translate(393.697266 0)"/>
     </g>
    </g>
   </g>
   <g id="matplotlib.axis_2">
    <g id="ytick_1">
     <g id="line2d_5">
      <path d="M 47.72 245.93875 
L 637.2 245.93875 
" clip-path="url(#p793b2f2321)" style="fill: none; stroke: #b0b0b0; stroke-opacity: 0.25; stroke-width: 0.8; stroke-linecap: square"/>
     </g>
     <g id="line2d_6">
      <defs>
       <path id="m0c4145da49" d="M 0 0 
L -3.5 0 
" style="stroke: #000000; stroke-width: 0.8"/>
      </defs>
      <g>
       <use xlink:href="#m0c4145da49" x="47.72" y="245.93875" style="stroke: #000000; stroke-width: 0.8"/>
      </g>
     </g>
     <g id="text_6">
      <!-- 0.0 -->
      <g transform="translate(24.816875 249.737969) scale(0.1 -0.1)">
       <defs>
        <path id="DejaVuSans-30" d="M 2034 4250 
Q 1547 4250 1301 3770 
Q 1056 3291 1056 2328 
Q 1056 1369 1301 889 
Q 1547 409 2034 409 
Q 2525 409 2770 889 
Q 3016 1369 3016 2328 
Q 3016 3291 2770 3770 
Q 2525 4250 2034 4250 
z
M 2034 4750 
Q 2819 4750 3233 4129 
Q 3647 3509 3647 2328 
Q 3647 1150 3233 529 
Q 2819 -91 2034 -91 
Q 1250 -91 836 529 
Q 422 1150 422 2328 
Q 422 3509 836 4129 
Q 1250 4750 2034 4750 
z
" transform="scale(0.015625)"/>
        <path id="DejaVuSans-2e" d="M 684 794 
L 1344 794 
L 1344 0 
L 684 0 
L 684 794 
z
" transform="scale(0.015625)"/>
       </defs>
       <use xlink:href="#DejaVuSans-30"/>
       <use xlink:href="#DejaVuSans-2e" transform="translate(63.623047 0)"/>
       <use xlink:href="#DejaVuSans-30" transform="translate(95.410156 0)"/>
      </g>
     </g>
    </g>
    <g id="ytick_2">
     <g id="line2d_7">
      <path d="M 47.72 204.213274 
L 637.2 204.213274 
" clip-path="url(#p793b2f2321)" style="fill: none; stroke: #b0b0b0; stroke-opacity: 0.25; stroke-width: 0.8; stroke-linecap: square"/>
     </g>
     <g id="line2d_8">
      <g>
       <use xlink:href="#m0c4145da49" x="47.72" y="204.213274" style="stroke: #000000; stroke-width: 0.8"/>
      </g>
     </g>
     <g id="text_7">
      <!-- 0.2 -->
      <g transform="translate(24.816875 208.012493) scale(0.1 -0.1)">
       <defs>
        <path id="DejaVuSans-32" d="M 1228 531 
L 3431 531 
L 3431 0 
L 469 0 
L 469 531 
Q 828 903 1448 1529 
Q 2069 2156 2228 2338 
Q 2531 2678 2651 2914 
Q 2772 3150 2772 3378 
Q 2772 3750 2511 3984 
Q 2250 4219 1831 4219 
Q 1534 4219 1204 4116 
Q 875 4013 500 3803 
L 500 4441 
Q 881 4594 1212 4672 
Q 1544 4750 1819 4750 
Q 2544 4750 2975 4387 
Q 3406 4025 3406 3419 
Q 3406 3131 3298 2873 
Q 3191 2616 2906 2266 
Q 2828 2175 2409 1742 
Q 1991 1309 1228 531 
z
" transform="scale(0.015625)"/>
       </defs>
       <use xlink:href="#DejaVuSans-30"/>
       <use xlink:href="#DejaVuSans-2e" transform="translate(63.623047 0)"/>
       <use xlink:href="#DejaVuSans-32" transform="translate(95.410156 0)"/>
      </g>
     </g>
    </g>
    <g id="ytick_3">
     <g id="line2d_9">
      <path d="M 47.72 162.487798 
L 637.2 162.487798 
" clip-path="url(#p793b2f2321)" style="fill: none; stroke: #b0b0b0; stroke-opacity: 0.25; stroke-width: 0.8; stroke-linecap: square"/>
     </g>
     <g id="line2d_10">
      <g>
       <use xlink:href="#m0c4145da49" x="47.72" y="162.487798" style="stroke: #000000; stroke-width: 0.8"/>
      </g>
     </g>
     <g id="text_8">
      <!-- 0.4 -->
      <g transform="translate(24.816875 166.287016) scale(0.1 -0.1)">
       <defs>
        <path id="DejaVuSans-34" d="M 2419 4116 
L 825 1625 
L 2419 1625 
L 2419 4116 
z
M 2253 4666 
L 3047 4666 
L 3047 1625 
L 3713 1625 
L 3713 1100 
L 3047 1100 
L 3047 0 
L 2419 0 
L 2419 1100 
L 313 1100 
L 313 1709 
L 2253 4666 
z
" transform="scale(0.015625)"/>
       </defs>
       <use xlink:href="#DejaVuSans-30"/>
       <use xlink:href="#DejaVuSans-2e" transform="translate(63.623047 0)"/>
       <use xlink:href="#DejaVuSans-34" transform="translate(95.410156 0)"/>
      </g>
     </g>
    </g>
    <g id="ytick_4">
     <g id="line2d_11">
      <path d="M 47.72 120.762321 
L 637.2 120.762321 
" clip-path="url(#p793b2f2321)" style="fill: none; stroke: #b0b0b0; stroke-opacity: 0.25; stroke-width: 0.8; stroke-linecap: square"/>
     </g>
     <g id="line2d_12">
      <g>
       <use xlink:href="#m0c4145da49" x="47.72" y="120.762321" style="stroke: #000000; stroke-width: 0.8"/>
      </g>
     </g>
     <g id="text_9">
      <!-- 0.6 -->
      <g transform="translate(24.816875 124.56154) scale(0.1 -0.1)">
       <defs>
        <path id="DejaVuSans-36" d="M 2113 2584 
Q 1688 2584 1439 2293 
Q 1191 2003 1191 1497 
Q 1191 994 1439 701 
Q 1688 409 2113 409 
Q 2538 409 2786 701 
Q 3034 994 3034 1497 
Q 3034 2003 2786 2293 
Q 2538 2584 2113 2584 
z
M 3366 4563 
L 3366 3988 
Q 3128 4100 2886 4159 
Q 2644 4219 2406 4219 
Q 1781 4219 1451 3797 
Q 1122 3375 1075 2522 
Q 1259 2794 1537 2939 
Q 1816 3084 2150 3084 
Q 2853 3084 3261 2657 
Q 3669 2231 3669 1497 
Q 3669 778 3244 343 
Q 2819 -91 2113 -91 
Q 1303 -91 875 529 
Q 447 1150 447 2328 
Q 447 3434 972 4092 
Q 1497 4750 2381 4750 
Q 2619 4750 2861 4703 
Q 3103 4656 3366 4563 
z
" transform="scale(0.015625)"/>
       </defs>
       <use xlink:href="#DejaVuSans-30"/>
       <use xlink:href="#DejaVuSans-2e" transform="translate(63.623047 0)"/>
       <use xlink:href="#DejaVuSans-36" transform="translate(95.410156 0)"/>
      </g>
     </g>
    </g>
    <g id="ytick_5">
     <g id="line2d_13">
      <path d="M 47.72 79.036845 
L 637.2 79.036845 
" clip-path="url(#p793b2f2321)" style="fill: none; stroke: #b0b0b0; stroke-opacity: 0.25; stroke-width: 0.8; stroke-linecap: square"/>
     </g>
     <g id="line2d_14">
      <g>
       <use xlink:href="#m0c4145da49" x="47.72" y="79.036845" style="stroke: #000000; stroke-width: 0.8"/>
      </g>
     </g>
     <g id="text_10">
      <!-- 0.8 -->
      <g transform="translate(24.816875 82.836064) scale(0.1 -0.1)">
       <defs>
        <path id="DejaVuSans-38" d="M 2034 2216 
Q 1584 2216 1326 1975 
Q 1069 1734 1069 1313 
Q 1069 891 1326 650 
Q 1584 409 2034 409 
Q 2484 409 2743 651 
Q 3003 894 3003 1313 
Q 3003 1734 2745 1975 
Q 2488 2216 2034 2216 
z
M 1403 2484 
Q 997 2584 770 2862 
Q 544 3141 544 3541 
Q 544 4100 942 4425 
Q 1341 4750 2034 4750 
Q 2731 4750 3128 4425 
Q 3525 4100 3525 3541 
Q 3525 3141 3298 2862 
Q 3072 2584 2669 2484 
Q 3125 2378 3379 2068 
Q 3634 1759 3634 1313 
Q 3634 634 3220 271 
Q 2806 -91 2034 -91 
Q 1263 -91 848 271 
Q 434 634 434 1313 
Q 434 1759 690 2068 
Q 947 2378 1403 2484 
z
M 1172 3481 
Q 1172 3119 1398 2916 
Q 1625 2713 2034 2713 
Q 2441 2713 2670 2916 
Q 2900 3119 2900 3481 
Q 2900 3844 2670 4047 
Q 2441 4250 2034 4250 
Q 1625 4250 1398 4047 
Q 1172 3844 1172 3481 
z
" transform="scale(0.015625)"/>
       </defs>
       <use xlink:href="#DejaVuSans-30"/>
       <use xlink:href="#DejaVuSans-2e" transform="translate(63.623047 0)"/>
       <use xlink:href="#DejaVuSans-38" transform="translate(95.410156 0)"/>
      </g>
     </g>
    </g>
    <g id="ytick_6">
     <g id="line2d_15">
      <path d="M 47.72 37.311369 
L 637.2 37.311369 
" clip-path="url(#p793b2f2321)" style="fill: none; stroke: #b0b0b0; stroke-opacity: 0.25; stroke-width: 0.8; stroke-linecap: square"/>
     </g>
     <g id="line2d_16">
      <g>
       <use xlink:href="#m0c4145da49" x="47.72" y="37.311369" style="stroke: #000000; stroke-width: 0.8"/>
      </g>
     </g>
     <g id="text_11">
      <!-- 1.0 -->
      <g transform="translate(24.816875 41.110588) scale(0.1 -0.1)">
       <defs>
        <path id="DejaVuSans-31" d="M 794 531 
L 1825 531 
L 1825 4091 
L 703 3866 
L 703 4441 
L 1819 4666 
L 2450 4666 
L 2450 531 
L 3481 531 
L 3481 0 
L 794 0 
L 794 531 
z
" transform="scale(0.015625)"/>
       </defs>
       <use xlink:href="#DejaVuSans-31"/>
       <use xlink:href="#DejaVuSans-2e" transform="translate(63.623047 0)"/>
       <use xlink:href="#DejaVuSans-30" transform="translate(95.410156 0)"/>
      </g>
     </g>
    </g>
    <g id="text_12">
     <!-- count -->
     <g transform="translate(18.737188 150.515625) rotate(-90) scale(0.1 -0.1)">
      <use xlink:href="#DejaVuSans-63"/>
      <use xlink:href="#DejaVuSans-6f" transform="translate(54.980469 0)"/>
      <use xlink:href="#DejaVuSans-75" transform="translate(116.162109 0)"/>
      <use xlink:href="#DejaVuSans-6e" transform="translate(179.541016 0)"/>
      <use xlink:href="#DejaVuSans-74" transform="translate(242.919922 0)"/>
     </g>
    </g>
   </g>
   <g id="patch_19">
    <path d="M 47.72 245.93875 
L 47.72 26.88 
" style="fill: none; stroke: #000000; stroke-width: 0.8; stroke-linejoin: miter; stroke-linecap: square"/>
   </g>
   <g id="patch_20">
    <path d="M 637.2 245.93875 
L 637.2 26.88 
" style="fill: none; stroke: #000000; stroke-width: 0.8; stroke-linejoin: miter; stroke-linecap: square"/>
   </g>
   <g id="patch_21">
    <path d="M 47.72 245.93875 
L 637.2 245.93875 
" style="fill: none; stroke: #000000; stroke-width: 0.8; stroke-linejoin: miter; stroke-linecap: square"/>
   </g>
   <g id="patch_22">
    <path d="M 47.72 26.88 
L 637.2 26.88 
" style="fill: none; stroke: #000000; stroke-width: 0.8; stroke-linejoin: miter; stroke-linecap: square"/>
   </g>
   <g id="text_13">
    <!-- Signalized row-type inclusion vs exclusion (fixture vs runtime) -->
    <g transform="translate(156.142187 20.88) scale(0.12 -0.12)">
     <defs>
      <path id="DejaVuSans-53" d="M 3425 4513 
L 3425 3897 
Q 3066 4069 2747 4153 
Q 2428 4238 2131 4238 
Q 1616 4238 1336 4038 
Q 1056 3838 1056 3469 
Q 1056 3159 1242 3001 
Q 1428 2844 1947 2747 
L 2328 2669 
Q 3034 2534 3370 2195 
Q 3706 1856 3706 1288 
Q 3706 609 3251 259 
Q 2797 -91 1919 -91 
Q 1588 -91 1214 -16 
Q 841 59 441 206 
L 441 856 
Q 825 641 1194 531 
Q 1563 422 1919 422 
Q 2459 422 2753 634 
Q 3047 847 3047 1241 
Q 3047 1584 2836 1778 
Q 2625 1972 2144 2069 
L 1759 2144 
Q 1053 2284 737 2584 
Q 422 2884 422 3419 
Q 422 4038 858 4394 
Q 1294 4750 2059 4750 
Q 2388 4750 2728 4690 
Q 3069 4631 3425 4513 
z
" transform="scale(0.015625)"/>
      <path id="DejaVuSans-7a" d="M 353 3500 
L 3084 3500 
L 3084 2975 
L 922 459 
L 3084 459 
L 3084 0 
L 275 0 
L 275 525 
L 2438 3041 
L 353 3041 
L 353 3500 
z
" transform="scale(0.015625)"/>
      <path id="DejaVuSans-20" transform="scale(0.015625)"/>
      <path id="DejaVuSans-2d" d="M 313 2009 
L 1997 2009 
L 1997 1497 
L 313 1497 
L 313 2009 
z
" transform="scale(0.015625)"/>
      <path id="DejaVuSans-28" d="M 1984 4856 
Q 1566 4138 1362 3434 
Q 1159 2731 1159 2009 
Q 1159 1288 1364 580 
Q 1569 -128 1984 -844 
L 1484 -844 
Q 1016 -109 783 600 
Q 550 1309 550 2009 
Q 550 2706 781 3412 
Q 1013 4119 1484 4856 
L 1984 4856 
z
" transform="scale(0.015625)"/>
      <path id="DejaVuSans-66" d="M 2375 4863 
L 2375 4384 
L 1825 4384 
Q 1516 4384 1395 4259 
Q 1275 4134 1275 3809 
L 1275 3500 
L 2222 3500 
L 2222 3053 
L 1275 3053 
L 1275 0 
L 697 0 
L 697 3053 
L 147 3053 
L 147 3500 
L 697 3500 
L 697 3744 
Q 697 4328 969 4595 
Q 1241 4863 1831 4863 
L 2375 4863 
z
" transform="scale(0.015625)"/>
      <path id="DejaVuSans-29" d="M 513 4856 
L 1013 4856 
Q 1481 4119 1714 3412 
Q 1947 2706 1947 2009 
Q 1947 1309 1714 600 
Q 1481 -109 1013 -844 
L 513 -844 
Q 928 -128 1133 580 
Q 1338 1288 1338 2009 
Q 1338 2731 1133 3434 
Q 928 4138 513 4856 
z
" transform="scale(0.015625)"/>
     </defs>
     <use xlink:href="#DejaVuSans-53"/>
     <use xlink:href="#DejaVuSans-69" transform="translate(63.476562 0)"/>
     <use xlink:href="#DejaVuSans-67" transform="translate(91.259766 0)"/>
     <use xlink:href="#DejaVuSans-6e" transform="translate(154.736328 0)"/>
     <use xlink:href="#DejaVuSans-61" transform="translate(218.115234 0)"/>
     <use xlink:href="#DejaVuSans-6c" transform="translate(279.394531 0)"/>
     <use xlink:href="#DejaVuSans-69" transform="translate(307.177734 0)"/>
     <use xlink:href="#DejaVuSans-7a" transform="translate(334.960938 0)"/>
     <use xlink:href="#DejaVuSans-65" transform="translate(387.451172 0)"/>
     <use xlink:href="#DejaVuSans-64" transform="translate(448.974609 0)"/>
     <use xlink:href="#DejaVuSans-20" transform="translate(512.451172 0)"/>
     <use xlink:href="#DejaVuSans-72" transform="translate(544.238281 0)"/>
     <use xlink:href="#DejaVuSans-6f" transform="translate(583.101562 0)"/>
     <use xlink:href="#DejaVuSans-77" transform="translate(644.283203 0)"/>
     <use xlink:href="#DejaVuSans-2d" transform="translate(726.070312 0)"/>
     <use xlink:href="#DejaVuSans-74" transform="translate(762.154297 0)"/>
     <use xlink:href="#DejaVuSans-79" transform="translate(801.363281 0)"/>
     <use xlink:href="#DejaVuSans-70" transform="translate(860.542969 0)"/>
     <use xlink:href="#DejaVuSans-65" transform="translate(924.019531 0)"/>
     <use xlink:href="#DejaVuSans-20" transform="translate(985.542969 0)"/>
     <use xlink:href="#DejaVuSans-69" transform="translate(1017.330078 0)"/>
     <use xlink:href="#DejaVuSans-6e" transform="translate(1045.113281 0)"/>
     <use xlink:href="#DejaVuSans-63" transform="translate(1108.492188 0)"/>
     <use xlink:href="#DejaVuSans-6c" transform="translate(1163.472656 0)"/>
     <use xlink:href="#DejaVuSans-75" transform="translate(1191.255859 0)"/>
     <use xlink:href="#DejaVuSans-73" transform="translate(1254.634766 0)"/>
     <use xlink:href="#DejaVuSans-69" transform="translate(1306.734375 0)"/>
     <use xlink:href="#DejaVuSans-6f" transform="translate(1334.517578 0)"/>
     <use xlink:href="#DejaVuSans-6e" transform="translate(1395.699219 0)"/>
     <use xlink:href="#DejaVuSans-20" transform="translate(1459.078125 0)"/>
     <use xlink:href="#DejaVuSans-76" transform="translate(1490.865234 0)"/>
     <use xlink:href="#DejaVuSans-73" transform="translate(1550.044922 0)"/>
     <use xlink:href="#DejaVuSans-20" transform="translate(1602.144531 0)"/>
     <use xlink:href="#DejaVuSans-65" transform="translate(1633.931641 0)"/>
     <use xlink:href="#DejaVuSans-78" transform="translate(1693.705078 0)"/>
     <use xlink:href="#DejaVuSans-63" transform="translate(1751.134766 0)"/>
     <use xlink:href="#DejaVuSans-6c" transform="translate(1806.115234 0)"/>
     <use xlink:href="#DejaVuSans-75" transform="translate(1833.898438 0)"/>
     <use xlink:href="#DejaVuSans-73" transform="translate(1897.277344 0)"/>
     <use xlink:href="#DejaVuSans-69" transform="translate(1949.376953 0)"/>
     <use xlink:href="#DejaVuSans-6f" transform="translate(1977.160156 0)"/>
     <use xlink:href="#DejaVuSans-6e" transform="translate(2038.341797 0)"/>
     <use xlink:href="#DejaVuSans-20" transform="translate(2101.720703 0)"/>
     <use xlink:href="#DejaVuSans-28" transform="translate(2133.507812 0)"/>
     <use xlink:href="#DejaVuSans-66" transform="translate(2172.521484 0)"/>
     <use xlink:href="#DejaVuSans-69" transform="translate(2207.726562 0)"/>
     <use xlink:href="#DejaVuSans-78" transform="translate(2235.509766 0)"/>
     <use xlink:href="#DejaVuSans-74" transform="translate(2294.689453 0)"/>
     <use xlink:href="#DejaVuSans-75" transform="translate(2333.898438 0)"/>
     <use xlink:href="#DejaVuSans-72" transform="translate(2397.277344 0)"/>
     <use xlink:href="#DejaVuSans-65" transform="translate(2436.140625 0)"/>
     <use xlink:href="#DejaVuSans-20" transform="translate(2497.664062 0)"/>
     <use xlink:href="#DejaVuSans-76" transform="translate(2529.451172 0)"/>
     <use xlink:href="#DejaVuSans-73" transform="translate(2588.630859 0)"/>
     <use xlink:href="#DejaVuSans-20" transform="translate(2640.730469 0)"/>
     <use xlink:href="#DejaVuSans-72" transform="translate(2672.517578 0)"/>
     <use xlink:href="#DejaVuSans-75" transform="translate(2713.630859 0)"/>
     <use xlink:href="#DejaVuSans-6e" transform="translate(2777.009766 0)"/>
     <use xlink:href="#DejaVuSans-74" transform="translate(2840.388672 0)"/>
     <use xlink:href="#DejaVuSans-69" transform="translate(2879.597656 0)"/>
     <use xlink:href="#DejaVuSans-6d" transform="translate(2907.380859 0)"/>
     <use xlink:href="#DejaVuSans-65" transform="translate(3004.792969 0)"/>
     <use xlink:href="#DejaVuSans-29" transform="translate(3066.316406 0)"/>
    </g>
   </g>
   <g id="legend_1">
    <g id="patch_23">
     <path d="M 510.457812 93.5925 
L 630.2 93.5925 
Q 632.2 93.5925 632.2 91.5925 
L 632.2 33.88 
Q 632.2 31.88 630.2 31.88 
L 510.457812 31.88 
Q 508.457812 31.88 508.457812 33.88 
L 508.457812 91.5925 
Q 508.457812 93.5925 510.457812 93.5925 
z
" style="fill: #ffffff; opacity: 0.8; stroke: #cccccc; stroke-linejoin: miter"/>
    </g>
    <g id="patch_24">
     <path d="M 512.457812 43.478437 
L 532.457812 43.478437 
L 532.457812 36.478437 
L 512.457812 36.478437 
z
" style="fill: #1f77b4"/>
    </g>
    <g id="text_14">
     <!-- fixture eligible -->
     <g transform="translate(540.457812 43.478437) scale(0.1 -0.1)">
      <use xlink:href="#DejaVuSans-66"/>
      <use xlink:href="#DejaVuSans-69" transform="translate(35.205078 0)"/>
      <use xlink:href="#DejaVuSans-78" transform="translate(62.988281 0)"/>
      <use xlink:href="#DejaVuSans-74" transform="translate(122.167969 0)"/>
      <use xlink:href="#DejaVuSans-75" transform="translate(161.376953 0)"/>
      <use xlink:href="#DejaVuSans-72" transform="translate(224.755859 0)"/>
      <use xlink:href="#DejaVuSans-65" transform="translate(263.619141 0)"/>
      <use xlink:href="#DejaVuSans-20" transform="translate(325.142578 0)"/>
      <use xlink:href="#DejaVuSans-65" transform="translate(356.929688 0)"/>
      <use xlink:href="#DejaVuSans-6c" transform="translate(418.453125 0)"/>
      <use xlink:href="#DejaVuSans-69" transform="translate(446.236328 0)"/>
      <use xlink:href="#DejaVuSans-67" transform="translate(474.019531 0)"/>
      <use xlink:href="#DejaVuSans-69" transform="translate(537.496094 0)"/>
      <use xlink:href="#DejaVuSans-62" transform="translate(565.279297 0)"/>
      <use xlink:href="#DejaVuSans-6c" transform="translate(628.755859 0)"/>
      <use xlink:href="#DejaVuSans-65" transform="translate(656.539062 0)"/>
     </g>
    </g>
    <g id="patch_25">
     <path d="M 512.457812 58.156562 
L 532.457812 58.156562 
L 532.457812 51.156562 
L 512.457812 51.156562 
z
" style="fill: #ff7f0e"/>
    </g>
    <g id="text_15">
     <!-- runtime eligible -->
     <g transform="translate(540.457812 58.156562) scale(0.1 -0.1)">
      <use xlink:href="#DejaVuSans-72"/>
      <use xlink:href="#DejaVuSans-75" transform="translate(41.113281 0)"/>
      <use xlink:href="#DejaVuSans-6e" transform="translate(104.492188 0)"/>
      <use xlink:href="#DejaVuSans-74" transform="translate(167.871094 0)"/>
      <use xlink:href="#DejaVuSans-69" transform="translate(207.080078 0)"/>
      <use xlink:href="#DejaVuSans-6d" transform="translate(234.863281 0)"/>
      <use xlink:href="#DejaVuSans-65" transform="translate(332.275391 0)"/>
      <use xlink:href="#DejaVuSans-20" transform="translate(393.798828 0)"/>
      <use xlink:href="#DejaVuSans-65" transform="translate(425.585938 0)"/>
      <use xlink:href="#DejaVuSans-6c" transform="translate(487.109375 0)"/>
      <use xlink:href="#DejaVuSans-69" transform="translate(514.892578 0)"/>
      <use xlink:href="#DejaVuSans-67" transform="translate(542.675781 0)"/>
      <use xlink:href="#DejaVuSans-69" transform="translate(606.152344 0)"/>
      <use xlink:href="#DejaVuSans-62" transform="translate(633.935547 0)"/>
      <use xlink:href="#DejaVuSans-6c" transform="translate(697.412109 0)"/>
      <use xlink:href="#DejaVuSans-65" transform="translate(725.195312 0)"/>
     </g>
    </g>
    <g id="patch_26">
     <path d="M 512.457812 72.834687 
L 532.457812 72.834687 
L 532.457812 65.834687 
L 512.457812 65.834687 
z
" style="fill: #2ca02c"/>
    </g>
    <g id="text_16">
     <!-- fixture excluded -->
     <g transform="translate(540.457812 72.834687) scale(0.1 -0.1)">
      <use xlink:href="#DejaVuSans-66"/>
      <use xlink:href="#DejaVuSans-69" transform="translate(35.205078 0)"/>
      <use xlink:href="#DejaVuSans-78" transform="translate(62.988281 0)"/>
      <use xlink:href="#DejaVuSans-74" transform="translate(122.167969 0)"/>
      <use xlink:href="#DejaVuSans-75" transform="translate(161.376953 0)"/>
      <use xlink:href="#DejaVuSans-72" transform="translate(224.755859 0)"/>
      <use xlink:href="#DejaVuSans-65" transform="translate(263.619141 0)"/>
      <use xlink:href="#DejaVuSans-20" transform="translate(325.142578 0)"/>
      <use xlink:href="#DejaVuSans-65" transform="translate(356.929688 0)"/>
      <use xlink:href="#DejaVuSans-78" transform="translate(416.703125 0)"/>
      <use xlink:href="#DejaVuSans-63" transform="translate(474.132812 0)"/>
      <use xlink:href="#DejaVuSans-6c" transform="translate(529.113281 0)"/>
      <use xlink:href="#DejaVuSans-75" transform="translate(556.896484 0)"/>
      <use xlink:href="#DejaVuSans-64" transform="translate(620.275391 0)"/>
      <use xlink:href="#DejaVuSans-65" transform="translate(683.751953 0)"/>
      <use xlink:href="#DejaVuSans-64" transform="translate(745.275391 0)"/>
     </g>
    </g>
    <g id="patch_27">
     <path d="M 512.457812 87.512812 
L 532.457812 87.512812 
L 532.457812 80.512812 
L 512.457812 80.512812 
z
" style="fill: #d62728"/>
    </g>
    <g id="text_17">
     <!-- runtime excluded -->
     <g transform="translate(540.457812 87.512812) scale(0.1 -0.1)">
      <use xlink:href="#DejaVuSans-72"/>
      <use xlink:href="#DejaVuSans-75" transform="translate(41.113281 0)"/>
      <use xlink:href="#DejaVuSans-6e" transform="translate(104.492188 0)"/>
      <use xlink:href="#DejaVuSans-74" transform="translate(167.871094 0)"/>
      <use xlink:href="#DejaVuSans-69" transform="translate(207.080078 0)"/>
      <use xlink:href="#DejaVuSans-6d" transform="translate(234.863281 0)"/>
      <use xlink:href="#DejaVuSans-65" transform="translate(332.275391 0)"/>
      <use xlink:href="#DejaVuSans-20" transform="translate(393.798828 0)"/>
      <use xlink:href="#DejaVuSans-65" transform="translate(425.585938 0)"/>
      <use xlink:href="#DejaVuSans-78" transform="translate(485.359375 0)"/>
      <use xlink:href="#DejaVuSans-63" transform="translate(542.789062 0)"/>
      <use xlink:href="#DejaVuSans-6c" transform="translate(597.769531 0)"/>
      <use xlink:href="#DejaVuSans-75" transform="translate(625.552734 0)"/>
      <use xlink:href="#DejaVuSans-64" transform="translate(688.931641 0)"/>
      <use xlink:href="#DejaVuSans-65" transform="translate(752.408203 0)"/>
      <use xlink:href="#DejaVuSans-64" transform="translate(813.931641 0)"/>
     </g>
    </g>
   </g>
  </g>
 </g>
 <defs>
  <clipPath id="p793b2f2321">
   <rect x="47.72" y="26.88" width="589.48" height="219.05875"/>
  </clipPath>
 </defs>
</svg>
