<?xml version="1.0" encoding="UTF-8" standalone="no"?>
<!DOCTYPE svg PUBLIC "-//W3C//DTD SVG 1.1//EN"
 "http://www.w3.org/Graphics/SVG/1.1/DTD/svg11.dtd">
<!-- Generated by graphviz version 2.43.0 (0)
 -->
<!-- Title: packages_robot_sf Pages: 1 -->
<svg width="2909pt" height="476pt"
 viewBox="0.00 0.00 2909.00 476.00" xmlns="http://www.w3.org/2000/svg" xmlns:xlink="http://www.w3.org/1999/xlink">
<g id="graph0" class="graph" transform="scale(1 1) rotate(0) translate(4 472)">
<title>packages_robot_sf</title>
<polygon fill="white" stroke="transparent" points="-4,4 -4,-472 2905,-472 2905,4 -4,4"/>
<!-- robot_sf -->
<g id="node1" class="node">
<title>robot_sf</title>
<polygon fill="#77aadd" stroke="#77aadd" points="74,-36 0,-36 0,0 74,0 74,-36"/>
<text text-anchor="middle" x="37" y="-14.3" font-family="Times,serif" font-size="14.00">robot_sf</text>
</g>
<!-- robot_sf.eval -->
<g id="node2" class="node">
<title>robot_sf.eval</title>
<polygon fill="#77aadd" stroke="#77aadd" points="222.5,-108 115.5,-108 115.5,-72 222.5,-72 222.5,-108"/>
<text text-anchor="middle" x="169" y="-86.3" font-family="Times,serif" font-size="14.00">robot_sf.eval</text>
</g>
<!-- robot_sf.feature_extractor -->
<g id="node3" class="node">
<title>robot_sf.feature_extractor</title>
<polygon fill="#77aadd" stroke="#77aadd" points="937.5,-108 734.5,-108 734.5,-72 937.5,-72 937.5,-108"/>
<text text-anchor="middle" x="836" y="-86.3" font-family="Times,serif" font-size="14.00">robot_sf.feature_extractor</text>
</g>
<!-- robot_sf.sensor.sensor_fusion -->
<g id="node25" class="node">
<title>robot_sf.sensor.sensor_fusion</title>
<polygon fill="#aaaa00" stroke="#aaaa00" points="949,-180 723,-180 723,-144 949,-144 949,-180"/>
<text text-anchor="middle" x="836" y="-158.3" font-family="Times,serif" font-size="14.00">robot_sf.sensor.sensor_fusion</text>
</g>
<!-- robot_sf.feature_extractor&#45;&gt;robot_sf.sensor.sensor_fusion -->
<g id="edge1" class="edge">
<title>robot_sf.feature_extractor&#45;&gt;robot_sf.sensor.sensor_fusion</title>
<path fill="none" stroke="black" d="M836,-108.3C836,-116.02 836,-125.29 836,-133.89"/>
<polygon fill="black" stroke="black" points="836,-143.9 831.5,-133.9 836,-138.9 836,-133.9 836,-133.9 836,-133.9 836,-138.9 840.5,-133.9 836,-143.9 836,-143.9"/>
</g>
<!-- robot_sf.nav -->
<g id="node4" class="node">
<title>robot_sf.nav</title>
<polygon fill="#99ddff" stroke="#99ddff" points="2115,-36 2011,-36 2011,0 2115,0 2115,-36"/>
<text text-anchor="middle" x="2063" y="-14.3" font-family="Times,serif" font-size="14.00">robot_sf.nav</text>
</g>
<!-- robot_sf.nav.global_route -->
<g id="node5" class="node">
<title>robot_sf.nav.global_route</title>
<polygon fill="#99ddff" stroke="#99ddff" points="832,-396 638,-396 638,-360 832,-360 832,-396"/>
<text text-anchor="middle" x="735" y="-374.3" font-family="Times,serif" font-size="14.00">robot_sf.nav.global_route</text>
</g>
<!-- robot_sf.nav.map_config -->
<g id="node6" class="node">
<title>robot_sf.nav.map_config</title>
<polygon fill="#99ddff" stroke="#99ddff" points="669,-324 483,-324 483,-288 669,-288 669,-324"/>
<text text-anchor="middle" x="576" y="-302.3" font-family="Times,serif" font-size="14.00">robot_sf.nav.map_config</text>
</g>
<!-- robot_sf.nav.map_config&#45;&gt;robot_sf.nav.global_route -->
<g id="edge2" class="edge">
<title>robot_sf.nav.map_config&#45;&gt;robot_sf.nav.global_route</title>
<path fill="none" stroke="black" d="M614.9,-324.12C636.63,-333.69 663.9,-345.7 686.96,-355.85"/>
<polygon fill="black" stroke="black" points="696.23,-359.93 685.27,-360.02 691.65,-357.92 687.08,-355.9 687.08,-355.9 687.08,-355.9 691.65,-357.92 688.89,-351.78 696.23,-359.93 696.23,-359.93"/>
</g>
<!-- robot_sf.nav.obstacle -->
<g id="node9" class="node">
<title>robot_sf.nav.obstacle</title>
<polygon fill="#99ddff" stroke="#99ddff" points="619.5,-396 454.5,-396 454.5,-360 619.5,-360 619.5,-396"/>
<text text-anchor="middle" x="537" y="-374.3" font-family="Times,serif" font-size="14.00">robot_sf.nav.obstacle</text>
</g>
<!-- robot_sf.nav.map_config&#45;&gt;robot_sf.nav.obstacle -->
<g id="edge3" class="edge">
<title>robot_sf.nav.map_config&#45;&gt;robot_sf.nav.obstacle</title>
<path fill="none" stroke="black" d="M566.36,-324.3C561.87,-332.36 556.44,-342.11 551.48,-351.02"/>
<polygon fill="black" stroke="black" points="546.53,-359.9 547.47,-348.97 548.96,-355.53 551.4,-351.16 551.4,-351.16 551.4,-351.16 548.96,-355.53 555.33,-353.35 546.53,-359.9 546.53,-359.9"/>
</g>
<!-- robot_sf.nav.nav_types -->
<g id="node7" class="node">
<title>robot_sf.nav.nav_types</title>
<polygon fill="#99ddff" stroke="#99ddff" points="786.5,-468 609.5,-468 609.5,-432 786.5,-432 786.5,-468"/>
<text text-anchor="middle" x="698" y="-446.3" font-family="Times,serif" font-size="14.00">robot_sf.nav.nav_types</text>
</g>
<!-- robot_sf.nav.navigation -->
<g id="node8" class="node">
<title>robot_sf.nav.navigation</title>
<polygon fill="#99ddff" stroke="#99ddff" points="1111.5,-252 930.5,-252 930.5,-216 1111.5,-216 1111.5,-252"/>
<text text-anchor="middle" x="1021" y="-230.3" font-family="Times,serif" font-size="14.00">robot_sf.nav.navigation</text>
</g>
<!-- robot_sf.nav.navigation&#45;&gt;robot_sf.nav.map_config -->
<g id="edge4" class="edge">
<title>robot_sf.nav.navigation&#45;&gt;robot_sf.nav.map_config</title>
<path fill="none" stroke="black" d="M930.41,-249.25C857.57,-260.71 755.21,-276.81 679.21,-288.76"/>
<polygon fill="black" stroke="black" points="669.14,-290.35 678.32,-284.35 674.08,-289.57 679.02,-288.79 679.02,-288.79 679.02,-288.79 674.08,-289.57 679.72,-293.24 669.14,-290.35 669.14,-290.35"/>
</g>
<!-- robot_sf.ped_npc.ped_zone -->
<g id="node17" class="node">
<title>robot_sf.ped_npc.ped_zone</title>
<polygon fill="#44bb99" stroke="#44bb99" points="1114.5,-324 907.5,-324 907.5,-288 1114.5,-288 1114.5,-324"/>
<text text-anchor="middle" x="1011" y="-302.3" font-family="Times,serif" font-size="14.00">robot_sf.ped_npc.ped_zone</text>
</g>
<!-- robot_sf.nav.navigation&#45;&gt;robot_sf.ped_npc.ped_zone -->
<g id="edge5" class="edge">
<title>robot_sf.nav.navigation&#45;&gt;robot_sf.ped_npc.ped_zone</title>
<path fill="none" stroke="black" d="M1018.53,-252.3C1017.43,-260.02 1016.1,-269.29 1014.87,-277.89"/>
<polygon fill="black" stroke="black" points="1013.44,-287.9 1010.4,-277.36 1014.15,-282.95 1014.86,-278 1014.86,-278 1014.86,-278 1014.15,-282.95 1019.31,-278.63 1013.44,-287.9 1013.44,-287.9"/>
</g>
<!-- robot_sf.nav.obstacle&#45;&gt;robot_sf.nav.nav_types -->
<g id="edge6" class="edge">
<title>robot_sf.nav.obstacle&#45;&gt;robot_sf.nav.nav_types</title>
<path fill="none" stroke="black" d="M576.39,-396.12C598.39,-405.69 626.01,-417.7 649.36,-427.85"/>
<polygon fill="black" stroke="black" points="658.74,-431.93 647.78,-432.07 654.16,-429.94 649.57,-427.94 649.57,-427.94 649.57,-427.94 654.16,-429.94 651.37,-423.82 658.74,-431.93 658.74,-431.93"/>
</g>
<!-- robot_sf.nav.occupancy -->
<g id="node10" class="node">
<title>robot_sf.nav.occupancy</title>
<polygon fill="#99ddff" stroke="#99ddff" points="1679,-180 1499,-180 1499,-144 1679,-144 1679,-180"/>
<text text-anchor="middle" x="1589" y="-158.3" font-family="Times,serif" font-size="14.00">robot_sf.nav.occupancy</text>
</g>
<!-- robot_sf.nav.svg_map_parser -->
<g id="node11" class="node">
<title>robot_sf.nav.svg_map_parser</title>
<polygon fill="#99ddff" stroke="#99ddff" points="835.5,-252 614.5,-252 614.5,-216 835.5,-216 835.5,-252"/>
<text text-anchor="middle" x="725" y="-230.3" font-family="Times,serif" font-size="14.00">robot_sf.nav.svg_map_parser</text>
</g>
<!-- robot_sf.nav.svg_map_parser&#45;&gt;robot_sf.nav.global_route -->
<g id="edge7" class="edge">
<title>robot_sf.nav.svg_map_parser&#45;&gt;robot_sf.nav.global_route</title>
<path fill="none" stroke="black" d="M726.21,-252.13C727.91,-276.33 731.04,-320.79 733.07,-349.61"/>
<polygon fill="black" stroke="black" points="733.79,-359.81 728.6,-350.15 733.44,-354.82 733.09,-349.84 733.09,-349.84 733.09,-349.84 733.44,-354.82 737.58,-349.52 733.79,-359.81 733.79,-359.81"/>
</g>
<!-- robot_sf.nav.svg_map_parser&#45;&gt;robot_sf.nav.map_config -->
<g id="edge8" class="edge">
<title>robot_sf.nav.svg_map_parser&#45;&gt;robot_sf.nav.map_config</title>
<path fill="none" stroke="black" d="M688.55,-252.12C668.36,-261.61 643.08,-273.49 621.59,-283.58"/>
<polygon fill="black" stroke="black" points="612.33,-287.93 619.47,-279.61 616.86,-285.81 621.38,-283.68 621.38,-283.68 621.38,-283.68 616.86,-285.81 623.3,-287.75 612.33,-287.93 612.33,-287.93"/>
</g>
<!-- robot_sf.nav.svg_map_parser&#45;&gt;robot_sf.nav.nav_types -->
<g id="edge9" class="edge">
<title>robot_sf.nav.svg_map_parser&#45;&gt;robot_sf.nav.nav_types</title>
<path fill="none" stroke="black" d="M753.4,-252.02C798.52,-281.26 877.89,-342.98 841,-396 829.99,-411.82 813.67,-422.93 795.96,-430.73"/>
<polygon fill="black" stroke="black" points="786.6,-434.51 794.18,-426.6 791.23,-432.64 795.87,-430.77 795.87,-430.77 795.87,-430.77 791.23,-432.64 797.55,-434.94 786.6,-434.51 786.6,-434.51"/>
</g>
<!-- robot_sf.nav.svg_map_parser&#45;&gt;robot_sf.nav.obstacle -->
<g id="edge10" class="edge">
<title>robot_sf.nav.svg_map_parser&#45;&gt;robot_sf.nav.obstacle</title>
<path fill="none" stroke="black" d="M720.08,-252.09C713.54,-271.94 700.16,-304.48 678,-324 661.91,-338.18 641.66,-348.71 621.56,-356.48"/>
<polygon fill="black" stroke="black" points="612.04,-359.97 619.88,-352.3 616.74,-358.25 621.43,-356.53 621.43,-356.53 621.43,-356.53 616.74,-358.25 622.98,-360.75 612.04,-359.97 612.04,-359.97"/>
</g>
<!-- robot_sf.ped_npc -->
<g id="node12" class="node">
<title>robot_sf.ped_npc</title>
<polygon fill="#44bb99" stroke="#44bb99" points="2270.5,-36 2133.5,-36 2133.5,0 2270.5,0 2270.5,-36"/>
<text text-anchor="middle" x="2202" y="-14.3" font-family="Times,serif" font-size="14.00">robot_sf.ped_npc</text>
</g>
<!-- robot_sf.ped_npc.ped_behavior -->
<g id="node13" class="node">
<title>robot_sf.ped_npc.ped_behavior</title>
<polygon fill="#44bb99" stroke="#44bb99" points="705,-180 469,-180 469,-144 705,-144 705,-180"/>
<text text-anchor="middle" x="587" y="-158.3" font-family="Times,serif" font-size="14.00">robot_sf.ped_npc.ped_behavior</text>
</g>
<!-- robot_sf.ped_npc.ped_behavior&#45;&gt;robot_sf.nav.map_config -->
<g id="edge11" class="edge">
<title>robot_sf.ped_npc.ped_behavior&#45;&gt;robot_sf.nav.map_config</title>
<path fill="none" stroke="black" d="M585.67,-180.13C583.8,-204.33 580.35,-248.79 578.12,-277.61"/>
<polygon fill="black" stroke="black" points="577.33,-287.81 573.62,-277.49 577.72,-282.83 578.1,-277.84 578.1,-277.84 578.1,-277.84 577.72,-282.83 582.59,-278.19 577.33,-287.81 577.33,-287.81"/>
</g>
<!-- robot_sf.ped_npc.ped_behavior&#45;&gt;robot_sf.nav.navigation -->
<g id="edge12" class="edge">
<title>robot_sf.ped_npc.ped_behavior&#45;&gt;robot_sf.nav.navigation</title>
<path fill="none" stroke="black" d="M692.94,-180.05C757.43,-190.43 841.47,-203.96 916,-216 917.31,-216.21 918.62,-216.42 919.95,-216.64"/>
<polygon fill="black" stroke="black" points="930.22,-218.3 919.63,-221.15 925.29,-217.5 920.35,-216.7 920.35,-216.7 920.35,-216.7 925.29,-217.5 921.07,-212.26 930.22,-218.3 930.22,-218.3"/>
</g>
<!-- robot_sf.ped_npc.ped_grouping -->
<g id="node14" class="node">
<title>robot_sf.ped_npc.ped_grouping</title>
<polygon fill="#44bb99" stroke="#44bb99" points="557.5,-252 318.5,-252 318.5,-216 557.5,-216 557.5,-252"/>
<text text-anchor="middle" x="438" y="-230.3" font-family="Times,serif" font-size="14.00">robot_sf.ped_npc.ped_grouping</text>
</g>
<!-- robot_sf.ped_npc.ped_behavior&#45;&gt;robot_sf.ped_npc.ped_grouping -->
<g id="edge13" class="edge">
<title>robot_sf.ped_npc.ped_behavior&#45;&gt;robot_sf.ped_npc.ped_grouping</title>
<path fill="none" stroke="black" d="M550.55,-180.12C530.36,-189.61 505.08,-201.49 483.59,-211.58"/>
<polygon fill="black" stroke="black" points="474.33,-215.93 481.47,-207.61 478.86,-213.81 483.38,-211.68 483.38,-211.68 483.38,-211.68 478.86,-213.81 485.3,-215.75 474.33,-215.93 474.33,-215.93"/>
</g>
<!-- robot_sf.ped_npc.ped_behavior&#45;&gt;robot_sf.ped_npc.ped_zone -->
<g id="edge14" class="edge">
<title>robot_sf.ped_npc.ped_behavior&#45;&gt;robot_sf.ped_npc.ped_zone</title>
<path fill="none" stroke="black" d="M695.75,-180.05C771.28,-192.36 861.26,-208.15 878,-216 900.57,-226.58 900.64,-237.63 921,-252 936.48,-262.93 954.32,-273.76 970.01,-282.76"/>
<polygon fill="black" stroke="black" points="978.97,-287.84 968.05,-286.82 974.62,-285.37 970.26,-282.91 970.26,-282.91 970.26,-282.91 974.62,-285.37 972.48,-278.99 978.97,-287.84 978.97,-287.84"/>
</g>
<!-- robot_sf.ped_npc.ped_population -->
<g id="node15" class="node">
<title>robot_sf.ped_npc.ped_population</title>
<polygon fill="#44bb99" stroke="#44bb99" points="567,-108 317,-108 317,-72 567,-72 567,-108"/>
<text text-anchor="middle" x="442" y="-86.3" font-family="Times,serif" font-size="14.00">robot_sf.ped_npc.ped_population</text>
</g>
<!-- robot_sf.ped_npc.ped_population&#45;&gt;robot_sf.nav.map_config -->
<g id="edge15" class="edge">
<title>robot_sf.ped_npc.ped_population&#45;&gt;robot_sf.nav.map_config</title>
<path fill="none" stroke="black" d="M409.26,-108.13C357.26,-137.52 265.86,-199.46 309,-252 329.86,-277.41 406.89,-290.85 472.88,-297.83"/>
<polygon fill="black" stroke="black" points="482.95,-298.86 472.54,-302.32 477.97,-298.35 473,-297.84 473,-297.84 473,-297.84 477.97,-298.35 473.46,-293.37 482.95,-298.86 482.95,-298.86"/>
</g>
<!-- robot_sf.ped_npc.ped_population&#45;&gt;robot_sf.ped_npc.ped_behavior -->
<g id="edge16" class="edge">
<title>robot_sf.ped_npc.ped_population&#45;&gt;robot_sf.ped_npc.ped_behavior</title>
<path fill="none" stroke="black" d="M477.47,-108.12C497.12,-117.61 521.72,-129.49 542.63,-139.58"/>
<polygon fill="black" stroke="black" points="551.64,-143.93 540.68,-143.64 547.14,-141.76 542.64,-139.58 542.64,-139.58 542.64,-139.58 547.14,-141.76 544.6,-135.53 551.64,-143.93 551.64,-143.93"/>
</g>
<!-- robot_sf.ped_npc.ped_population&#45;&gt;robot_sf.ped_npc.ped_grouping -->
<g id="edge17" class="edge">
<title>robot_sf.ped_npc.ped_population&#45;&gt;robot_sf.ped_npc.ped_grouping</title>
<path fill="none" stroke="black" d="M435.76,-108.41C432.43,-118.63 428.68,-131.88 427,-144 424.13,-164.69 427.29,-188.14 430.95,-205.77"/>
<polygon fill="black" stroke="black" points="433.24,-215.92 426.65,-207.16 432.14,-211.04 431.03,-206.16 431.03,-206.16 431.03,-206.16 432.14,-211.04 435.42,-205.17 433.24,-215.92 433.24,-215.92"/>
</g>
<!-- robot_sf.ped_npc.ped_population&#45;&gt;robot_sf.ped_npc.ped_zone -->
<g id="edge18" class="edge">
<title>robot_sf.ped_npc.ped_population&#45;&gt;robot_sf.ped_npc.ped_zone</title>
<path fill="none" stroke="black" d="M439.98,-108.32C438.67,-128.71 440.07,-162.08 460,-180 523.73,-237.31 766.96,-178.43 844,-216 863.78,-225.65 859.79,-239.64 878,-252 897.7,-265.38 921.29,-276.17 943.09,-284.43"/>
<polygon fill="black" stroke="black" points="952.64,-287.94 941.7,-288.71 947.94,-286.21 943.25,-284.49 943.25,-284.49 943.25,-284.49 947.94,-286.21 944.8,-280.27 952.64,-287.94 952.64,-287.94"/>
</g>
<!-- robot_sf.ped_npc.ped_robot_force -->
<g id="node16" class="node">
<title>robot_sf.ped_npc.ped_robot_force</title>
<polygon fill="#44bb99" stroke="#44bb99" points="2028.5,-108 1773.5,-108 1773.5,-72 2028.5,-72 2028.5,-108"/>
<text text-anchor="middle" x="1901" y="-86.3" font-family="Times,serif" font-size="14.00">robot_sf.ped_npc.ped_robot_force</text>
</g>
<!-- robot_sf.robot -->
<g id="node18" class="node">
<title>robot_sf.robot</title>
<polygon fill="#bbcc33" stroke="#bbcc33" points="2405,-36 2289,-36 2289,0 2405,0 2405,-36"/>
<text text-anchor="middle" x="2347" y="-14.3" font-family="Times,serif" font-size="14.00">robot_sf.robot</text>
</g>
<!-- robot_sf.robot.bicycle_drive -->
<g id="node19" class="node">
<title>robot_sf.robot.bicycle_drive</title>
<polygon fill="#bbcc33" stroke="#bbcc33" points="1443,-180 1229,-180 1229,-144 1443,-144 1443,-180"/>
<text text-anchor="middle" x="1336" y="-158.3" font-family="Times,serif" font-size="14.00">robot_sf.robot.bicycle_drive</text>
</g>
<!-- robot_sf.robot.differential_drive -->
<g id="node20" class="node">
<title>robot_sf.robot.differential_drive</title>
<polygon fill="#bbcc33" stroke="#bbcc33" points="1210.5,-180 967.5,-180 967.5,-144 1210.5,-144 1210.5,-180"/>
<text text-anchor="middle" x="1089" y="-158.3" font-family="Times,serif" font-size="14.00">robot_sf.robot.differential_drive</text>
</g>
<!-- robot_sf.robot.robot_state -->
<g id="node21" class="node">
<title>robot_sf.robot.robot_state</title>
<polygon fill="#bbcc33" stroke="#bbcc33" points="1399,-108 1197,-108 1197,-72 1399,-72 1399,-108"/>
<text text-anchor="middle" x="1298" y="-86.3" font-family="Times,serif" font-size="14.00">robot_sf.robot.robot_state</text>
</g>
<!-- robot_sf.robot.robot_state&#45;&gt;robot_sf.nav.navigation -->
<g id="edge19" class="edge">
<title>robot_sf.robot.robot_state&#45;&gt;robot_sf.nav.navigation</title>
<path fill="none" stroke="black" d="M1377.56,-108.07C1429.05,-122.7 1481.46,-146.69 1452,-180 1430.46,-204.36 1242.2,-219.95 1121.72,-227.54"/>
<polygon fill="black" stroke="black" points="1111.73,-228.16 1121.43,-223.05 1116.72,-227.85 1121.71,-227.54 1121.71,-227.54 1121.71,-227.54 1116.72,-227.85 1121.99,-232.03 1111.73,-228.16 1111.73,-228.16"/>
</g>
<!-- robot_sf.robot.robot_state&#45;&gt;robot_sf.nav.occupancy -->
<g id="edge20" class="edge">
<title>robot_sf.robot.robot_state&#45;&gt;robot_sf.nav.occupancy</title>
<path fill="none" stroke="black" d="M1368.81,-108.03C1410.97,-118.17 1464.59,-131.07 1508.37,-141.6"/>
<polygon fill="black" stroke="black" points="1518.12,-143.95 1507.35,-145.99 1513.26,-142.78 1508.4,-141.61 1508.4,-141.61 1508.4,-141.61 1513.26,-142.78 1509.45,-137.24 1518.12,-143.95 1518.12,-143.95"/>
</g>
<!-- robot_sf.robot.robot_state&#45;&gt;robot_sf.robot.bicycle_drive -->
<g id="edge21" class="edge">
<title>robot_sf.robot.robot_state&#45;&gt;robot_sf.robot.bicycle_drive</title>
<path fill="none" stroke="black" d="M1307.39,-108.3C1311.76,-116.36 1317.06,-126.11 1321.9,-135.02"/>
<polygon fill="black" stroke="black" points="1326.71,-143.9 1317.99,-137.25 1324.33,-139.5 1321.94,-135.11 1321.94,-135.11 1321.94,-135.11 1324.33,-139.5 1325.9,-132.96 1326.71,-143.9 1326.71,-143.9"/>
</g>
<!-- robot_sf.robot.robot_state&#45;&gt;robot_sf.robot.differential_drive -->
<g id="edge22" class="edge">
<title>robot_sf.robot.robot_state&#45;&gt;robot_sf.robot.differential_drive</title>
<path fill="none" stroke="black" d="M1247.14,-108.03C1217.81,-117.86 1180.75,-130.27 1149.88,-140.61"/>
<polygon fill="black" stroke="black" points="1140.09,-143.89 1148.14,-136.45 1144.83,-142.3 1149.57,-140.71 1149.57,-140.71 1149.57,-140.71 1144.83,-142.3 1151,-144.98 1140.09,-143.89 1140.09,-143.89"/>
</g>
<!-- robot_sf.robot.robot_state&#45;&gt;robot_sf.sensor.sensor_fusion -->
<g id="edge23" class="edge">
<title>robot_sf.robot.robot_state&#45;&gt;robot_sf.sensor.sensor_fusion</title>
<path fill="none" stroke="black" d="M1196.9,-106.32C1126.62,-116.97 1032.59,-131.21 958.12,-142.5"/>
<polygon fill="black" stroke="black" points="948.22,-144 957.43,-138.05 953.16,-143.25 958.1,-142.5 958.1,-142.5 958.1,-142.5 953.16,-143.25 958.78,-146.95 948.22,-144 948.22,-144"/>
</g>
<!-- robot_sf.sensor -->
<g id="node22" class="node">
<title>robot_sf.sensor</title>
<polygon fill="#aaaa00" stroke="#aaaa00" points="2548.5,-36 2423.5,-36 2423.5,0 2548.5,0 2548.5,-36"/>
<text text-anchor="middle" x="2486" y="-14.3" font-family="Times,serif" font-size="14.00">robot_sf.sensor</text>
</g>
<!-- robot_sf.sensor.goal_sensor -->
<g id="node23" class="node">
<title>robot_sf.sensor.goal_sensor</title>
<polygon fill="#aaaa00" stroke="#aaaa00" points="2779,-36 2567,-36 2567,0 2779,0 2779,-36"/>
<text text-anchor="middle" x="2673" y="-14.3" font-family="Times,serif" font-size="14.00">robot_sf.sensor.goal_sensor</text>
</g>
<!-- robot_sf.sensor.range_sensor -->
<g id="node24" class="node">
<title>robot_sf.sensor.range_sensor</title>
<polygon fill="#aaaa00" stroke="#aaaa00" points="1679,-108 1455,-108 1455,-72 1679,-72 1679,-108"/>
<text text-anchor="middle" x="1567" y="-86.3" font-family="Times,serif" font-size="14.00">robot_sf.sensor.range_sensor</text>
</g>
<!-- robot_sf.sensor.range_sensor&#45;&gt;robot_sf.nav.occupancy -->
<g id="edge24" class="edge">
<title>robot_sf.sensor.range_sensor&#45;&gt;robot_sf.nav.occupancy</title>
<path fill="none" stroke="black" d="M1572.44,-108.3C1574.89,-116.1 1577.84,-125.49 1580.57,-134.17"/>
<polygon fill="black" stroke="black" points="1583.62,-143.9 1576.33,-135.7 1582.13,-139.13 1580.63,-134.36 1580.63,-134.36 1580.63,-134.36 1582.13,-139.13 1584.92,-133.01 1583.62,-143.9 1583.62,-143.9"/>
</g>
<!-- robot_sf.sim -->
<g id="node26" class="node">
<title>robot_sf.sim</title>
<polygon fill="#eedd88" stroke="#eedd88" points="2901,-36 2797,-36 2797,0 2901,0 2901,-36"/>
<text text-anchor="middle" x="2849" y="-14.3" font-family="Times,serif" font-size="14.00">robot_sf.sim</text>
</g>
<!-- robot_sf.sim.sim_config -->
<g id="node27" class="node">
<title>robot_sf.sim.sim_config</title>
<polygon fill="#eedd88" stroke="#eedd88" points="1992.5,-36 1809.5,-36 1809.5,0 1992.5,0 1992.5,-36"/>
<text text-anchor="middle" x="1901" y="-14.3" font-family="Times,serif" font-size="14.00">robot_sf.sim.sim_config</text>
</g>
<!-- robot_sf.sim.sim_config&#45;&gt;robot_sf.ped_npc.ped_robot_force -->
<g id="edge25" class="edge">
<title>robot_sf.sim.sim_config&#45;&gt;robot_sf.ped_npc.ped_robot_force</title>
<path fill="none" stroke="black" d="M1901,-36.3C1901,-44.02 1901,-53.29 1901,-61.89"/>
<polygon fill="black" stroke="black" points="1901,-71.9 1896.5,-61.9 1901,-66.9 1901,-61.9 1901,-61.9 1901,-61.9 1901,-66.9 1905.5,-61.9 1901,-71.9 1901,-71.9"/>
</g>
<!-- robot_sf.sim.simulator -->
<g id="node28" class="node">
<title>robot_sf.sim.simulator</title>
<polygon fill="#eedd88" stroke="#eedd88" points="1386,-36 1210,-36 1210,0 1386,0 1386,-36"/>
<text text-anchor="middle" x="1298" y="-14.3" font-family="Times,serif" font-size="14.00">robot_sf.sim.simulator</text>
</g>
<!-- robot_sf.sim.simulator&#45;&gt;robot_sf.nav.map_config -->
<g id="edge26" class="edge">
<title>robot_sf.sim.simulator&#45;&gt;robot_sf.nav.map_config</title>
<path fill="none" stroke="black" d="M1209.76,-20.39C970.18,-24.59 323.35,-38.95 292,-72 264.86,-100.61 188.31,-126.38 294,-252 316.85,-279.16 401.63,-292.5 472.32,-299"/>
<polygon fill="black" stroke="black" points="482.64,-299.91 472.28,-303.51 477.66,-299.47 472.68,-299.03 472.68,-299.03 472.68,-299.03 477.66,-299.47 473.07,-294.55 482.64,-299.91 482.64,-299.91"/>
</g>
<!-- robot_sf.sim.simulator&#45;&gt;robot_sf.nav.navigation -->
<g id="edge27" class="edge">
<title>robot_sf.sim.simulator&#45;&gt;robot_sf.nav.navigation</title>
<path fill="none" stroke="black" d="M1386.39,-24.94C1495.3,-33.17 1668.45,-49.61 1688,-72 1719.57,-108.15 1720.57,-144.74 1688,-180 1650.43,-220.68 1298.8,-230.16 1121.79,-232.35"/>
<polygon fill="black" stroke="black" points="1111.69,-232.47 1121.63,-227.86 1116.69,-232.41 1121.69,-232.36 1121.69,-232.36 1121.69,-232.36 1116.69,-232.41 1121.74,-236.85 1111.69,-232.47 1111.69,-232.47"/>
</g>
<!-- robot_sf.sim.simulator&#45;&gt;robot_sf.nav.occupancy -->
<g id="edge28" class="edge">
<title>robot_sf.sim.simulator&#45;&gt;robot_sf.nav.occupancy</title>
<path fill="none" stroke="black" d="M1341.21,-36.1C1362.22,-45.33 1387.32,-57.74 1408,-72 1427.15,-85.21 1426.25,-95.71 1446,-108 1467.73,-121.52 1493.45,-132.39 1517.03,-140.68"/>
<polygon fill="black" stroke="black" points="1526.65,-143.96 1515.73,-144.99 1521.91,-142.35 1517.18,-140.73 1517.18,-140.73 1517.18,-140.73 1521.91,-142.35 1518.63,-136.47 1526.65,-143.96 1526.65,-143.96"/>
</g>
<!-- robot_sf.sim.simulator&#45;&gt;robot_sf.ped_npc.ped_behavior -->
<g id="edge29" class="edge">
<title>robot_sf.sim.simulator&#45;&gt;robot_sf.ped_npc.ped_behavior</title>
<path fill="none" stroke="black" d="M1209.82,-22.03C1071.99,-27.63 812.23,-41.88 725,-72 683.18,-86.44 641.34,-116.09 614.88,-137.19"/>
<polygon fill="black" stroke="black" points="606.85,-143.71 611.78,-133.91 610.73,-140.56 614.62,-137.41 614.62,-137.41 614.62,-137.41 610.73,-140.56 617.45,-140.9 606.85,-143.71 606.85,-143.71"/>
</g>
<!-- robot_sf.sim.simulator&#45;&gt;robot_sf.ped_npc.ped_grouping -->
<g id="edge30" class="edge">
<title>robot_sf.sim.simulator&#45;&gt;robot_sf.ped_npc.ped_grouping</title>
<path fill="none" stroke="black" d="M1209.88,-20.47C973.1,-24.83 338.79,-39.52 308,-72 263.84,-118.58 344.64,-178.56 397.49,-210.55"/>
<polygon fill="black" stroke="black" points="406.35,-215.81 395.45,-214.58 402.05,-213.26 397.75,-210.71 397.75,-210.71 397.75,-210.71 402.05,-213.26 400.05,-206.84 406.35,-215.81 406.35,-215.81"/>
</g>
<!-- robot_sf.sim.simulator&#45;&gt;robot_sf.ped_npc.ped_population -->
<g id="edge31" class="edge">
<title>robot_sf.sim.simulator&#45;&gt;robot_sf.ped_npc.ped_population</title>
<path fill="none" stroke="black" d="M1209.78,-25.88C1083.03,-35.8 842.07,-54.84 637,-72 617.66,-73.62 597.25,-75.36 577.2,-77.09"/>
<polygon fill="black" stroke="black" points="567.08,-77.97 576.66,-72.62 572.06,-77.53 577.04,-77.1 577.04,-77.1 577.04,-77.1 572.06,-77.53 577.43,-81.59 567.08,-77.97 567.08,-77.97"/>
</g>
<!-- robot_sf.sim.simulator&#45;&gt;robot_sf.ped_npc.ped_robot_force -->
<g id="edge32" class="edge">
<title>robot_sf.sim.simulator&#45;&gt;robot_sf.ped_npc.ped_robot_force</title>
<path fill="none" stroke="black" d="M1386.39,-29.04C1479.2,-39.61 1629.38,-56.79 1759,-72 1760.32,-72.15 1761.64,-72.31 1762.97,-72.47"/>
<polygon fill="black" stroke="black" points="1773.28,-73.68 1762.82,-76.98 1768.31,-73.1 1763.35,-72.51 1763.35,-72.51 1763.35,-72.51 1768.31,-73.1 1763.87,-68.04 1773.28,-73.68 1773.28,-73.68"/>
</g>
<!-- robot_sf.sim.simulator&#45;&gt;robot_sf.ped_npc.ped_zone -->
<g id="edge33" class="edge">
<title>robot_sf.sim.simulator&#45;&gt;robot_sf.ped_npc.ped_zone</title>
<path fill="none" stroke="black" d="M1386.38,-24.18C1501.55,-31.85 1690.85,-47.96 1712,-72 1743.71,-108.03 1742.82,-143.2 1712,-180 1638.42,-267.86 1303.75,-294.02 1124.75,-301.77"/>
<polygon fill="black" stroke="black" points="1114.5,-302.2 1124.3,-297.28 1119.5,-301.99 1124.49,-301.78 1124.49,-301.78 1124.49,-301.78 1119.5,-301.99 1124.68,-306.28 1114.5,-302.2 1114.5,-302.2"/>
</g>
<!-- robot_sf.sim.simulator&#45;&gt;robot_sf.robot.robot_state -->
<g id="edge34" class="edge">
<title>robot_sf.sim.simulator&#45;&gt;robot_sf.robot.robot_state</title>
<path fill="none" stroke="black" d="M1298,-36.3C1298,-44.02 1298,-53.29 1298,-61.89"/>
<polygon fill="black" stroke="black" points="1298,-71.9 1293.5,-61.9 1298,-66.9 1298,-61.9 1298,-61.9 1298,-61.9 1298,-66.9 1302.5,-61.9 1298,-71.9 1298,-71.9"/>
</g>
<!-- robot_sf.tb_logging -->
<g id="node29" class="node">
<title>robot_sf.tb_logging</title>
<polygon fill="#77aadd" stroke="#77aadd" points="245.5,-36 92.5,-36 92.5,0 245.5,0 245.5,-36"/>
<text text-anchor="middle" x="169" y="-14.3" font-family="Times,serif" font-size="14.00">robot_sf.tb_logging</text>
</g>
<!-- robot_sf.tb_logging&#45;&gt;robot_sf.eval -->
<g id="edge35" class="edge">
<title>robot_sf.tb_logging&#45;&gt;robot_sf.eval</title>
<path fill="none" stroke="black" d="M169,-36.3C169,-44.02 169,-53.29 169,-61.89"/>
<polygon fill="black" stroke="black" points="169,-71.9 164.5,-61.9 169,-66.9 169,-61.9 169,-61.9 169,-61.9 169,-66.9 173.5,-61.9 169,-71.9 169,-71.9"/>
</g>
</g>
</svg>
