<?xml version="1.0" encoding="UTF-8" standalone="no"?>
<!DOCTYPE svg PUBLIC "-//W3C//DTD SVG 1.1//EN"
 "http://www.w3.org/Graphics/SVG/1.1/DTD/svg11.dtd">
<!-- Generated by graphviz version 13.0.1 (20250615.1724)
 -->
<!-- Title: packages_robot_sf Pages: 1 -->
<svg width="2622pt" height="476pt"
 viewBox="0.00 0.00 2622.00 476.00" xmlns="http://www.w3.org/2000/svg" xmlns:xlink="http://www.w3.org/1999/xlink">
<g id="graph0" class="graph" transform="scale(1 1) rotate(0) translate(4 472)">
<title>packages_robot_sf</title>
<polygon fill="white" stroke="none" points="-4,4 -4,-472 2618,-472 2618,4 -4,4"/>
<!-- robot_sf -->
<g id="node1" class="node">
<title>robot_sf</title>
<polygon fill="#77aadd" stroke="#77aadd" points="61,-36 0,-36 0,0 61,0 61,-36"/>
<text xml:space="preserve" text-anchor="start" x="8" y="-12.95" font-family="Times,serif" font-size="14.00">robot_sf</text>
</g>
<!-- robot_sf.eval -->
<g id="node2" class="node">
<title>robot_sf.eval</title>
<polygon fill="#77aadd" stroke="#77aadd" points="184.12,-108 96.88,-108 96.88,-72 184.12,-72 184.12,-108"/>
<text xml:space="preserve" text-anchor="start" x="104.88" y="-84.95" font-family="Times,serif" font-size="14.00">robot_sf.eval</text>
</g>
<!-- robot_sf.feature_extractor -->
<g id="node3" class="node">
<title>robot_sf.feature_extractor</title>
<polygon fill="#77aadd" stroke="#77aadd" points="595,-108 438,-108 438,-72 595,-72 595,-108"/>
<text xml:space="preserve" text-anchor="start" x="446" y="-84.95" font-family="Times,serif" font-size="14.00">robot_sf.feature_extractor</text>
</g>
<!-- robot_sf.sensor.sensor_fusion -->
<g id="node27" class="node">
<title>robot_sf.sensor.sensor_fusion</title>
<polygon fill="#aaaa00" stroke="#aaaa00" points="600.12,-180 422.88,-180 422.88,-144 600.12,-144 600.12,-180"/>
<text xml:space="preserve" text-anchor="start" x="430.88" y="-156.95" font-family="Times,serif" font-size="14.00">robot_sf.sensor.sensor_fusion</text>
</g>
<!-- robot_sf.feature_extractor&#45;&gt;robot_sf.sensor.sensor_fusion -->
<g id="edge1" class="edge">
<title>robot_sf.feature_extractor&#45;&gt;robot_sf.sensor.sensor_fusion</title>
<path fill="none" stroke="black" d="M515.26,-108.3C514.74,-115.68 514.11,-124.48 513.52,-132.75"/>
<polygon fill="black" stroke="black" points="512.81,-142.68 509.03,-132.39 513.08,-138.91 513.52,-132.71 513.52,-132.71 513.52,-132.71 513.08,-138.91 518.01,-133.03 512.81,-142.68"/>
</g>
<!-- robot_sf.nav -->
<g id="node4" class="node">
<title>robot_sf.nav</title>
<polygon fill="#99ddff" stroke="#99ddff" points="1969.62,-36 1885.38,-36 1885.38,0 1969.62,0 1969.62,-36"/>
<text xml:space="preserve" text-anchor="start" x="1893.38" y="-12.95" font-family="Times,serif" font-size="14.00">robot_sf.nav</text>
</g>
<!-- robot_sf.nav.global_route -->
<g id="node5" class="node">
<title>robot_sf.nav.global_route</title>
<polygon fill="#99ddff" stroke="#99ddff" points="799.25,-396 643.75,-396 643.75,-360 799.25,-360 799.25,-396"/>
<text xml:space="preserve" text-anchor="start" x="651.75" y="-372.95" font-family="Times,serif" font-size="14.00">robot_sf.nav.global_route</text>
</g>
<!-- robot_sf.nav.map_config -->
<g id="node6" class="node">
<title>robot_sf.nav.map_config</title>
<polygon fill="#99ddff" stroke="#99ddff" points="797.75,-324 645.25,-324 645.25,-288 797.75,-288 797.75,-324"/>
<text xml:space="preserve" text-anchor="start" x="653.25" y="-300.95" font-family="Times,serif" font-size="14.00">robot_sf.nav.map_config</text>
</g>
<!-- robot_sf.nav.map_config&#45;&gt;robot_sf.nav.global_route -->
<g id="edge2" class="edge">
<title>robot_sf.nav.map_config&#45;&gt;robot_sf.nav.global_route</title>
<path fill="none" stroke="black" d="M721.5,-324.3C721.5,-331.68 721.5,-340.48 721.5,-348.75"/>
<polygon fill="black" stroke="black" points="721.5,-358.68 717,-348.68 721.5,-354.9 721.5,-348.68 721.5,-348.68 721.5,-348.68 721.5,-354.9 726,-348.68 721.5,-358.68"/>
</g>
<!-- robot_sf.nav.obstacle -->
<g id="node9" class="node">
<title>robot_sf.nav.obstacle</title>
<polygon fill="#99ddff" stroke="#99ddff" points="625.25,-396 493.75,-396 493.75,-360 625.25,-360 625.25,-396"/>
<text xml:space="preserve" text-anchor="start" x="501.75" y="-372.95" font-family="Times,serif" font-size="14.00">robot_sf.nav.obstacle</text>
</g>
<!-- robot_sf.nav.map_config&#45;&gt;robot_sf.nav.obstacle -->
<g id="edge3" class="edge">
<title>robot_sf.nav.map_config&#45;&gt;robot_sf.nav.obstacle</title>
<path fill="none" stroke="black" d="M681.04,-324.48C659.5,-333.79 632.81,-345.32 609.94,-355.21"/>
<polygon fill="black" stroke="black" points="600.84,-359.13 608.24,-351.04 604.32,-357.63 610.02,-355.17 610.02,-355.17 610.02,-355.17 604.32,-357.63 611.81,-359.3 600.84,-359.13"/>
</g>
<!-- robot_sf.nav.nav_types -->
<g id="node7" class="node">
<title>robot_sf.nav.nav_types</title>
<polygon fill="#99ddff" stroke="#99ddff" points="583.5,-468 441.5,-468 441.5,-432 583.5,-432 583.5,-468"/>
<text xml:space="preserve" text-anchor="start" x="449.5" y="-444.95" font-family="Times,serif" font-size="14.00">robot_sf.nav.nav_types</text>
</g>
<!-- robot_sf.nav.navigation -->
<g id="node8" class="node">
<title>robot_sf.nav.navigation</title>
<polygon fill="#99ddff" stroke="#99ddff" points="1276.62,-252 1132.38,-252 1132.38,-216 1276.62,-216 1276.62,-252"/>
<text xml:space="preserve" text-anchor="start" x="1140.38" y="-228.95" font-family="Times,serif" font-size="14.00">robot_sf.nav.navigation</text>
</g>
<!-- robot_sf.nav.navigation&#45;&gt;robot_sf.nav.map_config -->
<g id="edge4" class="edge">
<title>robot_sf.nav.navigation&#45;&gt;robot_sf.nav.map_config</title>
<path fill="none" stroke="black" d="M1131.93,-245.52C1045.63,-258.02 901.68,-278.89 809.23,-292.29"/>
<polygon fill="black" stroke="black" points="799.42,-293.71 808.67,-287.82 803.16,-293.17 809.32,-292.27 809.32,-292.27 809.32,-292.27 803.16,-293.17 809.96,-296.73 799.42,-293.71"/>
</g>
<!-- robot_sf.ped_npc.ped_zone -->
<g id="node17" class="node">
<title>robot_sf.ped_npc.ped_zone</title>
<polygon fill="#44bb99" stroke="#44bb99" points="1493.5,-324 1327.5,-324 1327.5,-288 1493.5,-288 1493.5,-324"/>
<text xml:space="preserve" text-anchor="start" x="1335.5" y="-300.95" font-family="Times,serif" font-size="14.00">robot_sf.ped_npc.ped_zone</text>
</g>
<!-- robot_sf.nav.navigation&#45;&gt;robot_sf.ped_npc.ped_zone -->
<g id="edge5" class="edge">
<title>robot_sf.nav.navigation&#45;&gt;robot_sf.ped_npc.ped_zone</title>
<path fill="none" stroke="black" d="M1255.95,-252.48C1284.2,-262.08 1319.42,-274.05 1349.1,-284.14"/>
<polygon fill="black" stroke="black" points="1358.19,-287.23 1347.28,-288.27 1354.61,-286.01 1348.73,-284.01 1348.73,-284.01 1348.73,-284.01 1354.61,-286.01 1350.17,-279.75 1358.19,-287.23"/>
</g>
<!-- robot_sf.nav.obstacle&#45;&gt;robot_sf.nav.nav_types -->
<g id="edge6" class="edge">
<title>robot_sf.nav.obstacle&#45;&gt;robot_sf.nav.nav_types</title>
<path fill="none" stroke="black" d="M547.88,-396.3C542.53,-404.27 536.07,-413.9 530.13,-422.74"/>
<polygon fill="black" stroke="black" points="524.66,-430.88 526.5,-420.07 526.77,-427.74 530.24,-422.58 530.24,-422.58 530.24,-422.58 526.77,-427.74 533.97,-425.09 524.66,-430.88"/>
</g>
<!-- robot_sf.nav.occupancy -->
<g id="node10" class="node">
<title>robot_sf.nav.occupancy</title>
<polygon fill="#99ddff" stroke="#99ddff" points="1238,-180 1093,-180 1093,-144 1238,-144 1238,-180"/>
<text xml:space="preserve" text-anchor="start" x="1101" y="-156.95" font-family="Times,serif" font-size="14.00">robot_sf.nav.occupancy</text>
</g>
<!-- robot_sf.nav.svg_map_parser -->
<g id="node11" class="node">
<title>robot_sf.nav.svg_map_parser</title>
<polygon fill="#99ddff" stroke="#99ddff" points="600.75,-252 424.25,-252 424.25,-216 600.75,-216 600.75,-252"/>
<text xml:space="preserve" text-anchor="start" x="432.25" y="-228.95" font-family="Times,serif" font-size="14.00">robot_sf.nav.svg_map_parser</text>
</g>
<!-- robot_sf.nav.svg_map_parser&#45;&gt;robot_sf.nav.global_route -->
<g id="edge7" class="edge">
<title>robot_sf.nav.svg_map_parser&#45;&gt;robot_sf.nav.global_route</title>
<path fill="none" stroke="black" d="M535.49,-252.19C560.15,-270.46 600.61,-299.97 636.5,-324 651.55,-334.08 668.43,-344.73 683.16,-353.82"/>
<polygon fill="black" stroke="black" points="691.44,-358.91 680.57,-357.51 688.22,-356.93 682.92,-353.68 682.92,-353.68 682.92,-353.68 688.22,-356.93 685.28,-349.84 691.44,-358.91"/>
</g>
<!-- robot_sf.nav.svg_map_parser&#45;&gt;robot_sf.nav.map_config -->
<g id="edge8" class="edge">
<title>robot_sf.nav.svg_map_parser&#45;&gt;robot_sf.nav.map_config</title>
<path fill="none" stroke="black" d="M564.7,-252.48C593.36,-262.08 629.09,-274.05 659.21,-284.14"/>
<polygon fill="black" stroke="black" points="668.45,-287.23 657.54,-288.32 664.86,-286.03 658.97,-284.06 658.97,-284.06 658.97,-284.06 664.86,-286.03 660.39,-279.79 668.45,-287.23"/>
</g>
<!-- robot_sf.nav.svg_map_parser&#45;&gt;robot_sf.nav.nav_types -->
<g id="edge9" class="edge">
<title>robot_sf.nav.svg_map_parser&#45;&gt;robot_sf.nav.nav_types</title>
<path fill="none" stroke="black" d="M504.91,-252.09C492.78,-281.67 471.67,-344.23 484.5,-396 486.72,-404.95 490.75,-414.05 495.09,-422.13"/>
<polygon fill="black" stroke="black" points="500,-430.67 491.11,-424.25 498.12,-427.39 495.01,-422 495.01,-422 495.01,-422 498.12,-427.39 498.91,-419.76 500,-430.67"/>
</g>
<!-- robot_sf.nav.svg_map_parser&#45;&gt;robot_sf.nav.obstacle -->
<g id="edge10" class="edge">
<title>robot_sf.nav.svg_map_parser&#45;&gt;robot_sf.nav.obstacle</title>
<path fill="none" stroke="black" d="M518.26,-252.41C526.27,-276.6 540.84,-320.64 550.35,-349.35"/>
<polygon fill="black" stroke="black" points="553.45,-358.73 546.04,-350.65 552.27,-355.14 550.31,-349.24 550.31,-349.24 550.31,-349.24 552.27,-355.14 554.58,-347.82 553.45,-358.73"/>
</g>
<!-- robot_sf.ped_npc -->
<g id="node12" class="node">
<title>robot_sf.ped_npc</title>
<polygon fill="#44bb99" stroke="#44bb99" points="2097.75,-36 1987.25,-36 1987.25,0 2097.75,0 2097.75,-36"/>
<text xml:space="preserve" text-anchor="start" x="1995.25" y="-12.95" font-family="Times,serif" font-size="14.00">robot_sf.ped_npc</text>
</g>
<!-- robot_sf.ped_npc.ped_behavior -->
<g id="node13" class="node">
<title>robot_sf.ped_npc.ped_behavior</title>
<polygon fill="#44bb99" stroke="#44bb99" points="1558.38,-180 1370.62,-180 1370.62,-144 1558.38,-144 1558.38,-180"/>
<text xml:space="preserve" text-anchor="start" x="1378.62" y="-156.95" font-family="Times,serif" font-size="14.00">robot_sf.ped_npc.ped_behavior</text>
</g>
<!-- robot_sf.ped_npc.ped_behavior&#45;&gt;robot_sf.nav.map_config -->
<g id="edge11" class="edge">
<title>robot_sf.ped_npc.ped_behavior&#45;&gt;robot_sf.nav.map_config</title>
<path fill="none" stroke="black" d="M1443.32,-180.3C1416.23,-201.35 1367,-236.04 1318.5,-252 1226.27,-282.36 951.2,-296.62 808.92,-302.12"/>
<polygon fill="black" stroke="black" points="799.29,-302.49 809.11,-297.61 803.07,-302.34 809.28,-302.11 809.28,-302.11 809.28,-302.11 803.07,-302.34 809.46,-306.6 799.29,-302.49"/>
</g>
<!-- robot_sf.ped_npc.ped_behavior&#45;&gt;robot_sf.nav.navigation -->
<g id="edge12" class="edge">
<title>robot_sf.ped_npc.ped_behavior&#45;&gt;robot_sf.nav.navigation</title>
<path fill="none" stroke="black" d="M1399.56,-180.48C1363.13,-190.29 1317.51,-202.57 1279.55,-212.79"/>
<polygon fill="black" stroke="black" points="1270.24,-215.3 1278.72,-208.36 1273.89,-214.32 1279.89,-212.7 1279.89,-212.7 1279.89,-212.7 1273.89,-214.32 1281.06,-217.05 1270.24,-215.3"/>
</g>
<!-- robot_sf.ped_npc.ped_grouping -->
<g id="node14" class="node">
<title>robot_sf.ped_npc.ped_grouping</title>
<polygon fill="#44bb99" stroke="#44bb99" points="1780.12,-252 1590.88,-252 1590.88,-216 1780.12,-216 1780.12,-252"/>
<text xml:space="preserve" text-anchor="start" x="1598.88" y="-228.95" font-family="Times,serif" font-size="14.00">robot_sf.ped_npc.ped_grouping</text>
</g>
<!-- robot_sf.ped_npc.ped_behavior&#45;&gt;robot_sf.ped_npc.ped_grouping -->
<g id="edge13" class="edge">
<title>robot_sf.ped_npc.ped_behavior&#45;&gt;robot_sf.ped_npc.ped_grouping</title>
<path fill="none" stroke="black" d="M1519.7,-180.48C1550.14,-190.12 1588.12,-202.16 1620.05,-212.27"/>
<polygon fill="black" stroke="black" points="1629.46,-215.25 1618.57,-216.52 1625.86,-214.11 1619.93,-212.23 1619.93,-212.23 1619.93,-212.23 1625.86,-214.11 1621.29,-207.94 1629.46,-215.25"/>
</g>
<!-- robot_sf.ped_npc.ped_behavior&#45;&gt;robot_sf.ped_npc.ped_zone -->
<g id="edge14" class="edge">
<title>robot_sf.ped_npc.ped_behavior&#45;&gt;robot_sf.ped_npc.ped_zone</title>
<path fill="none" stroke="black" d="M1457.88,-180.41C1448.64,-204.71 1431.79,-249.03 1420.87,-277.73"/>
<polygon fill="black" stroke="black" points="1417.44,-286.75 1416.79,-275.8 1418.78,-283.22 1420.99,-277.4 1420.99,-277.4 1420.99,-277.4 1418.78,-283.22 1425.2,-279 1417.44,-286.75"/>
</g>
<!-- robot_sf.ped_npc.ped_population -->
<g id="node15" class="node">
<title>robot_sf.ped_npc.ped_population</title>
<polygon fill="#44bb99" stroke="#44bb99" points="1606.62,-108 1408.38,-108 1408.38,-72 1606.62,-72 1606.62,-108"/>
<text xml:space="preserve" text-anchor="start" x="1416.38" y="-84.95" font-family="Times,serif" font-size="14.00">robot_sf.ped_npc.ped_population</text>
</g>
<!-- robot_sf.ped_npc.ped_population&#45;&gt;robot_sf.nav.map_config -->
<g id="edge15" class="edge">
<title>robot_sf.ped_npc.ped_population&#45;&gt;robot_sf.nav.map_config</title>
<path fill="none" stroke="black" d="M1432.92,-108.42C1408.54,-116.53 1382.38,-128.03 1361.5,-144 1338.19,-161.83 1310.89,-237.27 1285.5,-252 1206.71,-297.7 946.66,-305.02 808.9,-305.57"/>
<polygon fill="black" stroke="black" points="799.21,-305.59 809.19,-301.07 802.99,-305.58 809.21,-305.57 809.21,-305.57 809.21,-305.57 802.99,-305.58 809.22,-310.07 799.21,-305.59"/>
</g>
<!-- robot_sf.ped_npc.ped_population&#45;&gt;robot_sf.ped_npc.ped_behavior -->
<g id="edge16" class="edge">
<title>robot_sf.ped_npc.ped_population&#45;&gt;robot_sf.ped_npc.ped_behavior</title>
<path fill="none" stroke="black" d="M1496.87,-108.3C1492.03,-116.19 1486.19,-125.7 1480.81,-134.45"/>
<polygon fill="black" stroke="black" points="1475.64,-142.86 1477.04,-131.98 1477.62,-139.64 1480.88,-134.34 1480.88,-134.34 1480.88,-134.34 1477.62,-139.64 1484.71,-136.69 1475.64,-142.86"/>
</g>
<!-- robot_sf.ped_npc.ped_population&#45;&gt;robot_sf.ped_npc.ped_grouping -->
<g id="edge17" class="edge">
<title>robot_sf.ped_npc.ped_population&#45;&gt;robot_sf.ped_npc.ped_grouping</title>
<path fill="none" stroke="black" d="M1543.47,-108.36C1561.39,-117.77 1582.93,-130.27 1600.5,-144 1624.63,-162.85 1648.38,-188.48 1664.61,-207.4"/>
<polygon fill="black" stroke="black" points="1670.95,-214.9 1661.06,-210.16 1668.51,-212.01 1664.49,-207.26 1664.49,-207.26 1664.49,-207.26 1668.51,-212.01 1667.93,-204.36 1670.95,-214.9"/>
</g>
<!-- robot_sf.ped_npc.ped_population&#45;&gt;robot_sf.ped_npc.ped_zone -->
<g id="edge18" class="edge">
<title>robot_sf.ped_npc.ped_population&#45;&gt;robot_sf.ped_npc.ped_zone</title>
<path fill="none" stroke="black" d="M1536.39,-108.5C1548.38,-117.47 1560.99,-129.56 1567.5,-144 1574.08,-158.59 1574.45,-165.59 1567.5,-180 1544.93,-226.82 1495.36,-261.52 1457.91,-282.32"/>
<polygon fill="black" stroke="black" points="1449.26,-286.99 1455.93,-278.28 1452.59,-285.19 1458.07,-282.24 1458.07,-282.24 1458.07,-282.24 1452.59,-285.19 1460.2,-286.2 1449.26,-286.99"/>
</g>
<!-- robot_sf.ped_npc.ped_robot_force -->
<g id="node16" class="node">
<title>robot_sf.ped_npc.ped_robot_force</title>
<polygon fill="#44bb99" stroke="#44bb99" points="1894.25,-108 1690.75,-108 1690.75,-72 1894.25,-72 1894.25,-108"/>
<text xml:space="preserve" text-anchor="start" x="1698.75" y="-84.95" font-family="Times,serif" font-size="14.00">robot_sf.ped_npc.ped_robot_force</text>
</g>
<!-- robot_sf.robot -->
<g id="node18" class="node">
<title>robot_sf.robot</title>
<polygon fill="#bbcc33" stroke="#bbcc33" points="2209.12,-36 2115.88,-36 2115.88,0 2209.12,0 2209.12,-36"/>
<text xml:space="preserve" text-anchor="start" x="2123.88" y="-12.95" font-family="Times,serif" font-size="14.00">robot_sf.robot</text>
</g>
<!-- robot_sf.robot.bicycle_drive -->
<g id="node19" class="node">
<title>robot_sf.robot.bicycle_drive</title>
<polygon fill="#bbcc33" stroke="#bbcc33" points="826.75,-180 656.25,-180 656.25,-144 826.75,-144 826.75,-180"/>
<text xml:space="preserve" text-anchor="start" x="664.25" y="-156.95" font-family="Times,serif" font-size="14.00">robot_sf.robot.bicycle_drive</text>
</g>
<!-- robot_sf.robot.differential_drive -->
<g id="node20" class="node">
<title>robot_sf.robot.differential_drive</title>
<polygon fill="#bbcc33" stroke="#bbcc33" points="1036.25,-180 844.75,-180 844.75,-144 1036.25,-144 1036.25,-180"/>
<text xml:space="preserve" text-anchor="start" x="852.75" y="-156.95" font-family="Times,serif" font-size="14.00">robot_sf.robot.differential_drive</text>
</g>
<!-- robot_sf.robot.robot_state -->
<g id="node21" class="node">
<title>robot_sf.robot.robot_state</title>
<polygon fill="#bbcc33" stroke="#bbcc33" points="1014,-108 857,-108 857,-72 1014,-72 1014,-108"/>
<text xml:space="preserve" text-anchor="start" x="865" y="-84.95" font-family="Times,serif" font-size="14.00">robot_sf.robot.robot_state</text>
</g>
<!-- robot_sf.robot.robot_state&#45;&gt;robot_sf.nav.navigation -->
<g id="edge19" class="edge">
<title>robot_sf.robot.robot_state&#45;&gt;robot_sf.nav.navigation</title>
<path fill="none" stroke="black" d="M979.17,-108.45C1000.04,-117.68 1024.9,-129.99 1045.5,-144 1065.01,-157.26 1064.78,-167.06 1084.5,-180 1103.15,-192.24 1125.09,-202.87 1145.07,-211.33"/>
<polygon fill="black" stroke="black" points="1154.19,-215.09 1143.23,-215.44 1150.7,-213.65 1144.95,-211.28 1144.95,-211.28 1144.95,-211.28 1150.7,-213.65 1146.66,-207.12 1154.19,-215.09"/>
</g>
<!-- robot_sf.robot.robot_state&#45;&gt;robot_sf.nav.occupancy -->
<g id="edge20" class="edge">
<title>robot_sf.robot.robot_state&#45;&gt;robot_sf.nav.occupancy</title>
<path fill="none" stroke="black" d="M992.95,-108.48C1024.76,-118.17 1064.5,-130.26 1097.81,-140.4"/>
<polygon fill="black" stroke="black" points="1107.22,-143.26 1096.35,-144.66 1103.61,-142.16 1097.66,-140.35 1097.66,-140.35 1097.66,-140.35 1103.61,-142.16 1098.97,-136.05 1107.22,-143.26"/>
</g>
<!-- robot_sf.robot.robot_state&#45;&gt;robot_sf.robot.bicycle_drive -->
<g id="edge21" class="edge">
<title>robot_sf.robot.robot_state&#45;&gt;robot_sf.robot.bicycle_drive</title>
<path fill="none" stroke="black" d="M887.05,-108.48C860.67,-118 827.85,-129.84 800.06,-139.87"/>
<polygon fill="black" stroke="black" points="790.82,-143.2 798.7,-135.58 794.38,-141.92 800.22,-139.81 800.22,-139.81 800.22,-139.81 794.38,-141.92 801.75,-144.04 790.82,-143.2"/>
</g>
<!-- robot_sf.robot.robot_state&#45;&gt;robot_sf.robot.differential_drive -->
<g id="edge22" class="edge">
<title>robot_sf.robot.robot_state&#45;&gt;robot_sf.robot.differential_drive</title>
<path fill="none" stroke="black" d="M936.74,-108.3C937.26,-115.68 937.89,-124.48 938.48,-132.75"/>
<polygon fill="black" stroke="black" points="939.19,-142.68 933.99,-133.03 938.92,-138.91 938.48,-132.71 938.48,-132.71 938.48,-132.71 938.92,-138.91 942.97,-132.39 939.19,-142.68"/>
</g>
<!-- robot_sf.robot.robot_state&#45;&gt;robot_sf.sensor.sensor_fusion -->
<g id="edge23" class="edge">
<title>robot_sf.robot.robot_state&#45;&gt;robot_sf.sensor.sensor_fusion</title>
<path fill="none" stroke="black" d="M856.74,-104C787.47,-115.44 686.26,-132.15 611.33,-144.52"/>
<polygon fill="black" stroke="black" points="601.67,-146.11 610.8,-140.04 605.4,-145.5 611.54,-144.48 611.54,-144.48 611.54,-144.48 605.4,-145.5 612.27,-148.92 601.67,-146.11"/>
</g>
<!-- robot_sf.sensor -->
<g id="node22" class="node">
<title>robot_sf.sensor</title>
<polygon fill="#aaaa00" stroke="#aaaa00" points="2326.12,-36 2226.88,-36 2226.88,0 2326.12,0 2326.12,-36"/>
<text xml:space="preserve" text-anchor="start" x="2234.88" y="-12.95" font-family="Times,serif" font-size="14.00">robot_sf.sensor</text>
</g>
<!-- robot_sf.sensor.goal_sensor -->
<g id="node23" class="node">
<title>robot_sf.sensor.goal_sensor</title>
<polygon fill="#aaaa00" stroke="#aaaa00" points="2510.88,-36 2344.12,-36 2344.12,0 2510.88,0 2510.88,-36"/>
<text xml:space="preserve" text-anchor="start" x="2352.12" y="-12.95" font-family="Times,serif" font-size="14.00">robot_sf.sensor.goal_sensor</text>
</g>
<!-- robot_sf.sensor.image_sensor -->
<g id="node24" class="node">
<title>robot_sf.sensor.image_sensor</title>
<polygon fill="#aaaa00" stroke="#aaaa00" points="400.12,-180 222.88,-180 222.88,-144 400.12,-144 400.12,-180"/>
<text xml:space="preserve" text-anchor="start" x="230.88" y="-156.95" font-family="Times,serif" font-size="14.00">robot_sf.sensor.image_sensor</text>
</g>
<!-- robot_sf.sensor.image_sensor_fusion -->
<g id="node25" class="node">
<title>robot_sf.sensor.image_sensor_fusion</title>
<polygon fill="#aaaa00" stroke="#aaaa00" points="420.38,-108 202.62,-108 202.62,-72 420.38,-72 420.38,-108"/>
<text xml:space="preserve" text-anchor="start" x="210.62" y="-84.95" font-family="Times,serif" font-size="14.00">robot_sf.sensor.image_sensor_fusion</text>
</g>
<!-- robot_sf.sensor.image_sensor_fusion&#45;&gt;robot_sf.sensor.image_sensor -->
<g id="edge24" class="edge">
<title>robot_sf.sensor.image_sensor_fusion&#45;&gt;robot_sf.sensor.image_sensor</title>
<path fill="none" stroke="black" d="M311.5,-108.3C311.5,-115.68 311.5,-124.48 311.5,-132.75"/>
<polygon fill="black" stroke="black" points="311.5,-142.68 307,-132.68 311.5,-138.9 311.5,-132.68 311.5,-132.68 311.5,-132.68 311.5,-138.9 316,-132.68 311.5,-142.68"/>
</g>
<!-- robot_sf.sensor.image_sensor_fusion&#45;&gt;robot_sf.sensor.sensor_fusion -->
<g id="edge25" class="edge">
<title>robot_sf.sensor.image_sensor_fusion&#45;&gt;robot_sf.sensor.sensor_fusion</title>
<path fill="none" stroke="black" d="M361.45,-108.48C388.76,-118.04 422.78,-129.95 451.51,-140"/>
<polygon fill="black" stroke="black" points="460.69,-143.22 449.76,-144.16 457.12,-141.97 451.25,-139.91 451.25,-139.91 451.25,-139.91 457.12,-141.97 452.74,-135.66 460.69,-143.22"/>
</g>
<!-- robot_sf.sensor.range_sensor -->
<g id="node26" class="node">
<title>robot_sf.sensor.range_sensor</title>
<polygon fill="#aaaa00" stroke="#aaaa00" points="1205.25,-108 1031.75,-108 1031.75,-72 1205.25,-72 1205.25,-108"/>
<text xml:space="preserve" text-anchor="start" x="1039.75" y="-84.95" font-family="Times,serif" font-size="14.00">robot_sf.sensor.range_sensor</text>
</g>
<!-- robot_sf.sensor.range_sensor&#45;&gt;robot_sf.nav.occupancy -->
<g id="edge26" class="edge">
<title>robot_sf.sensor.range_sensor&#45;&gt;robot_sf.nav.occupancy</title>
<path fill="none" stroke="black" d="M1130.12,-108.3C1135.47,-116.27 1141.93,-125.9 1147.87,-134.74"/>
<polygon fill="black" stroke="black" points="1153.34,-142.88 1144.03,-137.09 1151.23,-139.74 1147.76,-134.58 1147.76,-134.58 1147.76,-134.58 1151.23,-139.74 1151.5,-132.07 1153.34,-142.88"/>
</g>
<!-- robot_sf.sim -->
<g id="node28" class="node">
<title>robot_sf.sim</title>
<polygon fill="#eedd88" stroke="#eedd88" points="2614,-36 2529,-36 2529,0 2614,0 2614,-36"/>
<text xml:space="preserve" text-anchor="start" x="2537" y="-12.95" font-family="Times,serif" font-size="14.00">robot_sf.sim</text>
</g>
<!-- robot_sf.sim.sim_config -->
<g id="node29" class="node">
<title>robot_sf.sim.sim_config</title>
<polygon fill="#eedd88" stroke="#eedd88" points="1867.62,-36 1717.38,-36 1717.38,0 1867.62,0 1867.62,-36"/>
<text xml:space="preserve" text-anchor="start" x="1725.38" y="-12.95" font-family="Times,serif" font-size="14.00">robot_sf.sim.sim_config</text>
</g>
<!-- robot_sf.sim.sim_config&#45;&gt;robot_sf.ped_npc.ped_robot_force -->
<g id="edge27" class="edge">
<title>robot_sf.sim.sim_config&#45;&gt;robot_sf.ped_npc.ped_robot_force</title>
<path fill="none" stroke="black" d="M1792.5,-36.3C1792.5,-43.68 1792.5,-52.48 1792.5,-60.75"/>
<polygon fill="black" stroke="black" points="1792.5,-70.68 1788,-60.68 1792.5,-66.9 1792.5,-60.68 1792.5,-60.68 1792.5,-60.68 1792.5,-66.9 1797,-60.68 1792.5,-70.68"/>
</g>
<!-- robot_sf.sim.simulator -->
<g id="node30" class="node">
<title>robot_sf.sim.simulator</title>
<polygon fill="#eedd88" stroke="#eedd88" points="1412.75,-36 1272.25,-36 1272.25,0 1412.75,0 1412.75,-36"/>
<text xml:space="preserve" text-anchor="start" x="1280.25" y="-12.95" font-family="Times,serif" font-size="14.00">robot_sf.sim.simulator</text>
</g>
<!-- robot_sf.sim.simulator&#45;&gt;robot_sf.nav.map_config -->
<g id="edge28" class="edge">
<title>robot_sf.sim.simulator&#45;&gt;robot_sf.nav.map_config</title>
<path fill="none" stroke="black" d="M1271.99,-19.83C1109.81,-23.48 718.74,-42.82 647.5,-144 616.56,-187.94 662.31,-246.89 694.49,-279.89"/>
<polygon fill="black" stroke="black" points="701.46,-286.84 691.2,-282.97 698.78,-284.17 694.38,-279.78 694.38,-279.78 694.38,-279.78 698.78,-284.17 697.55,-276.59 701.46,-286.84"/>
</g>
<!-- robot_sf.sim.simulator&#45;&gt;robot_sf.nav.navigation -->
<g id="edge29" class="edge">
<title>robot_sf.sim.simulator&#45;&gt;robot_sf.nav.navigation</title>
<path fill="none" stroke="black" d="M1333.32,-36.44C1317.23,-66.55 1282.32,-129.9 1247.5,-180 1241.08,-189.24 1233.5,-198.93 1226.51,-207.45"/>
<polygon fill="black" stroke="black" points="1220.29,-214.9 1223.24,-204.34 1222.71,-212 1226.69,-207.22 1226.69,-207.22 1226.69,-207.22 1222.71,-212 1230.15,-210.11 1220.29,-214.9"/>
</g>
<!-- robot_sf.sim.simulator&#45;&gt;robot_sf.nav.occupancy -->
<g id="edge30" class="edge">
<title>robot_sf.sim.simulator&#45;&gt;robot_sf.nav.occupancy</title>
<path fill="none" stroke="black" d="M1311.16,-36.39C1294.64,-46.08 1274.36,-58.83 1257.5,-72 1232.44,-91.58 1206.65,-117.07 1188.78,-135.76"/>
<polygon fill="black" stroke="black" points="1181.99,-142.93 1185.6,-132.57 1184.59,-140.18 1188.87,-135.67 1188.87,-135.67 1188.87,-135.67 1184.59,-140.18 1192.14,-138.76 1181.99,-142.93"/>
</g>
<!-- robot_sf.sim.simulator&#45;&gt;robot_sf.ped_npc.ped_behavior -->
<g id="edge31" class="edge">
<title>robot_sf.sim.simulator&#45;&gt;robot_sf.ped_npc.ped_behavior</title>
<path fill="none" stroke="black" d="M1351.35,-36.18C1361.5,-54.96 1379.35,-85.4 1399.5,-108 1408.74,-118.36 1420.1,-128.35 1430.74,-136.81"/>
<polygon fill="black" stroke="black" points="1438.47,-142.79 1427.81,-140.23 1435.48,-140.48 1430.56,-136.67 1430.56,-136.67 1430.56,-136.67 1435.48,-140.48 1433.31,-133.11 1438.47,-142.79"/>
</g>
<!-- robot_sf.sim.simulator&#45;&gt;robot_sf.ped_npc.ped_grouping -->
<g id="edge32" class="edge">
<title>robot_sf.sim.simulator&#45;&gt;robot_sf.ped_npc.ped_grouping</title>
<path fill="none" stroke="black" d="M1413.23,-25.26C1483.46,-32.76 1584.95,-47.49 1615.5,-72 1657.11,-105.39 1674.55,-168.4 1681.41,-204.91"/>
<polygon fill="black" stroke="black" points="1683.08,-214.55 1676.94,-205.47 1682.44,-210.83 1681.38,-204.7 1681.38,-204.7 1681.38,-204.7 1682.44,-210.83 1685.81,-203.93 1683.08,-214.55"/>
</g>
<!-- robot_sf.sim.simulator&#45;&gt;robot_sf.ped_npc.ped_population -->
<g id="edge33" class="edge">
<title>robot_sf.sim.simulator&#45;&gt;robot_sf.ped_npc.ped_population</title>
<path fill="none" stroke="black" d="M1383.71,-36.48C1405.75,-45.83 1433.07,-57.43 1456.44,-67.34"/>
<polygon fill="black" stroke="black" points="1465.41,-71.14 1454.44,-71.38 1461.93,-69.67 1456.2,-67.24 1456.2,-67.24 1456.2,-67.24 1461.93,-69.67 1457.96,-63.09 1465.41,-71.14"/>
</g>
<!-- robot_sf.sim.simulator&#45;&gt;robot_sf.ped_npc.ped_robot_force -->
<g id="edge34" class="edge">
<title>robot_sf.sim.simulator&#45;&gt;robot_sf.ped_npc.ped_robot_force</title>
<path fill="none" stroke="black" d="M1412.81,-29.94C1484.21,-41.04 1595.89,-58.42 1679.68,-71.45"/>
<polygon fill="black" stroke="black" points="1689.32,-72.95 1678.75,-75.86 1685.59,-72.37 1679.44,-71.41 1679.44,-71.41 1679.44,-71.41 1685.59,-72.37 1680.14,-66.97 1689.32,-72.95"/>
</g>
<!-- robot_sf.sim.simulator&#45;&gt;robot_sf.ped_npc.ped_zone -->
<g id="edge35" class="edge">
<title>robot_sf.sim.simulator&#45;&gt;robot_sf.ped_npc.ped_zone</title>
<path fill="none" stroke="black" d="M1343.09,-36.18C1344.42,-65.9 1348.64,-128.67 1361.5,-180 1370.19,-214.66 1386.04,-252.64 1397.37,-277.53"/>
<polygon fill="black" stroke="black" points="1401.54,-286.56 1393.26,-279.38 1399.96,-283.13 1397.34,-277.49 1397.34,-277.49 1397.34,-277.49 1399.96,-283.13 1401.43,-275.6 1401.54,-286.56"/>
</g>
<!-- robot_sf.sim.simulator&#45;&gt;robot_sf.robot.robot_state -->
<g id="edge36" class="edge">
<title>robot_sf.sim.simulator&#45;&gt;robot_sf.robot.robot_state</title>
<path fill="none" stroke="black" d="M1271.86,-30.1C1209.48,-40.04 1115.79,-55.3 1025.23,-71.53"/>
<polygon fill="black" stroke="black" points="1015.4,-73.3 1024.45,-67.1 1019.12,-72.63 1025.24,-71.53 1025.24,-71.53 1025.24,-71.53 1019.12,-72.63 1026.04,-75.96 1015.4,-73.3"/>
</g>
<!-- robot_sf.tb_logging -->
<g id="node31" class="node">
<title>robot_sf.tb_logging</title>
<polygon fill="#77aadd" stroke="#77aadd" points="202.12,-36 78.88,-36 78.88,0 202.12,0 202.12,-36"/>
<text xml:space="preserve" text-anchor="start" x="86.88" y="-12.95" font-family="Times,serif" font-size="14.00">robot_sf.tb_logging</text>
</g>
<!-- robot_sf.tb_logging&#45;&gt;robot_sf.eval -->
<g id="edge37" class="edge">
<title>robot_sf.tb_logging&#45;&gt;robot_sf.eval</title>
<path fill="none" stroke="black" d="M140.5,-36.3C140.5,-43.68 140.5,-52.48 140.5,-60.75"/>
<polygon fill="black" stroke="black" points="140.5,-70.68 136,-60.68 140.5,-66.9 140.5,-60.68 140.5,-60.68 140.5,-60.68 140.5,-66.9 145,-60.68 140.5,-70.68"/>
</g>
</g>
</svg>
